<?xml version="1.0" encoding="UTF-8"?>

<svg width="11px" height="14px" viewBox="0 0 11 14" version="1.1" xmlns="http://www.w3.org/2000/svg" xmlns:xlink="http://www.w3.org/1999/xlink">
    <g id="Page-1" stroke="none" stroke-width="1" fill="none" fill-rule="evenodd">
        <g id="Group-11" transform="translate(0.362350, 0.927633)" fill-rule="nonzero">
            <path d="M0.0260872503,7.91083739 C0.0209565158,6.16655344 0.0274837475,4.42209717 0.00169967969,2.67811886 C-0.00404698698,2.28942056 0.170479115,2.23589366 0.524274143,2.26913547 C0.574006572,2.26903672 0.573301827,2.27124926 0.574001714,2.31776914 C0.576214821,2.519374 0.577728041,2.67445931 0.577972787,2.87766236 C0.577578437,3.08571174 0.578452335,3.24564236 0.577967024,3.45169762 C0.577513804,3.65171491 0.578420019,3.80560847 0.578196064,4.0127922 C0.576348945,5.35159016 0.575631883,6.63709739 0.529073578,7.92176417 C0.330850979,7.91756067 0.178469058,7.91419864 0.0260872503,7.91083739 Z" id="Path" fill="#796651"></path>
            <path d="M9.03388635,3.39299739 C9.03920804,4.95042101 9.03421742,6.50799773 9.05729618,8.06515796 C9.06287979,8.44185785 8.89632363,8.52146135 8.5335033,8.48449626 C8.48502341,8.48471095 8.48592171,8.48561005 8.48566047,8.43842847 C8.48530273,8.23399174 8.48520533,8.07673491 8.48510363,7.8712792 C8.48205019,7.66245446 8.47900092,7.50183027 8.4795355,7.28961412 C8.47757335,6.71119479 8.47202759,6.18436575 8.47389403,5.60556282 C8.47974669,5.02880982 8.47818714,4.50403253 8.4791294,3.93055638 C8.48138115,3.71940191 8.48113121,3.55694711 8.4821355,3.39564316 C8.48338985,3.39679446 8.47970183,3.39560824 8.52600488,3.39689785 C8.72616657,3.39645773 8.88002691,3.39472756 9.03388635,3.39299739 Z" id="Path" fill="#4F3D2F"></path>
            <path d="M2.26823245,0.0286542293 C2.98914341,0.0240746813 3.71005437,0.0194951333 4.48194691,0.0671926474 C4.45311776,0.602694794 4.77394974,0.59205276 5.09653256,0.576447789 C5.09527742,0.575192195 5.09276793,0.572680331 5.09363606,0.624333664 C5.09365934,1.02144575 5.09281448,1.36690474 5.04470104,1.70981592 C4.83985346,1.70072011 4.68227414,1.69417174 4.5263642,1.64128926 C4.42234024,1.44183841 4.32398228,1.28284869 4.20798793,1.13798033 C4.14612861,1.06072248 3.98722036,1.00900259 3.98610657,0.943808693 C3.97928488,0.544569032 3.71244409,0.570912986 3.44390104,0.574194794 C3.05317471,0.578969597 2.66236092,0.576638297 2.27125313,0.531531291 C2.2700251,0.33336858 2.26912861,0.181011291 2.26823245,0.0286542293 Z" id="Path" fill="#735844"></path>
            <path d="M6.78353742,0.0275182971 C7.12612917,0.023201574 7.46872171,0.0188851898 7.86448646,0.0662316305 C7.85230183,0.590563721 8.15560002,0.600087224 8.48857177,0.572330952 C8.48857177,0.572330952 8.48510793,0.575200331 8.48560702,0.624816602 C8.49175369,1.01203705 8.49740115,1.34964078 8.49527618,1.69500926 C8.48750363,1.702774 8.47196725,1.71831129 8.42193313,1.71348361 C8.03413911,1.70990508 7.69638024,1.71115389 7.35756273,1.66051491 C7.35650578,1.28298666 7.35650578,0.957345529 7.35650578,0.60619728 C7.11329279,0.59186632 6.95048759,0.582273325 6.78893753,0.573936602 C6.79019267,0.575192873 6.79270476,0.577703382 6.79184443,0.531762139 C6.78850126,0.333053325 6.78601934,0.180285868 6.78353742,0.0275182971 Z" id="Path" fill="#735844"></path>
            <path d="M5.08862386,0.0275186361 C5.43530443,0.0233453028 5.78198409,0.0191718564 6.17825403,0.0672337774 C6.14803132,0.602697054 6.46886669,0.592051404 6.79270476,0.577703382 C6.79270476,0.577703382 6.79019267,0.575192873 6.78981426,0.625483495 C6.78994013,1.01878756 6.79044443,1.36180123 6.73954725,1.70492977 C6.34526104,1.70496632 6.00237708,1.70489084 5.6597268,1.65339457 C5.65996036,1.27798011 5.65996036,0.953985981 5.65996036,0.605354116 C5.41734307,0.591377958 5.25505595,0.582029145 5.09276793,0.572680331 C5.09276793,0.572680331 5.09527742,0.575192195 5.09566273,0.530490388 C5.09357313,0.333031969 5.0910981,0.180275359 5.08862386,0.0275186361 Z" id="Path" fill="#735844"></path>
            <path d="M0.573644538,2.26775095 C0.572520358,2.04259626 0.591299002,1.81654598 0.566613917,1.59534655 C0.525106346,1.22340666 0.676268267,1.07894169 1.08884962,1.13739841 C1.13942273,1.13868677 1.14161787,1.1379557 1.14225448,1.18670542 C1.09177267,1.60094011 1.25260962,1.73181265 1.61448217,1.71050259 C2.02009911,1.6866157 2.42821008,1.7050922 2.8353033,1.75225513 C2.83564002,1.9565505 2.83590895,2.11372553 2.78908985,2.27054542 C2.58579369,2.2713505 2.42958589,2.27251174 2.22052928,2.27257818 C1.6362207,2.2714053 1.10476115,2.27132722 0.573301827,2.27124926 C0.573301827,2.27124926 0.574006572,2.26903672 0.573644538,2.26775095 Z" id="Path" fill="#735844"></path>
            <path d="M7.9272207,10.760442 C8.65172013,10.760442 9.37621945,10.760442 10.143284,10.760442 C10.1548807,10.9321121 10.1653385,11.0869302 10.1801732,11.3065274 C9.43807878,11.3065274 8.73480804,11.3065274 7.97654544,11.2559597 C7.92344228,11.0570755 7.92533188,10.9087584 7.9272207,10.760442 Z" id="Path" fill="#7F7F7F"></path>
            <path d="M1.12805991,9.62847694 C0.967642618,9.61367163 0.807225329,9.59886542 0.57114951,9.57707638 C0.57114951,9.24178474 0.57114951,8.92053898 0.573793013,8.54165547 C0.576436855,8.48401785 0.590679454,8.46961943 0.635933804,8.47493672 C0.834168493,8.48176779 0.987148945,8.48328157 1.18736296,8.48479626 C1.39201505,8.48521615 1.54943313,8.48563683 1.70639301,8.53284598 C1.70501629,8.73616892 1.70409821,8.89270157 1.65568736,9.04841107 C1.11426409,8.96524462 1.12070081,9.29647931 1.12805991,9.62847694 Z" id="Path" fill="#4F3D2F"></path>
            <path d="M9.03998307,3.34120327 C8.88002691,3.39472756 8.72616657,3.39645773 8.52802217,3.34599559 C8.47817945,2.95356971 8.47262239,2.61333581 8.47351211,2.22710349 C8.47729493,2.02684011 8.47463109,1.87257592 8.47196725,1.71831129 C8.47196725,1.71831129 8.48750363,1.702774 8.53891798,1.70124214 C8.73823143,1.70393909 8.88613041,1.70816847 9.03402951,1.71239739 C9.0380468,2.2380679 9.04206409,2.7637383 9.03998307,3.34120327 Z" id="Path" fill="#735844"></path>
            <path d="M1.13292793,9.67470768 C1.12070081,9.29647931 1.11426409,8.96524462 1.70325211,9.0485922 C1.95581301,9.04966203 2.11331561,9.04972575 2.27064623,9.09682372 C2.27084714,9.30063717 2.27122002,9.45741559 2.22451041,9.61463378 C1.73010239,9.55054768 1.64965493,9.78863649 1.71945652,10.1675769 C1.7098129,10.1765443 1.69036013,10.1942997 1.69036013,10.1942997 C1.36744669,10.1984497 1.04570815,10.2012281 1.13292793,9.67470768 Z" id="Path" fill="#796651"></path>
            <path d="M7.91883358,9.04847231 C7.91883358,9.21143705 7.91883358,9.3744018 7.91883358,9.61842688 C7.361499,9.61842688 6.85128556,9.61842688 6.28528024,9.57473242 C6.22473471,9.37321818 6.21998205,9.2153992 6.26873437,9.05501287 C6.85514341,9.05182406 7.38804669,9.05120248 7.92050002,9.05013186 C7.92005087,9.04968349 7.91883358,9.04847231 7.91883358,9.04847231 Z" id="Path" fill="#4F3D2F"></path>
            <path d="M2.22054137,0.0217239468 C2.26912861,0.181011291 2.2700251,0.33336858 2.26940827,0.579500896 C2.31786578,1.03543389 2.15630149,1.17315389 1.79994793,1.14055491 C1.58224725,1.12063954 1.36117539,1.13757253 1.14161787,1.1379557 C1.14161787,1.1379557 1.13942273,1.13868677 1.13809708,1.13836824 C1.14519121,0.972388354 1.15361041,0.80672745 1.16338917,0.614322817 C1.34032782,0.589204851 1.49962657,0.566591178 1.68717256,0.539967676 C1.66838578,0.180494907 1.75198454,-0.0784697255 2.22054137,0.0217239468 Z" id="Path" fill="#796651"></path>
            <path d="M5.66513979,11.3175362 C5.66313708,11.46913 5.66113539,11.6207239 5.6072425,11.8215951 C5.40141878,11.8750526 5.24748691,11.8792337 5.0957981,11.8789372 C5.09804296,11.8744629 5.09874646,11.8644732 5.09761878,11.818402 C5.09556533,11.6179705 5.09464126,11.4636085 5.09443685,11.262239 C5.09561279,11.0580522 5.09606793,10.9008755 5.1424538,10.7440074 C5.34059301,10.7393651 5.4928025,10.7344124 5.65267753,10.7371194 C5.66034397,10.7447781 5.67567087,10.7601042 5.67008375,10.8060262 C5.66471041,11.0071439 5.6649251,11.1623404 5.66513979,11.3175362 Z" id="Path" fill="#A88677"></path>
            <path d="M7.88001505,10.7539929 C7.92533188,10.9087584 7.92344228,11.0570755 7.92439652,11.2496458 C7.76940352,11.299429 7.61156815,11.3049593 7.35837392,11.311136 C7.10206341,11.3124267 6.94111154,11.3130714 6.78015979,11.3137163 C6.78015979,11.3137163 6.78793313,11.3097025 6.78822544,11.2654019 C6.78790985,11.0593928 6.78730296,10.897685 6.78669606,10.7359763 C6.78669606,10.7359763 6.78793493,10.7446358 6.83240691,10.7432341 C7.03772476,10.741941 7.19857041,10.7420496 7.35941618,10.7421591 C7.51721358,10.743954 7.67501188,10.7457488 7.88001505,10.7539929 Z" id="Path" fill="#675549"></path>
            <path d="M2.28601844,11.8668095 C2.28038815,11.7103646 2.27475798,11.5539198 2.26624748,11.3522348 C2.26336691,11.3069964 2.2617216,11.303286 2.31342002,11.3051249 C2.70646397,11.3053463 3.04780917,11.3037282 3.39397154,11.349521 C3.39870736,11.5551525 3.39862589,11.7133715 3.39854488,11.8715923 C3.39854488,11.8715923 3.40859674,11.8741441 3.35806002,11.8760681 C2.96702205,11.8742647 2.62652002,11.8705371 2.28601844,11.8668095 Z" id="Path" fill="#536082"></path>
            <path d="M2.28075279,11.9159065 C2.62652002,11.8705371 2.96702205,11.8742647 3.3593677,11.8810854 C3.39650872,12.0481994 3.38180544,12.2122184 3.36792126,12.3671011 C2.43087561,12.5466756 2.32053991,12.5042992 2.28075279,11.9159065 Z" id="Path" fill="#4F3D2F"></path>
            <path d="M6.21522861,9.05758022 C6.21998205,9.2153992 6.22473471,9.37321818 6.23341064,9.57861785 C6.23159256,9.78115886 6.225852,9.93611999 6.16930307,10.1358774 C5.97044307,10.1810012 5.82239143,10.181327 5.67034409,10.1301653 C5.6654294,9.73302474 5.66451132,9.38737265 5.70964974,9.04373084 C5.90888036,9.049687 6.06205448,9.05363355 6.21522861,9.05758022 Z" id="Path" fill="#946754"></path>
            <path d="M9.03953132,1.66060971 C8.88613041,1.70816847 8.73823143,1.70393909 8.54669053,1.69347739 C8.49740115,1.34964078 8.49175369,1.01203705 8.4870364,0.623079766 C8.65113222,0.581305416 8.81429776,0.590884173 9.04503392,0.604429823 C9.04503392,0.955091178 9.04503392,1.28195604 9.03953132,1.66060971 Z" id="Path" fill="#4F3D2F"></path>
            <path d="M8.4873433,0.525036037 C8.15560002,0.600087224 7.85230183,0.590563721 7.91526024,0.0720842858 C8.26450296,-0.0271049797 8.55771652,-0.00629503621 8.4873433,0.525036037 Z" id="Path" fill="#4F3D2F"></path>
            <path d="M6.79184443,0.531762139 C6.46886669,0.592051404 6.14803132,0.602697054 6.22987267,0.0734909525 C6.38536149,0.02288067 6.53882092,0.0182483536 6.73790928,0.0205671107 C6.78601934,0.180285868 6.78850126,0.333053325 6.79184443,0.531762139 Z" id="Path" fill="#928172"></path>
            <path d="M5.04299584,0.0205718564 C5.0910981,0.180275359 5.09357313,0.333031969 5.09691878,0.531745981 C4.77394974,0.59205276 4.45311776,0.602694794 4.53495663,0.0734914045 C4.69044623,0.0228839468 4.84390782,0.0182545683 5.04299584,0.0205718564 Z" id="Path" fill="#928172"></path>
            <path d="M0.0209186627,7.95845773 C0.178469058,7.91419864 0.330850979,7.91756067 0.529283973,7.96754914 C0.580449849,8.16599016 0.585564538,8.31780474 0.590679454,8.46961943 C0.590679454,8.46961943 0.576436855,8.48401785 0.569322279,8.49129118 C0.221883747,8.50990688 -0.083926535,8.482954 0.0209186627,7.95845773 Z" id="Path" fill="#4F3D2F"></path>
            <path d="M8.48441821,8.48410225 C8.51374273,8.82702417 8.49703652,9.13183016 7.96638669,9.04892575 C7.91883358,9.04847231 7.92005087,9.04968349 7.92023968,9.00256745 C7.92002149,8.79658078 7.9196155,8.63771005 7.91982239,8.48196688 C7.92043448,8.48509287 7.91418183,8.48386869 7.96192714,8.48417638 C8.1684225,8.4848592 8.32717166,8.48523423 8.48592171,8.48561005 C8.48592171,8.48561005 8.48502341,8.48471095 8.48441821,8.48410225 Z" id="Path" fill="#4F3D2F"></path>
            <path d="M5.09355493,11.8834131 C5.24748691,11.8792337 5.40141878,11.8750526 5.60131234,11.866525 C5.68738228,12.2038218 5.69371245,12.5188494 5.1456625,12.3874117 C5.09532228,12.1869923 5.09443866,12.0352044 5.09355493,11.8834131 Z" id="Path" fill="#4F3D2F"></path>
            <path d="M5.095799,11.8789389 C5.09443866,12.0352044 5.09532228,12.1869923 5.09841539,12.3840738 C4.76764454,12.4674264 4.46082341,12.471392 4.52941087,11.9312308 C4.53186736,11.8732199 4.53812341,11.8490644 4.5839425,11.8589714 C4.78608996,11.8674112 4.94241798,11.8659421 5.09874646,11.8644749 C5.09874646,11.8644732 5.09804296,11.8744629 5.095799,11.8789389 Z" id="Path" fill="#352620"></path>
            <path d="M7.35670928,10.6941836 C7.19857041,10.7420496 7.03772476,10.741941 6.828519,10.7412315 C6.79000646,10.5772219 6.79985313,10.4138149 6.81024205,10.2414286 C7.22333889,10.0860165 7.40834341,10.2058575 7.35670928,10.6941836 Z" id="Path" fill="#928172"></path>
            <path d="M1.72215053,10.7496816 C1.71561041,10.5950575 1.70907064,10.4404342 1.6964451,10.2400552 C1.69036013,10.1942997 1.7098129,10.1765443 1.76417346,10.1748821 C1.97043346,10.1776916 2.12233335,10.1821624 2.27296352,10.2340363 C2.26855957,10.440029 2.26542465,10.5986162 2.2174181,10.7525514 C2.02241426,10.7484928 1.87228194,10.7490877 1.72215053,10.7496816 Z" id="Path" fill="#536082"></path>
            <path d="M5.6743407,10.1816538 C5.82239143,10.181327 5.97044307,10.1810012 6.16247019,10.1821365 C6.21287945,10.3387262 6.21931392,10.4938529 6.18082047,10.6963758 C5.98248465,10.749216 5.82907776,10.7546601 5.67567087,10.7601042 C5.67567087,10.7601042 5.66034397,10.7447781 5.65810092,10.691925 C5.662019,10.4865994 5.66818024,10.3341262 5.6743407,10.1816538 Z" id="Path" fill="#A88677"></path>
            <path d="M3.44511346,11.8723423 C3.39862589,11.7133715 3.39870736,11.5551525 3.40030872,11.3514797 C3.40182815,11.3060265 3.41220759,11.3139688 3.45826454,11.3123146 C3.659059,11.3129395 3.81379561,11.3152189 3.9657494,11.3624781 C3.95995934,11.5570456 3.95695279,11.7066336 3.95394589,11.8562197 C3.79985798,11.8618438 3.64577053,11.8674681 3.44511346,11.8723423 Z" id="Path" fill="#946754"></path>
            <path d="M4.00157572,11.8606991 C3.95695279,11.7066336 3.95995934,11.5570456 3.96697403,11.3591245 C3.97098228,11.3107913 3.96687618,11.3051187 4.01415685,11.305667 C4.21985098,11.3041411 4.37826431,11.3020679 4.53466522,11.3033377 C4.53265267,11.3066809 4.52824793,11.3131223 4.53009234,11.358059 C4.53399878,11.5516853 4.53606137,11.7003748 4.53812341,11.8490644 C4.53812341,11.8490644 4.53186736,11.8732199 4.52813414,11.8852304 C4.36600217,11.8865545 4.20760386,11.8758647 4.00157572,11.8606991 Z" id="Path" fill="#304050"></path>
            <path d="M6.78521505,11.3614763 C6.94111154,11.3130714 7.10206341,11.3124267 7.31121482,11.3119809 C7.35202556,11.475743 7.34463584,11.6393052 7.33683572,11.8119691 C6.92379324,11.9681071 6.73753087,11.8499955 6.78521505,11.3614763 Z" id="Path" fill="#928172"></path>
            <path d="M1.71479448,10.7976855 C1.87228194,10.7490877 2.02241426,10.7484928 2.22063878,10.7979855 C2.26639539,10.9998094 2.26405866,11.1515481 2.2617216,11.303286 C2.2617216,11.303286 2.26336691,11.3069964 2.26357855,11.3051136 C2.1035207,11.3032299 1.94325121,11.3032299 1.73183301,11.3032299 C1.72365572,11.1498593 1.71554748,10.997774 1.71479448,10.7976855 Z" id="Path" fill="#EFB385"></path>
            <path d="M5.67008375,10.8060262 C5.82907776,10.7546601 5.98248465,10.749216 6.1822825,10.7430358 C6.22867437,10.7423004 6.22682782,10.7396522 6.226739,10.7854545 C6.22501572,10.9843255 6.22338217,11.1373928 6.22174759,11.2904609 C6.06707267,11.2972143 5.91239855,11.3039679 5.71143166,11.3141293 C5.6649251,11.1623404 5.66471041,11.0071439 5.67008375,10.8060262 Z" id="Path" fill="#EBA069"></path>
            <path d="M6.26843346,11.2974963 C6.22338217,11.1373928 6.22501572,10.9843255 6.2282477,10.7848604 C6.38466669,10.740685 6.53948736,10.7429065 6.7405025,10.7405522 C6.78730296,10.897685 6.78790985,11.0593928 6.78761166,11.2697322 C6.62951075,11.3137533 6.47231584,11.3091429 6.26843346,11.2974963 Z" id="Path" fill="#928172"></path>
            <path d="M0.635933804,8.47493672 C0.585564538,8.31780474 0.580449849,8.16599016 0.575124764,7.96839061 C0.575631883,6.63709739 0.576348945,5.35159016 0.625957872,4.01475468 C0.834613578,3.96700632 0.99437742,3.97058609 1.14920612,4.02450395 C1.14321719,4.41366078 1.14216352,4.75247841 1.14090318,5.1444818 C1.14050748,6.29337728 1.14031844,7.38908677 1.14012951,8.48479626 C0.987148945,8.48328157 0.834168493,8.48176779 0.635933804,8.47493672 Z" id="Path" fill="#735844"></path>
            <path d="M0.574001714,2.31776914 C1.10476115,2.27132722 1.6362207,2.2714053 2.21920476,2.31894632 C2.27044104,2.52244429 2.27015267,2.67847999 2.22285606,2.83475852 C2.01901335,2.83502745 1.86217798,2.83505333 1.65408386,2.83507875 C1.26163041,2.83323389 0.920435838,2.83138903 0.579241375,2.82954417 C0.577728041,2.67445931 0.576214821,2.519374 0.574001714,2.31776914 Z" id="Path" fill="#4F3D2F"></path>
            <path d="M0.577972787,2.87766236 C0.920435838,2.83138903 1.26163041,2.83323389 1.65413211,2.88210259 C1.70456669,3.08530519 1.70369426,3.24148372 1.65172646,3.39838711 C1.26019629,3.40126564 0.919761262,3.40341954 0.579326346,3.40557344 C0.578452335,3.24564236 0.577578437,3.08571174 0.577972787,2.87766236 Z" id="Path" fill="#735844"></path>
            <path d="M0.577967024,3.45169762 C0.919761262,3.40341954 1.26019629,3.40126564 1.65293426,3.44604496 C1.70411798,3.65182655 1.70299821,3.81067525 1.65618601,3.96780587 C1.45837652,3.96878044 1.30625889,3.97147321 1.15414149,3.97416587 C0.99437742,3.97058609 0.834613578,3.96700632 0.627087815,3.9614644 C0.578420019,3.80560847 0.577513804,3.65171491 0.577967024,3.45169762 Z" id="Path" fill="#4F3D2F"></path>
            <path d="M8.46706544,2.27310225 C8.47262239,2.61333581 8.47817945,2.95356971 8.48171911,3.34470598 C8.47970183,3.39560824 8.48338985,3.39679446 8.42971075,3.39773626 C7.85728375,3.39867807 7.33853584,3.39867807 6.79243923,3.39867807 C6.80516612,3.62878496 6.81311358,3.77248225 6.82232488,3.93903061 C7.0180633,3.94989016 7.18334443,3.95906011 7.35126262,4.01645389 C7.29735516,4.51233265 7.49043403,4.62424078 7.90444725,4.47109163 C7.9121051,4.29785954 7.91939053,4.13304395 7.97256782,3.96705672 C8.17118205,3.97034214 8.32390533,3.97479909 8.47662849,3.97925604 C8.47818714,4.50403253 8.47974669,5.02880982 8.42741674,5.60628519 C8.2181851,5.661747 8.06284115,5.66451174 7.86101143,5.66458157 C7.65961776,5.66719186 7.50471177,5.67249796 7.29794657,5.6706531 C6.71926601,5.66826858 6.19244296,5.67303502 5.61470386,5.67127039 C5.22350296,5.66558587 4.883219,5.66643152 4.49486691,5.66508067 C3.96797188,5.58430044 3.93179471,5.87709762 3.96755459,6.22853434 C3.9656607,6.22523084 3.97226465,6.22902395 3.92445154,6.22780847 C3.7221825,6.28741084 3.43940657,6.3391027 3.43432544,6.41054496 C3.4038738,6.83869796 3.13386612,6.80460361 2.84376589,6.72480101 C2.83672443,5.39058191 2.83344646,4.10836914 2.832599,2.83043728 C2.83502962,2.83471886 2.82646657,2.82985717 2.87434081,2.83129807 C3.40244759,2.90914462 3.4324703,2.61303231 3.39674488,2.26291344 C3.39835392,2.26464011 3.39299313,2.26422112 3.44616962,2.26596643 C4.0359981,2.26553931 4.57264928,2.26336688 5.15489188,2.26365344 C5.35283798,2.27287423 5.50519313,2.27963604 5.65847324,2.33372575 C5.62328149,2.70571186 5.74334488,2.86863208 6.09442036,2.8387818 C6.33351957,2.81845265 6.57883087,2.81048236 6.81593256,2.84024734 C7.28268002,2.89884236 7.41270725,2.67724982 7.3510851,2.26405954 C7.35188849,2.26572937 7.34752556,2.26379491 7.39892872,2.26563536 C7.7892425,2.2693514 8.12815403,2.27122688 8.46706544,2.27310225 M5.74395008,4.52706722 C6.22772702,4.60419479 6.26083855,4.30965965 6.22326657,3.85515807 C6.21420092,3.64386395 6.29725539,3.38907886 5.92347279,3.39736123 C5.29350465,3.41131954 4.6630033,3.40118756 4.00336318,3.40118756 C4.00336318,3.60769592 4.00336318,3.7610566 4.00336318,3.9682296 C4.38685448,3.9682296 4.73779674,3.9682296 5.0940007,4.06328236 C5.1028129,4.2066827 5.11162499,4.35008338 5.12225527,4.52306033 C5.32007211,4.52306033 5.48396183,4.52306033 5.74395008,4.52706722 Z" id="Shape" fill="#EFB385"></path>
            <path d="M7.34980488,5.67780327 C7.50471177,5.67249796 7.65961776,5.66719186 7.865639,5.71656914 C7.91675335,6.28323751 7.91675335,6.79522417 7.91675335,7.34120609 C8.15040601,7.34120609 8.31317934,7.34120609 8.47595267,7.34120609 C8.47900092,7.50183027 8.48205019,7.66245446 8.43779539,7.87142824 C7.91138002,7.83731762 7.89464104,8.14527615 7.91418183,8.48386869 C7.91418183,8.48386869 7.92043448,8.48509287 7.86701832,8.48412214 C7.09712024,8.48398078 6.380639,8.48480914 5.61574352,8.48563073 C5.40561527,8.48830756 5.24390058,8.49099197 5.03677075,8.48977559 C4.83936646,8.48603683 4.6873781,8.48619886 4.48768194,8.48565321 C4.28151674,8.48223412 4.12305934,8.47952203 3.96485629,8.42604903 C3.96319685,8.03094734 3.96128262,7.68660734 3.9614766,7.29186417 C3.96649945,6.90398316 3.96938183,6.56650349 3.97226465,6.22902395 C3.97226465,6.22902395 3.9656607,6.22523084 4.01468013,6.22597389 C4.54558476,6.31619389 4.55214126,5.99848609 4.54293595,5.66727728 C4.883219,5.66643152 5.22350296,5.66558587 5.61304522,5.71530101 C5.66333369,5.91291615 5.66436217,6.05997039 5.61768318,6.21357807 C5.09428431,6.14824892 5.04567346,6.42100542 5.10604307,6.83321773 C5.10001279,7.03407592 5.10049821,7.18867852 5.09942657,7.39104542 C5.01996533,7.91221412 5.30980137,7.95301796 5.7140929,7.91941762 C6.1059007,7.91947705 6.44665267,7.91935898 6.835019,7.91940383 C7.36244465,7.99009773 7.38520443,7.69038666 7.35167991,7.29715039 C7.34856092,7.09633186 7.34322115,6.94164564 7.34418849,6.74119604 C7.35146262,6.54155762 7.35242815,6.38768349 7.35390928,6.1874157 C7.3528842,5.98661694 7.35134454,5.83221005 7.34980488,5.67780327 Z" id="Path" fill="#735844"></path>
            <path d="M8.47953629,7.28961412 C8.31317934,7.34120609 8.15040601,7.34120609 7.91675335,7.34120609 C7.91675335,6.79522417 7.91675335,6.28323751 7.91212578,5.71926406 C8.06284115,5.66451174 8.2181851,5.661747 8.42000544,5.65825988 C8.47202759,6.18436575 8.47757335,6.71119479 8.47953629,7.28961412 Z" id="Path" fill="#EBA069"></path>
            <path d="M8.4791303,3.93055638 C8.32390533,3.97479909 8.17118205,3.97034214 7.9244138,3.96595502 C7.6697877,3.96675977 7.50920748,3.96749513 7.34862646,3.96823005 C7.18334443,3.95906011 7.0180633,3.94989016 6.82232488,3.93903061 C6.81311358,3.77248225 6.80516612,3.62878496 6.79243923,3.39867807 C7.33853584,3.39867807 7.85728375,3.39867807 8.42845731,3.39658496 C8.48113121,3.55694711 8.48138115,3.71940191 8.4791303,3.93055638 Z" id="Path" fill="#735844"></path>
            <path d="M7.96192714,8.48417638 C7.89464104,8.14527615 7.91138002,7.83731762 8.43779878,7.9196279 C8.48520533,8.07673491 8.48530273,8.23399174 8.48566047,8.43842847 C8.32717166,8.48523423 8.1684225,8.4848592 7.96192714,8.48417638 Z" id="Path" fill="#2E231B"></path>
            <path d="M1.14225448,1.18670496 C1.36117539,1.13757253 1.58224725,1.12063954 1.79994793,1.14055491 C2.15630149,1.17315389 2.31786578,1.03543389 2.26973934,0.625306546 C2.66236092,0.576638297 3.05317471,0.578969597 3.44390104,0.574194794 C3.71244409,0.570912986 3.97928488,0.544569032 3.98610657,0.943808693 C3.98722036,1.00900259 4.14612861,1.06072248 4.20798793,1.13798033 C4.32398228,1.28284869 4.42234024,1.44183841 4.47609991,1.64808462 C4.08584601,1.70318259 3.74752635,1.70515039 3.36098239,1.70630033 C3.15358488,1.70536666 2.9944103,1.70525073 2.83523606,1.70513525 C2.42821008,1.7050922 2.02009911,1.6866157 1.61448217,1.71050259 C1.25260962,1.73181265 1.09177267,1.60094011 1.14225448,1.18670496 Z" id="Path" fill="#4F3D2F"></path>
            <path d="M3.40920623,1.70711807 C3.74752635,1.70515039 4.08584601,1.70318259 4.47443087,1.69441283 C4.68227414,1.69417174 4.83985346,1.70072011 5.04546047,1.7067766 C5.09348861,1.7062844 5.08755403,1.70712022 5.09116793,1.75328406 C5.09962149,1.95336293 5.10446115,2.10727852 5.10930081,2.261194 C4.57264928,2.26336688 4.0359981,2.26553931 3.44942646,2.21985299 C3.40273934,2.01703479 3.40597256,1.8620766 3.40920623,1.70711807 Z" id="Path" fill="#EBA069"></path>
            <path d="M5.09363606,0.624333664 C5.25505595,0.582029145 5.41734307,0.591377958 5.65996036,0.605354116 C5.65996036,0.953985981 5.65996036,1.27798011 5.61217109,1.65387864 C5.40543945,1.70622926 5.24649719,1.70667446 5.08755403,1.70712022 C5.08755403,1.70712022 5.09348861,1.7062844 5.09272917,1.70932406 C5.09281448,1.36690474 5.09365934,1.02144575 5.09363606,0.624333664 Z" id="Path" fill="#928172"></path>
            <path d="M6.79094872,1.70481457 C6.79044443,1.36180123 6.78994013,1.01878756 6.78855991,0.624227224 C6.95048759,0.582273325 7.11329279,0.59186632 7.35650578,0.60619728 C7.35650578,0.957345529 7.35650578,1.28298666 7.35672736,1.65749287 C7.35694895,1.70635762 7.36288782,1.70712056 7.31511572,1.70686801 C7.10854623,1.70601457 6.94974702,1.70541457 6.79094872,1.70481457 Z" id="Path" fill="#928172"></path>
            <path d="M8.47351211,2.22710349 C8.12815403,2.27122688 7.7892425,2.2693514 7.4008494,2.21932451 C7.35520838,2.01648914 7.35904804,1.86180462 7.36288782,1.70712056 C7.36288782,1.70712056 7.35694895,1.70635762 7.3577851,1.70938011 C7.69638024,1.71115389 8.03413911,1.70990508 8.42193313,1.71348361 C8.47463109,1.87257592 8.47729493,2.02684011 8.47351211,2.22710349 Z" id="Path" fill="#EBA069"></path>
            <path d="M7.31511572,1.70686801 C7.35904804,1.86180462 7.35520838,2.01648914 7.34944714,2.21748395 C7.34752556,2.26379491 7.35188849,2.26572937 7.29885606,2.26604745 C6.71639878,2.27304282 6.18697313,2.27971999 5.65754827,2.28639728 C5.50519313,2.27963604 5.35283798,2.27287423 5.15489188,2.26365344 C5.10446115,2.10727852 5.09962149,1.95336293 5.09116793,1.75328406 C5.24649719,1.70667446 5.40543945,1.70622926 5.61193832,1.70529943 C6.00237708,1.70489084 6.34526104,1.70496632 6.73954725,1.7049279 C6.94974702,1.70541457 7.10854623,1.70601457 7.31511572,1.70686801 Z" id="Path" fill="#796651"></path>
            <path d="M2.26986431,2.83451536 C2.27015267,2.67847999 2.27044104,2.52244429 2.27205403,2.32004078 C2.42958589,2.27251174 2.58579369,2.2713505 2.7883364,2.26978971 C2.83467234,2.26938937 2.83302793,2.26774485 2.83400635,2.31464022 C2.8321451,2.51764248 2.82930589,2.67374982 2.82646657,2.82985717 C2.82646657,2.82985717 2.83502962,2.83471886 2.78643516,2.83409423 C2.58357561,2.83554734 2.42931053,2.83762451 2.27373335,2.83839084 C2.27242081,2.83707965 2.26986431,2.83451536 2.26986431,2.83451536 Z" id="Path" fill="#2E231B"></path>
            <path d="M3.36098239,1.70630033 C3.40597256,1.8620766 3.40273934,2.01703479 3.39624962,2.21810734 C3.39299313,2.26422112 3.39835392,2.26464011 3.35004782,2.26657242 C3.1455033,2.2682514 2.98926578,2.26799796 2.83302793,2.26774485 C2.83302793,2.26774485 2.83467234,2.26938937 2.83542533,2.27014496 C2.83590895,2.11372553 2.83564002,1.9565505 2.8353033,1.75225468 C2.9944103,1.70525073 3.15358488,1.70536666 3.36098239,1.70630033 Z" id="Path" fill="#2E231B"></path>
            <path d="M1.18736296,8.48479626 C1.14031844,7.38908677 1.14050748,6.29337728 1.18773866,5.1459818 C1.390912,5.09125705 1.54704262,5.0882183 1.7038616,5.13880937 C1.70592149,6.29109705 1.70729301,7.3897557 1.70758352,8.48743762 C1.7065025,8.48646011 1.70685166,8.4860566 1.70685166,8.4860566 C1.54943313,8.48563683 1.39201505,8.48521615 1.18736296,8.48479626 Z" id="Path" fill="#2E231B"></path>
            <path d="M2.27081821,9.04978869 C2.11331561,9.04972575 1.95581301,9.04966203 1.75074567,9.04941717 C1.70409821,8.89270157 1.70501629,8.73616892 1.70639301,8.53284598 C1.70685166,8.4860566 1.7065025,8.48646011 1.75859279,8.48673683 C2.15224974,8.48627728 2.49381595,8.48554022 2.83560081,8.53184508 C2.83605855,8.73545502 2.83629866,8.89202485 2.7893425,9.04894383 C2.58503719,9.04945762 2.4279277,9.04962316 2.27081821,9.04978869 Z" id="Path" fill="#946754"></path>
            <path d="M2.27064623,9.09682372 C2.4279277,9.04962316 2.58503719,9.04945762 2.78878556,9.04949866 C2.83542488,9.04970937 2.83656024,9.04862406 2.8360068,9.09586677 C2.8357581,9.3002122 2.83606239,9.45731649 2.78905279,9.61460011 C2.58399493,9.61532508 2.42625053,9.61586994 2.26894623,9.61548462 C2.26938589,9.61455446 2.27159234,9.61419321 2.27159234,9.61419321 C2.27122002,9.45741559 2.27084714,9.30063717 2.27064623,9.09682372 Z" id="Path" fill="#A88677"></path>
            <path d="M2.2742329,10.1866323 C2.12233335,10.1821624 1.97043346,10.1776916 1.77381753,10.1659157 C1.64965493,9.78863649 1.73010239,9.55054768 2.22451041,9.61463378 C2.27159234,9.61419321 2.26938589,9.61455446 2.26986431,9.66215581 C2.26963369,9.86524598 2.26892465,10.0207365 2.26938499,10.179021 C2.27055527,10.1818158 2.2742329,10.1866323 2.2742329,10.1866323 Z" id="Path" fill="#9B9B9B"></path>
            <path d="M5.66415697,8.48563762 C6.380639,8.48480914 7.09712024,8.48398078 7.86640623,8.48099626 C7.9196155,8.63771005 7.92002149,8.79658078 7.92068872,9.00301581 C7.38804669,9.05120248 6.85514341,9.05182406 6.26873437,9.05501287 C6.06205448,9.05363355 5.90888036,9.049687 5.70869629,9.04675683 C5.66168544,9.04777231 5.6678303,9.04788349 5.66438375,9.00111231 C5.66201041,8.79810575 5.66308363,8.64187129 5.66415697,8.48563762 Z" id="Path" fill="#2E231B"></path>
            <path d="M5.67034409,10.1301653 C5.66818024,10.3341262 5.662019,10.4865994 5.65043527,10.6842654 C5.4928025,10.7344124 5.34059301,10.7393651 5.14173652,10.7444867 C5.09508951,10.7446565 5.09375414,10.7455488 5.09431358,10.6979104 C5.0910877,10.4912581 5.08730058,10.332246 5.08882217,10.122654 C5.08865584,9.73431864 5.0831825,9.39656236 5.08503765,9.05501977 C5.09236702,9.05123355 5.10542149,9.04114383 5.15189188,9.04361107 C5.35485188,9.04668011 5.51134058,9.0472818 5.6678303,9.04788349 C5.6678303,9.04788349 5.66168544,9.04777231 5.66263889,9.04474643 C5.66451132,9.38737265 5.6654294,9.73302474 5.67034409,10.1301653 Z" id="Path" fill="#536082"></path>
            <path d="M4.5839425,11.8589714 C4.53606137,11.7003748 4.53399878,11.5516853 4.57749584,11.3564728 C4.7799425,11.3097154 4.93682996,11.3094809 5.09371708,11.3092472 C5.09464126,11.4636085 5.09556533,11.6179705 5.09761878,11.818402 C4.94241798,11.8659421 4.78608996,11.8674112 4.5839425,11.8589714 Z" id="Path" fill="#536082"></path>
            <path d="M5.09443685,11.262239 C4.93682996,11.3094809 4.7799425,11.3097154 4.57565188,11.311536 C4.52824793,11.3131223 4.53265267,11.3066809 4.5322251,11.2581958 C4.53661053,11.058754 4.54142386,10.9077963 4.5912477,10.752286 C4.78875674,10.7470049 4.94125505,10.7462764 5.09375414,10.7455488 C5.09375414,10.7455488 5.09508951,10.7446565 5.09580669,10.7441773 C5.09606793,10.9008755 5.09561279,11.0580522 5.09443685,11.262239 Z" id="Path" fill="#C3C3C3"></path>
            <path d="M2.31342002,11.3051249 C2.26405866,11.1515481 2.26639539,10.9998094 2.26550913,10.8026374 C2.26542465,10.5986162 2.26855957,10.440029 2.27296352,10.2340372 C2.2742329,10.1866331 2.27055527,10.1818158 2.31632307,10.180665 C2.51691968,10.1832107 2.67174895,10.1869073 2.82980589,10.2370751 C2.75607098,10.7652697 3.06646883,10.7695129 3.40067945,10.7916019 C3.40440917,10.9973284 3.40830838,11.155649 3.41220804,11.3139688 C3.41220804,11.3139688 3.40182815,11.3060265 3.39549143,11.3040688 C3.04780917,11.3037282 2.70646397,11.3053463 2.31342002,11.3051249 Z" id="Path" fill="#404964"></path>
            <path d="M3.45826499,11.3123146 C3.40830838,11.155649 3.40440917,10.9973284 3.40045588,10.7918252 C3.40040567,10.744641 3.40102036,10.7440246 3.44794205,10.7443341 C3.65096194,10.7456151 3.80706013,10.7465868 3.96397313,10.7941442 C3.96548397,10.9955256 3.96618002,11.1503223 3.96687618,11.3051187 C3.96687618,11.3051187 3.97098228,11.3107913 3.96975719,11.3141447 C3.81379561,11.3152189 3.659059,11.3129395 3.45826499,11.3123146 Z" id="Path" fill="#A88677"></path>
            <path d="M4.01415685,11.305667 C3.96618002,11.1503223 3.96548397,10.9955256 3.96530974,10.7916984 C3.96583177,10.7426677 3.96768951,10.737728 4.01329392,10.7402349 C4.21040601,10.7392021 4.36191324,10.7356625 4.52168488,10.7382228 C4.52994838,10.7443229 4.54623685,10.7568385 4.54623685,10.7568385 C4.54142386,10.9077963 4.53661053,11.058754 4.53423765,11.2548526 C4.37826431,11.3020679 4.21985098,11.3041411 4.01415685,11.305667 Z" id="Path" fill="#959595"></path>
            <path d="M1.70317358,5.08518112 C1.54704262,5.0882183 1.390912,5.09125705 1.18794556,5.09279592 C1.14216352,4.75247841 1.14321719,4.41366078 1.14920612,4.02450395 C1.30625889,3.97147321 1.45837652,3.96878044 1.65595719,3.96642316 C1.70142058,3.96675886 1.69899211,3.96970203 1.70149087,4.0203914 C1.70371719,4.40911423 1.70344522,4.74714722 1.70317358,5.08518112 Z" id="Path" fill="#EBA069"></path>
            <path d="M1.70164951,3.96814123 C1.70299821,3.81067525 1.70411798,3.65182655 1.70402962,3.44532044 C1.70369426,3.24148372 1.70456669,3.08530519 1.70539087,2.88210259 C1.86217798,2.83505333 2.01901335,2.83502745 2.22285652,2.83475852 C2.26986431,2.83451536 2.27242081,2.83707965 2.271832,2.88923841 C2.26490951,3.28106982 2.25857584,3.62074214 2.20620375,3.96181321 C2.0064407,3.96537525 1.85271663,3.96753864 1.69899211,3.96970203 C1.69899211,3.96970203 1.70142058,3.96675886 1.70164951,3.96814123 Z" id="Path" fill="#2E231B"></path>
            <path d="M2.25224262,3.96041491 C2.25857584,3.62074214 2.26490951,3.28106982 2.27314454,2.89054914 C2.42931053,2.83762451 2.58357561,2.83554734 2.78400454,2.82981321 C2.83344646,4.10836914 2.83672443,5.39058191 2.83885855,6.73003728 C2.83771459,6.78727841 2.82788556,6.79737592 2.78240194,6.79295174 C2.58467211,6.7837714 2.43242601,6.77901366 2.27639414,6.72240609 C2.26581945,5.76717581 2.25903109,4.86379513 2.25224262,3.96041491 Z" id="Path" fill="#EBA069"></path>
            <path d="M5.08873945,3.9682296 C4.73779674,3.9682296 4.38685448,3.9682296 4.00336318,3.9682296 C4.00336318,3.7610566 4.00336318,3.60769592 4.00336318,3.40118756 C4.6630033,3.40118756 5.29350465,3.41131954 5.92347279,3.39736123 C6.29725539,3.38907886 6.21420092,3.64386395 6.17484104,3.90834191 C5.97295346,3.9633296 5.81949234,3.96513344 5.61791934,3.96635457 C5.40945154,3.96659084 5.2490955,3.96741016 5.08873945,3.9682296 Z" id="Path" fill="#735844"></path>
            <path d="M3.92445154,6.22780847 C3.96938183,6.56650349 3.96649945,6.90398316 3.91475064,7.29640474 C3.70942895,7.35881491 3.5529738,7.36628304 3.34965731,7.36735457 C2.82052906,7.44609084 2.81784838,7.12709163 2.82788556,6.79737592 C2.82788556,6.79737592 2.83771459,6.78727841 2.84262194,6.78204214 C3.13386612,6.80460361 3.4038738,6.83869796 3.43432544,6.41054496 C3.43940657,6.3391027 3.7221825,6.28741084 3.92445154,6.22780847 Z" id="Path" fill="#EBA069"></path>
            <path d="M7.29794657,5.6706531 C7.35134454,5.83221005 7.3528842,5.98661694 7.30148533,6.18385186 C6.72082815,6.22012903 6.19311019,6.21357638 5.66539064,6.20702462 C5.66436217,6.05997039 5.66333369,5.91291615 5.66396296,5.72183129 C6.19244296,5.67303502 6.71926601,5.66826858 7.29794657,5.6706531 Z" id="Path" fill="#4F3D2F"></path>
            <path d="M5.65847324,2.33372575 C6.18697313,2.27971999 6.71639878,2.27304282 7.29805256,2.26437762 C7.41270725,2.67724982 7.28268002,2.89884236 6.81593256,2.84024734 C6.57883087,2.81048236 6.33351957,2.81845265 6.09442036,2.8387818 C5.74334488,2.86863208 5.62328149,2.70571186 5.65847324,2.33372575 Z" id="Path" fill="#EBA069"></path>
            <path d="M2.83400635,2.31464022 C2.98926578,2.26799796 3.1455033,2.2682514 3.34843878,2.26484575 C3.4324703,2.61303231 3.40244759,2.90914462 2.87434081,2.83129807 C2.82930589,2.67374982 2.8321451,2.51764248 2.83400635,2.31464022 Z" id="Path" fill="#EBA069"></path>
            <path d="M5.09137053,4.01575604 C5.2490955,3.96741016 5.40945154,3.96659084 5.61563403,4.01268824 C5.65692409,4.21409005 5.65238793,4.36857502 5.64785166,4.52306033 C5.48396183,4.52306033 5.32007211,4.52306033 5.12225527,4.52306033 C5.11162499,4.35008338 5.1028129,4.2066827 5.09137053,4.01575604 Z" id="Path" fill="#304050"></path>
            <path d="M5.69590126,4.52506372 C5.65238793,4.36857502 5.65692409,4.21409005 5.66374578,4.01327107 C5.81949234,3.96513344 5.97295346,3.9633296 6.17214883,3.9569592 C6.26083855,4.30965965 6.22772702,4.60419479 5.69590126,4.52506372 Z" id="Path" fill="#EBA069"></path>
            <path d="M7.35126262,4.01645389 C7.50920748,3.96749513 7.6697877,3.96675977 7.87852194,3.96712655 C7.91939053,4.13304395 7.9121051,4.29785954 7.90444725,4.47109163 C7.49043403,4.62424078 7.29735516,4.51233265 7.35126262,4.01645389 Z" id="Path" fill="#304050"></path>
            <path d="M4.49486691,5.66508067 C4.55214126,5.99848609 4.54558476,6.31619389 4.01657414,6.22927739 C3.93179471,5.87709762 3.96797188,5.58430044 4.49486691,5.66508067 Z" id="Path" fill="#EBA069"></path>
            <path d="M6.78740476,7.91923999 C6.44665267,7.91935898 6.1059007,7.91947705 5.7130894,7.87135502 C5.6572164,7.66287683 5.6534025,7.50263977 5.65385426,7.29711242 C5.66317855,7.10012327 5.66823719,6.94842327 5.72334985,6.79400519 C6.1079851,6.79309999 6.44256646,6.79491208 6.78227448,6.84202643 C6.79188318,7.03901649 6.79636601,7.1907044 6.79767211,7.39039626 C6.79213234,7.59867954 6.78976849,7.75895898 6.78740476,7.91923999 Z" id="Path" fill="#4F3D2F"></path>
            <path d="M6.7771477,6.79672417 C6.44256646,6.79491208 6.1079851,6.79309999 5.67632522,6.79177762 C5.42368454,6.79049909 5.2681216,6.78873186 5.11255945,6.78696372 C5.04567346,6.42100542 5.09428431,6.14824892 5.61768318,6.21357807 C6.19311019,6.21357638 6.72082815,6.22012903 7.30097075,6.23024462 C7.35242815,6.38768349 7.35146262,6.54155762 7.29788104,6.74224259 C7.08922612,6.79160948 6.93318646,6.79416643 6.7771477,6.79672417 Z" id="Path" fill="#EFB385"></path>
            <path d="M3.9646016,8.47680994 C4.12305934,8.47952203 4.28151674,8.48223412 4.48546725,8.53255536 C4.53675143,8.73665423 4.5425433,8.89314564 4.54059369,9.05089739 C4.53285313,9.05215943 4.51720725,9.0532853 4.47132917,9.05180688 C4.2719938,9.0502853 4.11853561,9.05024304 3.9178842,9.04995762 C3.71292725,9.05024474 3.55516341,9.05077491 3.39845787,9.05061886 C3.39951606,9.04993186 3.39993064,9.05071027 3.40013719,9.00353299 C3.400479,8.79919197 3.40061437,8.64202734 3.44776092,8.48484112 C3.65138171,8.48214881 3.80799166,8.47947898 3.9646016,8.47680994 Z" id="Path" fill="#404964"></path>
            <path d="M3.96485629,8.42604903 C3.80799166,8.47947898 3.65138171,8.48214881 3.44813595,8.4835583 C3.40149968,8.48229796 3.40250183,8.47939536 3.40226476,8.42896372 C3.40019109,8.04360519 3.39835437,7.70867818 3.39651821,7.37375129 C3.5529738,7.36628304 3.70942895,7.35881491 3.91262646,7.34680609 C3.96128262,7.68660734 3.96319685,8.03094734 3.96485629,8.42604903 Z" id="Path" fill="#796651"></path>
            <path d="M5.64958872,7.3424018 C5.6534025,7.50263977 5.6572164,7.66287683 5.66203369,7.87117739 C5.30980137,7.95301796 5.01996533,7.91221412 5.14500296,7.39545152 C5.3446207,7.34886304 5.4971051,7.34563197 5.64958872,7.3424018 Z" id="Path" fill="#796651"></path>
            <path d="M6.835019,7.91940293 C6.78976849,7.75895898 6.79213234,7.59867954 6.84314928,7.39504632 C7.04435414,7.34889061 7.19690669,7.34608711 7.34945923,7.34328372 C7.38520443,7.69038666 7.36244465,7.99009773 6.835019,7.91940293 Z" id="Path" fill="#796651"></path>
            <path d="M5.65385426,7.29711242 C5.4971051,7.34563197 5.3446207,7.34886304 5.14655991,7.34768711 C5.10049821,7.18867852 5.10001279,7.03407592 5.10604307,6.83321773 C5.2681216,6.78873186 5.42368454,6.79049909 5.62627121,6.79449491 C5.66823719,6.94842327 5.66317855,7.10012327 5.65385426,7.29711242 Z" id="Path" fill="#EBA069"></path>
            <path d="M7.35167991,7.29715039 C7.19690669,7.34608711 7.04435414,7.34889061 6.84632431,7.34704236 C6.79636601,7.1907044 6.79188318,7.03901649 6.78227448,6.84202643 C6.93318646,6.79416643 7.08922612,6.79160948 7.29157234,6.78800598 C7.34322115,6.94164564 7.34856092,7.09633186 7.35167991,7.29715039 Z" id="Path" fill="#EBA069"></path>
            <path d="M4.54833471,9.04963615 C4.5425433,8.89314564 4.53675143,8.73665423 4.53317471,8.53326236 C4.6873781,8.48619886 4.83936646,8.48603683 5.0408277,8.53533299 C5.09534126,8.73690858 5.10038183,8.88902655 5.10542239,9.04114383 C5.10542239,9.04114383 5.09236702,9.05123355 5.04113889,9.05222575 C4.84271855,9.05202406 4.69552691,9.05083005 4.54833471,9.04963615 Z" id="Path" fill="#E99658"></path>
            <path d="M5.15189188,9.04361107 C5.10038183,8.88902655 5.09534126,8.73690858 5.08624375,8.53923389 C5.24390058,8.49099197 5.40561527,8.48830756 5.61574352,8.48562994 C5.66308363,8.64187129 5.66201041,8.79810575 5.66438375,9.00111231 C5.51134058,9.0472818 5.35485188,9.04668011 5.15189188,9.04361107 Z" id="Path" fill="#946754"></path>
            <path d="M2.2062042,3.96181321 C2.25903109,4.86379513 2.26581945,5.76717581 2.27428036,6.77498169 C2.27496228,7.08410406 2.25037324,7.29240892 2.28092951,7.4922827 C2.30283019,7.63553943 2.39161392,7.88160259 2.46243324,7.8858957 C2.90270024,7.91258304 2.83854951,8.20963807 2.83476804,8.48542044 C2.83529256,8.48489457 2.83538262,8.48480406 2.83538262,8.48480406 C2.49381595,8.48554022 2.15224974,8.48627728 1.7596738,8.48771446 C1.70729301,7.3897557 1.70592149,6.29109705 1.7038616,5.13880937 C1.70344522,4.74714722 1.70371719,4.40911423 1.70149087,4.0203914 C1.85271663,3.96753864 2.0064407,3.96537525 2.2062042,3.96181321 Z" id="Path" fill="#4F3D2F"></path>
            <path d="M3.40112465,8.48358078 C3.40061437,8.64202734 3.400479,8.79919197 3.35318748,9.00328643 C3.14954047,9.049687 2.9930503,9.04915592 2.83656024,9.04862406 C2.83656024,9.04862406 2.83542488,9.04970937 2.83598183,9.04915253 C2.83629866,8.89202485 2.83605855,8.73545502 2.83560081,8.53184508 C2.83538262,8.48480406 2.83529256,8.48489457 2.88210126,8.48420835 C3.08677426,8.48214711 3.24463798,8.48077118 3.40250183,8.47939536 C3.40250183,8.47939536 3.40149968,8.48229796 3.40112465,8.48358078 Z" id="Path" fill="#4F3D2F"></path>
            <path d="M2.8360068,9.09586677 C2.9930503,9.04915592 3.14954047,9.049687 3.35298058,9.05046462 C3.39993064,9.05071027 3.39951606,9.04993186 3.39958194,9.09783751 C3.3960738,9.30426304 3.39249957,9.46278462 3.34288002,9.61936745 C3.14323991,9.61571389 2.9896451,9.6139992 2.83567493,9.61321728 C2.83529991,9.61415005 2.83636669,9.61441988 2.83636669,9.61441988 C2.83606239,9.45731649 2.8357581,9.3002122 2.8360068,9.09586677 Z" id="Path" fill="#946754"></path>
            <path d="M2.82657787,10.190603 C2.67174895,10.1869073 2.51691968,10.1832107 2.31515279,10.1778702 C2.26892465,10.0207365 2.26963369,9.86524598 2.26942465,9.66308598 C2.42625053,9.61586994 2.58399493,9.61532508 2.78905279,9.61460011 C2.83636669,9.61441988 2.83529991,9.61415005 2.83535335,9.66137818 C2.83246409,9.86927186 2.82952092,10.0299375 2.82657787,10.190603 Z" id="Path" fill="#7F7F7F"></path>
            <path d="M4.54059369,9.05089472 C4.69552691,9.05083005 4.84271855,9.05202406 5.03380951,9.05601118 C5.0831825,9.39656236 5.08865584,9.73431864 5.04407855,10.1255428 C4.84365132,10.1770795 4.69327516,10.1751486 4.53710962,10.122673 C4.52661595,9.73251434 4.52191166,9.39289943 4.51720725,9.0532853 C4.51720725,9.0532853 4.53285313,9.05215943 4.54059369,9.05089472 Z" id="Path" fill="#BDBDBD"></path>
            <path d="M4.54289844,10.1732183 C4.69327516,10.1751486 4.84365132,10.1770795 5.03877166,10.1761218 C5.08730058,10.332246 5.0910877,10.4912581 5.09431358,10.6979104 C4.94125505,10.7462764 4.78875674,10.7470049 4.5912477,10.752286 C4.54623685,10.7568385 4.52994838,10.7443229 4.52773539,10.692181 C4.53131471,10.4844321 4.53710657,10.3288252 4.54289844,10.1732183 Z" id="Path" fill="#9B9B9B"></path>
            <path d="M2.82980589,10.2370759 C2.82952092,10.0299375 2.83246409,9.86927186 2.83572883,9.66044462 C2.9896451,9.6139992 3.14323991,9.61571389 3.34842024,9.61875875 C3.40000612,9.62008892 3.40751787,9.61236383 3.40466476,9.65921434 C3.40387256,9.86125796 3.4059329,10.0164529 3.40470363,10.2194619 C3.40128284,10.4261926 3.40115143,10.5851091 3.40101991,10.7440246 C3.40102036,10.7440246 3.40040567,10.744641 3.4006277,10.7444177 C3.06646883,10.7695129 2.75607098,10.7652697 2.82980589,10.2370759 Z" id="Path" fill="#A88677"></path>
            <path d="M3.44794205,10.7443341 C3.40115143,10.5851091 3.40128284,10.4261926 3.45030714,10.2230447 C3.65191663,10.179259 3.80463346,10.1797055 3.95887313,10.2267371 C3.96282702,10.4281246 3.9652581,10.5829263 3.96768951,10.737728 C3.96768951,10.737728 3.96583177,10.7426677 3.96449516,10.7451125 C3.80706013,10.7465868 3.65096194,10.7456151 3.44794205,10.7443341 Z" id="Path" fill="#946754"></path>
            <path d="M4.01329392,10.7402349 C3.9652581,10.5829263 3.96282702,10.4281246 3.96207267,10.1797771 C3.96162488,9.92995276 3.95950024,9.77367423 3.96026578,9.57017118 C3.9637964,9.36536462 3.96443731,9.2077818 3.96507787,9.05019988 C4.11853561,9.05024304 4.2719938,9.0502853 4.47132917,9.05180688 C4.52191166,9.39289943 4.52661595,9.73251434 4.53710962,10.122673 C4.53710962,10.3288252 4.53131471,10.4844321 4.51947188,10.6860809 C4.36191324,10.7356625 4.21040601,10.7392021 4.01329392,10.7402349 Z" id="Path" fill="#536082"></path>
            <path d="M3.40226476,8.42896372 C3.24463798,8.48077118 3.08677426,8.48214711 2.88157674,8.48473423 C2.83854951,8.20963807 2.90270024,7.91258304 2.46243324,7.8858957 C2.39161392,7.88160259 2.30283019,7.63553943 2.28092951,7.4922827 C2.25037324,7.29240892 2.27496228,7.08410406 2.27806657,6.8268314 C2.43242601,6.77901366 2.58467211,6.7837714 2.78240194,6.79295174 C2.81784838,7.12709163 2.82052906,7.44609084 3.34965731,7.36735457 C3.39835437,7.70867818 3.40019109,8.04360519 3.40226476,8.42896372 Z" id="Path" fill="#675549"></path>
            <path d="M3.9178842,9.04995762 C3.96443731,9.2077818 3.9637964,9.36536462 3.91466262,9.56918926 C3.71328544,9.61440869 3.56040149,9.61338632 3.40751787,9.61236383 C3.40751787,9.61236383 3.40000612,9.62008892 3.39446556,9.62069672 C3.39249957,9.46278462 3.3960738,9.30426304 3.3985242,9.09852372 C3.55516341,9.05077491 3.71292725,9.05024474 3.9178842,9.04995762 Z" id="Path" fill="#564940"></path>
            <path d="M3.40466476,9.65921434 C3.56040149,9.61338632 3.71328544,9.61440869 3.91177211,9.61641389 C3.95950024,9.77367423 3.96162488,9.92995276 3.96055019,10.1331912 C3.80463346,10.1797055 3.65191663,10.179259 3.4535964,10.1752296 C3.4059329,10.0164529 3.40387256,9.86125796 3.40466476,9.65921434 Z" id="Path" fill="#4F3D2F"></path>
        </g>
    </g>
</svg>
