<?xml version="1.0" encoding="UTF-8"?>

<svg width="10px" height="13px" viewBox="0 0 10 13" version="1.1" xmlns="http://www.w3.org/2000/svg" xmlns:xlink="http://www.w3.org/1999/xlink">
    <g id="Page-1" stroke="none" stroke-width="1" fill="none" fill-rule="evenodd">
        <g id="Group-16" transform="translate(0.963935, 0.510609)" fill-rule="nonzero">
            <path d="M0.553595706,1.67287956 C0.562640678,1.50823934 0.571685537,1.34359956 0.582161582,1.15290781 C0.758942825,1.13343007 0.918703164,1.11582815 1.09192237,1.09674261 C1.11316056,0.927339787 1.13122972,0.78320329 1.1534748,0.605723742 C1.30269706,0.579610522 1.46096441,0.551913686 1.65749412,0.51752103 C1.67490463,0.218879448 1.68102881,-0.136905975 2.20968644,0.0536047591 C2.36451571,0.496127697 1.91426938,1.19366261 2.82494147,1.173599 C2.75775107,1.37271798 2.69980904,1.65219007 2.62606689,1.65642589 C2.18037571,1.68202227 2.26234565,1.98535753 2.2092209,2.25303854 C1.79847153,2.20332634 1.65330102,2.35977414 1.68775311,2.72229753 C1.70859819,2.94163662 1.69185661,3.16454724 1.69181864,3.4385434 C1.69521525,4.20928894 1.69878768,4.92734431 1.69892904,5.69617346 C1.69482215,6.08752001 1.69415661,6.42809369 1.69259797,6.81630996 C1.69172554,7.02191832 1.69174621,7.17988295 1.69168418,7.38480589 C1.62070746,7.89769696 1.90567277,7.93529911 2.25460418,7.94554487 C2.25637311,8.15095922 2.25637311,8.30887131 2.20907266,8.46682216 C2.00842904,8.53075222 1.72663627,8.58769244 1.72274316,8.65967425 C1.6986635,9.10457402 1.39469469,9.02602747 1.12608486,9.03272578 C1.12608486,9.03272578 1.12500203,9.0399138 1.12415718,8.98803741 C1.1220365,8.59059764 1.12075718,8.24503436 1.12188136,7.84846792 C1.12456068,7.4563938 1.12484,7.11532363 1.12573311,6.72666589 C1.12569514,6.52116453 1.1250365,6.36324894 1.12538486,6.15854069 C1.12571932,5.95566691 1.12505028,5.79958499 1.12534339,5.59608442 C1.12566068,5.39090713 1.12502271,5.23314939 1.12538486,5.02859719 C1.12571932,4.8257234 1.12505028,4.66964148 1.1253365,4.46620476 C1.12565379,4.26104905 1.12501582,4.10324815 1.12538486,3.89861922 C1.12627797,3.69586261 1.12617107,3.53993504 1.12618486,3.33246724 C1.12634339,3.11654758 1.10743977,2.94951391 1.13002972,2.78829402 C1.19364418,2.33427176 0.979590056,2.19358702 0.563392429,2.25399888 C0.561385424,2.25200227 0.557382034,2.24800273 0.558854463,2.20022634 C0.558078531,1.99259301 0.555837175,1.83273606 0.553595706,1.67287956 Z" id="Path" fill="#B97044"></path>
            <path d="M0.548743955,7.34171402 C0.382424859,7.33408386 0.216105763,7.32645188 -1.55431223e-15,7.31653617 C-1.55431223e-15,5.65389628 -1.55431223e-15,4.0075816 0.052579887,2.30762273 C0.255899322,2.25198634 0.406638983,2.24999448 0.557382034,2.24800273 C0.557382034,2.24800273 0.561385424,2.25200227 0.561978531,2.30491188 C0.562344068,2.69988306 0.562113107,3.0419451 0.561695819,3.43066273 C0.562199322,3.63336148 0.562882034,3.78940419 0.562606215,3.99286679 C0.562285537,4.19804408 0.562926893,4.35580182 0.562564746,4.56035402 C0.562230282,4.76322781 0.562899322,4.91930973 0.562613107,5.12274645 C0.562299322,5.32790216 0.562933785,5.48570306 0.562564746,5.69029753 C0.562230282,5.89317131 0.562899322,6.04925323 0.562613107,6.25270374 C0.56205096,6.45813448 0.562440678,6.61619482 0.56252339,6.82168419 C0.55772678,7.02664679 0.553237062,7.18418047 0.548743955,7.34171402 Z" id="Path" fill="#B97044"></path>
            <path d="M8.45244497,1.68950171 C8.45761051,2.97132058 8.46278305,4.25313945 8.41578249,5.58795165 C8.21544237,5.64259617 8.06728215,5.64424702 7.91457695,5.59445425 C7.90690102,5.20039821 7.90376994,4.85778487 7.90281819,4.4677651 C7.90529412,4.26316544 7.90559062,4.10597233 7.90598373,3.90141063 C7.90586655,3.69564069 7.90565277,3.53723979 7.90565966,3.32638273 C7.90253548,2.74715131 7.89918373,2.22037606 7.94221864,1.69178702 C8.14321401,1.6898164 8.29782949,1.689659 8.45244497,1.68950171 Z" id="Path" fill="#CB7E50"></path>
            <path d="M8.45990712,1.6411886 C8.29782949,1.689659 8.14321401,1.6898164 7.89707333,1.68942408 C7.65402927,1.68594171 7.50251729,1.68300894 7.34752938,1.63362612 C7.41236452,1.11698419 7.1184165,1.09151143 6.77639887,1.07766476 C6.84772384,0.561787923 6.55810678,0.525147019 6.21086847,0.511781369 C6.21038576,0.31414555 6.20969266,0.162430522 6.20899955,0.0107159455 C6.56240339,0.0107159455 6.91580734,0.0107159455 7.30712203,0.0107159455 C7.32868768,0.183547132 7.34848102,0.3421312 7.37244,0.534087697 C7.54406249,0.54983346 7.70342983,0.564454816 7.87771446,0.580444646 C7.89687333,0.757882838 7.91250802,0.902661143 7.93201853,1.08335402 C8.2345391,1.11092724 8.60359141,1.10641809 8.45990712,1.6411886 Z" id="Path" fill="#B97044"></path>
            <path d="M2.81915864,0.0108907478 C3.35071627,0.00587379862 3.8822704,0.000857188446 4.46556994,0.0491839681 C4.44574215,0.576365663 4.75375582,0.579459222 5.08153186,0.5574599 C5.08126294,0.557213347 5.08113876,0.557064194 5.08119401,0.60416555 C5.08122497,0.808484646 5.0811974,0.965702725 5.02992441,1.12268126 C4.63749254,1.122539 4.29631288,1.12263549 3.90748452,1.12256352 C3.70080282,1.12014804 3.54176667,1.11790182 3.38374079,1.06886295 C3.32263661,0.870980126 3.2669739,0.593082725 3.19735254,0.589540804 C2.77047887,0.567822499 2.81883458,0.283015042 2.81915864,0.0108907478 Z" id="Path" fill="#B97044"></path>
            <path d="M7.90929412,7.34926499 C7.90856994,7.57084758 7.88716972,7.79475866 7.91179073,8.01348781 C7.95275672,8.37735741 7.81256203,8.52700386 7.39299186,8.47054205 C7.3345913,8.4717886 7.31712904,8.46242905 7.32543254,8.41697244 C7.33457051,8.21784532 7.33541198,8.0641738 7.33797751,7.8626112 C7.41595763,7.33780804 7.12127164,7.30635934 6.77214362,7.3398425 C6.77304023,7.33832521 6.77561266,7.33592781 6.77535062,7.28912126 C6.77987819,7.08667674 6.7846748,6.93103888 6.83625469,6.77378973 C7.04013288,6.76939391 7.19723107,6.7666086 7.40009537,6.76702329 C7.59869763,6.76852837 7.75152,6.76683527 7.9047148,6.81379448 C7.90648034,7.02472001 7.90788723,7.18699256 7.90929412,7.34926499 Z" id="Path" fill="#9F603B"></path>
            <path d="M1.12622621,9.08032114 C1.39469469,9.02602747 1.6986635,9.10457402 1.72274316,8.65967425 C1.72663627,8.58769244 2.00842904,8.53075222 2.20908644,8.46682476 C2.25640418,8.46679199 2.25640418,8.46683854 2.25640418,8.51398126 C2.25728689,8.71854047 2.25816621,8.87595775 2.25752147,9.08021425 C2.25607311,9.28349843 2.25615243,9.43994239 2.20534158,9.59684329 C1.8172235,9.59926306 1.47999559,9.60122691 1.14276429,9.60319075 C1.13729876,9.44476566 1.13183311,9.2863416 1.12622621,9.08032114 Z" id="Path" fill="#946754"></path>
            <path d="M2.77286847,0.00317063477 C2.81883458,0.283015042 2.77047887,0.567822499 3.19735254,0.589540804 C3.2669739,0.593082725 3.32263661,0.870980126 3.33746441,1.07119617 C3.13574497,1.12246657 2.9813191,1.12461143 2.82688983,1.12675628 C1.91426938,1.19366261 2.36451571,0.496127697 2.25796972,0.0610832901 C2.41461627,0.00574306415 2.57059729,0.000596623475 2.77286847,0.00317063477 Z" id="Path" fill="#CB7E50"></path>
            <path d="M3.39046497,11.2737109 C3.23566328,11.2804179 3.08086158,11.2871249 2.82814147,11.2949991 C2.38887808,11.2911472 2.04753288,11.2861249 1.70619119,11.2811024 C1.70122565,11.1244127 1.69626011,10.9677231 1.69107379,10.7675174 C1.69084972,10.7240005 1.6834565,10.7232401 1.73508463,10.7240652 C2.12925797,10.7225954 2.47180316,10.7203005 2.86254192,10.7209513 C3.07140972,10.7276712 3.23208734,10.7314445 3.39025119,10.7803123 C3.38864768,10.974842 3.38955808,11.1242765 3.39046497,11.2737109 Z" id="Path" fill="#946754"></path>
            <path d="M7.95874294,7.34423301 C7.90788723,7.18699256 7.90648034,7.02472001 7.90534927,6.76314047 C7.91012859,6.32452182 7.9146252,5.9852103 7.91912181,5.64589798 C8.06728215,5.64424702 8.21544237,5.64259617 8.40802373,5.64024702 C8.45244497,6.18218747 8.45244497,6.72482623 8.45244497,7.31177323 C8.29365706,7.32157674 8.15092441,7.33038984 7.95874294,7.34423301 Z" id="Path" fill="#B97044"></path>
            <path d="M1.13526079,9.64952397 C1.47999559,9.60122691 1.8172235,9.59926306 2.20543808,9.59700962 C2.25642147,9.59672001 2.25714215,9.59649063 2.25701348,9.64241267 C2.25577661,9.84087357 2.2546835,9.99341233 2.20763469,10.1512459 C2.0075635,10.1587072 1.85344802,10.1608745 1.65303198,10.1617659 C1.4524539,10.1617564 1.29817288,10.1630227 1.14389537,10.1642901 C1.13851593,10.0081461 1.13314011,9.85200126 1.13526079,9.64952397 Z" id="Path" fill="#C09C50"></path>
            <path d="M3.43618271,11.2813145 C3.38955808,11.1242765 3.38864768,10.974842 3.43717582,10.7772114 C3.64378847,10.7233367 3.8009626,10.7176582 4.00449932,10.7172237 C4.2068878,10.7265333 4.36291367,10.7305989 4.51811186,10.7797865 C4.51352215,10.9742973 4.50976011,11.1236868 4.50696,11.2826817 C4.50791525,11.2922869 4.52136712,11.3061354 4.4733252,11.3018043 C4.26472294,11.3016613 4.1041591,11.3058475 3.94359525,11.3100337 C3.78969356,11.3029957 3.63579525,11.2959559 3.43618271,11.2813145 Z" id="Path" fill="#B38462"></path>
            <path d="M1.70130836,11.3304667 C2.04753288,11.2861249 2.38887808,11.2911472 2.78201684,11.3002663 C2.81804147,11.4678648 2.80226192,11.6313666 2.78732723,11.7861372 C1.84303062,11.9612013 1.74079164,11.9214715 1.70130836,11.3304667 Z" id="Path" fill="#4F3D2F"></path>
            <path d="M1.11947435,7.89947109 C1.12075718,8.24503436 1.1220365,8.59059764 1.12052271,8.98806758 C0.954176045,9.02868092 0.790622486,9.0173877 0.566475141,9.00191086 C0.566475141,8.654326 0.566475141,8.32607143 0.617517175,7.94820521 C0.818864181,7.89888487 0.969169266,7.89917798 1.11947435,7.89947109 Z" id="Path" fill="#77482D"></path>
            <path d="M1.12188136,7.84846792 C0.969169266,7.89917798 0.818864181,7.89888487 0.623441356,7.89658826 C0.57221322,7.74097617 0.566099322,7.58736849 0.554364746,7.38773696 C0.553237062,7.18418047 0.55772678,7.02664679 0.609275706,6.8206721 C0.812595141,6.77290521 0.96885548,6.77357934 1.12511582,6.77425346 C1.12484,7.11532363 1.12456068,7.4563938 1.12188136,7.84846792 Z" id="Path" fill="#8F8F8F"></path>
            <path d="M6.75985729,8.47126623 C6.61128328,8.4702886 6.46270927,8.46931097 6.26197254,8.46677301 C6.20981333,8.46521267 6.19388904,8.44947798 6.20052011,8.39996363 C6.2091409,8.00965595 6.21113062,7.6688608 6.25979322,7.33216397 C6.46284712,7.33615018 6.61922814,7.336039 6.77561266,7.33592781 C6.77561266,7.33592781 6.77304023,7.33832521 6.77378847,7.38694295 C6.77950237,7.59283583 6.78446791,7.75011086 6.78522316,7.95430702 C6.79055073,8.15780928 6.80008881,8.3143903 6.79720599,8.47413775 C6.78478169,8.47730419 6.75985729,8.47126702 6.75985729,8.47126623 Z" id="Path" fill="#77482D"></path>
            <path d="M6.21780305,8.47305063 C6.21163062,8.64171199 6.19746486,8.80253617 6.17724746,9.03212928 C5.84533345,9.03212928 5.52398158,9.03212928 5.14010497,9.03515176 C5.07758362,9.03817504 5.05235232,9.03626035 5.06384203,8.99012013 C5.07494904,8.78621798 5.07456633,8.62845674 5.12567028,8.46931448 C5.51607119,8.4617816 5.85497842,8.45562984 6.19388904,8.44947798 C6.19388904,8.44947798 6.20981333,8.46521267 6.21780305,8.47305063 Z" id="Path" fill="#77482D"></path>
            <path d="M0.558854463,2.20022634 C0.406638983,2.24999448 0.255899322,2.25198634 0.0598971751,2.25542521 C-0.0450488136,1.90459798 -0.0328831638,1.60804996 0.506384859,1.67827482 C0.555837175,1.83273606 0.558078531,1.99259301 0.558854463,2.20022634 Z" id="Path" fill="#945A38"></path>
            <path d="M3.94540904,11.3562549 C4.1041591,11.3058475 4.26472294,11.3016613 4.47132169,11.3468237 C4.51876023,11.5462087 4.52016712,11.6962397 4.52157401,11.8462723 C4.18469785,11.886547 3.88236,11.8821227 3.94540904,11.3562549 Z" id="Path" fill="#352620"></path>
            <path d="M4.56867797,11.8499604 C4.52016712,11.6962397 4.51876023,11.5462087 4.51936023,11.3511548 C4.52136712,11.3061354 4.50791525,11.2922869 4.55367785,11.2891128 C4.75511797,11.284461 4.91079559,11.2829817 5.06647661,11.2815024 C5.11149435,11.6260199 5.11030124,11.9341372 4.56867797,11.8499604 Z" id="Path" fill="#4F3D2F"></path>
            <path d="M6.16272316,0.00285199071 C6.20969266,0.162430522 6.21038576,0.31414555 6.2111409,0.511505889 C6.21120644,0.557152104 6.2117478,0.55666894 6.16457141,0.556853008 C5.96015887,0.556914138 5.8029261,0.556791765 5.64596576,0.556922838 C5.64623469,0.557175833 5.64635887,0.557310296 5.64631051,0.511422725 C5.64703469,0.313923177 5.64781062,0.162311087 5.64858294,0.0106991094 C5.80453638,0.00546238619 5.96049333,0.00022532404 6.16272316,0.00285199071 Z" id="Path" fill="#CB7E50"></path>
            <path d="M5.60147898,0.00299153873 C5.64781062,0.162311087 5.64703469,0.313923177 5.59922034,0.511366228 C5.39516294,0.557152556 5.23815085,0.557108149 5.08113876,0.557066918 C5.08113876,0.557066918 5.08126294,0.557213347 5.08134565,0.511849957 C5.08063186,0.314621482 5.07983876,0.162756397 5.07904565,0.0108910868 C5.23748881,0.00568871387 5.39593198,0.000486340989 5.60147898,0.00299153873 Z" id="Path" fill="#B97044"></path>
            <path d="M5.03275548,0.00317063477 C5.07983876,0.162756397 5.08063186,0.314621482 5.08161469,0.51209651 C4.75375582,0.579459222 4.44574215,0.576365663 4.51791537,0.0567090529 C4.67449977,0.00574362912 4.83048429,0.000597075452 5.03275548,0.00317063477 Z" id="Path" fill="#CB7E50"></path>
            <path d="M5.08211469,9.59659414 C5.24345435,9.59659414 5.40479412,9.59659414 5.61845503,9.59659414 C5.62775514,9.76222442 5.63638282,9.91589674 5.59262373,10.1156154 C5.39141469,10.163797 5.24258881,10.1659314 5.08861469,10.1203602 C5.08242158,9.91290713 5.08138362,9.75315967 5.08076633,9.59435448 C5.08118712,9.59529493 5.08211469,9.59659414 5.08211469,9.59659414 Z" id="Path" fill="#B18C3F"></path>
            <path d="M7.34441898,8.47303515 C7.34406723,8.63822487 7.3338878,8.80216984 7.32321876,8.97405708 C6.9090348,9.12767606 6.7205052,9.00885922 6.76641254,8.51899606 C6.75985729,8.47126702 6.78478169,8.47730419 6.83932373,8.47236792 C7.03495345,8.46576521 7.17603774,8.46409719 7.31712904,8.46242905 C7.31712904,8.46242905 7.3345913,8.4717886 7.34441898,8.47303515 Z" id="Path" fill="#B97044"></path>
            <path d="M5.08997333,9.03561719 C5.09576305,9.18952408 5.08915955,9.34598871 5.08233537,9.54952295 C5.08211469,9.59659414 5.08118712,9.59529493 5.03409695,9.59598035 C4.83137401,9.59557854 4.67574814,9.59449063 4.51830497,9.54688148 C4.51663254,9.34413007 4.51677051,9.18789911 4.56178136,9.03223787 C4.75522486,9.03395854 4.90378859,9.0351095 5.05235232,9.03626035 C5.05235232,9.03626035 5.07758362,9.03817504 5.08997333,9.03561719 Z" id="Path" fill="#C09C50"></path>
            <path d="M5.09376655,10.1680659 C5.24258881,10.1659314 5.39141469,10.163797 5.5848409,10.1637279 C5.62944486,10.3263461 5.62944486,10.4868971 5.62944486,10.6993943 C5.48533638,10.7079814 5.33255537,10.7170849 5.13333932,10.7258014 C5.0869078,10.7254135 5.08849401,10.721041 5.0859078,10.6749578 C5.08680441,10.4752719 5.09028723,10.3216685 5.09376655,10.1680659 Z" id="Path" fill="#EBA069"></path>
            <path d="M1.13621593,10.2123449 C1.29817288,10.1630227 1.4524539,10.1617564 1.65016994,10.2083853 C1.69022554,10.4119341 1.68684271,10.5675876 1.6834565,10.7232401 C1.6834565,10.7232401 1.69084972,10.7240005 1.69077782,10.7202384 C1.5290548,10.7164763 1.36741164,10.7164763 1.15282305,10.7164763 C1.14484712,10.5667514 1.13669186,10.4135755 1.13621593,10.2123449 Z" id="Path" fill="#EFB385"></path>
            <path d="M5.07231797,11.235364 C4.91079559,11.2829817 4.75511797,11.284461 4.55271921,11.2795093 C4.50976011,11.1236868 4.51352215,10.9742973 4.51300836,10.7747606 C4.50873593,10.7246126 4.50666,10.7105245 4.55511921,10.7159254 C4.76521808,10.7212323 4.92685435,10.7211367 5.08849401,10.721041 C5.08849401,10.721041 5.0869078,10.7254135 5.08495605,10.7242118 C5.08139051,10.8784161 5.07977672,11.0338204 5.07231797,11.235364 Z" id="Path" fill="#946754"></path>
            <path d="M1.70236362,5.64540047 C1.69878768,4.92734431 1.69521525,4.20928894 1.73880531,3.43715199 C1.94269729,3.38208465 2.09942655,3.38109798 2.25623864,3.43322352 C2.25415593,4.20618465 2.25198689,4.92603312 2.20401051,5.6454695 C2.00625661,5.6451712 1.85430667,5.64528589 1.70236362,5.64540047 Z" id="Path" fill="#EBA069"></path>
            <path d="M2.82494147,1.173599 C2.9813191,1.12461143 3.13574497,1.12246657 3.33645062,1.1179863 C3.54176667,1.11790182 3.70080282,1.12014804 3.9060913,1.16930374 C3.95011944,1.37197109 3.94789525,1.52772917 3.9484539,1.68527143 C3.95123672,1.68705549 3.94767458,1.68148521 3.9005878,1.68351798 C3.37412,1.60291708 3.36092667,1.911846 3.38347864,2.25024453 C3.38625808,2.25203075 3.38270282,2.24645741 3.33674712,2.24848973 C3.13805876,2.25697007 2.9853226,2.26341753 2.78469277,2.26662137 C2.57684565,2.25981493 2.41690249,2.25625143 2.25672147,2.25243888 C2.25648689,2.25218984 2.25778011,2.25347425 2.25778011,2.25347425 C2.26234565,1.98535753 2.18037571,1.68202227 2.62606689,1.65642589 C2.69980904,1.65219007 2.75775107,1.37271798 2.82494147,1.173599 Z" id="Path" fill="#945A38"></path>
            <path d="M2.2563904,8.46678849 C2.25637311,8.30887131 2.25637311,8.15095922 2.25610068,7.89946329 C2.25308,7.65247267 2.25033864,7.49906408 2.25300757,7.34024419 C2.25841797,7.3348321 2.26922847,7.32399572 2.31481864,7.32769493 C2.51429672,7.32910103 2.66817774,7.32680871 2.8681626,7.32806047 C3.06828215,7.32989323 3.22229763,7.32818114 3.37967175,7.3746851 C3.38366836,7.58330815 3.38430633,7.74371504 3.33770576,7.90319097 C2.80933785,7.81270024 2.79827571,8.12967617 2.76020972,8.4642808 C2.56190068,8.46618849 2.40915412,8.46651357 2.25640418,8.46683854 C2.25640418,8.46683854 2.25640418,8.46679199 2.2563904,8.46678849 Z" id="Path" fill="#CB7E50"></path>
            <path d="M2.25615593,3.38011131 C2.09942655,3.38109798 1.94269729,3.38208465 1.73898463,3.38446216 C1.69185661,3.16454724 1.70859819,2.94163662 1.68775311,2.72229753 C1.65330102,2.35977414 1.79847153,2.20332634 2.2092209,2.25303854 C2.25778011,2.25347425 2.25648689,2.25218984 2.25848701,2.30363222 C2.25904554,2.69675335 2.25760079,3.03843256 2.25615593,3.38011131 Z" id="Path" fill="#945A38"></path>
            <path d="M0.561882034,3.38400747 C0.562113107,3.0419451 0.562344068,2.69988306 0.563985537,2.30690849 C0.979590056,2.19358702 1.19364418,2.33427176 1.13002972,2.78829402 C1.10743977,2.94951391 1.12634339,3.11654758 1.07921537,3.33156035 C0.875378644,3.38279843 0.71863209,3.38340273 0.561882034,3.38400747 Z" id="Path" fill="#CB7E50"></path>
            <path d="M1.69892565,5.69617346 C1.85430667,5.64528589 2.00625661,5.6451712 2.20580712,5.69195798 C2.25408689,5.89435843 2.25476282,6.04985583 2.25525243,6.25248476 C2.25495593,6.45659131 2.25485243,6.61356634 2.2079278,6.77084747 C2.00523243,6.77032408 1.84936181,6.76949572 1.69348757,6.76866724 C1.69415661,6.42809369 1.69482215,6.08752001 1.69892565,5.69617346 Z" id="Path" fill="#CE9A84"></path>
            <path d="M1.69259797,6.81630996 C1.84936181,6.76949572 2.00523243,6.77032408 2.20860712,6.77177934 C2.25610757,6.77240521 2.25771797,6.77354137 2.2581939,6.81962555 C2.2621904,7.01847256 2.26570768,7.17123369 2.26922847,7.32399572 C2.26922847,7.32399572 2.25841797,7.3348321 2.20705186,7.3368312 C2.00104621,7.33850284 1.84640305,7.33817527 1.6917585,7.33784758 C1.69174621,7.17988295 1.69172554,7.02191832 1.69259797,6.81630996 Z" id="Path" fill="#CB7E50"></path>
            <path d="M0.563568249,6.20533425 C0.562899322,6.04925323 0.562230282,5.89317131 0.609144633,5.68956996 C0.812615819,5.64253414 0.968496836,5.64301854 1.12438136,5.64350397 C1.12505028,5.79958499 1.12571932,5.95566691 1.07880497,6.15926826 C0.875333785,6.20630408 0.719452768,6.20581967 0.563568249,6.20533425 Z" id="Path" fill="#77482D"></path>
            <path d="M0.562613107,6.25270374 C0.719452768,6.20581967 0.875333785,6.20630408 1.07779808,6.20606182 C1.1250365,6.36324894 1.12569514,6.52116453 1.1257365,6.72666589 C0.96885548,6.77357934 0.812595141,6.77290521 0.609579096,6.77324397 C0.562440678,6.61619482 0.56205096,6.45813448 0.562613107,6.25270374 Z" id="Path" fill="#945A38"></path>
            <path d="M1.69168418,7.38480589 C1.84640305,7.33817527 2.00104621,7.33850284 2.20164147,7.3422434 C2.25033864,7.49906408 2.25308,7.65247267 2.25432825,7.85196284 C1.90567277,7.93529911 1.62070746,7.89769696 1.69168418,7.38480589 Z" id="Path" fill="#945A38"></path>
            <path d="M0.561695819,3.43066318 C0.71863209,3.38340273 0.875378644,3.38279843 1.07909469,3.38310058 C1.12617107,3.53993504 1.12627797,3.69586261 1.07880158,3.89934589 C0.875333785,3.94641708 0.719452768,3.94593176 0.563564859,3.94544724 C0.562882034,3.78940419 0.562199322,3.63336148 0.561695819,3.43066318 Z" id="Path" fill="#77482D"></path>
            <path d="M0.563568249,5.07539075 C0.562899322,4.91930973 0.562230282,4.76322781 0.609144633,4.55962645 C0.812615819,4.51258973 0.968496836,4.51307504 1.12438136,4.51356047 C1.12505028,4.66964148 1.12571932,4.8257234 1.07880497,5.02932476 C0.875333785,5.07636058 0.719452768,5.07587527 0.563568249,5.07539075 Z" id="Path" fill="#77482D"></path>
            <path d="M0.562613107,5.12274645 C0.719452768,5.07587527 0.875333785,5.07636058 1.07779808,5.07611832 C1.12502271,5.23314939 1.12566068,5.39090713 1.12534339,5.59608442 C0.968496836,5.64301854 0.812615819,5.64253414 0.610151525,5.6427764 C0.562933785,5.48570306 0.562299322,5.32790216 0.562613107,5.12274645 Z" id="Path" fill="#945A38"></path>
            <path d="M1.1253365,4.46620476 C0.968496836,4.51307504 0.812615819,4.51258973 0.610151525,4.51283289 C0.562926893,4.35580182 0.562285537,4.19804408 0.562606215,3.99286589 C0.719452768,3.94593176 0.875333785,3.94641708 1.07779808,3.94617482 C1.12501582,4.10324815 1.12565379,4.26104905 1.1253365,4.46620476 Z" id="Path" fill="#945A38"></path>
            <path d="M2.25542836,6.77147323 C2.25485243,6.61356634 2.25495593,6.45659131 2.30419785,6.25300374 C2.72682316,6.26242634 2.83376226,6.09078216 2.82800701,5.73140227 C2.81248271,4.76235628 2.82958633,3.79278612 2.87970757,2.82122193 C3.39932373,2.88463425 3.41244802,2.58265595 3.38270282,2.24645741 C3.38270282,2.24645741 3.38625808,2.25203075 3.43112407,2.25136092 C3.95218147,2.32527075 3.98307153,2.0308434 3.94767458,1.68148521 C3.94767458,1.68148521 3.95123672,1.68705549 4.00027175,1.68644306 C4.39340023,1.68618273 4.73750056,1.68653527 5.08144226,1.68696544 C5.08128362,1.68704352 5.08208023,1.68593052 5.08184915,1.73467934 C5.03125209,2.15335289 5.19975051,2.28893244 5.55973028,2.25575143 C5.78082588,2.23537233 6.0083835,2.22855674 6.22768938,2.25696137 C6.68550136,2.316259 6.83653401,2.10994724 6.7757713,1.68653956 C6.77617819,1.68714826 6.77497819,1.68630815 6.82287525,1.68658702 C7.03084994,1.6846025 7.19092068,1.68233911 7.35099831,1.68007572 C7.50251729,1.68300894 7.65402927,1.68594171 7.85069345,1.69123787 C7.89918373,2.22037606 7.90253548,2.74715131 7.85821774,3.32777753 C7.6520913,3.38715188 7.49363435,3.39267527 7.28448723,3.39222261 C6.90858655,3.38624668 6.58337605,3.38624668 6.21873412,3.38624668 C6.21873412,3.61083278 6.21873412,3.77265222 6.21644102,3.98279425 C6.13642633,4.51473888 6.43265367,4.54625651 6.83323401,4.50862499 C7.0284913,4.50950521 7.1787826,4.50774566 7.37690893,4.50810001 C7.58338023,4.51186736 7.74201638,4.5135199 7.90064576,4.51517256 C7.90376994,4.85778487 7.90690102,5.20039821 7.91457733,5.59445425 C7.91457733,5.9852103 7.91012859,6.32452182 7.90499062,6.71448815 C7.75152,6.76683527 7.59869763,6.76852837 7.39544023,6.71639425 C7.3450052,6.3377625 7.3450052,6.01295888 7.3450052,5.65808171 C7.09596791,5.65808171 6.9330696,5.65808171 6.71828791,5.65206781 C6.13989186,5.6494825 5.6133861,5.65291176 5.03926249,5.65096442 C4.83263605,5.63756939 4.67362395,5.6295503 4.51506362,5.57429798 C4.57441254,4.89243018 4.09845209,5.11093854 3.79018667,5.0800503 C3.29027763,5.02996273 3.41751695,5.40498148 3.38246836,5.68515696 C3.32791944,6.12120578 3.52207672,6.26749708 3.93656757,6.25109346 C3.94251243,6.45286804 3.94042271,6.6084008 3.89188429,6.7671025 C3.36964407,6.68626205 3.36697503,7.0013008 3.37631311,7.32646905 C3.22229763,7.32818114 3.06828215,7.32989323 2.86747299,7.28235741 C2.88964565,6.76556713 2.59223548,6.74682736 2.25771797,6.77354137 C2.25771797,6.77354137 2.25610757,6.77240521 2.25542836,6.77147323 M5.16478113,4.50906035 C5.64463469,4.58663109 5.68030407,4.29407267 5.64675198,3.8407547 C5.63755525,3.62951662 5.71778034,3.37244962 5.34996938,3.37800306 C4.72193141,3.3874851 4.09365209,3.3806173 3.42937921,3.3806173 C3.41707559,3.60121674 3.40807209,3.76266849 3.39127537,4.0246895 C3.33719537,4.38469086 3.47465898,4.55248239 3.85400452,4.51544837 C4.07697605,4.49368001 4.30346814,4.50793369 4.61786124,4.51126126 C4.7681974,4.50919233 4.91853006,4.50712419 5.16478113,4.50906035 Z" id="Shape" fill="#EFB385"></path>
            <path d="M7.33517751,3.39819809 C7.49363435,3.39267527 7.6520913,3.38715188 7.85799706,3.38023323 C7.90565277,3.53723979 7.90586655,3.69564069 7.8605626,3.90070363 C7.66425695,3.95109041 7.51346904,3.95481459 7.35571559,3.91188996 C7.34423277,3.70956024 7.33970169,3.55387911 7.33517751,3.39819809 Z" id="Path" fill="#B97044"></path>
            <path d="M7.36267435,3.95853877 C7.51346904,3.95481459 7.66425695,3.95109041 7.86046599,3.94807312 C7.90559062,4.10597233 7.90529412,4.26316544 7.90281819,4.4677651 C7.74201638,4.5135199 7.58338023,4.51186736 7.38215729,4.46208397 C7.33818441,4.25873086 7.33680508,4.10350679 7.34057062,3.95527843 C7.34571548,3.96227335 7.36267435,3.95853877 7.36267435,3.95853877 Z" id="Path" fill="#EBA069"></path>
            <path d="M6.21093062,0.557427132 C6.55810678,0.525147019 6.84772384,0.561787923 6.77627469,1.1243808 C6.77585062,1.37431888 6.77541616,1.53031335 6.77497819,1.68630815 C6.77497819,1.68630815 6.77617819,1.68714826 6.7285087,1.68696114 C6.52299605,1.68420894 6.36514949,1.68164476 6.20847887,1.62828205 C6.2103478,1.23721222 6.2110478,0.896940804 6.21174441,0.55666894 C6.2117478,0.55666894 6.21120644,0.557152104 6.21093062,0.557427132 Z" id="Path" fill="#CB7E50"></path>
            <path d="M6.82287525,1.68658702 C6.77541616,1.53031335 6.77585062,1.37431888 6.77641266,1.17160849 C7.1184165,1.09151143 7.41236452,1.11698419 7.34752938,1.63362566 C7.19092068,1.68233911 7.03084994,1.6846025 6.82287525,1.68658702 Z" id="Path" fill="#EBA069"></path>
            <path d="M5.0815974,1.68688747 C4.73750056,1.68653527 4.39340023,1.68618273 3.99748542,1.68465854 C3.94789525,1.52772917 3.95011944,1.37197109 3.95373672,1.16947267 C4.29631288,1.12263549 4.63749254,1.122539 5.02996588,1.16957651 C5.08137333,1.37343651 5.08148712,1.53016205 5.0815974,1.68688747 Z" id="Path" fill="#EBA069"></path>
            <path d="M5.08144226,1.68696936 C5.08148712,1.53016205 5.08137333,1.37343651 5.08121469,1.16981583 C5.08119401,0.965702725 5.08122497,0.808484646 5.08119401,0.60416555 C5.23815085,0.557108149 5.39516294,0.557152556 5.5992687,0.557244763 C5.64635887,0.557310296 5.64623469,0.557175833 5.64615537,0.608061708 C5.6474278,0.998991878 5.64877955,1.33903617 5.60276181,1.68184645 C5.39761819,1.6850521 5.23985085,1.68549131 5.08208023,1.68593052 C5.08208023,1.68593052 5.08128362,1.68704352 5.08144226,1.68696936 Z" id="Path" fill="#CB7E50"></path>
            <path d="M6.77535062,7.28912126 C6.61922814,7.336039 6.46284712,7.33615018 6.25952768,7.28377888 C6.15738169,6.7039277 6.04059763,6.66169109 5.10887356,6.8488147 C5.09958384,7.00517244 5.08979751,7.1698251 5.03312791,7.33539358 C4.82982226,7.3355321 4.67340328,7.33477606 4.51789469,7.28740566 C4.51359808,7.08565346 4.50839458,6.9305138 4.50776011,6.72899696 C4.51782226,6.52808962 4.52331198,6.37356024 4.57502282,6.21459131 C4.77645266,6.20426702 4.93166814,6.1983816 5.13896011,6.1976721 C5.71889751,6.20637911 6.24675514,6.20991018 6.77512994,6.26027628 C6.78025751,6.46320781 6.78486102,6.61930431 6.78946802,6.77540092 C6.7846748,6.93103888 6.77987819,7.08667674 6.77535062,7.28912126 Z" id="Path" fill="#EFB385"></path>
            <path d="M6.83625469,6.77378973 C6.78486102,6.61930431 6.78025751,6.46320781 6.77564712,6.21375504 C6.77382294,5.96629289 6.77199887,5.81218679 6.77017469,5.65808171 C6.9330696,5.65808171 7.09596791,5.65808171 7.3450052,5.65808171 C7.3450052,6.01295888 7.3450052,6.3377625 7.34966034,6.71319504 C7.19723107,6.7666086 7.04013288,6.76939391 6.83625469,6.77378973 Z" id="Path" fill="#B97044"></path>
            <path d="M7.32543254,8.41697244 C7.17603774,8.46409719 7.03495345,8.46576521 6.85174452,8.46920239 C6.80008881,8.3143903 6.79055073,8.15780928 6.83055119,7.95254148 C7.03213966,7.9060703 7.1841896,7.90828668 7.33623955,7.91050227 C7.33541198,8.0641738 7.33457051,8.21784532 7.32543254,8.41697244 Z" id="Path" fill="#8F8F8F"></path>
            <path d="M7.33797751,7.8626112 C7.1841896,7.90828668 7.03213966,7.9060703 6.83475819,7.90562024 C6.78446791,7.75011086 6.77950237,7.59283583 6.77289198,7.38846024 C7.12127164,7.30635934 7.41595763,7.33780804 7.33797751,7.8626112 Z" id="Path" fill="#B97044"></path>
            <path d="M2.25632486,9.59655278 C2.25615243,9.43994239 2.25607311,9.28349843 2.30482542,9.07910047 C2.51248282,9.02786883 2.67130531,9.0245912 2.87652486,9.02608691 C3.07874429,9.02978702 3.23457356,9.02871369 3.38805458,9.0755625 C3.29364667,9.61092532 3.60694328,9.62478318 3.94991254,9.603539 C3.95111254,9.60170024 3.94697797,9.59981402 3.94751254,9.64627482 C3.94696418,9.84743391 3.94588836,10.0021322 3.94567107,10.1580745 C3.94652972,10.1593193 3.94609864,10.1555753 3.89497401,10.1567374 C3.50062825,10.1637754 3.15740723,10.1696513 2.81637593,10.1702573 C2.81856904,10.1649858 2.82235175,10.1542114 2.82099661,10.1078972 C2.89098011,9.59350442 2.59140441,9.57402148 2.25714215,9.59649063 C2.25714215,9.59649063 2.25642147,9.59672001 2.25632486,9.59655278 Z" id="Path" fill="#CBA265"></path>
            <path d="M2.8301278,9.02131357 C2.67130531,9.0245912 2.51248282,9.02786883 2.30635299,9.03226035 C2.25816621,8.87595775 2.25728689,8.71854047 2.25640418,8.51398126 C2.40915412,8.46651357 2.56190068,8.46618849 2.76564079,8.51083131 C2.82113107,8.71096973 2.82563119,8.86614205 2.8301278,9.02131357 Z" id="Path" fill="#B97044"></path>
            <path d="M1.73508463,10.7240652 C1.68684271,10.5675876 1.69022554,10.4119341 1.6964739,10.2096613 C1.85344802,10.1608745 2.0075635,10.1587072 2.25474215,10.1579633 C2.50598972,10.1576607 2.66417073,10.1559365 2.82235175,10.1542114 C2.82235175,10.1542114 2.81856904,10.1649858 2.81839661,10.2154665 C2.81693446,10.4166333 2.81564136,10.5673204 2.81434825,10.7180065 C2.47180316,10.7203005 2.12925797,10.7225954 1.73508463,10.7240652 Z" id="Path" fill="#4F3D2F"></path>
            <path d="M2.86254192,10.7209522 C2.81564136,10.5673204 2.81693446,10.4166333 2.8162035,10.2207372 C3.15740723,10.1696513 3.50062825,10.1637754 3.89691887,10.2034068 C3.95270226,10.4032694 3.95541944,10.5576245 3.95813672,10.7119797 C3.8009626,10.7176582 3.64378847,10.7233367 3.4396896,10.732117 C3.23208734,10.7314445 3.07140972,10.7276712 2.86254192,10.7209522 Z" id="Path" fill="#675549"></path>
            <path d="M2.82099661,10.1078972 C2.66417073,10.1559365 2.50598972,10.1576607 2.30070124,10.1526684 C2.2546835,9.99341233 2.25577661,9.84087357 2.25700418,9.64241267 C2.59140441,9.57402148 2.89098011,9.59350442 2.82099661,10.1078972 Z" id="Path" fill="#B18C3F"></path>
            <path d="M4.00449932,10.7172237 C3.95541944,10.5576245 3.95270226,10.4032694 3.9480435,10.2022448 C3.94609864,10.1555753 3.94652972,10.1593193 3.99304746,10.159865 C4.48530463,10.0975118 4.56184339,10.3480972 4.50666,10.7105245 C4.50666,10.7105245 4.50873593,10.7246126 4.51383944,10.7296376 C4.36291367,10.7305989 4.2068878,10.7265333 4.00449932,10.7172237 Z" id="Path" fill="#4F3D2F"></path>
            <path d="M5.08001469,7.33447775 C5.08979751,7.1698251 5.09958384,7.00517244 5.10887356,6.8488147 C6.04059763,6.66169109 6.15738169,6.7039277 6.21285469,7.27968058 C6.21113062,7.6688608 6.2091409,8.00965595 6.20052011,8.39996363 C5.85497842,8.45562984 5.51607119,8.4617816 5.1286704,8.46846442 C5.08018011,8.46899628 5.07955605,8.47477222 5.08032497,8.422726 C5.08073186,8.02527854 5.08037322,7.67987809 5.08001469,7.33447775 Z" id="Path" fill="#A26443"></path>
            <path d="M5.06384203,8.99012013 C4.90378859,9.0351095 4.75522486,9.03395854 4.55958136,9.03357493 C4.51250497,9.03434227 4.50779797,9.03628792 4.51008418,8.98853741 C4.51480147,8.7817912 4.51722565,8.62279538 4.56634689,8.46374713 C4.76854915,8.4673877 4.92405435,8.47108001 5.07955605,8.47477222 C5.07955605,8.47477222 5.08018011,8.46899628 5.07718011,8.46984544 C5.07456633,8.62845674 5.07494904,8.78621798 5.06384203,8.99012013 Z" id="Path" fill="#CBA265"></path>
            <path d="M5.65013469,1.67908047 C5.64877955,1.33903617 5.6474278,0.998991878 5.64588294,0.607808714 C5.8029261,0.556791765 5.96015887,0.556914138 6.16456802,0.556853008 C6.2110478,0.896940804 6.2103478,1.23721222 6.16214384,1.63117346 C5.95980023,1.68293527 5.80496746,1.68100804 5.65013469,1.67908047 Z" id="Path" fill="#B97044"></path>
            <path d="M4.55511921,10.7159254 C4.56184339,10.3480972 4.48530463,10.0975118 3.99218881,10.158621 C3.94588836,10.0021322 3.94696418,9.84743391 3.99546475,9.6448938 C4.20196701,9.59583549 4.36104124,9.5946199 4.52011887,9.59340352 C4.67574814,9.59449063 4.83137401,9.59557854 5.03367616,9.59503888 C5.08138362,9.75315967 5.08242158,9.91290713 5.08861469,10.1203602 C5.09028723,10.3216685 5.08680441,10.4752719 5.0859078,10.6749578 C4.92685435,10.7211367 4.76521808,10.7212323 4.55511921,10.7159254 Z" id="Path" fill="#675549"></path>
            <path d="M4.51830497,9.54688148 C4.36104124,9.5946199 4.20196701,9.59583549 3.99493367,9.59843289 C3.94697797,9.59981402 3.95111254,9.60170024 3.95075051,9.55652295 C3.94829186,9.35528453 3.94619525,9.1992225 3.99135435,9.03926905 C4.19500486,9.03568013 4.35139966,9.03598453 4.50779797,9.03628792 C4.50779797,9.03628792 4.51250497,9.03434227 4.51470497,9.0330051 C4.51677051,9.18789911 4.51663254,9.34413007 4.51830497,9.54688148 Z" id="Path" fill="#946754"></path>
            <path d="M2.83374158,2.82342453 C2.82958633,3.79278612 2.81248271,4.76235628 2.82800701,5.73140227 C2.83376226,6.09078216 2.72682316,6.26242634 2.30439096,6.20587312 C2.25476282,6.04985583 2.25408689,5.89435843 2.25161446,5.69237176 C2.25198689,4.92603312 2.25415593,4.20618465 2.25623864,3.43322352 C2.25760079,3.03843256 2.25904554,2.69675335 2.25872147,2.30388137 C2.41690249,2.25625143 2.57684565,2.25981493 2.78227209,2.31226465 C2.82975186,2.51524227 2.83174497,2.66933323 2.83374158,2.82342453 Z" id="Path" fill="#CB7E50"></path>
            <path d="M2.87970757,2.82122193 C2.83174497,2.66933323 2.82975186,2.51524227 2.83017254,2.3155077 C2.9853226,2.26341753 3.13805876,2.25697007 3.33674712,2.24848973 C3.41244802,2.58265595 3.39932373,2.88463425 2.87970757,2.82122193 Z" id="Path" fill="#EBA069"></path>
            <path d="M3.9005878,1.68351798 C3.98307153,2.0308434 3.95218147,2.32527075 3.42834124,2.2495747 C3.36092667,1.911846 3.37412,1.60291708 3.9005878,1.68351798 Z" id="Path" fill="#EBA069"></path>
            <path d="M4.50318757,6.77537504 C4.50839458,6.9305138 4.51359808,7.08565346 4.52011887,7.28857041 C4.52143605,7.33634849 4.52122226,7.34135719 4.47367345,7.34045369 C3.9483539,7.26557007 3.91878802,7.56045877 3.9541539,7.95661911 C3.95117458,8.15690499 3.95027808,8.31107222 3.94981593,8.46592216 C3.95024362,8.46660408 3.95137458,8.4663799 3.90447062,8.46585143 C3.7021374,8.46712306 3.54670463,8.46892306 3.38958565,8.42349493 C3.38691322,8.21888499 3.3859304,8.06150386 3.38494768,7.90412284 C3.38430633,7.74371504 3.38366836,7.58330815 3.37967175,7.3746851 C3.36697503,7.0013008 3.36964407,6.68626205 3.93927797,6.7692112 C4.18980825,6.77055866 4.34649966,6.77296645 4.50318757,6.77537504 Z" id="Path" fill="#9F603B"></path>
            <path d="M3.33770576,7.90319097 C3.3859304,8.06150386 3.38691322,8.21888499 3.38690633,8.47007131 C3.38504768,8.72084657 3.38418554,8.87781549 3.38509254,9.03300691 C3.38686497,9.03122758 3.39039944,9.02764126 3.39039944,9.02764126 C3.23457356,9.02871369 3.07874429,9.02978702 2.87652136,9.02608691 C2.82563119,8.86614205 2.82113107,8.71096973 2.8112,8.50924758 C2.79827571,8.12967617 2.80933785,7.81270024 3.33770576,7.90319097 Z" id="Path" fill="#675549"></path>
            <path d="M2.2581939,6.81962555 C2.59223548,6.74682736 2.88964565,6.76556713 2.82136904,7.27881335 C2.66817774,7.32680871 2.51429672,7.32910103 2.31481864,7.32769493 C2.26570768,7.17123369 2.2621904,7.01847256 2.2581939,6.81962555 Z" id="Path" fill="#CE9A84"></path>
            <path d="M3.39906847,3.92412035 C3.40807209,3.76266849 3.41707559,3.60121674 3.42937921,3.3806173 C4.09365209,3.3806173 4.72193141,3.3874851 5.34996938,3.37800306 C5.71778034,3.37244962 5.63755525,3.62951662 5.59760655,3.89376227 C5.39446983,3.94825335 5.24047853,3.94973787 5.03873831,3.94884047 C4.83124294,3.94720589 4.67149638,3.94795244 4.46092158,3.94927572 C4.07308633,3.94127482 3.73607571,3.93269708 3.39906847,3.92412035 Z" id="Path" fill="#9F603B"></path>
            <path d="M5.60276181,1.68184645 C5.80496746,1.68100804 5.95980023,1.68293527 6.16097141,1.68197143 C6.36514949,1.68164476 6.52299605,1.68420894 6.72810181,1.6863521 C6.83653401,2.10994724 6.68550136,2.316259 6.22768938,2.25696137 C6.0083835,2.22855674 5.78082588,2.23537233 5.55973028,2.25575143 C5.19975051,2.28893244 5.03125209,2.15335289 5.08184915,1.73467934 C5.23985085,1.68549131 5.39761819,1.6850521 5.60276181,1.68184645 Z" id="Path" fill="#EBA069"></path>
            <path d="M6.71828791,5.65206781 C6.77199887,5.81218679 6.77382294,5.96629289 6.77512994,6.16692001 C6.24675514,6.20991018 5.71889751,6.20637911 5.13688079,6.15316996 C5.0841078,5.95444182 5.08549401,5.80539109 5.08687684,5.65634024 C5.6133861,5.65291176 6.13989186,5.6494825 6.71828791,5.65206781 Z" id="Path" fill="#945A38"></path>
            <path d="M3.92852949,6.20485154 C3.52207672,6.26749708 3.32791944,6.12120578 3.38246836,5.68515696 C3.41751695,5.40498148 3.29027763,5.02996273 3.79018667,5.0800503 C4.09845209,5.11093854 4.57441254,4.89243018 4.51509808,5.58483086 C4.51467051,5.64259787 4.5176774,5.66312397 4.47049763,5.65560499 C3.93632621,5.56385131 3.90466373,5.8460312 3.96156441,6.2067964 C3.95061944,6.20530578 3.92852949,6.20485154 3.92852949,6.20485154 Z" id="Path" fill="#EBA069"></path>
            <path d="M3.39517186,3.97440453 C3.73607571,3.93269708 4.07308633,3.94127482 4.46290441,3.99578227 C4.51993605,4.19647075 4.52415684,4.35122758 4.52837412,4.50598623 C4.30346814,4.50793369 4.07697605,4.49368001 3.85400452,4.51544837 C3.47465898,4.55248239 3.33719537,4.38469086 3.39517186,3.97440453 Z" id="Path" fill="#EBA069"></path>
            <path d="M7.28448723,3.39222216 C7.33970169,3.55387911 7.34423277,3.70956024 7.35571559,3.91188996 C7.36267435,3.95853877 7.34571548,3.96227335 7.29434938,3.95471888 C7.08700915,3.94766363 6.93103503,3.94816363 6.72859492,3.94811109 C6.52766508,3.9431964 6.37320136,3.93883425 6.21873412,3.9344721 C6.21873412,3.77265222 6.21873412,3.61083278 6.21873412,3.38624668 C6.58337605,3.38624668 6.90858655,3.38624668 7.28448723,3.39222216 Z" id="Path" fill="#945A38"></path>
            <path d="M5.03926588,5.65096442 C5.08549401,5.80539109 5.0841078,5.95444182 5.0848009,6.14799402 C4.93166814,6.1983816 4.77645266,6.20426702 4.56856757,6.20826532 C4.51589458,6.20637821 4.50313582,6.19374273 4.50771864,6.14975606 C4.51409119,5.95822126 4.51588429,5.81067222 4.5176774,5.66312397 C4.5176774,5.66312397 4.51467051,5.64259787 4.51463944,5.63206419 C4.67362395,5.6295503 4.83263605,5.63756939 5.03926588,5.65096442 Z" id="Path" fill="#B97044"></path>
            <path d="M4.50776011,6.72899696 C4.34649966,6.77296645 4.18980825,6.77055866 3.98572667,6.76604216 C3.94042271,6.6084008 3.94251243,6.45286804 3.93656757,6.25109346 C3.92852949,6.20485154 3.95061944,6.20530578 4.00569932,6.20629289 C4.20823266,6.20276702 4.35568599,6.19825493 4.50313582,6.19374273 C4.50313582,6.19374273 4.51589458,6.20637821 4.52234644,6.21270419 C4.52331198,6.37356024 4.51782226,6.52808962 4.50776011,6.72899696 Z" id="Path" fill="#B97044"></path>
            <path d="M4.57311944,4.50862329 C4.52415684,4.35122758 4.51993605,4.19647075 4.51373254,3.99520645 C4.67149638,3.94795244 4.83124294,3.94720589 5.03666938,3.99489007 C5.07785254,4.19723278 5.07335944,4.35114487 5.06886621,4.50505606 C4.91853006,4.50712419 4.7681974,4.50919233 4.57311944,4.50862329 Z" id="Path" fill="#304050"></path>
            <path d="M5.11682192,4.50705866 C5.07335944,4.35114487 5.07785254,4.19723278 5.08442158,3.99727199 C5.24047853,3.94973787 5.39446983,3.94825335 5.5943652,3.94260069 C5.68030407,4.29407267 5.64463469,4.58663109 5.11682192,4.50705866 Z" id="Path" fill="#EBA069"></path>
            <path d="M6.21644102,3.98279425 C6.37320136,3.93883425 6.52766508,3.9431964 6.72908113,3.99465131 C6.78010588,4.19649052 6.78418169,4.35123798 6.78826113,4.50598532 C6.43265367,4.54625651 6.13642633,4.51473888 6.21644102,3.98279425 Z" id="Path" fill="#EBA069"></path>
            <path d="M6.83323051,4.50862499 C6.78418169,4.35123798 6.78010588,4.19649052 6.77554373,3.99520295 C6.93103503,3.94816363 7.08700915,3.94766363 7.28920452,3.94772121 C7.33680508,4.10350679 7.33818441,4.25873086 7.33431537,4.45997018 C7.1787826,4.50774566 7.0284913,4.50950521 6.83323051,4.50862499 Z" id="Path" fill="#304050"></path>
            <path d="M5.08032497,8.422726 C4.92405435,8.47108001 4.76854915,8.4673877 4.56678825,8.46461176 C4.52052576,8.46552815 4.52144983,8.4632799 4.51904983,8.41704148 C4.51211186,8.21632973 4.5075739,8.06185651 4.50758416,7.8603103 C4.51516362,7.65594419 4.51819119,7.4986503 4.52122226,7.34135719 C4.52122226,7.34135719 4.52143605,7.33634849 4.51920847,7.33518386 C4.67340328,7.33477606 4.82982226,7.3355321 5.03312791,7.33538295 C5.08037322,7.67987809 5.08073186,8.02527854 5.08032497,8.422726 Z" id="Path" fill="#77482D"></path>
            <path d="M3.94409864,9.04316126 C3.94619525,9.1992225 3.94829186,9.35528453 3.94954701,9.55836092 C3.60694328,9.62478318 3.29364667,9.61092532 3.38805458,9.0755625 C3.39039944,9.02764126 3.38686497,9.03122758 3.43262407,9.03227583 C3.63621944,9.03222578 3.79405559,9.03112758 3.94836079,9.03237063 C3.94482282,9.0347112 3.94409864,9.04316126 3.94409864,9.04316126 Z" id="Path" fill="#675549"></path>
            <path d="M4.51008418,8.98853741 C4.35139966,9.03598453 4.19500486,9.03568013 3.99135435,9.03926905 C3.94409864,9.04316126 3.94482282,9.0347112 3.94850565,8.98555809 C3.95191944,8.77972905 3.95164701,8.62305493 3.95137458,8.4663799 C3.95137458,8.4663799 3.95024362,8.46660408 3.9974096,8.46652815 C4.20353254,8.46539538 4.36249288,8.46433764 4.52144983,8.4632799 C4.52144983,8.4632799 4.52052576,8.46552815 4.5200878,8.46466442 C4.51722565,8.62279538 4.51480147,8.7817912 4.51008418,8.98853741 Z" id="Path" fill="#B97044"></path>
            <path d="M4.51904983,8.41704148 C4.36249288,8.46433764 4.20353254,8.46539538 3.99698203,8.46584713 C3.95027808,8.31107222 3.95117458,8.15690499 3.9997165,7.95366905 C4.19925661,7.90552804 4.35114452,7.90645561 4.50303582,7.90738318 C4.5075739,8.06185651 4.51211186,8.21632973 4.51904983,8.41704148 Z" id="Path" fill="#8F8F8F"></path>
            <path d="M3.90447062,8.46585143 C3.95164701,8.62305493 3.95191944,8.77972905 3.95204362,8.98321662 C3.79405559,9.03112758 3.63621944,9.03222578 3.43085164,9.03405515 C3.38418554,8.87781549 3.38504768,8.72084657 3.38859254,8.51729945 C3.54670463,8.46892306 3.7021374,8.46712306 3.90447062,8.46585143 Z" id="Path" fill="#CBA265"></path>
            <path d="M4.50758418,7.8603103 C4.35114452,7.90645561 4.19925661,7.90552804 4.00180271,7.90755131 C3.91878802,7.56045877 3.9483539,7.26557007 4.47367345,7.34045369 C4.51819119,7.4986503 4.51516362,7.65594419 4.50758418,7.8603103 Z" id="Path" fill="#B97044"></path>
            <path d="M4.50771864,6.14975606 C4.35568599,6.19825493 4.20823266,6.20276702 4.01664429,6.20778261 C3.90466373,5.8460312 3.93632621,5.56385131 4.47049763,5.65560499 C4.51588429,5.81067222 4.51409119,5.95822126 4.50771864,6.14975606 Z" id="Path" fill="#945A38"></path>
        </g>
    </g>
</svg>
