<?xml version="1.0" encoding="UTF-8"?>
<svg width="11px" height="13px" viewBox="0 0 11 13" version="1.1" xmlns="http://www.w3.org/2000/svg" xmlns:xlink="http://www.w3.org/1999/xlink">
    <title>Group 7</title>
    <g id="Page-1" stroke="none" stroke-width="1" fill="none" fill-rule="evenodd">
        <g id="Group-7" transform="translate(0.688913, 0.499384)" fill-rule="nonzero">
            <g id="Group-6" transform="translate(0.000000, 0.000000)">
                <path d="M1.69117981,0.558391794 C1.70614558,0.395067614 1.72111123,0.231742981 1.74160795,0.00809733116 C2.78895055,0.00809733116 3.80958942,0.00251608822 4.82990411,0.0181815119 C4.9160223,0.0195035458 5.00142332,0.16164219 5.08456897,0.241062416 C5.19925304,0.350603772 5.3136336,0.460626936 5.42402795,0.574429083 C5.50402885,0.65689767 5.56629157,0.760432359 5.65616151,0.828602529 C5.80499767,0.941496879 5.96968908,1.03347677 6.17407755,1.13372095 C6.22045055,1.1331736 6.21789191,1.13059033 6.21884366,1.17814219 C6.2195953,1.38405654 6.2193884,1.54241857 6.16801541,1.69980095 C5.7757353,1.69247756 5.43461428,1.68613439 5.09259665,1.63231315 C5.12783157,1.26046208 5.00628535,1.09992411 4.65726772,1.1296701 C4.41901688,1.14997552 4.17455213,1.15792174 3.93830117,1.12820287 C3.47953755,1.0704936 3.33792219,1.28198468 3.34948784,1.69891643 C2.83198558,1.62627812 2.8000197,1.91872965 2.78456433,2.26394083 C2.26701383,2.19116716 2.2350962,2.48369112 2.21820637,2.82892501 C1.50183292,2.76575066 1.71885597,3.26803631 1.71808366,3.58714931 C1.71779394,3.70803824 1.90072705,3.82936976 2.00014185,3.95049869 C2.08828772,3.8368353 2.23322027,3.73205485 2.25268264,3.60764874 C2.29249688,3.35317869 2.26489654,3.08816287 2.31224185,2.8277397 C2.82979247,2.90040038 2.86165484,2.60787778 2.87720671,2.2627684 C3.39470897,2.33540671 3.42667484,2.04295518 3.44668196,1.69778501 C3.84443812,1.69925394 4.19052467,1.70048151 4.53222501,1.74792524 C4.52416287,1.94882095 4.52048693,2.10350072 4.52074897,2.2602179 C4.52469383,2.26225631 4.5206249,2.25436829 4.47300366,2.25801055 C4.2819188,2.27105428 4.13846207,2.28045564 3.98184648,2.29071959 C3.9691153,2.49094332 3.95861179,2.65618603 3.90047315,2.824284 C3.70962287,2.83704976 3.56642128,2.84696061 3.39568829,2.8587762 C3.39568829,3.06370999 3.39568829,3.23088773 3.34606705,3.39612953 C3.15505123,3.40167744 3.01365654,3.40916162 2.81725439,3.41955699 C2.81725439,4.18924524 2.81725439,4.9253266 2.77056422,5.65799507 C2.58187936,5.66515033 2.43987778,5.67571857 2.26561383,5.68868761 C2.26561383,5.88840795 2.26561383,6.05312524 2.21613733,6.21796671 C2.0241353,6.22660569 1.88160953,6.23511948 1.71904908,6.24483089 C1.71904908,6.63899903 1.71904908,6.9912684 1.71236626,7.394384 C1.70639383,7.7852875 1.70710422,8.12534558 1.70535936,8.51384558 C1.70267654,8.72279439 1.70245586,8.88330049 1.70153857,9.0907623 C1.70089032,9.29449552 1.70095236,9.45127394 1.65477948,9.60774468 C1.45504626,9.61008095 1.30154795,9.612724 1.14805665,9.61536716 C1.13376682,9.45138694 1.11948388,9.28740671 1.10520094,9.12342637 C1.05321417,9.1479275 1.00123428,9.17242953 0.949254391,9.19693066 C0.821956425,8.99182242 0.694658459,8.78671405 0.568863996,8.53015948 C0.570367498,8.47871236 0.579553826,8.46944072 0.627168063,8.47247089 C1.12453914,8.54452773 1.14144275,8.26799281 1.13998761,7.93074083 C1.13182885,6.041364 1.136491,4.151931 1.13635993,2.26292309 C1.13594614,2.26332829 1.13511857,2.26413869 1.18358806,2.26380501 C1.59184772,2.31064264 1.7387597,2.15629134 1.70463518,1.79420242 C1.68402806,1.57551168 1.70142829,1.35323812 1.70133168,1.13297959 C1.70091789,1.13338479 1.70009032,1.13419518 1.74744253,1.13387959 C1.94980343,1.03425609 2.10481202,0.934948518 2.25982061,0.835640156 C2.07637722,0.749421512 1.89293383,0.663203772 1.70490411,0.572348405 C1.70031789,0.56771089 1.69117981,0.558391794 1.69117981,0.558391794 Z" id="Path" fill="#2C2C2C"></path>
                <path d="M6.22176772,1.13449598 C6.22307812,0.986703433 6.22307812,0.837588405 6.22307812,0.826056427 C6.51601236,0.53550445 6.72586298,0.327354732 7.0514597,0.00440207692 C7.28520705,0.00440207692 7.69528061,0.01595993 8.10434027,0.000615862231 C8.41201258,-0.0109248157 8.48704795,0.140213941 8.48444795,0.413302755 C8.48126863,0.746100382 8.49032388,0.965992811 8.89094897,1.23016129 C9.22757337,1.45212535 9.71445462,1.8834814 9.65115044,2.63496558 C9.51758343,4.22044818 9.60306027,5.82507021 9.61628795,7.42169383 C9.61916388,7.76838558 9.54231473,7.97186196 9.09900637,7.91509066 C9.04619202,7.91361914 9.03697123,7.90448275 9.04006094,7.85246061 C9.04384716,6.51902953 9.04455066,5.2376197 9.04538513,3.90970852 C9.04529552,3.70815021 9.04508863,3.55309428 9.04505405,3.35035575 C9.12679981,2.8160292 8.80062377,2.81048219 8.47321326,2.767924 C8.47931688,2.57048038 8.47975823,2.41819033 8.48027541,2.21867948 C8.55323484,1.70257428 8.26260411,1.66691654 7.91586919,1.65083959 C7.98751145,1.12960807 7.68925981,1.10445564 7.29481405,1.13384942 C6.90180976,1.13262061 6.55984739,1.13160547 6.21789191,1.13059078 C6.21789191,1.13059033 6.22045055,1.1331736 6.22176772,1.13449598 Z" id="Path" fill="#2C2C2C"></path>
                <path d="M0.565801962,8.4833762 C0.397724222,8.47251575 0.234205126,8.45699146 0.00600263965,8.4353266 C0.00600263965,7.85171236 0.00598885434,7.29507778 0.00600263965,6.73844321 C0.00602331762,5.40948626 0.0148372159,4.08043112 0.000126707448,2.75163711 C-0.00371476148,2.40421778 0.0778034306,2.2054492 0.517497894,2.2612753 C0.570263996,2.26272264 0.579553826,2.27189609 0.576464109,2.32391688 C0.575443431,4.40710535 0.577498572,6.43827259 0.579553826,8.46944072 C0.579553826,8.46944072 0.570367498,8.47871236 0.565801962,8.4833762 Z" id="Path" fill="#2C2C2C"></path>
                <path d="M8.49813078,8.48440818 C8.48803417,8.64437801 8.47794445,8.80434705 8.4646753,9.01459846 C8.31883925,9.02417699 8.16620987,9.03420129 7.96490422,8.99445428 C7.91380027,8.22326129 7.9113588,7.50184038 7.9113588,6.73305869 C7.91886241,6.52809857 7.92393134,6.37049857 7.9747388,6.21496332 C8.17298931,6.22094784 8.32549439,6.22486852 8.47897202,6.28079767 C8.48628241,6.86079191 8.49262038,7.3887779 8.49171699,7.96368603 C8.48902727,8.16854083 8.49357902,8.32647451 8.49813078,8.48440818 Z" id="Path" fill="#A7A7A7"></path>
                <path d="M7.90892433,6.78041869 C7.9113588,7.50184038 7.91380027,8.22326129 7.91673823,8.99819146 C7.91723473,9.21621541 7.91723473,9.380731 7.91723473,9.57889349 C7.73514309,9.59228761 7.59138287,9.60286185 7.39849801,9.61079304 C7.34937337,9.60814987 7.34703541,9.58147021 7.34831123,9.53697835 C7.3499388,9.34281326 7.35029055,9.19314095 7.35063541,8.99631722 C7.35063541,8.79195722 7.35063541,8.63474863 7.35055959,8.43053259 C7.35053191,8.22687598 7.35058027,8.07022682 7.35063541,7.86201937 C7.35569755,7.4654736 7.36076659,7.12048614 7.41116027,6.77804535 C7.60729337,6.78053326 7.75810885,6.78047552 7.90892433,6.78041869 Z" id="Path" fill="#7F7F7F"></path>
                <path d="M1.14313936,9.66749711 C1.30154795,9.612724 1.45504626,9.61008095 1.65467597,9.60763349 C1.70081439,9.60782829 1.69982128,9.60686275 1.70065586,9.65831157 C1.70237993,10.053322 1.70326275,10.3968819 1.702711,10.7913811 C1.69762128,11.180087 1.69395925,11.5178545 1.690304,11.8556221 C1.5274884,11.8556221 1.3646797,11.8556221 1.13822207,11.8556221 C1.13822207,11.1178881 1.13822207,10.4187579 1.14313936,9.66749711 Z" id="Path" fill="#564940"></path>
                <path d="M5.09688637,11.8563376 C4.562184,11.8575755 4.02747462,11.8588152 3.44198535,11.8107457 C3.39295032,11.608828 3.39470897,11.4562177 3.44905439,11.3024625 C4.02962637,11.3029333 4.55762524,11.3045487 5.08681733,11.3521838 C5.09098287,11.5509135 5.09393462,11.7036256 5.09688637,11.8563376 Z" id="Path" fill="#2E231B"></path>
                <path d="M0.565601962,2.25815925 C0.564326029,2.035071 0.586422866,1.81485564 0.566857103,1.59840411 C0.534836086,1.24404162 0.67045134,1.08312694 1.08275247,1.13132016 C1.13523575,1.13277914 1.14452558,1.14195259 1.14147032,1.19233801 C1.13731857,1.58319541 1.13622196,1.92366716 1.13511857,2.26413869 C1.13511857,2.26413869 1.13594614,2.26332829 1.08970422,2.26320931 C0.888826142,2.26602569 0.734189984,2.26896072 0.579553826,2.27189564 C0.579553826,2.27189564 0.570263996,2.26272264 0.565601962,2.25815925 Z" id="Path" fill="#2C2C2C"></path>
                <path d="M1.73914592,11.8588496 C1.69395925,11.5178545 1.69762128,11.180087 1.74987021,10.789912 C1.95612072,10.7378925 2.11378456,10.7382813 2.27035868,10.7853327 C2.27226207,10.9872004 2.2752484,11.1424073 2.27551733,11.3439941 C2.27360693,11.5442359 2.27440693,11.6980979 2.27520693,11.8519582 C2.11279835,11.8553324 1.95039654,11.8587049 1.73914592,11.8588496 Z" id="Path" fill="#2E231B"></path>
                <path d="M6.77398761,11.2931848 C6.77398761,11.4561315 6.77398761,11.6190798 6.77398761,11.8599548 C6.40214908,11.8599548 6.07615925,11.8599548 5.70061722,11.8104095 C5.65113394,11.6073073 5.65120287,11.4537521 5.6525753,11.3009073 C5.6538788,11.3016177 5.65569258,11.3028056 5.70318275,11.3026936 C5.90942637,11.3007246 6.06817304,11.2988659 6.27269247,11.2985659 C6.4703084,11.2978125 6.62214456,11.2954987 6.77398761,11.2931848 Z" id="Path" fill="#2E231B"></path>
                <path d="M2.32536614,11.8568532 C2.27440693,11.6980979 2.27360693,11.5442359 2.32550411,11.3456475 C2.71763258,11.3018177 3.0570501,11.3027125 3.39646761,11.3036091 C3.39470897,11.4562177 3.39295032,11.608828 3.38883993,11.8067025 C3.04949835,11.855229 2.7125153,11.8584876 2.32536614,11.8568532 Z" id="Path" fill="#3F3F3F"></path>
                <path d="M8.54406241,8.48239869 C8.49357902,8.32647451 8.48902727,8.16854083 8.53667609,7.96256275 C8.73823688,7.91117338 8.88760411,7.90782852 9.03697123,7.90448275 C9.03697123,7.90448275 9.04619202,7.91361914 9.05090241,7.91822343 C9.06629575,8.24721496 9.05581281,8.55393044 8.54406241,8.48239869 Z" id="Path" fill="#2C2C2C"></path>
                <path d="M1.13057371,1.12821665 C1.11058727,0.790883207 1.13563575,0.49234671 1.64515179,0.561986258 C1.69117981,0.558391794 1.70031789,0.56771089 1.7018145,0.618393376 C1.70224207,0.82411541 1.70116614,0.979155523 1.70009032,1.13419518 C1.70009032,1.13419518 1.70091789,1.13338479 1.65467597,1.13326626 C1.45379789,1.13608264 1.29916174,1.13901756 1.14452558,1.14195259 C1.14452558,1.14195259 1.13523575,1.13277914 1.13057371,1.12821665 Z" id="Path" fill="#2C2C2C"></path>
                <path d="M5.65127179,11.3001953 C5.65120287,11.4537521 5.65113394,11.6073073 5.64872004,11.8064163 C5.49371145,11.8556342 5.34104083,11.8593014 5.14263168,11.8596532 C5.09393462,11.7036256 5.09098287,11.5509135 5.134211,11.3508337 C5.33735111,11.3023763 5.49431145,11.3012849 5.65127179,11.3001953 Z" id="Path" fill="#3F3F3F"></path>
                <path d="M7.33996637,10.186983 C7.33996637,10.3473364 7.33996637,10.50769 7.33996637,10.7120621 C7.18686117,10.721038 7.03259055,10.7300812 6.84251948,10.7385029 C6.80670524,10.7378804 6.80026377,10.7105878 6.79505688,10.6660296 C6.78855337,10.4707145 6.78724987,10.3199569 6.83222965,10.1708802 C7.0323284,10.1773682 7.18614388,10.182176 7.33996637,10.186983 Z" id="Path" fill="#C1C1C1"></path>
                <path d="M6.77882219,11.2483309 C6.62214456,11.2954987 6.4703084,11.2978125 6.27004422,11.2511396 C6.22410569,11.0431821 6.22659541,10.8842122 6.27636151,10.7303407 C6.48251552,10.7271544 6.64138626,10.7188716 6.80026377,10.7105878 C6.80026377,10.7105878 6.80670524,10.7378804 6.79425688,10.7443219 C6.7824153,10.9016684 6.78302919,11.0525736 6.77882219,11.2483309 Z" id="Path" fill="#564940"></path>
                <path d="M7.34369744,10.1407428 C7.18614388,10.182176 7.0323284,10.1773682 6.83210558,10.1239926 C6.78600162,9.9187179 6.78629123,9.762011 6.83349868,9.60624377 C7.03595609,9.59861349 7.19149575,9.59004185 7.34703541,9.58147021 C7.34703541,9.58147021 7.34937337,9.60814987 7.35183541,9.62131982 C7.35200094,9.78782773 7.34971123,9.94116558 7.34369744,10.1407428 Z" id="Path" fill="#3F3F3F"></path>
                <path d="M3.39568829,3.3980649 C3.39568829,3.23088773 3.39568829,3.06370999 3.39568829,2.8587762 C3.56642128,2.84696061 3.70962287,2.83704976 3.94847371,2.8262379 C4.52465247,2.90350174 4.55920456,2.60945326 4.5206249,2.25436829 C4.5206249,2.25436829 4.52469383,2.26225631 4.56870128,2.26169202 C4.77238626,2.26199168 4.93207767,2.26285541 5.09145191,2.31230208 C5.05597563,2.675344 5.14410072,2.86074049 5.51336682,2.83293631 C5.85589473,2.80714547 6.251044,2.73145326 6.2727753,3.28513315 C6.27431315,3.32446151 6.45861868,3.3801936 6.56081981,3.38737733 C6.82112614,3.40567451 7.08307383,3.40077665 7.34691123,3.44940987 C7.34918027,3.6424788 7.34888366,3.79129857 7.29751755,3.94735722 C6.91812716,3.95459439 6.58982015,3.95459439 6.25469224,3.95459439 C6.25469224,4.1764649 6.25469224,4.33324852 6.25469224,4.52540242 C6.45148761,4.52540242 6.61573767,4.52540242 6.78249123,4.57432965 C6.78499473,4.76364377 6.78499473,4.90403066 6.78499473,5.0516927 C7.0004936,5.0516927 7.16994377,5.0516927 7.35631134,5.0516927 C7.35631134,4.85222501 7.35631134,4.68881281 7.40242219,4.52453078 C7.60197609,4.52812739 7.75542603,4.53259643 7.9116623,4.58742637 C7.90860015,4.97561078 7.9027449,5.31343518 7.84645462,5.65182773 C7.45507789,5.65503643 7.11414309,5.65767699 6.72115258,5.65741835 C5.95888207,5.65640535 5.2486536,5.65829157 4.49041078,5.65815372 C3.96209462,5.57783903 3.92743213,5.8718284 3.96352219,6.22305824 C3.96133597,6.21936242 3.9691084,6.22301428 3.92190795,6.22142795 C3.71877462,6.21766072 3.56283496,6.21548049 3.40223326,6.1671214 C3.39559868,5.96693643 3.39362626,5.81293123 3.3928814,5.60712377 C3.3949849,5.20966942 3.39585383,4.86401733 3.44806818,4.52011699 C3.8430588,4.52465586 4.18671778,4.52744208 4.52834908,4.57874004 C4.5263284,4.76729383 4.5263284,4.90733586 4.5263284,5.04918321 C4.74302038,5.04918321 4.9118223,5.04918321 5.09681055,5.04918321 C5.09681055,4.84700942 5.09681055,4.68335066 5.0931484,4.52112908 C5.08948637,4.52256614 5.09204501,4.53001021 5.14043168,4.52729643 C5.63607857,4.57995473 5.751804,4.38981292 5.59476083,3.97398773 C5.42034513,3.96620999 5.25503981,3.95883835 5.08976908,3.95532456 C5.08979665,3.95918321 5.09751394,3.95926942 5.09478987,3.90943609 C5.08325868,3.71644174 5.07445857,3.57328027 5.06307914,3.38818852 C4.47921755,3.38818852 3.93591496,3.38818852 3.39158479,3.39122524 C3.39055032,3.39426185 3.39568829,3.3980649 3.39568829,3.3980649 Z" id="Path" fill="#EFB385"></path>
                <path d="M0.576464109,2.32391688 C0.734189984,2.26896072 0.888826142,2.26602569 1.09011801,2.26280411 C1.136491,4.151931 1.13182885,6.041364 1.13998761,7.93074083 C1.14144275,8.26799281 1.12453914,8.54452773 0.627168063,8.47247089 C0.577498572,6.43827259 0.575443431,4.40710535 0.576464109,2.32391688 Z" id="Path" fill="#3F3F3F"></path>
                <path d="M3.39671586,4.51836434 C3.39585383,4.86401733 3.3949849,5.20966942 3.34670162,5.60465304 C3.14424422,5.65328987 2.98920795,5.65259677 2.82993722,5.65426049 C2.82569586,5.65661744 2.81725439,5.66140886 2.81725439,5.66140886 C2.81725439,4.9253266 2.81725439,4.18924524 2.81725439,3.41955699 C3.01365654,3.40916162 3.15505123,3.40167744 3.34606705,3.39612953 C3.39568829,3.3980649 3.39055032,3.39426185 3.39283315,3.43791451 C3.3993849,3.63721112 3.40366083,3.79285552 3.40425394,3.99594739 C3.3992884,4.20171869 3.39799868,4.36004106 3.39671586,4.51836434 Z" id="Path" fill="#EBA069"></path>
                <path d="M3.39666072,1.69916694 C3.33792219,1.28198468 3.47953755,1.0704936 3.93830117,1.12820287 C4.17455213,1.15792174 4.41901688,1.14997552 4.65726772,1.1296701 C5.00628535,1.09992411 5.12783157,1.26046208 5.04662377,1.63949982 C4.84657326,1.69667982 4.69158535,1.69919405 4.53660433,1.70170829 C4.19052467,1.70048151 3.84443812,1.69925394 3.44709575,1.69819451 C3.39583315,1.69836219 3.39666072,1.69916694 3.39666072,1.69916694 Z" id="Path" fill="#3F3F3F"></path>
                <path d="M4.53222501,1.74792524 C4.69158535,1.69919405 4.84657326,1.69667982 5.04752727,1.6869788 C5.43461428,1.68613439 5.7757353,1.69247756 6.16624298,1.6993484 C6.21563665,1.69987598 6.21465044,1.7034066 6.21722976,1.74967089 C6.22320919,1.95039123 6.22661609,2.10484637 6.17814659,2.26048818 C5.78143191,2.26235586 5.43660049,2.26303778 5.09176219,2.2637197 C4.93207767,2.26285541 4.77238626,2.26199168 4.56475642,2.25965417 C4.52048693,2.10350072 4.52416287,1.94882095 4.53222501,1.74792524 Z" id="Path" fill="#EBA069"></path>
                <path d="M2.26506207,2.82748965 C2.26489654,3.08816287 2.29249688,3.35317869 2.25268264,3.60764874 C2.23322027,3.73205485 2.08828772,3.8368353 2.00014185,3.95049869 C1.90072705,3.82936976 1.71779394,3.70803824 1.71808366,3.58714931 C1.71885597,3.26803631 1.50183292,2.76575066 2.21779258,2.82851857 C2.26588965,2.82830004 2.26506207,2.82748965 2.26506207,2.82748965 Z" id="Path" fill="#3F3F3F"></path>
                <path d="M1.14147032,1.19233801 C1.29916174,1.13901756 1.45379789,1.13608264 1.65508976,1.13286106 C1.70142829,1.35323812 1.68402806,1.57551168 1.70463518,1.79420242 C1.7387597,2.15629134 1.59184772,2.31064264 1.18358806,2.26380501 C1.13622196,1.92366716 1.13731857,1.58319541 1.14147032,1.19233801 Z" id="Path" fill="#3F3F3F"></path>
                <path d="M6.21884366,1.17814219 C6.55984739,1.13160547 6.90180976,1.13262061 7.29655202,1.18137925 C7.35056648,1.38771948 7.35180094,1.54631564 7.30609699,1.70174581 C7.10337066,1.70316049 6.94760343,1.70774151 6.74409767,1.70658592 C6.53579191,1.70170095 6.37522467,1.7025536 6.21465044,1.7034066 C6.21465044,1.7034066 6.21563665,1.69987598 6.21740908,1.70032852 C6.2193884,1.54241857 6.2195953,1.38405654 6.21884366,1.17814219 Z" id="Path" fill="#000000"></path>
                <path d="M1.7078145,8.46540275 C1.70710422,8.12534558 1.70639383,7.7852875 1.757484,7.39576422 C1.95992072,7.34516027 2.11055688,7.344024 2.2628275,7.39488581 C2.26311032,7.79394106 2.26176546,8.14099835 2.21434422,8.48424174 C2.01479032,8.47541925 1.86130592,8.47041146 1.7078145,8.46540275 Z" id="Path" fill="#8F8F8F"></path>
                <path d="M2.26119993,7.34288784 C2.11055688,7.344024 1.95992072,7.34516027 1.76415993,7.34491711 C1.71904908,6.9912684 1.71904908,6.63899903 1.71904908,6.24483089 C1.88160953,6.23511948 2.0241353,6.22660569 2.2162753,6.21811157 C2.26588965,6.21813055 2.26622761,6.21847711 2.26610343,6.26969146 C2.26438614,6.66156648 2.26279304,7.00222716 2.26119993,7.34288784 Z" id="Path" fill="#A7A7A7"></path>
                <path d="M2.26575168,6.2179866 C2.26561383,6.05312524 2.26561383,5.88840795 2.26561383,5.68868761 C2.43987778,5.67571857 2.58187936,5.66515033 2.77056422,5.65799507 C2.81725439,5.66140886 2.82569586,5.65661744 2.82857168,5.70136445 C2.82604061,5.90239259 2.82062682,6.05867451 2.7696814,6.21599428 C2.57150682,6.21751507 2.41887066,6.21799609 2.26622761,6.21847711 C2.26622761,6.21847711 2.26588965,6.21813055 2.26575168,6.2179866 Z" id="Path" fill="#A7A7A7"></path>
                <path d="M2.26630343,2.82870694 C2.2350962,2.48369112 2.26701383,2.19116716 2.78415055,2.26353428 C2.8308614,2.26332829 2.83003383,2.2625179 2.83003383,2.2625179 C2.86165484,2.60787778 2.82979247,2.90040038 2.31224874,2.8277397 C2.26506207,2.82748965 2.26588965,2.82830004 2.26630343,2.82870694 Z" id="Path" fill="#3F3F3F"></path>
                <path d="M4.47300366,2.25801055 C4.55920456,2.60945326 4.52465247,2.90350174 3.99610874,2.82338275 C3.95861179,2.65618603 3.9691153,2.49094332 3.98184648,2.29071959 C4.13846207,2.28045564 4.2819188,2.27105428 4.47300366,2.25801055 Z" id="Path" fill="#EBA069"></path>
                <path d="M2.83127518,2.26373518 C2.8000197,1.91872965 2.83198558,1.62627812 3.34948784,1.69891643 C3.39666072,1.69916694 3.39583315,1.69836219 3.39541936,1.6979527 C3.42667484,2.04295518 3.39470897,2.33540671 2.87720671,2.2627684 C2.83003383,2.2625179 2.8308614,2.26332829 2.83127518,2.26373518 Z" id="Path" fill="#3F3F3F"></path>
                <path d="M1.74744253,1.13387959 C1.70116614,0.979155523 1.70224207,0.82411541 1.70640761,0.62303089 C1.89293383,0.663203772 2.07637722,0.749421512 2.25982061,0.835640156 C2.10481202,0.934948518 1.94980343,1.03425609 1.74744253,1.13387959 Z" id="Path" fill="#3F3F3F"></path>
                <path d="M1.70535936,8.51384558 C1.86130592,8.47041146 2.01479032,8.47541925 2.21646151,8.48195383 C2.2646414,8.4834814 2.25937236,8.48095123 2.26206897,8.52751812 C2.26066885,8.7295962 2.25657236,8.88510739 2.2068545,9.04162377 C2.00823857,9.04302208 1.85522998,9.04341518 1.70222829,9.04380739 C1.70245586,8.88330049 1.70267654,8.72279439 1.70535936,8.51384558 Z" id="Path" fill="#3F3F3F"></path>
                <path d="M1.70153168,9.0907623 C1.85522998,9.04341518 2.00823857,9.04302208 2.21210976,9.08871225 C2.264931,9.29173518 2.26688275,9.44867485 2.22145462,9.60674377 C2.01598343,9.60753609 1.8579058,9.60719982 1.69982128,9.60686275 C1.69982128,9.60686275 1.70081439,9.60782829 1.70091789,9.60794038 C1.70095236,9.45127394 1.70089032,9.29449552 1.70153168,9.0907623 Z" id="Path" fill="#564940"></path>
                <path d="M9.04006094,7.85246061 C8.88760411,7.90782852 8.73823688,7.91117338 8.54391755,7.91564061 C8.49262038,7.3887779 8.48628241,6.86079191 8.47974445,6.22711168 C8.48175134,5.40451292 8.48396513,4.68760931 8.53232433,3.96502468 C8.73406445,3.95829869 8.88965925,3.95725473 9.04525405,3.95620987 C9.04455066,5.2376197 9.04384716,6.51902953 9.04006094,7.85246061 Z" id="Path" fill="#3F3F3F"></path>
                <path d="M9.04538513,3.90970852 C8.88965925,3.95725473 8.73406445,3.95829869 8.48699281,3.96074705 C8.24465902,3.95555123 8.09380219,3.94895123 7.9318832,3.93990886 C7.92083484,3.9374666 7.90662772,3.95508581 7.91057948,3.90882581 C7.91315191,3.70769338 7.91177258,3.55282049 7.95773179,3.39662953 C8.16172716,3.39051055 8.318384,3.3857101 8.52240004,3.38493123 C8.72813337,3.39198129 8.8865075,3.39500976 9.04487484,3.39803824 C9.04508863,3.55309428 9.04529552,3.70815021 9.04538513,3.90970852 Z" id="Path" fill="#000000"></path>
                <path d="M7.3530423,1.70491225 C7.35180094,1.54631564 7.35056648,1.38771948 7.34760094,1.18159304 C7.68925981,1.10445564 7.98751145,1.12960807 7.9156623,1.6510414 C7.91560716,1.69834874 7.91545541,1.69852422 7.86828942,1.69844795 C7.6628388,1.69811518 7.50455439,1.69785869 7.34947676,1.69802547 C7.35267676,1.69844874 7.3530423,1.70491225 7.3530423,1.70491225 Z" id="Path" fill="#3F3F3F"></path>
                <path d="M7.91581405,1.69814705 C8.26260411,1.66691654 8.55323484,1.70257428 8.43319213,2.21757439 C8.2288658,2.26393179 8.07169857,2.26417394 7.91499337,2.21719326 C7.91545541,2.01282162 7.91545541,1.85567292 7.91545541,1.69852422 C7.91545541,1.69852422 7.91560716,1.69834874 7.91581405,1.69814705 Z" id="Path" fill="#3F3F3F"></path>
                <path d="M7.91453134,2.2644162 C8.07169857,2.26417394 8.2288658,2.26393179 8.43311631,2.26479473 C8.47975823,2.41819033 8.47931688,2.57048038 8.4740823,2.77403485 C8.46929597,2.82529914 8.48075134,2.82935179 8.43402671,2.82834061 C8.23167959,2.82608411 8.07604343,2.82483925 7.91901405,2.77690547 C7.91824162,2.57329338 7.91886241,2.41637055 7.91824162,2.26068603 C7.91700716,2.26192524 7.91453134,2.2644162 7.91453134,2.2644162 Z" id="Path" fill="#000000"></path>
                <path d="M9.04505405,3.3503562 C8.8865075,3.39500976 8.72813337,3.39198129 8.52482083,3.33946773 C8.48016513,3.13643925 8.48045473,2.98289575 8.48075134,2.82935179 C8.48075134,2.82935179 8.46929597,2.82529914 8.46842705,2.81918784 C8.80062377,2.81048219 9.12679981,2.8160292 9.04505405,3.3503562 Z" id="Path" fill="#3F3F3F"></path>
                <path d="M7.94293846,3.94235021 C8.09380219,3.94895123 8.24465902,3.95555123 8.44085439,3.96642897 C8.48396513,4.68760931 8.48175134,5.40451292 8.47876513,6.17510253 C8.32549439,6.22486852 8.17298931,6.22094784 7.96925597,6.168111 C7.91097948,5.96321744 7.90393812,5.80723891 7.89688976,5.65125959 C7.9027449,5.31343518 7.90860015,4.97561078 7.91360027,4.53797756 C7.92281417,4.2728962 7.93287631,4.10762366 7.94293846,3.94235021 Z" id="Path" fill="#2C2C2C"></path>
                <path d="M7.84646162,5.65182773 C7.90393812,5.80723891 7.91097948,5.96321744 7.92351066,6.16604807 C7.92393134,6.37049857 7.91886241,6.52809857 7.9113588,6.73305869 C7.75810885,6.78047552 7.60729337,6.78053326 7.40517394,6.73041383 C7.46505733,6.21370117 7.12272942,6.20088807 6.80721563,6.18061552 C6.79448445,5.98585903 6.78384298,5.82308829 6.7732014,5.66031744 C7.11414309,5.65767699 7.45507789,5.65503643 7.84646162,5.65182773 Z" id="Path" fill="#EBA069"></path>
                <path d="M6.72115258,5.65741835 C6.78384298,5.82308829 6.79448445,5.98585903 6.80721563,6.18061552 C7.12272942,6.20088807 7.46505733,6.21370117 7.35984931,6.72786897 C7.36076659,7.12048614 7.35569755,7.4654736 7.30315902,7.86189179 C7.09662569,7.91573631 6.93756185,7.91815021 6.78123597,7.87191089 C6.7741049,7.67027586 6.76422897,7.51729225 6.75411157,7.36059485 C6.54321959,7.36059485 6.3831971,7.36059485 6.22233326,7.31100637 C6.1703327,6.72016027 5.9674753,6.64721292 5.10965202,6.87627485 C5.10273473,7.03285247 5.09550015,7.19672501 5.04026513,7.35567937 C4.84109733,7.36097157 4.6899371,7.37118377 4.53210083,7.38184603 C4.53210083,7.5990423 4.53210083,7.75937518 4.48438309,7.91682174 C4.27804287,7.91381654 4.11942049,7.91369756 3.9608049,7.86200908 C3.95573586,7.46532535 3.95067371,7.12020863 3.951591,6.72936976 C3.96141179,6.53010298 3.96526015,6.37655812 3.9691084,6.22301428 C3.9691084,6.22301428 3.96133597,6.21936242 4.010971,6.21966501 C4.20330411,6.20915541 4.34598852,6.19834411 4.50186603,6.1865336 C4.51561789,5.9884953 4.5270249,5.82433654 4.53842501,5.6601779 C5.2486536,5.65829157 5.95888207,5.65640535 6.72115258,5.65741835 Z" id="Path" fill="#3F3F3F"></path>
                <path d="M6.77850501,7.92056309 C6.93756185,7.91815021 7.09662569,7.91573631 7.30315902,7.913451 C7.35058027,8.07022682 7.35053191,8.22687598 7.3034832,8.43065157 C7.09960501,8.47498129 6.94273439,8.47218648 6.7885327,8.42296524 C6.79006366,8.2213492 6.78891202,8.06615869 6.78542919,7.913351 C6.78309123,7.91573372 6.77850501,7.92056309 6.77850501,7.92056309 Z" id="Path" fill="#C1C1C1"></path>
                <path d="M7.34831123,9.53697835 C7.19149575,9.59004185 7.03595609,9.59861349 6.83629179,9.60697225 C6.79216716,9.60676016 6.79390513,9.60123428 6.79126377,9.55486388 C6.78763609,9.35356682 6.78664987,9.19863925 6.83272626,9.04347383 C7.03673541,9.04331168 7.19368885,9.04339021 7.35063541,9.04346773 C7.35029055,9.19314095 7.3499388,9.34281326 7.34831123,9.53697835 Z" id="Path" fill="#C1C1C1"></path>
                <path d="M7.35063541,8.99631722 C7.19368885,9.04339021 7.03673541,9.04331168 6.83272626,8.99564908 C6.78572569,8.78850637 6.78579473,8.62894852 6.78585223,8.46939078 C6.94273439,8.47218648 7.09960501,8.47498129 7.30355902,8.47765812 C7.35063541,8.63474863 7.35063541,8.79195722 7.35063541,8.99631722 Z" id="Path" fill="#3F3F3F"></path>
                <path d="M1.70065586,9.65831157 C1.8579058,9.60719982 2.01598343,9.60753609 2.22041326,9.60680072 C2.26676546,9.60572829 2.2687449,9.60407654 2.26771032,9.65130976 C2.18474388,10.1601783 2.47925755,10.1982382 2.82093021,10.2335456 C2.9064553,10.7531676 2.6002588,10.7595428 2.27144829,10.7386701 C2.11378456,10.7382813 1.95612072,10.7378925 1.75130467,10.7389735 C1.70326275,10.3968819 1.70237993,10.053322 1.70065586,9.65831157 Z" id="Path" fill="#3B322F"></path>
                <path d="M2.27035868,10.7853327 C2.6002588,10.7595428 2.9064553,10.7531676 2.82734411,10.2268265 C2.82984072,10.1742 2.84263394,10.1611517 2.88808965,10.1653716 C3.08620219,10.1659509 3.23885902,10.1623103 3.43993021,10.1629387 C3.65037394,10.1700233 3.81240332,10.1728397 3.96946015,10.2231661 C3.9730188,10.4132682 3.98155688,10.5558612 3.99146727,10.7215026 C4.18880739,10.7215026 4.35225744,10.7215026 4.56334953,10.7266044 C5.09080354,10.8306315 5.11884524,10.5290204 5.14394897,10.1797311 C5.34712366,10.1789872 5.50352535,10.1818484 5.65802366,10.2352482 C5.6559753,10.6247929 5.65583744,10.9637993 5.65569258,11.3028056 C5.65569258,11.3028056 5.6538788,11.3016177 5.6525753,11.3009073 C5.49431145,11.3012849 5.33735111,11.3023763 5.133004,11.304816 C4.55762524,11.3045487 4.02962637,11.3029333 3.4490475,11.3024625 C3.0570501,11.3027125 2.71763258,11.3018177 2.3282214,11.2992659 C2.2752484,11.1424073 2.27226207,10.9872004 2.27035868,10.7853327 Z" id="Path" fill="#564940"></path>
                <path d="M5.70318275,11.3026936 C5.65583744,10.9637993 5.6559753,10.6247929 5.70407936,10.2299473 C5.90637123,10.177376 6.06069699,10.1806432 6.21808501,10.2291309 C6.22378852,10.4246476 6.22643676,10.574945 6.22908513,10.7252423 C6.22659541,10.8842122 6.22410569,11.0431821 6.22427812,11.2495791 C6.06817304,11.2988659 5.90942637,11.3007246 5.70318275,11.3026936 Z" id="Path" fill="#3B322F"></path>
                <path d="M6.27636151,10.7303407 C6.22643676,10.574945 6.22378852,10.4246476 6.21982987,10.1810536 C6.14584965,9.61281451 6.44585304,9.57861078 6.79390513,9.60123428 C6.79390513,9.60123428 6.79216716,9.60676016 6.78937405,9.60603168 C6.78629123,9.762011 6.78600162,9.9187179 6.78582919,10.1223116 C6.78724987,10.3199569 6.78855337,10.4707145 6.79505688,10.6660296 C6.64138626,10.7188716 6.48251552,10.7271544 6.27636151,10.7303407 Z" id="Path" fill="#8F8F8F"></path>
                <path d="M5.09145191,2.31230253 C5.43660049,2.26303778 5.78143191,2.26235586 6.22348501,2.26223948 C6.47312919,2.26628264 6.62555846,2.26975982 6.77943597,2.27031372 C6.78088433,2.26739044 6.77494626,2.26873824 6.77825665,2.31610298 C6.68818671,2.85450592 7.01278343,2.85154468 7.34755948,2.83608332 C7.35042162,2.83223236 7.34089733,2.83341134 7.34412501,2.87908773 C7.35009055,3.07676445 7.35282162,3.22876434 7.35313202,3.38703812 C7.35072501,3.3933127 7.34435948,3.40516117 7.34435948,3.40516117 C7.08307383,3.40077665 6.82112614,3.40567451 6.56081981,3.38737733 C6.45861868,3.3801936 6.27431315,3.32446151 6.2727753,3.28513315 C6.251044,2.73145326 5.85589473,2.80714547 5.51336682,2.83293631 C5.14410072,2.86074049 5.05597563,2.675344 5.09145191,2.31230253 Z" id="Path" fill="#EC7759"></path>
                <path d="M7.9318832,3.93990886 C7.93287631,4.10762366 7.92281417,4.2728962 7.91080716,4.48761744 C7.75542603,4.53259643 7.60197609,4.52812739 7.35440784,4.52374976 C7.10018433,4.52436095 6.94008603,4.52488174 6.77998772,4.52540242 C6.61573767,4.52540242 6.45148761,4.52540242 6.25469224,4.52540242 C6.25469224,4.33324852 6.25469224,4.1764649 6.25469224,3.95459439 C6.58982015,3.95459439 6.91812716,3.95459439 7.34380772,3.95481767 C7.59633462,3.95505552 7.75148117,3.95507021 7.90662772,3.95508581 C7.90662772,3.95508581 7.92083484,3.9374666 7.9318832,3.93990886 Z" id="Path" fill="#3F3F3F"></path>
                <path d="M3.44806128,4.52011699 C3.39799868,4.36004106 3.3992884,4.20171869 3.45586829,3.99941733 C4.03994366,3.95671598 4.56872885,3.9579927 5.09751394,3.95926942 C5.09751394,3.95926942 5.08979665,3.95918321 5.09013462,4.003544 C5.09099665,4.20860581 5.09152083,4.3693084 5.09204501,4.53001021 C5.09204501,4.53001021 5.08948637,4.52256614 5.04598931,4.52256705 C4.84511812,4.52512219 4.687744,4.52767564 4.53036976,4.5302292 C4.18671778,4.52744208 3.8430588,4.52465586 3.44806128,4.52011699 Z" id="Path" fill="#CE6A39"></path>
                <path d="M5.09478987,3.90943609 C4.56872885,3.9579927 4.03994366,3.95671598 3.45954422,3.95196931 C3.40366083,3.79285552 3.3993849,3.63721112 3.39386072,3.4348779 C3.93591496,3.38818852 4.47921755,3.38818852 5.06307914,3.38818852 C5.07445857,3.57328027 5.08325868,3.71644174 5.09478987,3.90943609 Z" id="Path" fill="#3F3F3F"></path>
                <path d="M2.81521981,6.21495552 C2.82062682,6.05867451 2.82604061,5.90239259 2.83281315,5.69900761 C2.98920795,5.65259677 3.14424422,5.65328987 3.34546705,5.65645372 C3.39362626,5.81293123 3.39559868,5.96693643 3.39815733,6.21396411 C3.3948814,6.46283846 3.39101925,6.6186901 3.39020546,6.77916174 C3.39326072,6.78378072 3.40239868,6.79003688 3.3551223,6.78755925 C3.15119597,6.78306784 2.99453902,6.78105315 2.83557868,6.73204829 C2.8272545,6.52835643 2.82123371,6.37165552 2.81521981,6.21495552 Z" id="Path" fill="#CE6A39"></path>
                <path d="M4.49041078,5.65815372 C4.5270249,5.82433654 4.51561789,5.9884953 4.50186603,6.1865336 C4.34598852,6.19834411 4.20330411,6.20915541 4.01316411,6.22336083 C3.92743213,5.8718284 3.96209462,5.57783903 4.49041078,5.65815372 Z" id="Path" fill="#EBA069"></path>
                <path d="M3.38715722,6.77454275 C3.39101925,6.6186901 3.3948814,6.46283846 3.40281948,6.26014309 C3.56283496,6.21548049 3.71877462,6.21766072 3.92190795,6.22142795 C3.96526015,6.37655812 3.96141179,6.53010298 3.90536976,6.73200694 C3.69783642,6.77842468 3.54249688,6.77648332 3.38715722,6.77454275 Z" id="Path" fill="#EBA069"></path>
                <path d="M7.91057948,3.90882581 C7.75148117,3.95507021 7.59633462,3.95505552 7.39489111,3.94757959 C7.34888366,3.79129857 7.34918027,3.6424788 7.34691123,3.44940987 C7.34435948,3.40516117 7.35072501,3.3933127 7.3989049,3.39289507 C7.60028648,3.39640592 7.75348818,3.40033485 7.90922083,3.40357541 C7.91175191,3.40288739 7.91039326,3.39794818 7.91039326,3.39794818 C7.91177258,3.55282049 7.91315191,3.70769338 7.91057948,3.90882581 Z" id="Path" fill="#EBA069"></path>
                <path d="M4.52834908,4.57874004 C4.687744,4.52767564 4.84511812,4.52512219 5.04965145,4.52113078 C5.09681055,4.68335066 5.09681055,4.84700942 5.09681055,5.04918321 C4.9118223,5.04918321 4.74302038,5.04918321 4.5263284,5.04918321 C4.5263284,4.90733586 4.5263284,4.76729383 4.52834908,4.57874004 Z" id="Path" fill="#000000"></path>
                <path d="M6.78249123,4.57432965 C6.94008603,4.52488174 7.10018433,4.52436095 7.30829699,4.52462049 C7.35631134,4.68881281 7.35631134,4.85222501 7.35631134,5.0516927 C7.16994377,5.0516927 7.0004936,5.0516927 6.78499473,5.0516927 C6.78499473,4.90403066 6.78499473,4.76364377 6.78249123,4.57432965 Z" id="Path" fill="#000000"></path>
                <path d="M5.14042479,4.52729643 C5.09152083,4.3693084 5.09099665,4.20860581 5.09010015,3.99968535 C5.25503981,3.95883835 5.42034513,3.96620999 5.59476083,3.97398773 C5.751804,4.38981292 5.63607857,4.57995473 5.14042479,4.52729643 Z" id="Path" fill="#3F3F3F"></path>
                <path d="M6.77798772,2.27323699 C6.62555846,2.26975982 6.47312919,2.26628264 6.27536151,2.26105326 C6.22661609,2.10484637 6.22320919,1.95039123 6.21722976,1.74967089 C6.37522467,1.7025536 6.53579191,1.70170095 6.74160795,1.75292479 C6.78389123,1.96108016 6.78093948,2.11715857 6.77798772,2.27323699 Z" id="Path" fill="#3F3F3F"></path>
                <path d="M6.77943597,2.27031372 C6.78093948,2.11715857 6.78389123,1.96108016 6.78933959,1.75866242 C6.94760343,1.70774151 7.10337066,1.70316049 7.30609699,1.70174581 C7.3530423,1.70491225 7.35267676,1.69844874 7.35180784,1.74494931 C7.35240784,1.94712479 7.35388377,2.10280027 7.35360094,2.26028682 C7.35183541,2.26209891 7.34831123,2.26565677 7.30064863,2.2649249 C7.09363948,2.26570852 6.93429292,2.26722321 6.77494626,2.26873824 C6.77494626,2.26873824 6.78088433,2.26739044 6.77943597,2.27031372 Z" id="Path" fill="#545865"></path>
                <path d="M2.76968829,6.21599428 C2.82123371,6.37165552 2.8272545,6.52835643 2.83306829,6.78498162 C2.830151,7.41465066 2.82744072,7.94439439 2.77791597,8.47566411 C2.57385857,8.47844434 2.41661541,8.47969857 2.25937236,8.48095202 C2.25937236,8.48095123 2.2646414,8.4834814 2.26252411,8.48576852 C2.26176546,8.14099835 2.26311032,7.79394106 2.2628275,7.39488581 C2.26279304,7.00222716 2.26438614,6.66156648 2.26610343,6.26969146 C2.41887066,6.21799609 2.57150682,6.21751507 2.76968829,6.21599428 Z" id="Path" fill="#7F7F7F"></path>
                <path d="M2.26206897,8.52751812 C2.41661541,8.47969857 2.57385857,8.47844434 2.78006083,8.52715948 C2.83460626,8.91578016 2.84019258,9.25443134 2.83912354,9.59967654 C2.8324614,9.60626965 2.81908885,9.61940253 2.77335733,9.61524298 C2.57467236,9.60874818 2.42170513,9.60641191 2.2687449,9.60407654 C2.2687449,9.60407654 2.26676546,9.60572829 2.26780693,9.60567134 C2.26688275,9.44867485 2.264931,9.29173518 2.257724,9.08770705 C2.25657236,8.88510739 2.26066885,8.7295962 2.26206897,8.52751812 Z" id="Path" fill="#8F8F8F"></path>
                <path d="M8.43402671,2.82834061 C8.48045473,2.98289575 8.48016513,3.13643925 8.47746162,3.33544614 C8.318384,3.3857101 8.16172716,3.39051055 7.95773179,3.39662953 C7.91039326,3.39794818 7.91175191,3.40288739 7.9123588,3.35547914 C7.91317959,3.14881869 7.91338648,2.98956739 7.91527609,2.8286423 C7.9169658,2.82696897 7.92041417,2.82359485 7.92041417,2.82359485 C8.07604343,2.82483925 8.23167959,2.82608411 8.43402671,2.82834061 Z" id="Path" fill="#545865"></path>
                <path d="M7.35536648,2.25847518 C7.35388377,2.10280027 7.35240784,1.94712479 7.34860094,1.74452603 C7.50455439,1.69785869 7.6628388,1.69811518 7.86828942,1.69844795 C7.91545541,1.85567292 7.91545541,2.01282162 7.91499337,2.21719326 C7.91453134,2.2644162 7.91700716,2.26192524 7.87097213,2.26164897 C7.66841134,2.26040671 7.51189236,2.25944072 7.35536648,2.25847518 Z" id="Path" fill="#000000"></path>
                <path d="M7.35360094,2.26028682 C7.51189236,2.25944072 7.66841134,2.26040671 7.8722136,2.2604101 C7.91886241,2.41637055 7.91824162,2.57329338 7.91901405,2.77690547 C7.92041417,2.82359485 7.9169658,2.82696897 7.86784117,2.8278875 C7.65944569,2.8303414 7.50016806,2.83187643 7.34089733,2.83341134 C7.34089733,2.83341134 7.35042162,2.83223236 7.34940094,2.78804016 C7.34835258,2.58445078 7.34833191,2.42505383 7.34831123,2.26565677 C7.34831123,2.26565677 7.35183541,2.26209891 7.35360094,2.26028682 Z" id="Path" fill="#545865"></path>
                <path d="M3.39020546,6.77916174 C3.54249688,6.77648332 3.69783642,6.77842468 3.89939044,6.77772987 C3.95067371,7.12020863 3.95573586,7.46532535 3.96087383,7.90896818 C3.9609084,8.1641762 3.96086004,8.32085722 3.9608049,8.52471552 C3.9608049,8.72908411 3.9608049,8.88627552 3.96086693,9.09042773 C3.96088761,9.29408694 3.96084626,9.45078434 3.9608049,9.65505812 C3.96114287,9.86217507 3.96148761,10.0217165 3.9637153,10.1770095 C3.96559801,10.1727621 3.97443258,10.1756561 3.97443258,10.1756561 C3.81240332,10.1728397 3.65037394,10.1700233 3.44148885,10.1170434 C3.39345383,9.91214377 3.39226072,9.7574084 3.39279868,9.5502553 C3.39714354,8.59523869 3.39977111,7.69263733 3.40239868,6.79003688 C3.40239868,6.79003688 3.39326072,6.78378072 3.39020546,6.77916174 Z" id="Path" fill="#7F7F7F"></path>
                <path d="M5.08826558,7.36059744 C5.09550015,7.19672501 5.10273473,7.03285247 5.10965202,6.87627485 C5.9674753,6.64721292 6.1703327,6.72016027 6.22138852,7.30662705 C6.22127812,7.3518353 6.22987134,7.34930162 6.17771213,7.34889903 C5.77755597,7.34876547 5.42955902,7.3490336 5.08586558,7.35056886 C5.09016219,7.35183699 5.08826558,7.36059744 5.08826558,7.36059744 Z" id="Path" fill="#7F7F7F"></path>
                <path d="M3.9608049,8.47753914 C3.96086004,8.32085722 3.9609084,8.1641762 3.96088072,7.96053598 C4.11942049,7.91369756 4.27804287,7.91381654 4.48205202,7.91438716 C4.52744569,7.91483982 4.52274908,7.91001383 4.52380422,7.95706524 C4.52209383,8.1599779 4.5193214,8.31583903 4.51794207,8.47488049 C4.51932829,8.47806061 4.52565936,8.47521146 4.47862445,8.47640807 C4.27466354,8.47758309 4.11773078,8.47756061 3.9608049,8.47753914 Z" id="Path" fill="#C1C1C1"></path>
                <path d="M4.52977665,7.91727349 C4.53210083,7.75937518 4.53210083,7.5990423 4.53210083,7.38184603 C4.6899371,7.37118377 4.84109733,7.36097157 5.04026513,7.35567937 C5.08826558,7.36059744 5.09016219,7.35183699 5.08938287,7.39741428 C5.09161733,7.59950874 5.09463812,7.75602773 5.04953417,7.91256388 C4.84186287,7.91172592 4.68230942,7.91086987 4.52274908,7.91001383 C4.52274908,7.91001383 4.52744569,7.91483982 4.52977665,7.91727349 Z" id="Path" fill="#C1C1C1"></path>
                <path d="M6.22222298,7.35621552 C6.3831971,7.36059485 6.54321959,7.36059485 6.75411157,7.36059485 C6.76422897,7.51729225 6.7741049,7.67027586 6.78123597,7.87191089 C6.77850501,7.92056309 6.78309123,7.91573372 6.73729066,7.91132332 C6.53090908,7.90812682 6.37032806,7.9093414 6.2143884,7.86386592 C6.22264366,7.66121722 6.22625744,7.50525937 6.22987134,7.34930162 C6.22987134,7.34930162 6.22127812,7.3518353 6.22222298,7.35621552 Z" id="Path" fill="#C1C1C1"></path>
                <path d="M6.20975383,7.91055609 C6.37032806,7.9093414 6.53090908,7.90812682 6.73962174,7.90894061 C6.78891202,8.06615869 6.79006366,8.2213492 6.7885327,8.42296524 C6.78579473,8.62894852 6.78572569,8.78850637 6.78566366,8.99588874 C6.78664987,9.19863925 6.78763609,9.35356682 6.79126377,9.55486388 C6.44585304,9.57861078 6.14584965,9.61281451 6.21677462,10.1358342 C6.06069699,10.1806432 5.90637123,10.177376 5.70598275,10.1794087 C5.50352535,10.1818484 5.34712366,10.1789872 5.14185247,10.1314393 C5.15933541,9.61075507 4.86952524,9.57223044 4.51605236,9.61208874 C4.51858343,9.60918004 4.52574908,9.61027835 4.52570083,9.56283473 C4.52569394,9.35808411 4.5257353,9.20077552 4.52577665,8.99629394 C4.5257353,8.79115123 4.52569394,8.63318129 4.52565936,8.47521146 C4.52565936,8.47521146 4.51932829,8.47806061 4.56692196,8.47733134 C4.77664151,8.4745727 4.93878117,8.47254162 5.09826569,8.47258298 C5.09561055,8.47465462 5.09509326,8.46832953 5.0937553,8.51759383 C5.01560275,9.18309948 5.46759394,9.01308117 5.7934458,9.04464705 C6.27851326,9.09163812 6.22759541,8.76399835 6.21520219,8.41306343 C6.2160988,8.2124327 6.21827812,8.05805089 6.21940908,7.90792072 C6.21836083,7.91217338 6.20975383,7.91055609 6.20975383,7.91055609 Z" id="Path" fill="#7F7F7F"></path>
                <path d="M2.26771032,9.65130976 C2.42170513,9.60641191 2.57467236,9.60874818 2.77801948,9.66022287 C2.83314422,9.85995869 2.83788908,10.0105552 2.84264083,10.1611517 C2.84263394,10.1611517 2.82984072,10.1742 2.82342682,10.1809191 C2.47925755,10.1982382 2.18474388,10.1601783 2.26771032,9.65130976 Z" id="Path" fill="#564940"></path>
                <path d="M4.51352829,9.61499643 C4.86952524,9.57223044 5.15933541,9.61075507 5.09507948,10.1350444 C5.11884524,10.5290204 5.09080354,10.8306315 4.5664736,10.6807703 C4.5231353,10.4763965 4.52430772,10.3229578 4.52560422,10.1231633 C4.52165936,9.92287146 4.51759032,9.76893349 4.51352829,9.61499643 Z" id="Path" fill="#8F8F8F"></path>
                <path d="M2.88809654,10.1653716 C2.83788908,10.0105552 2.83314422,9.85995869 2.82374411,9.66438242 C2.81908885,9.61940253 2.8324614,9.60626965 2.8840275,9.60492309 C3.08742287,9.60327564 3.23924524,9.60297394 3.3910745,9.60267225 C3.39226072,9.7574084 3.39345383,9.91214377 3.3930745,10.1127753 C3.23885902,10.1623103 3.08620219,10.1659509 2.88809654,10.1653716 Z" id="Path" fill="#8F8F8F"></path>
                <path d="M4.52548705,10.169519 C4.52430772,10.3229578 4.5231353,10.4763965 4.51883179,10.6756694 C4.35225744,10.7215026 4.18880739,10.7215026 3.99146727,10.7215026 C3.98155688,10.5558612 3.9730188,10.4132682 3.96946015,10.2231661 C3.97443258,10.1756561 3.96559801,10.1727621 4.010571,10.1735863 C4.21219383,10.1727803 4.36883699,10.17115 4.52548705,10.169519 Z" id="Path" fill="#C1C1C1"></path>
                <path d="M7.30064863,2.2649249 C7.34833191,2.42505383 7.34835258,2.58445078 7.3465388,2.791891 C7.01278343,2.85154468 6.68818671,2.85450592 6.77825665,2.31610298 C6.93429292,2.26722321 7.09363948,2.26570852 7.30064863,2.2649249 Z" id="Path" fill="#464955"></path>
                <path d="M7.34412501,2.87908773 C7.50016806,2.83187643 7.65944569,2.8303414 7.86615835,2.82956083 C7.91338648,2.98956739 7.91317959,3.14881869 7.90982784,3.35616705 C7.75348818,3.40033485 7.60028648,3.39640592 7.40131179,3.38662038 C7.35282162,3.22876434 7.35009055,3.07676445 7.34412501,2.87908773 Z" id="Path" fill="#464955"></path>
                <path d="M3.39279868,9.5502553 C3.23924524,9.60297394 3.08742287,9.60327564 2.89068275,9.59832987 C2.84019258,9.25443134 2.83460626,8.91578016 2.82687518,8.5256327 C2.82744072,7.94439439 2.830151,7.41465066 2.83537179,6.83197349 C2.99453902,6.78105315 3.15119597,6.78306784 3.3551223,6.78755925 C3.39977111,7.69263733 3.39714354,8.59523869 3.39279868,9.5502553 Z" id="Path" fill="#A7A7A7"></path>
                <path d="M4.47862445,8.47640807 C4.52569394,8.63318129 4.5257353,8.79115123 4.47871405,8.99617496 C4.2747049,9.04330829 4.11775145,9.04338761 3.9608049,9.04346694 C3.9608049,8.88627552 3.9608049,8.72908411 3.9608049,8.52471552 C4.11773078,8.47756061 4.27466354,8.47758309 4.47862445,8.47640807 Z" id="Path" fill="#3F3F3F"></path>
                <path d="M4.52561111,10.1231633 C4.36883699,10.17115 4.21219383,10.1727803 4.00868128,10.1778346 C3.96148761,10.0217165 3.96114287,9.86217507 4.0078675,9.65517711 C4.21186976,9.60857315 4.36880942,9.60942569 4.52574908,9.61027835 C4.52574908,9.61027835 4.51858343,9.60918004 4.51605236,9.61208874 C4.51759032,9.76893349 4.52165936,9.92287146 4.52561111,10.1231633 Z" id="Path" fill="#3F3F3F"></path>
                <path d="M4.52570083,9.56283473 C4.36880942,9.60942569 4.21186976,9.60857315 4.0078675,9.60760162 C3.96084626,9.45078434 3.96088761,9.29408694 3.96086693,9.09042773 C4.11775145,9.04338761 4.2747049,9.04330829 4.47871405,9.04334592 C4.5257353,9.20077552 4.52569394,9.35808411 4.52570083,9.56283473 Z" id="Path" fill="#C1C1C1"></path>
                <path d="M6.17771213,7.34889903 C6.22625744,7.50525937 6.22264366,7.66121722 6.2143884,7.86386592 C6.20975383,7.91055609 6.21836083,7.91217338 6.16820852,7.91187598 C5.77543868,7.90959236 5.43282806,7.90760614 5.09043111,7.90910095 C5.09065191,7.91258117 5.09765191,7.91254581 5.09765191,7.91254581 C5.09463812,7.75602773 5.09161733,7.59950874 5.08508626,7.39614614 C5.42955902,7.3490336 5.77755597,7.34876547 6.17771213,7.34889903 Z" id="Path" fill="#3F3F3F"></path>
                <path d="M5.10091405,8.47051146 C4.93878117,8.47254162 4.77664151,8.4745727 4.56552885,8.47415202 C4.5193214,8.31583903 4.52209383,8.1599779 4.52380422,7.95706524 C4.68230942,7.91086987 4.84186287,7.91172592 5.04953417,7.91256388 C5.09765191,7.91254581 5.09065191,7.91258117 5.09078976,7.95627733 C5.0942588,8.15681914 5.09758987,8.31366569 5.10091405,8.47051146 Z" id="Path" fill="#6F6F6F"></path>
                <path d="M5.09826569,8.47258298 C5.09758987,8.31366569 5.0942588,8.15681914 5.09057597,7.9527962 C5.43282806,7.90760614 5.77543868,7.90959236 6.16925688,7.90762332 C6.21827812,8.05805089 6.2160988,8.2124327 6.16467744,8.41982377 C5.77531462,8.47133213 5.43520739,8.46983044 5.09509326,8.46832953 C5.09509326,8.46832953 5.09561055,8.47465462 5.09826569,8.47258298 Z" id="Path" fill="#C1C1C1"></path>
                <path d="M5.0937553,8.51759383 C5.43520739,8.46983044 5.77531462,8.47133213 6.16595337,8.46607168 C6.22759541,8.76399835 6.27851326,9.09163812 5.7934458,9.04464705 C5.46759394,9.01308117 5.01560275,9.18309948 5.0937553,8.51759383 Z" id="Path" fill="#6F6F6F"></path>
            </g>
        </g>
    </g>
</svg>