<?xml version="1.0" encoding="UTF-8"?>
<svg width="15px" height="14px" viewBox="0 0 15 14" version="1.1" xmlns="http://www.w3.org/2000/svg" xmlns:xlink="http://www.w3.org/1999/xlink">
    <g id="Page-1" stroke="none" stroke-width="1" fill="none" fill-rule="evenodd">
        <g id="Group-5" transform="translate(0.891516, 0.378180)" fill-rule="nonzero">
            <path d="M1.65600452,3.96396621 C1.9937461,3.96396621 2.3314878,3.96396621 2.51723469,3.96396621 C2.82185186,3.65683175 3.03014373,3.44682215 3.35715424,3.11711718 C3.35715424,2.73803582 3.35847842,2.17721367 3.35654734,1.61640316 C3.35568531,1.36739831 3.32343672,1.11259921 3.70265469,1.10851401 C3.77441401,1.10774113 3.84580102,0.976226102 3.91552599,0.903280904 C4.02549266,0.788222938 4.13876983,0.675813559 4.2417296,0.554699887 C4.37099311,0.402628136 4.4912565,0.242903616 4.68403096,0 C4.88762633,0 5.20362983,0 5.56930282,0.0542148023 C5.61717232,0.443435141 5.61537921,0.778440678 5.56695797,1.11743243 C5.05552475,1.04529198 5.02353819,1.34066701 4.99381367,1.68287028 C4.5672435,1.63241887 4.46788373,1.8179852 4.48120802,2.16887695 C4.50376,2.76275379 4.48924949,3.35803797 4.44258701,3.95161006 C3.90838791,3.8672087 3.89607751,4.1784435 3.92084328,4.51691966 C3.9210226,4.51345718 3.92793989,4.51309638 3.87452554,4.51357051 C3.10228249,4.51557876 2.38344011,4.51711322 1.66389424,4.47224768 C1.66079763,4.27188723 1.65840452,4.11792655 1.65600452,3.96396621 Z" id="Path" fill="#4A2C17"></path>
            <path d="M5.6135861,1.11344633 C5.61537921,0.778440678 5.61717232,0.443435141 5.62105514,0.0587928814 C7.28539073,0.00915661017 8.9476435,0.00915661017 10.6098895,0.00915661017 C10.5885168,0.0470059887 10.5671442,0.0848550282 10.5457646,0.122704407 C10.7255598,0.271447006 10.9285757,0.400512429 11.0770809,0.575771412 C11.1779579,0.694826441 11.2023856,0.878650847 11.203696,1.07988712 C9.30211638,1.12199232 7.45785469,1.11771944 5.6135861,1.11344633 Z" id="Path" fill="#6A3E22"></path>
            <path d="M5.06231107,9.61204316 C5.05763514,9.45574746 5.05295921,9.29945266 5.05044192,9.08850723 C5.05258678,9.03385661 5.06864215,9.01756418 5.11429096,9.02342723 C5.65604169,9.10904712 5.6418278,8.79153153 5.61004124,8.40517209 C5.6166965,7.83069243 5.61887582,7.30788667 5.66848328,6.78077311 C5.8590922,6.76745232 6.00227311,6.75843921 6.16371627,6.74827797 C6.17273706,6.55036802 6.18021299,6.3863878 6.23972407,6.21720825 C6.82048904,6.20487277 7.3492052,6.19773571 7.93003921,6.19819085 C8.51165944,6.20072192 9.0411687,6.19566068 9.62144407,6.19805808 C10.0132277,6.20245989 10.3542522,6.19940294 10.6972146,6.24442328 C10.6998146,6.45285831 10.7004836,6.61321435 10.6482624,6.77384723 C9.49357367,6.77421356 8.39112023,6.7965009 7.29028734,6.7639626 C6.82030282,6.75007107 6.68786,6.93220757 6.75122621,7.34657593 C6.74891582,7.34133107 6.75939876,7.34596554 6.70990847,7.34404836 C6.29821435,7.29080463 6.15435062,7.44035537 6.17655785,7.81035864 C6.20104079,8.21814068 6.18252339,8.62850554 6.18238542,9.08376576 C6.17923367,9.28343435 6.17644056,9.43708 6.12672972,9.59402486 C5.92159638,9.60138531 5.7633739,9.60544825 5.56002,9.60528271 C5.36402475,9.60471718 5.21316791,9.60838023 5.06231107,9.61204316 Z" id="Path" fill="#503121"></path>
            <path d="M10.1229049,9.02421684 C9.97024102,9.02730994 9.8175704,9.03040226 9.61843718,8.98219571 C9.56402282,8.78888576 9.55607785,8.6468748 9.54824328,8.50685853 C9.34869627,8.47671593 9.1909635,8.45289073 9.04524463,8.43088011 C9.01187876,8.23750554 8.98495435,8.08140994 8.95866441,7.92903582 C8.59146723,7.92903582 8.26249808,7.92903582 7.90343209,7.92903582 C7.8854939,8.10820497 7.86965921,8.26631198 7.8523487,8.43924576 C7.66442938,8.46230294 7.50526215,8.48183333 7.33074983,8.50324554 C7.32021186,8.69288644 7.31106689,8.85739175 7.25646633,9.02707028 C7.05758136,9.03253243 6.90416588,9.03282034 6.74915028,8.98055254 C6.75150203,8.4006522 6.7554539,7.87330927 6.75939876,7.34596554 C6.75939876,7.34596554 6.74891582,7.34134651 6.80345435,7.34134651 C7.9391704,7.34134651 9.0203409,7.34134651 10.1554637,7.34134651 C10.1554637,7.7613322 10.1554637,8.11442486 10.1475327,8.51362158 C10.134029,8.7145565 10.1284704,8.86938757 10.1229049,9.02421684 Z" id="Path" fill="#EFB385"></path>
            <path d="M5.56695797,1.11743243 C7.45785469,1.11771944 9.30211638,1.12199232 11.1979512,1.12773921 C11.256207,1.28179085 11.2628967,1.43436893 11.2660692,1.64030305 C11.262545,1.69365921 11.2473172,1.70900079 11.1965788,1.70255503 C9.11875582,1.69813898 7.09167831,1.70016836 5.05885582,1.69642994 C5.05311785,1.69066181 5.04168316,1.67906723 5.04168316,1.67906723 C5.02353819,1.34066701 5.05552475,1.04529198 5.56695797,1.11743243 Z" id="Path" fill="#626262"></path>
            <path d="M7.30192881,9.02189695 C7.31106689,8.85739175 7.32021186,8.69288644 7.33074983,8.50324554 C7.50526215,8.48183333 7.66442938,8.46230294 7.8523487,8.43924576 C7.86965921,8.26631198 7.8854939,8.10820497 7.90343209,7.92903582 C8.26249808,7.92903582 8.59146723,7.92903582 8.95866441,7.92903582 C8.98495435,8.08140994 9.01187876,8.23750554 9.04524463,8.43088011 C9.1909635,8.45289073 9.34869627,8.47671593 9.54824328,8.50685853 C9.55607785,8.6468748 9.56402282,8.78888576 9.57250565,8.97917062 C9.56522972,9.19105401 9.5574365,9.35466362 9.54577435,9.59930339 C9.19770836,9.59930339 8.87216,9.59930339 8.44733458,9.59925944 C8.18875243,9.60379311 8.02944034,9.60838531 7.82452768,9.60838531 C7.62622893,9.59993876 7.47353073,9.59605073 7.31729458,9.54507605 C7.30981164,9.33929096 7.30586678,9.18059446 7.30192881,9.02189695 Z" id="Path" fill="#503121"></path>
            <path d="M10.7011525,6.7735713 C10.7004836,6.61321435 10.6998146,6.45285831 10.7001732,6.1983391 C10.6952559,5.95061141 10.689318,5.79704757 10.6913042,5.59315311 C10.6979732,5.20446 10.6967388,4.86609514 10.6973388,4.48086847 C10.7015388,4.27841017 10.7038974,4.12281492 10.7525945,3.96221232 C10.9541829,3.95825186 11.1094329,3.95929887 11.2650898,4.0109296 C11.2664623,4.40007141 11.2674278,4.73862904 11.2684002,5.07718712 C11.2680485,5.84302316 11.2671864,6.60885921 11.2676209,7.37469525 C11.2677727,7.63284113 11.2129099,7.90650791 11.6232524,7.93832554 C11.7026394,7.94448249 11.7610815,8.22079333 11.7852059,8.42141017 C11.5844589,8.46983141 11.4276916,8.46932621 11.2237445,8.46921164 C11.0202595,8.47011164 10.8639681,8.47062023 10.7043733,8.47148836 C10.7010767,8.47184701 10.694449,8.47174011 10.696987,8.41887141 C10.7000629,7.83519254 10.7006077,7.30438147 10.7011525,6.7735713 Z" id="Path" fill="#362116"></path>
            <path d="M2.80015503,5.65289345 C2.79713435,5.49828915 2.79411356,5.34368486 2.84074169,5.13679119 C3.21864927,5.08450102 3.54690124,5.08450102 3.89391887,5.08450102 C3.90836034,4.84197763 3.91814667,4.67753695 3.92793989,4.51309638 C3.92793989,4.51309638 3.9210226,4.51345718 3.96730588,4.51481322 C4.1684391,4.51262181 4.32328904,4.50907435 4.52701548,4.50879887 C4.73883853,4.5163261 4.9017713,4.52058011 5.05938689,4.57048237 C5.04737288,4.76889921 5.04068316,4.92166723 4.98656542,5.07605435 C4.54823638,5.02461232 4.47056655,5.23258881 4.47729763,5.57455808 C4.48126328,5.77646893 4.43774554,6.01575085 4.32524768,6.17400949 C4.19368079,6.35910463 3.96380927,6.47431458 3.77657955,6.61984203 C3.79899367,6.66204418 3.82140768,6.70424644 3.84382169,6.74644859 C3.67966124,6.75577367 3.51549401,6.76509966 3.35132667,6.77442475 C3.35132667,6.77442475 3.35752667,6.77390328 3.3572991,6.72503627 C3.35706463,6.51155119 3.33843684,6.34437955 3.36060949,6.18280531 C3.4221826,5.73409345 3.22360113,5.57921503 2.80015503,5.65289345 Z" id="Path" fill="#21140E"></path>
            <path d="M3.35334734,6.82077525 C3.51549401,6.76509966 3.67966124,6.75577367 3.84382169,6.74644859 C3.82140768,6.70424644 3.79899367,6.66204418 3.77657955,6.61984203 C3.96380927,6.47431458 4.19368079,6.35910463 4.32524768,6.17400949 C4.43774554,6.01575085 4.48126328,5.77646893 4.47729763,5.57455808 C4.47056655,5.23258881 4.54823638,5.02461232 4.99359989,5.12891175 C5.04337288,5.90154441 5.03868316,6.62294034 4.98775164,7.34283537 C4.79272181,7.4075809 4.51954644,7.46708068 4.51552565,7.54117718 C4.49116678,7.99036667 4.18260475,7.89408633 3.92102949,7.90328893 C3.92204328,7.90430621 3.92407085,7.90634249 3.92334678,7.85910915 C3.99969932,7.34663198 3.70642023,7.3107522 3.36489921,7.3307939 C3.36172678,7.17623785 3.35854746,7.02168181 3.35334734,6.82077525 Z" id="Path" fill="#503121"></path>
            <path d="M11.3208766,5.07804316 C11.2674278,4.73862904 11.2664623,4.40007141 11.2661381,3.9570713 C11.2602966,3.13808633 11.2538069,2.42354362 11.2473172,1.70900079 C11.2473172,1.70900079 11.262545,1.69365921 11.270152,1.68597209 C11.4419815,1.69105062 11.6062177,1.70381627 11.8353168,1.72162373 C11.8353168,2.43466181 11.8353168,3.13550102 11.8358962,3.93756508 C11.777661,4.40246023 11.9252144,4.55535763 12.2967908,4.51819774 C12.5182002,4.4960548 12.7434165,4.51201706 12.9669224,4.51084893 C12.9669224,4.51084893 12.9645224,4.51635379 12.9625913,4.56368362 C12.9597637,4.77032203 12.9588602,4.92963028 12.9579637,5.08893898 C12.4297579,5.08559232 11.9015589,5.08224576 11.3208766,5.07804316 Z" id="Path" fill="#626262"></path>
            <path d="M1.60887288,3.95875107 C1.65840452,4.11792655 1.66079763,4.27188723 1.66301141,4.51954734 C1.66315627,4.77160825 1.66348045,4.92996994 1.66379763,5.08833119 C1.66379763,5.08833119 1.66316316,5.08045785 1.61902475,5.0803113 C1.09121898,5.00126904 1.0669704,5.30398531 1.09881898,5.65329864 C1.09881898,5.65329864 1.0982052,5.64542531 1.05402542,5.64528124 C0.522985085,5.5596174 0.510288362,5.87925887 0.520178192,6.21820226 C0.356776384,6.20540644 0.193374576,6.19261141 6.66133815e-15,6.17746825 C6.66133815e-15,5.82581605 6.66133815e-15,5.49929695 6.66133815e-15,5.26598576 C0.362852316,4.94244079 0.666510847,4.67168169 0.970169379,4.40092226 C0.96665209,4.36903401 0.96312791,4.33714531 0.959610621,4.30525706 C1.16031627,4.1880165 1.36102881,4.07077638 1.60887288,3.95875107 Z" id="Path" fill="#6A3E22"></path>
            <path d="M5.05770407,9.66063684 C5.21316791,9.60838023 5.36402475,9.60471718 5.56480621,9.65062034 C5.62197932,9.85222508 5.62922079,10.0042656 5.63127593,10.2076489 C5.62415175,10.600661 5.62221379,10.9423311 5.57331672,11.2877375 C5.37110068,11.2941332 5.21585062,11.2967937 5.01437254,11.2979281 C4.81403243,11.2953557 4.65992723,11.2943082 4.50581525,11.2932609 C4.50581525,10.9382888 4.50581525,10.5833151 4.50581525,10.1852797 C4.67223774,10.1721243 4.83203266,10.1594932 5.05309718,10.1420189 C5.05309718,9.99366983 5.05309718,9.85145017 5.05770407,9.66063684 Z" id="Path" fill="#DCD29C"></path>
            <path d="M11.2709313,8.46882102 C11.4276916,8.46932621 11.5844589,8.46983141 11.7883369,8.46846757 C11.9899599,8.46871672 12.1444513,8.47083232 12.3470949,8.52151819 C12.3940127,8.7213626 12.392785,8.87263763 12.3915574,9.02391254 C12.2422454,9.0334661 12.0929403,9.04301966 11.9121936,9.05458441 C11.8675172,9.21057842 11.8232339,9.36523186 11.7626332,9.5768548 C11.4675679,9.5768548 11.151261,9.6031974 10.8461197,9.55653571 C10.7780775,9.54613119 10.7492703,9.27912915 10.7015801,9.0827339 C10.7007663,9.03520147 10.6982628,9.03769367 10.7458703,9.03650147 C11.2722209,9.11583424 11.2949246,8.81200757 11.2709313,8.46882102 Z" id="Path" fill="#503121"></path>
            <path d="M1.71483277,5.08497333 C1.66348045,4.92996994 1.66315627,4.77160825 1.66372181,4.56594701 C2.38344011,4.51711322 3.10228249,4.51557876 3.87452554,4.51357051 C3.91814667,4.67753695 3.90836034,4.84197763 3.89391887,5.08450102 C3.54690124,5.08450102 3.21864927,5.08450102 2.83884508,5.09064588 C2.44681322,5.09173209 2.10634045,5.08667345 1.71483277,5.08497333 Z" id="Path" fill="#626262"></path>
            <path d="M3.35451977,9.03173073 C3.35451977,9.19558859 3.35451977,9.35944644 3.35451977,9.51104203 C2.43924757,9.7164452 2.28905977,9.6626635 2.2238452,9.04195503 C2.22786599,8.79003412 2.23176949,8.63356689 2.2356661,8.47709876 C2.39091605,8.47480045 2.54617288,8.47250215 2.74690621,8.46989605 C2.79238938,8.46958836 2.79029977,8.46747876 2.79092045,8.51479921 C2.71720927,9.03545661 3.01468158,9.06371379 3.35782328,9.03499627 C3.35677492,9.03394452 3.35451977,9.03173073 3.35451977,9.03173073 Z" id="Path" fill="#503121"></path>
            <path d="M2.79349977,8.47071243 C2.76319605,8.13142429 2.77996169,7.83000192 3.35141627,7.90099243 C3.60543977,7.90289503 3.76475876,7.9046191 3.92407085,7.90634249 C3.92407085,7.90634249 3.92204328,7.90430621 3.92172599,7.95106192 C3.92493989,8.15718576 3.92847096,8.31655209 3.93200203,8.47591944 C3.94798836,8.81485672 3.92495367,9.12001277 3.4019548,9.03261864 C3.35451977,9.03173073 3.35677492,9.03394452 3.35719571,8.98766814 C3.43196203,8.4680452 3.13446904,8.43982249 2.79029977,8.46747876 C2.79029977,8.46747876 2.79238938,8.46958836 2.79349977,8.47071243 Z" id="Path" fill="#503121"></path>
            <path d="M6.74875028,12.4080731 C6.59346588,12.4141939 6.43818825,12.4203164 6.18557175,12.4274889 C5.74774621,12.4215577 5.40725277,12.4145732 5.06675932,12.4075887 C5.0630904,12.2538956 5.05942136,12.1002025 5.05331096,11.9024029 C5.05086949,11.8582964 5.04784192,11.8546921 5.09531141,11.8572145 C5.3009826,11.8567981 5.4591913,11.8538593 5.66862113,11.8538015 C6.06302554,11.8603215 6.40620859,11.8639594 6.74828136,11.9128936 C6.74769514,12.1081492 6.74822621,12.2581112 6.74875028,12.4080731 Z" id="Path" fill="#B59F60"></path>
            <path d="M3.97818181,8.47364181 C3.92847096,8.31655209 3.92493989,8.15718576 3.9207191,7.95004463 C4.18260475,7.89408633 4.49116678,7.99036667 4.51552565,7.54117718 C4.51954644,7.46708068 4.79272181,7.4075809 4.99528271,7.39338079 C5.04864192,7.78729718 5.04822814,8.12916814 5.00121379,8.47050734 C4.79938395,8.46978395 4.64416158,8.46959175 4.48893921,8.46939955 C4.33407537,8.47005379 4.17921853,8.47070814 3.97818181,8.47364181 Z" id="Path" fill="#21140E"></path>
            <path d="M2.79723774,5.70350429 C3.22360113,5.57921503 3.4221826,5.73409345 3.36060949,6.18280531 C3.33843684,6.34437955 3.35706463,6.51155119 3.35705774,6.72813808 C3.19466972,6.76991864 3.03230237,6.75972983 2.79432045,6.74479684 C2.79432045,6.40099311 2.79432045,6.07755412 2.79723774,5.70350429 Z" id="Path" fill="#503121"></path>
            <path d="M0.524778192,6.26580192 C0.510288362,5.87925887 0.522985085,5.5596174 1.0579565,5.64560023 C1.10607424,5.99279548 1.10607424,6.33952689 1.10607424,6.68625921 C0.664503842,6.87453017 0.484295028,6.75469695 0.524778192,6.26580192 Z" id="Path" fill="#626262"></path>
            <path d="M14.0743829,5.64911751 C14.0743829,6.00221458 14.0743829,6.35531153 14.0743829,6.74292011 C13.8968362,6.75223492 13.7541518,6.75972113 13.524094,6.77179028 C13.524094,6.41283627 13.524094,6.08174215 13.5673221,5.69833186 C13.7651588,5.64705028 13.9197673,5.64808395 14.0743829,5.64911751 Z" id="Path" fill="#626262"></path>
            <path d="M8.44285175,11.8540282 C8.44198972,12.0092895 8.44112068,12.1645515 8.38529254,12.3716348 C7.98755017,12.4300389 7.6447809,12.4366183 7.30201164,12.4431976 C7.30201164,12.4431976 7.29899774,12.4245664 7.30581853,12.3742728 C7.3115565,12.1718515 7.31047379,12.0197275 7.35703288,11.8646275 C7.56344203,11.8587472 7.72220938,11.8558412 7.92779785,11.8570627 C8.13168972,11.8596076 8.28876045,11.8580249 8.44396904,11.8574576 C8.4421139,11.8584731 8.44285175,11.8540282 8.44285175,11.8540282 Z" id="Path" fill="#B59F60"></path>
            <path d="M7.30590136,12.4903809 C7.6447809,12.4366183 7.98755017,12.4300389 8.38094079,12.4179008 C8.43156203,12.5769492 8.43156203,12.7415545 8.43156203,12.8961631 C7.59278034,13.1121688 7.38197107,13.0406198 7.30590136,12.4903809 Z" id="Path" fill="#4A2C17"></path>
            <path d="M5.06211107,12.4572254 C5.40725277,12.4145732 5.74774621,12.4215577 6.13948847,12.4344062 C6.17599232,12.6031426 6.16124734,12.766015 6.14735062,12.9194409 C5.19671254,13.0913255 5.10089763,13.0533096 5.06211107,12.4572254 Z" id="Path" fill="#503121"></path>
            <path d="M12.9650672,4.46255525 C12.7434165,4.51201706 12.5182002,4.4960548 12.2967908,4.51819774 C11.9252144,4.55535763 11.777661,4.40246023 11.8412962,3.98968802 C12.0650021,3.9436026 12.285708,3.96587141 12.5023449,3.94530904 C12.864273,3.91095616 13.0108953,4.06002678 12.9650672,4.46255525 Z" id="Path" fill="#4A2C17"></path>
            <path d="M3.92334678,7.85910915 C3.76475876,7.9046191 3.60543977,7.90289503 3.39827887,7.89775955 C3.35350599,7.73802339 3.35658192,7.58170011 3.36227853,7.37808486 C3.70642023,7.3107522 3.99969932,7.34663198 3.92334678,7.85910915 Z" id="Path" fill="#21140E"></path>
            <path d="M1.66074938,8.46295898 C1.58764508,8.46461153 1.4951061,8.49541446 1.44527107,8.46217525 C1.32058701,8.37900452 1.21526169,8.26679989 1.10216384,8.16623932 C1.19262701,8.08029175 1.28308316,7.99434599 1.37354621,7.90840113 C1.46936102,8.02660237 1.56809322,8.14264678 1.65843898,8.2648826 C1.67579096,8.28834757 1.66023898,8.33613164 1.66117695,8.42103605 C1.66248045,8.46937627 1.66074938,8.46295898 1.66074938,8.46295898 Z" id="Path" fill="#503121"></path>
            <path d="M12.9639706,8.4716487 C12.9634189,8.39652023 12.9354807,8.30554429 12.9679155,8.24951006 C13.0390129,8.12669232 13.1406898,8.0215791 13.229884,7.9092339 C13.3269125,7.99350373 13.4239481,8.07777537 13.5209837,8.16204701 C13.4218653,8.26399379 13.3287056,8.37308983 13.2200632,8.46360802 C13.1866696,8.49143514 13.1109308,8.46845119 13.0080884,8.46902881 C12.9615913,8.46932542 12.9639706,8.4716487 12.9639706,8.4716487 Z" id="Path" fill="#362116"></path>
            <path d="M2.18733446,8.47449186 C2.23176949,8.63356689 2.22786599,8.79003412 2.22056938,8.99369842 C1.8698896,9.06649661 1.58663819,9.01843831 1.66123898,8.51053356 C1.66074938,8.46295898 1.66248045,8.46937627 1.65921141,8.46857017 C1.81696486,8.4691374 1.97798734,8.47051164 2.18733446,8.47449186 Z" id="Path" fill="#21140E"></path>
            <path d="M4.48828395,8.51647672 C4.64416158,8.46959175 4.79938395,8.46978395 5.00344836,8.46141672 C5.05228339,8.45285706 5.07096633,8.45421492 5.06504904,8.50119209 C5.06230418,8.70463401 5.06546972,8.86109864 5.06864215,9.01756418 C5.06864215,9.01756418 5.05258678,9.03385661 5.04457977,9.04210847 C4.70317605,9.05769571 4.39914508,9.03193593 4.48828395,8.51647672 Z" id="Path" fill="#503121"></path>
            <path d="M10.1713812,9.02811175 C10.1284704,8.86938757 10.134029,8.7145565 10.1925539,8.51413277 C10.395156,8.46960644 10.544806,8.47067277 10.694449,8.47174011 C10.694449,8.47174011 10.7010767,8.47184701 10.7021594,8.51857333 C10.7015801,8.72276441 10.699925,8.88022904 10.6982628,9.03769367 C10.6982628,9.03769367 10.7007663,9.03520147 10.7021043,9.0338678 C10.5422542,9.03235831 10.3810524,9.03218249 10.1713812,9.02811175 Z" id="Path" fill="#503121"></path>
            <path d="M12.439158,9.02761684 C12.392785,8.87263763 12.3940127,8.7213626 12.3933989,8.52485277 C12.5505592,8.47625299 12.709554,8.47288927 12.9162667,8.47058655 C12.9639706,8.4716487 12.9615913,8.46932542 12.9604189,8.46812102 C12.9922054,8.81449729 12.9679017,9.11412994 12.439158,9.02761684 Z" id="Path" fill="#362116"></path>
            <path d="M14.0803347,5.60190576 C13.9197673,5.64808395 13.7651588,5.64705028 13.5638049,5.6470296 C13.5170664,5.64804339 13.5241699,5.64597785 13.525032,5.60255412 C13.5219768,5.40338294 13.5180458,5.24763638 13.5201354,5.08593718 C13.5261493,5.07998542 13.5382598,5.06816802 13.5382598,5.06816802 C13.8766151,5.05498249 14.1877911,5.07241379 14.0803347,5.60190576 Z" id="Path" fill="#6A3E22"></path>
            <path d="M12.9589982,5.08538972 C12.9588602,4.92963028 12.9597637,4.77032203 12.9596051,4.56334565 C13.2928846,4.48992588 13.6055846,4.49106169 13.5340666,5.02166056 C13.5382598,5.06816802 13.5261493,5.07998542 13.4738452,5.08153198 C13.2652636,5.08241819 13.108986,5.08175785 12.9527085,5.08109751 C12.9527085,5.08109751 12.9600258,5.08184056 12.9589982,5.08538972 Z" id="Path" fill="#6A3E22"></path>
            <path d="M1.14638508,5.64995028 C1.0669704,5.30398531 1.09121898,5.00126904 1.62296271,5.08062847 C1.68386,5.41458045 1.68570825,5.73880734 1.14638508,5.64995028 Z" id="Path" fill="#626262"></path>
            <path d="M12.9560602,5.12866181 C13.108986,5.08175785 13.2652636,5.08241819 13.4678314,5.08748373 C13.5180458,5.24763638 13.5219768,5.40338294 13.5254113,5.60621446 C13.1914353,5.66613062 12.867211,5.66799356 12.9560602,5.12866181 Z" id="Path" fill="#626262"></path>
            <path d="M8.42392056,10.1718571 C8.42947921,10.3258941 8.43503785,10.4799303 8.44210689,10.680867 C8.4436104,10.7277667 8.44505876,10.7305141 8.39792712,10.7276305 C8.19355932,10.7262676 8.03631627,10.7277873 7.87811446,10.6832308 C7.87681797,10.4846795 7.87648689,10.3322045 7.87706621,10.1734528 C7.87796282,10.1671768 7.87824554,10.1545 7.92389435,10.1584811 C8.12100689,10.1655941 8.27246373,10.1687252 8.42392056,10.1718571 Z" id="Path" fill="#CB7E50"></path>
            <path d="M8.43111367,10.1244367 C8.27246373,10.1687252 8.12100689,10.1655941 7.92325989,10.1134288 C7.87468689,9.91391288 7.87241096,9.76342927 7.87012825,9.61294576 C8.02944034,9.60836983 8.18875243,9.60379311 8.39598226,9.59933525 C8.44203797,9.75864215 8.44016904,9.91783017 8.43111367,10.1244367 Z" id="Path" fill="#944F31"></path>
            <path d="M4.49751928,11.3414027 C4.65992723,11.2943082 4.81403243,11.2953557 5.01053808,11.343889 C5.05123503,11.5458137 5.04953853,11.7002524 5.04784192,11.8546921 C5.04784192,11.8546921 5.05086949,11.8582964 5.05182124,11.856067 C4.89032983,11.8538386 4.72789356,11.8538386 4.51339458,11.8538386 C4.50527729,11.6978334 4.49726339,11.5436895 4.49751928,11.3414027 Z" id="Path" fill="#EFB385"></path>
            <path d="M8.99103028,11.2984773 C8.99103028,11.4591238 8.99103028,11.6197705 8.99103028,11.8319375 C8.84555966,11.8404833 8.69261311,11.8494687 8.49125921,11.8562412 C8.44285175,11.8540282 8.4421139,11.8584731 8.4444035,11.8108795 C8.45149322,11.608473 8.45628644,11.45366 8.50522486,11.2972773 C8.69659254,11.2966307 8.84380791,11.297554 8.99103028,11.2984773 Z" id="Path" fill="#EBA069"></path>
            <path d="M7.30939096,11.8676025 C7.31047379,12.0197275 7.3115565,12.1718515 7.31390136,12.3694037 C7.15734791,12.4181922 6.99953243,12.421556 6.79523356,12.4164974 C6.74822621,12.2581112 6.74769514,12.1081492 6.79483356,11.9090556 C6.99812554,11.8624826 7.1537548,11.8650421 7.30939096,11.8676025 Z" id="Path" fill="#CBA265"></path>
            <path d="M8.9998096,11.2498371 C8.84380791,11.297554 8.69659254,11.2966307 8.49839718,11.250156 C8.44663808,11.0465745 8.44585186,10.8885443 8.44505876,10.7305141 C8.44505876,10.7305141 8.4436104,10.7277667 8.44210689,10.727346 C8.6042191,10.7269244 8.76784158,10.7269244 8.9836922,10.7269244 C8.99225096,10.8900461 9.00041661,11.0456219 8.9998096,11.2498371 Z" id="Path" fill="#CBA265"></path>
            <path d="M4.49032542,3.95273028 C4.48924949,3.35803797 4.50376,2.76275379 4.48120802,2.16887695 C4.46788373,1.8179852 4.5672435,1.63241887 4.99381367,1.68287028 C5.04168316,1.67906723 5.05311785,1.69066181 5.05471096,1.74788271 C5.05740068,2.51437266 5.05849028,3.22364158 5.01173808,3.93907367 C4.80407367,3.94579525 4.6442513,3.94635435 4.48587706,3.9483626 C4.48733232,3.9498113 4.49032542,3.95273028 4.49032542,3.95273028 Z" id="Path" fill="#626262"></path>
            <path d="M4.47814599,4.50552644 C4.32328904,4.50907435 4.1684391,4.51262181 3.96712655,4.51827571 C3.89607751,4.1784435 3.90838791,3.8672087 4.44258701,3.95161006 C4.49032542,3.95273028 4.48733232,3.9498113 4.48685638,3.99520881 C4.48363571,4.19557955 4.48089085,4.35055322 4.47814599,4.50552644 Z" id="Path" fill="#626262"></path>
            <path d="M10.6955042,4.52773107 C10.6967388,4.86609514 10.6979732,5.20446 10.6447658,5.59342644 C10.4351358,5.64256746 10.2799479,5.64110712 10.1295739,5.59164972 C10.1977746,5.09523898 10.001,4.98926893 9.57760226,5.13928 C9.57760226,5.30575944 9.57760226,5.46873017 9.57598158,5.67828768 C9.57312633,5.88011661 9.57190565,6.03535718 9.57067797,6.19059853 C9.0411687,6.19566068 8.51165944,6.20072192 7.92970124,6.15165243 C7.87516271,5.94225175 7.87307311,5.78698282 7.87335582,5.58400136 C7.93871514,5.07604316 7.72740938,4.99326633 7.32383944,5.14002056 C7.32383944,5.31223966 7.32383944,5.47594068 7.27163887,5.64101232 C7.05236746,5.64307435 6.88243458,5.66386859 6.71874994,5.64064757 C6.24567582,5.5735374 6.12685379,5.81158136 6.18768893,6.22240667 C6.18021299,6.3863878 6.17273706,6.55036802 6.16371627,6.74827797 C6.00227311,6.75843921 5.8590922,6.76745232 5.66721424,6.72715186 C5.62311718,5.96239684 5.6277104,5.24695446 5.6784765,4.52532497 C5.88146486,4.5152835 6.03828045,4.5114287 6.24681379,4.51036836 C6.82026836,4.51126147 7.34201898,4.50935966 7.91731492,4.50956788 C8.50885944,4.51029853 9.04685153,4.50888079 9.63512701,4.51029164 C10.0221106,4.5179904 10.358804,4.52286068 10.6955042,4.52773107 Z" id="Path" fill="#EFB385"></path>
            <path d="M10.696987,8.41887141 C10.544806,8.47067277 10.395156,8.46960644 10.200485,8.46802791 C10.1554637,8.11442486 10.1554637,7.7613322 10.1554637,7.34136203 C9.0203409,7.34136203 7.9391704,7.34136203 6.80576475,7.34659141 C6.68786,6.93220757 6.82030282,6.75007107 7.29028734,6.7639626 C8.39112023,6.7965009 9.49357367,6.77421356 10.6482624,6.77384723 C10.7006077,7.30438147 10.7000629,7.83519254 10.696987,8.41887141 Z" id="Path" fill="#40271A"></path>
            <path d="M5.6323104,4.53151164 C5.6277104,5.24695446 5.62311718,5.96239684 5.6197861,6.73146056 C5.61887582,7.30788667 5.6166965,7.83069243 5.56559932,8.40964452 C5.36810746,8.46194859 5.21954034,8.45807435 5.07096633,8.45421492 C5.07096633,8.45421492 5.05228339,8.45285706 5.05004881,8.46194859 C5.04822814,8.12916814 5.04864192,7.78729718 5.04152463,7.39488079 C5.03868316,6.62294034 5.04337288,5.90154441 5.04102802,5.12729277 C5.04068316,4.92166723 5.04737288,4.76889921 5.05609028,4.56841548 C5.05811785,4.52069989 5.05768339,4.52822023 5.10311842,4.52235638 C5.30129989,4.5124313 5.45404644,4.50837006 5.61326192,4.51102486 C5.61973096,4.51774169 5.6323104,4.53151164 5.6323104,4.53151164 Z" id="Path" fill="#EBA069"></path>
            <path d="M7.87098339,5.6317148 C7.87307311,5.78698282 7.87516271,5.94225175 7.8775904,6.14405921 C7.3492052,6.19773571 6.82048904,6.20487277 6.23972407,6.21720825 C6.12685379,5.81158136 6.24567582,5.5735374 6.71874994,5.64064757 C6.88243458,5.66386859 7.05236746,5.64307435 7.31726689,5.6429278 C7.56705593,5.63955277 7.71902305,5.63563379 7.87098339,5.6317148 Z" id="Path" fill="#F09F84"></path>
            <path d="M6.70990847,7.34404836 C6.7554539,7.87330927 6.75150203,8.4006522 6.7016739,8.98097842 C6.49811311,9.03522124 6.34042169,9.03648249 6.18274407,9.03774463 C6.18252339,8.62850554 6.20104079,8.21814068 6.17655785,7.81035864 C6.15435062,7.44035537 6.29821435,7.29080463 6.70990847,7.34404836 Z" id="Path" fill="#40271A"></path>
            <path d="M9.62144407,6.19805808 C9.57190565,6.03535718 9.57312633,5.88011661 9.62133379,5.68334723 C9.82046011,5.64109412 9.97260655,5.64037006 10.12476,5.63964678 C10.2799479,5.64110712 10.4351358,5.64256746 10.6368553,5.64375537 C10.689318,5.79704757 10.6952559,5.95061141 10.6982284,6.15026102 C10.3542522,6.19940294 10.0132277,6.20245989 9.62144407,6.19805808 Z" id="Path" fill="#F09F84"></path>
            <path d="M6.18238542,9.08376576 C6.34042169,9.03648249 6.49811311,9.03522124 6.70327401,9.03353424 C6.90416588,9.03282034 7.05758136,9.03253243 7.25646633,9.02707028 C7.30586678,9.18059446 7.30981164,9.33929096 7.26529401,9.54757266 C6.87519311,9.60117751 6.53354791,9.6051991 6.1873304,9.60460599 C6.18275096,9.5999922 6.17364056,9.59072655 6.17364056,9.59072655 C6.17644056,9.43708 6.17923367,9.28343435 6.18238542,9.08376576 Z" id="Path" fill="#944F31"></path>
            <path d="M5.06504904,8.50119209 C5.21954034,8.45807435 5.36810746,8.46193311 5.56112339,8.46132011 C5.6418278,8.79153153 5.65604169,9.10904712 5.11429096,9.02342723 C5.06546972,8.86109864 5.06230418,8.70463401 5.06504904,8.50119209 Z" id="Path" fill="#944F31"></path>
            <path d="M5.63646215,10.1563061 C5.62922079,10.0042656 5.62197932,9.85222508 5.60995153,9.65484791 C5.7633739,9.60544825 5.92159638,9.60138531 6.12672972,9.59402486 C6.17364056,9.59072655 6.18275096,9.5999922 6.18388893,9.64928237 C6.18309582,9.84918282 6.18115096,9.99979311 6.1340539,10.1545104 C5.93808621,10.1578475 5.78727073,10.1570767 5.63646215,10.1563061 Z" id="Path" fill="#944F31"></path>
            <path d="M5.05958689,3.93291062 C5.05849028,3.22364158 5.05740068,2.51437266 5.06045582,1.7536504 C7.09167831,1.70016836 9.11875582,1.69813898 11.1965788,1.70255503 C11.2538069,2.42354362 11.2602966,3.13808633 11.2657381,3.90648791 C11.1094329,3.95929887 10.9541829,3.95825186 10.7012698,3.9550713 C10.2595546,3.95447469 9.91550249,3.95601175 9.51882915,3.95510836 C8.93653311,3.95429492 8.40684452,3.9559226 7.82450011,3.95569966 C7.24175582,3.95475966 6.71167401,3.95566949 6.13435729,3.95443503 C5.9295896,3.95357819 5.77204994,3.9548661 5.56744079,3.95438203 C5.36343164,3.95628723 5.20649887,3.95996441 5.05481435,3.95685401 C5.0600696,3.95006734 5.05958689,3.93291062 5.05958689,3.93291062 Z" id="Path" fill="#787878"></path>
            <path d="M6.1792061,10.1504026 C6.18115096,9.99979311 6.18309582,9.84918282 6.18846825,9.65389616 C6.53354791,9.6051991 6.87519311,9.60117751 7.26883887,9.59465932 C7.47353073,9.59605073 7.62622893,9.59993876 7.82452768,9.60838621 C7.87241096,9.76342927 7.87468689,9.91391288 7.87760418,10.1094478 C7.87824554,10.1545 7.87796282,10.1671768 7.82916915,10.1683053 C7.62007718,10.172152 7.45978576,10.174871 7.25472836,10.1732675 C7.05984339,10.1717148 6.90971073,10.1744838 6.71153616,10.1734847 C6.50347175,10.1710459 6.34345616,10.1723744 6.1824061,10.1678744 C6.18136475,10.1620467 6.1792061,10.1504026 6.1792061,10.1504026 Z" id="Path" fill="#B06A3C"></path>
            <path d="M9.5714435,3.95754893 C9.91550249,3.95601175 10.2595546,3.95447469 10.6549383,3.96007819 C10.7038974,4.12281492 10.7015388,4.27841017 10.6973388,4.48086847 C10.358804,4.52286068 10.0221106,4.5179904 9.63003729,4.46458983 C9.57358836,4.26322249 9.57251254,4.11038588 9.5714435,3.95754893 Z" id="Path" fill="#503121"></path>
            <path d="M10.7458703,9.03650147 C10.699925,8.88022904 10.7015801,8.72276441 10.705456,8.51821469 C10.8639681,8.47062023 11.0202595,8.47011164 11.2237445,8.46921164 C11.2949246,8.81200757 11.2722209,9.11583424 10.7458703,9.03650147 Z" id="Path" fill="#000000"></path>
            <path d="M4.52702237,4.50879887 C4.48089085,4.35055322 4.48363571,4.19557955 4.48540124,3.99376 C4.6442513,3.94635435 4.80407367,3.94579525 5.01174497,3.93907367 C5.05958689,3.93291062 5.0600696,3.95006734 5.05571096,4.0034287 C5.05346271,4.21393322 5.05557299,4.37107672 5.05768339,4.52822023 C5.05768339,4.52822023 5.05811785,4.52069989 5.06141446,4.52276723 C4.9017713,4.52058011 4.73883853,4.5163261 4.52702237,4.50879887 Z" id="Path" fill="#503121"></path>
            <path d="M5.63127593,10.2076489 C5.78727073,10.1570767 5.93808621,10.1578475 6.1340539,10.1545104 C6.1792061,10.1504026 6.18136475,10.1620467 6.18110271,10.2179662 C6.17944746,10.6095938 6.17806814,10.9453027 6.13004701,11.2837608 C5.92772746,11.2913738 5.77205684,11.2962359 5.6170965,11.2967661 C5.61781367,11.2924341 5.62027582,11.2840012 5.62027582,11.2840012 C5.62221379,10.9423311 5.62415175,10.600661 5.63127593,10.2076489 Z" id="Path" fill="#B18C3F"></path>
            <path d="M5.09531141,11.8572145 C5.04953853,11.7002524 5.05123503,11.5458137 5.05675921,11.3454131 C5.21585062,11.2967937 5.37110068,11.2941332 5.57331672,11.2877375 C5.62027582,11.2840012 5.61781367,11.2924341 5.61743435,11.3426295 C5.61716542,11.5455232 5.61728271,11.6982223 5.61739299,11.8509205 C5.4591913,11.8538593 5.3009826,11.8567981 5.09531141,11.8572145 Z" id="Path" fill="#6F6F6F"></path>
            <path d="M2.79092045,8.51479921 C3.13446904,8.43982249 3.43196203,8.4680452 3.35824395,8.98872079 C3.01468158,9.06371379 2.71720927,9.03545661 2.79092045,8.51479921 Z" id="Path" fill="#21140E"></path>
            <path d="M5.66862113,11.8538015 C5.61728271,11.6982223 5.61716542,11.5455232 5.61671718,11.3469615 C5.77205684,11.2962359 5.92772746,11.2913738 6.17817853,11.2883798 C6.43348475,11.287709 6.59401073,11.2851685 6.80029571,11.2865453 C6.99882203,11.2877979 7.15158927,11.2851323 7.35079831,11.2859496 C7.55155232,11.2862392 7.70587119,11.2830469 7.86485232,11.3276087 C7.87334203,11.534554 7.87716282,11.6937446 7.8809835,11.8529351 C7.72220938,11.8558412 7.56344203,11.8587472 7.35703288,11.8646275 C7.1537548,11.8650421 6.99812554,11.8624826 6.79593706,11.8637602 C6.40620859,11.8639594 6.06302554,11.8603215 5.66862113,11.8538015 Z" id="Path" fill="#7F7F7F"></path>
            <path d="M7.92779785,11.8570627 C7.87716282,11.6937446 7.87334203,11.534554 7.8689696,11.2820953 C7.8719765,11.0356537 7.87552825,10.8824805 7.87908,10.7293063 C8.03631627,10.7277873 8.19355932,10.7262676 8.39792712,10.7276305 C8.44585186,10.8885443 8.44663808,11.0465745 8.45425186,11.2517259 C8.45628644,11.45366 8.45149322,11.608473 8.44625876,11.809864 C8.28876045,11.8580249 8.13168972,11.8596076 7.92779785,11.8570627 Z" id="Path" fill="#536082"></path>
            <path d="M7.87811446,10.6832318 C7.87552825,10.8824805 7.8719765,11.0356537 7.86430746,11.2343403 C7.70587119,11.2830469 7.55155232,11.2862392 7.35338463,11.2360241 C7.30617718,10.8476077 7.30283232,10.512598 7.29948746,10.177589 C7.45978576,10.174871 7.62007718,10.172152 7.82826565,10.1745812 C7.87648689,10.3322045 7.87681797,10.4846795 7.87811446,10.6832318 Z" id="Path" fill="#B59F60"></path>
            <path d="M6.18158542,3.95657944 C6.71167401,3.95566949 7.24175582,3.95475966 7.82437605,4.00134893 C7.87252136,4.20171842 7.86814203,4.35458814 7.86376949,4.50745842 C7.34201898,4.50935966 6.82026836,4.51126147 6.24162746,4.46459153 C6.18368893,4.26287288 6.18263379,4.10972644 6.18158542,3.95657944 Z" id="Path" fill="#503121"></path>
            <path d="M7.91731492,4.50958734 C7.86814203,4.35458814 7.87252136,4.20171842 7.87703175,4.00319932 C8.40684452,3.9559226 8.93653311,3.95429492 9.51882226,3.95510836 C9.57251254,4.11038588 9.57358836,4.26322249 9.57975401,4.46176136 C9.04685153,4.50888079 8.50885944,4.51029853 7.91731492,4.50958734 Z" id="Path" fill="#EBA069"></path>
            <path d="M6.13435729,3.95443503 C6.18263379,4.10972644 6.18368893,4.26287288 6.18991661,4.46179672 C6.03828045,4.5114287 5.88146486,4.5152835 5.6784765,4.52532497 C5.6323104,4.53151164 5.61973096,4.51774169 5.61753096,4.46538983 C5.61505503,4.26074316 5.61477921,4.10844881 5.61451028,3.95615401 C5.77204994,3.9548661 5.9295896,3.95357819 6.13435729,3.95443503 Z" id="Path" fill="#EBA069"></path>
            <path d="M7.87335582,5.58400136 C7.71902305,5.63563379 7.56705593,5.63955277 7.36946068,5.64155627 C7.32383944,5.47594068 7.32383944,5.31223966 7.32383944,5.14002056 C7.72740938,4.99326633 7.93871514,5.07604316 7.87335582,5.58400136 Z" id="Path" fill="#304050"></path>
            <path d="M10.1295739,5.59164972 C9.97260655,5.64037006 9.82046011,5.64109412 9.62295446,5.63675876 C9.57760226,5.46873017 9.57760226,5.30575944 9.57760226,5.13928 C10.001,4.98926893 10.1977746,5.09523898 10.1295739,5.59164972 Z" id="Path" fill="#304050"></path>
            <path d="M5.56744079,3.95438203 C5.61477921,4.10844881 5.61505503,4.26074316 5.61106192,4.45867333 C5.45404644,4.50837006 5.30129989,4.5124313 5.10311842,4.52235638 C5.05557299,4.37107672 5.05346271,4.21393322 5.05045571,4.01021537 C5.20649887,3.95996441 5.36343164,3.95628723 5.56744079,3.95438203 Z" id="Path" fill="#21140E"></path>
            <path d="M7.25472836,10.1732675 C7.30283232,10.512598 7.30617718,10.8476077 7.30694271,11.232542 C7.15158927,11.2851323 6.99882203,11.2877979 6.79766814,11.2366033 C6.75271593,10.8475801 6.7561504,10.5124168 6.75959186,10.177252 C6.90971073,10.1744838 7.05984339,10.1717148 7.25472836,10.1732675 Z" id="Path" fill="#DCD29C"></path>
            <path d="M6.71153616,10.1734847 C6.7561504,10.5124168 6.75271593,10.8475801 6.75190904,11.232686 C6.59401073,11.2851685 6.43348475,11.287709 6.22482734,11.2856306 C6.17806814,10.9453027 6.17944746,10.6095938 6.18213718,10.2237939 C6.34345616,10.1723744 6.50347175,10.1710459 6.71153616,10.1734847 Z" id="Path" fill="#B59F60"></path>
        </g>
    </g>
</svg>
