<?xml version="1.0" encoding="UTF-8"?>
<svg width="11px" height="13px" viewBox="0 0 11 13" version="1.1" xmlns="http://www.w3.org/2000/svg" xmlns:xlink="http://www.w3.org/1999/xlink">
    <g id="Page-1" stroke="none" stroke-width="1" fill="none" fill-rule="evenodd">
        <g id="Group-4" transform="translate(0.556228, 0.511488)" fill-rule="nonzero">
            <path d="M6.77485892,0.007855245 C7.12800073,0.007855245 7.48113564,0.007855245 7.8784918,0.007855245 C7.89094705,0.165667787 7.90210581,0.307044737 7.91348525,0.550615471 C7.91214039,1.18732338 7.91056106,1.7218375 7.86282954,2.25416101 C7.662317,2.2464131 7.50795666,2.2408557 7.35164457,2.18526202 C7.34903078,1.98925468 7.33220988,1.84119999 7.3507066,1.69769762 C7.40876931,1.24731118 7.24036061,1.04065027 6.7259066,1.12647536 C6.31334344,1.06592767 6.18180412,1.22835796 6.21361135,1.58407434 C6.23302536,1.80120259 6.21030095,2.02209818 6.160997,2.24550056 C5.96321542,2.24489976 5.81095169,2.2401001 5.65674999,2.18509954 C5.65288784,1.89160101 5.67779157,1.643647 5.63675666,1.40713536 C5.61853575,1.30215231 5.46885824,1.15000926 5.37573316,1.1477531 C5.28335282,1.14551604 5.12013722,1.29487852 5.10531632,1.39510756 C5.06460558,1.67030112 5.08547474,1.95460474 5.03619146,2.24194801 C4.83652027,2.2441618 4.68262886,2.23973118 4.52680649,2.18509954 C4.52294434,1.89160101 4.54784807,1.64364654 4.50681316,1.40713536 C4.48859225,1.3021531 4.33890095,1.14999976 4.24579655,1.1477531 C4.15340242,1.14552338 3.99019372,1.29487762 3.97537282,1.39510756 C3.93466208,1.67030112 3.95553123,1.95460474 3.90570999,2.24197299 C3.70303191,2.24643558 3.54666468,2.24422813 3.39117327,2.19014395 C3.39233881,1.61091039 3.39263542,1.08355378 3.39292502,0.556252646 C3.39292502,0.556308691 3.39292502,0.556372081 3.44587734,0.556350951 C4.57253112,0.556329369 5.64621881,0.556329369 6.77485892,0.556329369 C6.77485892,0.332516601 6.77485892,0.170185866 6.77485892,0.007855245 Z" id="Path" fill="#A45635"></path>
            <path d="M1.15215542,8.4670201 C1.14515542,8.31313739 1.1381553,8.15925378 1.13436219,7.95128508 C1.13757598,7.89720089 1.15518999,7.88043524 1.20441123,7.88736372 C1.45828299,7.89618971 1.66755429,7.92493219 1.865984,7.89074914 C2.00301316,7.86714372 2.13529734,7.76994779 2.25114005,7.68136575 C2.38840355,7.57640428 2.51299112,7.4519279 2.62911655,7.32330575 C2.70578638,7.23838496 2.82689813,7.10957841 2.80478061,7.03914666 C2.77148366,6.93310056 2.63833734,6.80001547 2.53343971,6.78619468 C2.25898152,6.75003649 1.97681971,6.77227818 1.69894773,6.71856462 C1.70027191,6.13580304 1.70038219,5.60571445 1.69923734,5.0754879 C1.69798909,5.07534993 1.69766491,5.07783445 1.74525169,5.07703095 C1.95217813,5.07321547 2.11151779,5.07020248 2.31706491,5.06993095 C2.51746705,5.07512067 2.67166875,5.07756982 2.82691881,5.07803445 C2.82796016,5.07604903 2.82402219,5.07816202 2.82567734,5.12502462 C2.82798773,5.32822598 2.82864299,5.48456564 2.7816631,5.64113807 C2.57935056,5.74276078 2.42466604,5.84414892 2.26998163,5.94553886 C2.42163847,6.03217174 2.56456412,6.16180067 2.72711078,6.19479762 C2.94135451,6.23828688 3.17099847,6.20589943 3.39379395,6.25361988 C3.39864231,6.45956779 3.40373203,6.61803073 3.40241474,6.82236056 C3.40033203,7.02229988 3.4046631,7.1763705 3.40320784,7.37736926 C3.39691123,7.58091728 3.39639406,7.73753796 3.39452502,7.94184971 C3.39319395,8.14784847 3.39321462,8.30615457 3.39277327,8.51177412 C3.39255948,8.71639445 3.39280084,8.87370214 3.34653835,9.02996259 C3.14553609,9.03135909 2.9910309,9.03380135 2.83309813,8.98886553 C2.89415395,8.47688575 2.6181579,8.42507999 2.20991191,8.47021502 C1.82351462,8.46786666 1.48783508,8.46744338 1.15215542,8.4670201 Z" id="Path" fill="#944F31"></path>
            <path d="M0.561845472,1.67244338 C0.570321404,1.50991581 0.578790556,1.34738858 0.588935415,1.15276225 C0.749654511,1.14081084 0.891462986,1.13026508 1.08210638,1.16915163 C1.13196219,1.44082236 1.11184468,1.66600496 1.14223123,1.8841557 C1.15947971,2.00807558 1.25542558,2.2193383 1.32272977,2.22204259 C1.76205869,2.23969321 1.69716152,2.54128575 1.69818219,2.86739412 C1.69814773,3.45108508 1.69821666,3.98192496 1.69818219,4.55979253 C1.69794084,4.76382575 1.69780287,4.92083016 1.69766491,5.07783445 C1.69766491,5.07783445 1.69798909,5.07534993 1.65187135,5.07564734 C1.44818626,5.07595423 1.29061214,5.07596293 1.13303801,5.07602756 C1.13303801,5.0760827 1.13303801,5.0761896 1.13303801,5.02341491 C1.13303801,4.45866214 1.13303801,3.94668406 1.13303801,3.39339039 C0.899228523,3.39339039 0.736833607,3.39339039 0.572590443,3.33994282 C0.567769653,2.74847773 0.564804116,2.21046056 0.561845472,1.67244338 Z" id="Path" fill="#A45635"></path>
            <path d="M8.49002954,7.91360282 C8.47798807,8.07486756 8.46594649,8.2361314 8.45150502,8.42954383 C8.11376332,8.43500858 7.80700129,8.48764451 7.85530525,8.98412926 C7.65335824,9.03208236 7.50286005,9.03267807 7.3506101,8.98139818 C7.34640999,8.58276101 7.34395485,8.23600033 7.34364445,7.84299513 C7.34084445,7.6412696 7.33591338,7.48578948 7.33774095,7.28449762 C7.34034095,7.08460485 7.33618231,6.93052304 7.33774095,6.72908112 C7.34403756,6.52325558 7.3446031,6.36479005 7.39257609,6.20658315 C7.91560253,6.2796253 7.94574073,5.98547807 7.91094728,5.63765615 C7.91231282,5.63859152 7.91030592,5.6397018 7.95892027,5.64005705 C8.36614536,5.59386688 8.5169057,5.74442022 8.48132604,6.10912598 C8.45996717,6.32803705 8.47713971,6.55070756 8.47764321,6.77102214 C8.47829146,6.77035479 8.47964321,6.76902892 8.43085643,6.76862553 C7.72697971,6.70087479 7.94829937,7.19082496 7.91571971,7.51079321 C7.8706779,7.95319208 8.16626739,7.91653649 8.46444999,7.88780858 C8.47298796,7.8963931 8.49002954,7.91360282 8.49002954,7.91360282 Z" id="Path" fill="#944F31"></path>
            <path d="M6.22043214,11.8413004 C6.05603022,11.8413004 5.8916353,11.8413004 5.70513677,11.8413004 C5.66759835,11.6535571 5.63612219,11.4961363 5.59579756,11.2944582 C4.88517598,11.2944582 4.19658909,11.2944582 3.45266366,11.2466129 C3.39578027,10.8545913 3.39422852,10.5104151 3.39473191,10.1625354 C3.39679406,10.1588311 3.39963542,10.1509361 3.44507734,10.1545594 C3.64297609,10.161556 3.79543982,10.1649303 3.9517657,10.2149273 C3.89019948,10.7373193 4.18074751,10.7600678 4.57368977,10.7164381 C4.77406434,10.7181545 4.92843847,10.7144871 5.13064073,10.715826 C5.33819474,10.7175734 5.49790683,10.7143139 5.70361259,10.7164329 C5.90358717,10.7207829 6.05757508,10.7197545 6.21290784,10.7207674 C6.2142527,10.7228088 6.21691485,10.7269088 6.21788027,10.7778473 C6.21937688,11.1662913 6.21990106,11.503795 6.22043214,11.8413004 Z" id="Path" fill="#484645"></path>
            <path d="M8.48692604,1.10744835 C8.65196231,1.12112914 8.81700558,1.13480993 9.04545632,1.15374677 C9.04545632,2.43072338 9.04545632,3.69520372 9.04244943,5.01980711 C9.03943564,5.07993016 9.02460784,5.09584236 8.97805564,5.08889581 C8.611424,5.10918734 8.46269135,4.99436971 8.47122242,4.64152361 C8.49049157,3.84438462 8.47417417,3.04638575 8.47398796,2.19727287 C8.47939496,1.7996888 8.4831605,1.45356813 8.48692604,1.10744835 Z" id="Path" fill="#924E30"></path>
            <path d="M0.513031121,1.67766067 C0.564804116,2.21046056 0.567769653,2.74847773 0.570218014,3.39145547 C0.57742502,4.01751762 0.585156093,4.53861897 0.582135415,5.06705762 C0.571390443,5.07439479 0.549735076,5.08882767 0.549735076,5.08882767 C0.384836658,5.07426892 0.219945133,5.05971016 0.00423937002,5.04066508 C0.00423937002,4.01035287 0.0123359802,2.99850372 6.00479835e-05,1.98690169 C-0.00455385032,1.60727027 0.257511121,1.70341491 0.513031121,1.67766067 Z" id="Path" fill="#924E30"></path>
            <path d="M6.72280999,0.000671064205 C6.77485892,0.170185866 6.77485892,0.332516601 6.77485892,0.556329369 C5.64621881,0.556329369 4.57253112,0.556329369 3.44587734,0.510399539 C3.3957457,0.312203833 3.39856649,0.159937957 3.40139406,0.00767208115 C4.49118536,0.00294371957 5.58097677,-0.001784755 6.72280999,0.000671064205 Z" id="Path" fill="#EBA069"></path>
            <path d="M9.046684,5.07183005 C9.21946513,5.07777502 9.38499801,5.09181999 9.57775191,5.10817445 C9.57775191,5.83502813 9.57775191,6.5427696 9.57775191,7.28893299 C9.41646739,7.31761344 9.25858287,7.3456896 9.10069146,7.37376666 C9.12731248,7.42876214 9.15393338,7.48375671 9.1805544,7.53875208 C8.98181429,7.66034395 8.78307417,7.78193671 8.53718174,7.90856564 C8.49002954,7.91360282 8.47298796,7.8963931 8.47187067,7.83889592 C8.47371903,7.44394248 8.47667768,7.10648609 8.47964321,6.76902892 C8.47964321,6.76902892 8.47829146,6.77035479 8.52638852,6.77154801 C8.93375858,6.82027355 9.07136694,6.66553299 9.04705632,6.30478078 C9.01998717,5.90312112 9.03046999,5.49893129 9.02460095,5.09584236 C9.02460784,5.09584236 9.03943564,5.07993016 9.046684,5.07183005 Z" id="Path" fill="#944F31"></path>
            <path d="M1.69828558,2.8145427 C1.69716152,2.54128575 1.76205869,2.23969321 1.32272977,2.22204259 C1.25542558,2.2193383 1.15947971,2.00807558 1.14223123,1.8841557 C1.11184468,1.66600496 1.13196219,1.44082236 1.12932762,1.16661106 C1.12771383,1.11463818 1.12912073,1.11879592 1.17477643,1.11899592 C1.67434739,1.19714677 1.73383779,0.926274002 1.70200977,0.574640782 C1.85633564,0.568199765 2.01066152,0.561758296 2.21319474,0.555027367 C2.26140219,0.554763381 2.26504366,0.558388465 2.26467813,0.611173098 C2.26469881,1.38386745 2.26507813,2.10377796 2.26425745,2.8202957 C2.26305734,2.81690304 2.27025056,2.81718451 2.2224431,2.81686033 C2.01585462,2.81587197 1.85706671,2.81520734 1.69828558,2.8145427 Z" id="Path" fill="#C16B46"></path>
            <path d="M7.35657564,10.712863 C7.19940841,10.7181191 7.04223429,10.7233752 6.79010728,10.7288624 C6.53573214,10.7283641 6.37632344,10.7276365 6.21691485,10.7269088 C6.21691485,10.7269088 6.2142527,10.7228088 6.21454231,10.6745635 C6.21581135,10.4711569 6.21679756,10.3159957 6.26510841,10.1599199 C6.79487982,10.2432854 6.80662479,9.93444666 6.82961123,9.59526361 C7.0320066,9.59215671 7.18753236,9.58964892 7.38921044,9.58983843 C7.58831609,9.59171276 7.74126954,9.59086609 7.89422988,9.59002044 C7.89862988,9.75048858 7.90303688,9.91095671 7.85560875,10.1172582 C7.32187869,10.0756094 7.3115614,10.3717342 7.35657564,10.712863 Z" id="Path" fill="#4E4E4E"></path>
            <path d="M3.39267677,10.1662389 C3.39422852,10.5104151 3.39578027,10.8545913 3.40058717,11.2509957 C3.40384242,11.3032255 3.39827677,11.3006186 3.34772457,11.2961272 C2.95696163,11.2920599 2.61676468,11.2924858 2.27655406,11.2929099 C2.27056095,11.1393824 2.26456773,10.9858548 2.25976773,10.737478 C2.26162977,10.4820053 2.2623057,10.3213837 2.26285734,10.1606715 C2.26272638,10.1605819 2.26187801,10.1591672 2.31331316,10.1596905 C2.70739327,10.1622225 3.05003157,10.1642311 3.39267677,10.1662389 Z" id="Path" fill="#4E4E4E"></path>
            <path d="M8.4831605,1.06032937 C8.4831605,1.45356813 8.47939496,1.7996888 8.42682886,2.19815434 C8.2196266,2.25249423 8.06123858,2.25448869 7.90433338,2.25458609 C7.9058231,2.25268858 7.90898174,2.25635163 7.90898174,2.25635163 C7.91056106,1.7218375 7.91214039,1.18732338 7.91447835,0.59940146 C8.08036299,0.555280217 8.24547508,0.564567787 8.44685666,0.57589468 C8.45823609,0.72888259 8.46881553,0.871046657 8.4831605,1.06032937 Z" id="Path" fill="#C16B46"></path>
            <path d="M0.554452364,7.34918282 C0.389195302,7.33499728 0.223938353,7.32081174 0.0320466017,7.3043401 C0.0320466017,6.76625909 0.0320466017,6.24723095 0.0320466017,5.68281694 C0.174861969,5.668047 0.315794511,5.65347265 0.515665698,5.64087513 C0.574618014,5.64285106 0.595032025,5.6542296 0.585700952,5.70507152 C0.580638805,6.27557434 0.584907845,6.79523615 0.580507732,7.32347818 C0.571838692,7.33205931 0.554452364,7.34918282 0.554452364,7.34918282 Z" id="Path" fill="#924E30"></path>
            <path d="M1.1462657,10.1730536 C1.14258299,10.0102458 1.13889327,9.84743875 1.19221112,9.63895976 C1.58497406,9.59048078 1.9207501,9.58767299 2.25856073,9.63288903 C2.26102977,9.84033095 2.26145044,9.99974914 2.26187901,10.1591672 C2.26187901,10.1591672 2.26272638,10.1605819 2.21499474,10.1604828 C2.00708219,10.1613931 1.84690106,10.1624018 1.64165056,10.1624586 C1.44646909,10.1653552 1.2963709,10.1692044 1.1462657,10.1730536 Z" id="Path" fill="#675549"></path>
            <path d="M6.21788027,10.7778473 C6.37632344,10.7276365 6.53573214,10.7283641 6.74303101,10.7297951 C6.78860389,10.9532717 6.76560366,11.1782035 6.78860389,11.39833 C6.82722502,11.7679617 6.6814579,11.9153893 6.26913609,11.8472987 C6.21990106,11.503795 6.21937688,11.1662913 6.21788027,10.7778473 Z" id="Path" fill="#675549"></path>
            <path d="M2.27091259,11.3417484 C2.61676468,11.2924858 2.95696163,11.2920599 3.348897,11.2933375 C3.39186299,11.4584945 3.38311112,11.6219515 3.37466276,11.7796584 C2.45670095,11.9816365 2.30458886,11.9266186 2.27091259,11.3417484 Z" id="Path" fill="#675549"></path>
            <path d="M1.14482434,8.51404214 C1.48783508,8.46744338 1.82351462,8.46786666 2.21066366,8.51711728 C2.25831937,8.72337378 2.25450558,8.88080146 2.20064977,9.03597118 C1.81745248,9.03432202 1.4843109,9.03493332 1.15117609,9.03554361 C1.14661745,8.87738417 1.14205881,8.71922372 1.14482434,8.51404214 Z" id="Path" fill="#738846"></path>
            <path d="M1.1437692,9.08116564 C1.4843109,9.03493332 1.81745248,9.03432202 2.20498084,9.08137005 C2.25841598,9.28097389 2.25746423,9.43291954 2.25651248,9.58486519 C1.9207501,9.58767299 1.58497406,9.59048078 1.19925948,9.59068688 C1.14499677,9.43431954 1.14068638,9.28055321 1.1437692,9.08116564 Z" id="Path" fill="#8FAA59"></path>
            <path d="M1.12868626,7.90549671 C0.794896319,7.92107705 0.475134172,7.92231412 0.559528184,7.39558508 C0.554452364,7.34918282 0.571838692,7.33205931 0.625101404,7.330774 C0.830379483,7.33119118 0.982388071,7.33289299 1.13392073,7.38047197 C1.14070016,7.57771208 1.14794163,7.72907321 1.15518999,7.88043524 C1.15518999,7.88043524 1.13757598,7.89720089 1.12868626,7.90549671 Z" id="Path" fill="#924E30"></path>
            <path d="M0.564183438,5.6375975 C0.557652364,5.48091479 0.561555867,5.32948553 0.557597223,5.13344191 C0.549735076,5.08882767 0.571390443,5.07439479 0.626728975,5.07269039 C0.832393268,5.07272056 0.982719144,5.07445513 1.13303801,5.0761896 C1.13303801,5.0761896 1.13303801,5.0760827 1.13300355,5.12275558 C1.21028027,5.6157818 0.934256545,5.67007027 0.595032025,5.6542296 C0.595032025,5.6542296 0.574618014,5.64285106 0.564183438,5.6375975 Z" id="Path" fill="#A45635"></path>
            <path d="M1.65432649,0.567670047 C1.73383779,0.926274002 1.67434739,1.19714677 1.17324536,1.11778169 C1.13510016,0.951078183 1.14412784,0.785788352 1.15497621,0.58715129 C1.31839869,0.577580443 1.46252445,0.569139878 1.65432649,0.567670047 Z" id="Path" fill="#A45635"></path>
            <path d="M2.25957462,0.552953889 C2.25774005,0.38577016 2.25774005,0.220396375 2.25774005,0.0200197648 C2.44170762,0.0101899343 2.58546784,0.00250835234 2.77813203,0.0473220247 C2.82697395,0.252341121 2.82691881,0.404865188 2.82744287,0.556792307 C2.82802909,0.556195358 2.82902909,0.555227674 2.78199417,0.555860443 C2.57832287,0.557124624 2.42168671,0.557756601 2.26504366,0.558388465 C2.26504366,0.558388465 2.26140219,0.554763381 2.25957462,0.552953889 Z" id="Path" fill="#C16B46"></path>
            <path d="M2.82685666,0.557388917 C2.82691881,0.404865188 2.82697395,0.252341121 2.82551191,0.0545665444 C2.98454807,0.0044251885 3.14510163,-0.000465545964 3.35353146,0.00115795686 C3.39856649,0.159937957 3.3957457,0.312203833 3.39292502,0.510421121 C3.39292502,0.556372081 3.39292502,0.556308691 3.34577282,0.556291855 C3.14136366,0.556646205 2.98411361,0.557017279 2.82685666,0.557388917 Z" id="Path" fill="#A45635"></path>
            <path d="M7.90144378,9.54394067 C7.74126954,9.59086609 7.58831609,9.59171276 7.39112084,9.54419231 C7.34723067,9.34170903 7.34758242,9.18759355 7.34873417,9.03269445 C7.34953417,9.03191174 7.35236186,9.03327378 7.35236186,9.03327468 C7.50286005,9.03267807 7.65335824,9.03208236 7.84863621,9.03194191 C7.89849892,9.1875531 7.90358174,9.34270734 7.90144378,9.54394067 Z" id="Path" fill="#738846"></path>
            <path d="M1.14043123,10.2203317 C1.2963709,10.1692044 1.44646909,10.1653552 1.64582988,10.2082721 C1.69169248,10.4079656 1.68829926,10.5608932 1.68490615,10.7138208 C1.51989056,10.7138208 1.35487496,10.7138208 1.13460355,10.7138208 C1.13460355,10.5536888 1.13460355,10.4106494 1.14043123,10.2203317 Z" id="Path" fill="#EFB385"></path>
            <path d="M1.73263779,10.7177571 C1.68829926,10.5608932 1.69169248,10.4079656 1.69090626,10.2092238 C1.84690106,10.1624018 2.00708219,10.1613931 2.21511892,10.1605724 C2.2623057,10.3213837 2.26162977,10.4820053 2.25867112,10.6913584 C2.09771078,10.7339581 1.93903316,10.7278252 1.73263779,10.7177571 Z" id="Path" fill="#484645"></path>
            <path d="M7.40415553,10.7184174 C7.3115614,10.3717342 7.32187869,10.0756094 7.85013282,10.165188 C7.89647813,10.3332511 7.89647813,10.4992175 7.89647813,10.7037259 C7.7399109,10.7108536 7.5958266,10.7174131 7.40415553,10.7184174 Z" id="Path" fill="#E99658"></path>
            <path d="M4.52873756,2.23529875 C4.68262886,2.23973118 4.83652027,2.2441618 5.08408852,2.2474601 C5.33806378,2.24265186 5.49837587,2.23897592 5.65868106,2.23529875 C5.81095169,2.2401001 5.96321542,2.24489976 6.20974231,2.24872395 C6.46618649,2.24569841 6.62837451,2.24364892 6.8372527,2.24508813 C7.04049632,2.24415061 7.19704977,2.23972474 7.35359632,2.23529875 C7.50795666,2.2408557 7.662317,2.2464131 7.86282954,2.25416101 C7.90898174,2.25635163 7.9058231,2.25268858 7.90793349,2.30035897 C7.91015417,2.50140044 7.91026457,2.65477152 7.85788468,2.81117412 C7.29156807,2.81420598 6.77773474,2.81420598 6.227577,2.81420598 C6.227577,3.0423331 6.227577,3.20580948 6.22452864,3.41755152 C6.14127259,3.95307717 6.44022762,3.98029909 6.84040445,3.94228745 C7.03524796,3.94317705 7.18531169,3.9408253 7.38287248,3.94112022 C7.58764717,3.94649954 7.74493169,3.94923152 7.90584378,4.00414847 C7.90974039,4.58412214 7.9100231,5.11191242 7.91031744,5.6397018 C7.91031744,5.6397018 7.91231282,5.63859152 7.86334671,5.64023717 C7.48627361,5.6103705 6.82296287,4.97413592 6.67652671,4.536294 C5.99334683,4.536294 5.30327711,4.536294 4.76768502,4.536294 C4.46832999,4.83312135 4.26071395,5.03898666 3.97095903,5.32629841 C3.97064174,5.33183208 3.96202784,5.48141479 3.90735824,5.63427683 C3.70750095,5.63525615 3.55370615,5.63295604 3.39750434,5.58446248 C3.46239474,5.06510417 3.16119146,5.04931513 2.82402219,5.07816202 C2.82402219,5.07816202 2.82796016,5.07604903 2.82758084,5.02475976 C2.82736016,4.25395728 2.82751191,3.53444236 2.82776705,2.81561378 C2.82787745,2.8162992 2.82668434,2.81590044 2.87459519,2.8159853 C3.08250784,2.81725604 3.24251643,2.81844225 3.3990492,2.865354 C3.3979596,3.06381095 3.40033892,3.21654146 3.39966299,3.41857649 C3.34141406,3.83328971 3.493264,3.98597671 3.86406129,3.94957378 C4.08616027,3.92776914 4.31173519,3.94136157 4.58057259,3.94228745 C4.7757196,3.94295208 4.92603157,3.94037366 5.1242683,3.94027705 C5.65701892,4.02080293 5.69031587,3.72812643 5.64657745,3.32071931 C5.69443316,2.95717615 5.61522536,2.78907604 5.23935225,2.80862361 C4.62624897,2.84050801 4.01055937,2.82286214 3.39501474,2.7792479 C3.39699406,2.57786293 3.39992513,2.42334519 3.40218027,2.26097581 C3.40149756,2.25312395 3.39030434,2.24202078 3.39030434,2.24202078 C3.54666468,2.24422813 3.70303191,2.24643558 3.95360705,2.24748553 C4.20812027,2.24265231 4.36843236,2.23897637 4.52873756,2.23529875 Z" id="Path" fill="#EFB385"></path>
            <path d="M2.82744287,0.556792307 C2.98411361,0.557017279 3.14136366,0.556646205 3.34577971,0.556236262 C3.39263542,1.08355378 3.39233881,1.61091039 3.39117327,2.19014395 C3.39030434,2.24202078 3.40149756,2.25312395 3.35502118,2.25506971 C3.15191542,2.25857875 2.99529993,2.26014304 2.83524299,2.20848123 C2.83087745,1.62191265 2.82995327,1.08857016 2.82902909,0.555227674 C2.82902909,0.555227674 2.82802909,0.556195358 2.82744287,0.556792307 Z" id="Path" fill="#C16B46"></path>
            <path d="M4.52680649,2.18509954 C4.36843236,2.23897637 4.20812027,2.24265231 3.99992479,2.24081524 C3.95553123,1.95460474 3.93466208,1.67030112 3.97537282,1.39510756 C3.99019372,1.29487762 4.15340242,1.14552338 4.24579655,1.1477531 C4.33890095,1.14999976 4.48859225,1.3021531 4.50681316,1.40713536 C4.54784807,1.64364654 4.52294434,1.89160101 4.52680649,2.18509954 Z" id="Path" fill="#C16B46"></path>
            <path d="M5.65674999,2.18509909 C5.49837587,2.23897592 5.33806378,2.24265186 5.1298683,2.24081524 C5.08547474,1.95460474 5.06460558,1.67030112 5.10531632,1.39510756 C5.12013722,1.29487852 5.28335282,1.14551604 5.37573316,1.1477531 C5.46885824,1.15000926 5.61853575,1.30215231 5.63675666,1.40713536 C5.67779157,1.643647 5.65288784,1.89160101 5.65674999,2.18509909 Z" id="Path" fill="#C16B46"></path>
            <path d="M6.79056253,2.24159931 C6.62837451,2.24364892 6.46618649,2.24569841 6.25525316,2.24452474 C6.21030095,2.02209818 6.23302536,1.80120259 6.21361135,1.58407434 C6.18180412,1.22835796 6.31334344,1.06592767 6.72900321,1.17682157 C6.78362445,1.56695265 6.78709349,1.9042757 6.79056253,2.24159931 Z" id="Path" fill="#E99658"></path>
            <path d="M6.8372527,2.24508813 C6.78709349,1.9042757 6.78362445,1.56695265 6.77705892,1.17928282 C7.24036061,1.04065027 7.40876931,1.24731118 7.3507066,1.69769762 C7.33220988,1.84119999 7.34903078,1.98925468 7.35164457,2.18526248 C7.19704977,2.23972474 7.04049632,2.24415061 6.8372527,2.24508813 Z" id="Path" fill="#C16B46"></path>
            <path d="M0.585700952,5.70507152 C0.934256545,5.67007027 1.21028027,5.6157818 1.13300355,5.12270044 C1.29061214,5.07596293 1.44818626,5.07595423 1.65312649,5.07578609 C1.70038219,5.60571445 1.70027191,6.13580304 1.69923734,6.71829129 C1.69832016,6.77069197 1.69913395,6.76987728 1.65192649,6.77029626 C1.1337553,6.69799976 1.10313429,6.99287626 1.13238977,7.33663615 C1.13299666,7.33604044 1.13439666,7.33459558 1.13439666,7.33459558 C0.982388071,7.33289299 0.830379483,7.33119118 0.633777336,7.32219287 C0.584907845,6.79523615 0.580638805,6.27557434 0.585700952,5.70507152 Z" id="Path" fill="#C16B46"></path>
            <path d="M1.20441123,7.88736372 C1.14794163,7.72907321 1.14070016,7.57771208 1.13392073,7.38047276 C1.13439666,7.33459558 1.13299666,7.33604044 1.17961779,7.33616971 C1.69694084,7.4088731 1.72811349,7.11448711 1.69913395,6.76987728 C1.69913395,6.76987728 1.69832016,6.77069197 1.69802355,6.77096519 C1.97681971,6.77227818 2.25898152,6.75003649 2.53343971,6.78619468 C2.63833734,6.80001547 2.77148366,6.93310056 2.80478061,7.03914666 C2.82689813,7.10957841 2.70578638,7.23838496 2.62911655,7.32330575 C2.51299112,7.4519279 2.38840355,7.57640428 2.25114005,7.68136575 C2.13529734,7.76994779 2.00301316,7.86714372 1.865984,7.89074914 C1.66755429,7.92493219 1.45828299,7.89618971 1.20441123,7.88736372 Z" id="Path" fill="#C16B46"></path>
            <path d="M2.25855383,9.63288903 C2.25746423,9.43291954 2.25841598,9.28097389 2.25503666,9.08362869 C2.25450558,8.88080146 2.25831937,8.72337378 2.26138152,8.51904315 C2.6181579,8.42507999 2.89415395,8.47688575 2.8301257,9.03566169 C2.74173858,9.62063626 3.06533519,9.61081547 3.39518016,9.64099174 C3.39718027,9.84207491 3.39840784,9.99650508 3.39962854,10.1509361 C3.39962854,10.1509361 3.39679406,10.1588311 3.39473191,10.1625354 C3.05003157,10.1642311 2.70739327,10.1622225 2.31331316,10.1596905 C2.26145044,9.99974914 2.26102977,9.84033095 2.25855383,9.63288903 Z" id="Path" fill="#564940"></path>
            <path d="M2.82765666,2.81492801 C2.82751191,3.53444236 2.82736016,4.25395728 2.82654638,5.02674508 C2.67166875,5.07756982 2.51746705,5.07512067 2.31398897,5.02329423 C2.26040219,4.81667988 2.25608491,4.65944282 2.2558918,4.45044654 C2.26342977,3.87151943 2.26683677,3.34435197 2.27025056,2.81718451 C2.27025056,2.81718451 2.26305734,2.81690304 2.31105101,2.81896903 C2.51525327,2.8189992 2.67145496,2.81696338 2.82765666,2.81492801 Z" id="Path" fill="#E99658"></path>
            <path d="M3.39991135,5.63065604 C3.55370615,5.63295604 3.70750095,5.63525615 3.90866864,5.6813644 C3.95810366,5.88047084 3.96016581,6.03576824 3.91508253,6.19614248 C3.70995609,6.20285807 3.55198886,6.20449683 3.39402163,6.20613479 C3.17099847,6.20589943 2.94135451,6.23828688 2.72711078,6.19479762 C2.56456412,6.16180067 2.42163847,6.03217174 2.26998163,5.94553886 C2.42466604,5.84414892 2.57935056,5.74276078 2.82910502,5.64119061 C3.08275609,5.63755784 3.24133022,5.634107 3.39991135,5.63065604 Z" id="Path" fill="#C16B46"></path>
            <path d="M3.40898728,7.33044123 C3.4046631,7.1763705 3.40033203,7.02229988 3.44773937,6.82032948 C3.65243135,6.77180395 3.80538479,6.77117897 3.95813123,6.81766575 C3.95806231,7.02198779 3.95820027,7.17919818 3.91228242,7.33626191 C3.71381135,7.33422395 3.56140276,7.33233265 3.40898728,7.33044123 Z" id="Path" fill="#EFB385"></path>
            <path d="M3.39750434,5.58446327 C3.24133022,5.634107 3.08275609,5.63755784 2.87674005,5.64095615 C2.82864299,5.48456564 2.82798773,5.32822598 2.82567734,5.12502462 C3.16119146,5.04931513 3.46239474,5.06510417 3.39750434,5.58446327 Z" id="Path" fill="#E99658"></path>
            <path d="M3.95833813,6.77055479 C3.80538479,6.77117897 3.65243135,6.77180395 3.45415327,6.77446089 C3.40373203,6.61803073 3.39864231,6.45956779 3.39379395,6.25361988 C3.55198886,6.20449683 3.70995609,6.20285807 3.91493078,6.20386327 C3.96193824,6.20650722 3.95724163,6.22121943 3.95747609,6.2668114 C3.9571657,6.46587299 3.95662084,6.61934282 3.95682095,6.77206869 C3.9575657,6.77132474 3.95833813,6.77055479 3.95833813,6.77055479 Z" id="Path" fill="#E99658"></path>
            <path d="M3.39323454,8.46446146 C3.39321462,8.30615457 3.39319395,8.14784847 3.44038762,7.94438847 C3.64092084,7.90316903 3.79423982,7.90710361 3.95191044,7.95683694 C3.95788299,8.15705717 3.95951056,8.31147965 3.91367564,8.46595027 C3.70856299,8.46548643 3.55089914,8.46497355 3.39323454,8.46446146 Z" id="Path" fill="#564940"></path>
            <path d="M3.94756558,7.91103807 C3.79423982,7.90710361 3.64092084,7.90316903 3.44173248,7.8966966 C3.39639406,7.73753796 3.39691123,7.58091728 3.40320784,7.37736926 C3.56140276,7.33233265 3.71381135,7.33422395 3.91189632,7.3358801 C3.9575657,7.33564553 3.95607609,7.33415412 3.95669677,7.38046937 C3.96235892,7.57997073 3.96739338,7.73315604 3.96623485,7.89253366 C3.96003474,7.89872508 3.94756558,7.91103807 3.94756558,7.91103807 Z" id="Path" fill="#E99658"></path>
            <path d="M2.25176762,4.50220564 C2.25608491,4.65944282 2.26040219,4.81667988 2.26778852,5.02055366 C2.11151779,5.07020248 1.95217813,5.07321547 1.74525169,5.07703095 C1.69780287,4.92083016 1.69794084,4.76382575 1.74445858,4.55920282 C1.9444814,4.5084583 2.09813146,4.50533163 2.25176762,4.50220564 Z" id="Path" fill="#C16B46"></path>
            <path d="M3.39440784,9.59433943 C3.06533519,9.61081547 2.74173858,9.62063626 2.83355338,9.08303897 C2.9910309,9.03380135 3.14553609,9.03135909 3.3464831,9.02990044 C3.39292502,9.03088496 3.39258016,9.0305479 3.39271813,9.07766993 C3.3930492,9.28163683 3.39325609,9.43848169 3.39324231,9.59553084 C3.39303542,9.59573344 3.39440784,9.59433943 3.39440784,9.59433943 Z" id="Path" fill="#C16B46"></path>
            <path d="M3.39277327,8.51177412 C3.55089914,8.46497355 3.70856299,8.46548643 3.91197903,8.46484937 C3.95773813,8.46369852 3.96002784,8.46066666 3.95915191,8.50850767 C3.95642084,8.71528146 3.95457259,8.87421423 3.90629621,9.0320401 C3.70411462,9.03080474 3.54834739,9.03067637 3.39258016,9.0305479 C3.39258016,9.0305479 3.39292502,9.03088496 3.39298016,9.030947 C3.39280084,8.87370214 3.39255948,8.71639445 3.39277327,8.51177412 Z" id="Path" fill="#C16B46"></path>
            <path d="M2.25589869,4.45044654 C2.09813146,4.50533163 1.9444814,4.5084583 1.74456197,4.51217479 C1.69821666,3.98192496 1.69814773,3.45108508 1.69818053,2.86739412 C1.85706671,2.81520734 2.01585462,2.81587197 2.2224431,2.81686033 C2.26683677,3.34435197 2.26342977,3.87151943 2.25589869,4.45044654 Z" id="Path" fill="#924E30"></path>
            <path d="M1.13303801,5.0234157 C0.982719144,5.07445513 0.832393268,5.07272056 0.637480839,5.06535332 C0.585156093,4.53861897 0.57742502,4.01751762 0.572066263,3.44490349 C0.736833607,3.39339039 0.899228523,3.39339039 1.13303801,3.39339039 C1.13303801,3.94668406 1.13303801,4.45866214 1.13303801,5.0234157 Z" id="Path" fill="#EBA069"></path>
            <path d="M3.96208988,6.19878643 C3.96016581,6.03576824 3.95810366,5.88047084 3.95472434,5.67808587 C3.96202784,5.48141479 3.97064174,5.33183208 3.97095903,5.32629841 C4.26071395,5.03898666 4.46832999,4.83312135 4.76768502,4.536294 C5.30327711,4.536294 5.99334683,4.536294 6.67652671,4.536294 C6.82296287,4.97413592 7.48627361,5.6103705 7.86198118,5.6393027 C7.94574073,5.98547807 7.91560253,6.2796253 7.34575485,6.20695378 C7.09502106,6.20672621 6.93851587,6.20638824 6.7823831,6.20607276 C6.78275553,6.20609513 6.78275553,6.20679694 6.78209349,6.15949468 C6.86271508,5.63245954 6.54722186,5.62121027 6.21528027,5.58373739 C6.28645349,4.92902248 5.83767609,5.10876666 5.52281745,5.07386892 C5.06586762,5.02322089 5.0660883,5.31474745 5.04483293,5.6349053 C4.53706864,5.56668643 4.4926544,5.85339649 4.46917135,6.20165976 C4.2675692,6.21052801 4.11240886,6.21587378 3.95724163,6.22121943 C3.95724163,6.22121943 3.96193824,6.20650722 3.96208988,6.19878643 Z" id="Path" fill="#BB653F"></path>
            <path d="M7.95892027,5.64005705 C7.9100231,5.11191242 7.90974039,4.58412214 7.90987146,3.95664451 C7.91091282,3.69947524 7.91153349,3.54199468 7.91231282,3.33653852 C7.91177485,3.12842327 7.91107146,2.9682827 7.91036796,2.80814214 C7.91026457,2.65477152 7.91015417,2.50140044 7.90644378,2.30225637 C8.06123858,2.25448869 8.2196266,2.25249423 8.4251805,2.2496183 C8.47417417,3.04638575 8.49049157,3.84438462 8.47122242,4.64152361 C8.46269135,4.99436971 8.611424,5.10918734 8.97804875,5.08889581 C9.03046999,5.49893129 9.01998717,5.90312112 9.04705632,6.30478078 C9.07136694,6.66553299 8.93375858,6.82027355 8.52574027,6.77221434 C8.47713971,6.55070756 8.45996717,6.32803705 8.48132604,6.10912598 C8.5169057,5.74442022 8.36614536,5.59386688 7.95892027,5.64005705 Z" id="Path" fill="#B6603A"></path>
            <path d="M7.34150649,7.88923965 C7.34395485,8.23600033 7.34640999,8.58276101 7.3506101,8.98139818 C7.35236186,9.03327378 7.34953417,9.03191174 7.30157508,9.0316496 C7.09640728,9.03147287 6.93920558,9.03155739 6.78224513,8.98410078 C6.78062445,8.77746236 6.77876242,8.61836485 6.7790727,8.41330225 C6.78485903,8.21492598 6.7884866,8.06251649 6.83792163,7.90687513 C7.036317,7.89884225 7.18891169,7.89404056 7.34150649,7.88923965 Z" id="Path" fill="#A45635"></path>
            <path d="M8.43085643,6.76862553 C8.47667768,7.10648609 8.47371903,7.44394248 8.4633327,7.8303114 C8.16626739,7.91653649 7.8706779,7.95319208 7.91571971,7.51079321 C7.94829937,7.19082496 7.72697971,6.70087479 8.43085643,6.76862553 Z" id="Path" fill="#C16B46"></path>
            <path d="M7.33201677,6.77644112 C7.33618231,6.93052304 7.34034095,7.08460485 7.2923405,7.28644847 C7.08755892,7.33494474 6.93493655,7.3356783 6.78252106,7.28930191 C6.78258999,7.08497818 6.78245203,6.92776688 6.82843191,6.77070654 C7.02704095,6.77272044 7.17952547,6.77458078 7.33201677,6.77644112 Z" id="Path" fill="#EFB385"></path>
            <path d="M7.33774095,6.72908112 C7.17952547,6.77458078 7.02704095,6.77272044 6.82881813,6.77109197 C6.7830866,6.77132474 6.78457621,6.77281355 6.78396931,6.72554835 C6.78290728,6.52087197 6.78245203,6.36346067 6.78200378,6.20604948 C6.93851587,6.20638824 7.09502106,6.20672621 7.29834739,6.20669513 C7.3446031,6.36479005 7.34403756,6.52325558 7.33774095,6.72908112 Z" id="Path" fill="#E99658"></path>
            <path d="M6.78231417,7.33641287 C6.93493655,7.3356783 7.08755892,7.33494474 7.28558174,7.33225931 C7.33591338,7.48578948 7.34084445,7.6412696 7.34363756,7.84299423 C7.18891169,7.89404056 7.036317,7.89884225 6.83248016,7.90149491 C6.78122445,7.89934575 6.77038988,7.88853524 6.77474163,7.84278304 C6.78092106,7.64273863 6.78274864,7.48844722 6.78383135,7.33489897 C6.7830866,7.33564293 6.78231417,7.33641287 6.78231417,7.33641287 Z" id="Path" fill="#E99658"></path>
            <path d="M3.44507044,10.1545594 C3.39840784,9.99650508 3.39718027,9.84207491 3.39518016,9.64099174 C3.39440784,9.59433943 3.39303542,9.59573344 3.44036005,9.59579468 C3.64561056,9.59510756 3.80353643,9.59436101 4.00809734,9.59453434 C4.2109892,9.59700937 4.36724615,9.59856621 4.5231927,9.64647536 C4.52276502,9.84894056 4.52264095,10.0050526 4.52273056,10.1609629 C4.52293056,10.1607603 4.52384095,10.1598491 4.47594389,10.1600733 C4.26799677,10.1629655 4.10794671,10.1656346 3.94790355,10.1683044 C3.79543982,10.1649303 3.64297609,10.161556 3.44507044,10.1545594 Z" id="Path" fill="#C16B46"></path>
            <path d="M3.9517657,10.2149256 C4.10794671,10.1656346 4.26799677,10.1629655 4.47564039,10.2063169 C4.52473056,10.4052424 4.52620649,10.5581484 4.52768242,10.7110536 C4.18074751,10.7600678 3.89019948,10.7373193 3.9517657,10.2149256 Z" id="Path" fill="#A45635"></path>
            <path d="M4.57368977,10.7164381 C4.52620649,10.5581484 4.52473056,10.4052424 4.52354434,10.2060928 C4.52384095,10.1598491 4.52293056,10.1607603 4.56986219,10.160832 C4.77390581,10.160781 4.93101101,10.1606586 5.08795756,10.2066393 C5.08612988,10.4054346 5.08446784,10.5581277 5.0828057,10.7108199 C4.92843847,10.7144871 4.77406434,10.7181545 4.57368977,10.7164381 Z" id="Path" fill="#C16B46"></path>
            <path d="M5.13064073,10.715826 C5.08446784,10.5581277 5.08612988,10.4054346 5.0878196,10.2067859 C5.08784027,10.1608285 5.0876196,10.1610638 5.13466841,10.1609354 C5.3388431,10.1607225 5.49596886,10.1606389 5.65306027,10.2066997 C5.65456378,10.4055811 5.65609485,10.5583173 5.65762592,10.7110536 C5.49790683,10.7143139 5.33819474,10.7175734 5.13064073,10.715826 Z" id="Path" fill="#A45635"></path>
            <path d="M5.70361259,10.7164329 C5.65609485,10.5583173 5.65456378,10.4055811 5.65292242,10.2068367 C5.65281203,10.1608285 5.65250163,10.1611337 5.69961259,10.161013 C5.90357338,10.1607095 6.06043722,10.160525 6.21753553,10.1605619 C6.21778378,10.160794 6.21778378,10.1608337 6.21778378,10.1608337 C6.21679756,10.3159957 6.21581135,10.4711569 6.21319067,10.6725229 C6.05757508,10.7197545 5.90358717,10.7207829 5.70361259,10.7164329 Z" id="Path" fill="#C16B46"></path>
            <path d="M2.82776705,2.81561378 C2.67145496,2.81696338 2.51525327,2.8189992 2.31225101,2.82236123 C2.26507813,2.10377796 2.26469881,1.38386745 2.26467813,0.611173098 C2.42168671,0.557756601 2.57832287,0.557124624 2.78199417,0.555860443 C2.82995327,1.08857016 2.83087745,1.62191265 2.8326292,2.25437231 C2.83120163,2.50762632 2.82894638,2.66176338 2.82668434,2.81590044 C2.82668434,2.81590044 2.82787745,2.8162992 2.82776705,2.81561378 Z" id="Path" fill="#A05434"></path>
            <path d="M6.78200378,9.0316427 C6.93920558,9.03155739 7.09640728,9.03147287 7.30077508,9.03243242 C7.34758242,9.18759355 7.34723067,9.34170903 7.34496864,9.54148372 C7.18753236,9.58964892 7.0320066,9.59215671 6.82961123,9.59522564 C6.78275553,9.59578779 6.78214864,9.59525321 6.78243824,9.54827513 C6.78287282,9.34435999 6.78301756,9.18742202 6.78295553,9.03069095 C6.78274864,9.03089784 6.78200378,9.0316427 6.78200378,9.0316427 Z" id="Path" fill="#C16B46"></path>
            <path d="M6.78275553,9.59582485 C6.80662479,9.93444666 6.79487982,10.2432854 6.26510841,10.1599199 C6.21778378,10.1608337 6.21778378,10.160794 6.21778378,10.1136435 C6.2180527,9.90988688 6.21832864,9.75328089 6.26550841,9.59633694 C6.46899349,9.59574982 6.62557451,9.59550157 6.78214864,9.59525321 C6.78214864,9.59525321 6.78275553,9.59578779 6.78275553,9.59582485 Z" id="Path" fill="#C16B46"></path>
            <path d="M3.40271824,3.36927253 C3.40033892,3.21654146 3.3979596,3.06381095 3.39455259,2.86414971 C3.39351813,2.81721988 3.39596649,2.82611524 3.39596649,2.82611524 C4.01055937,2.82286214 4.62624897,2.84050801 5.23935225,2.80862361 C5.61522536,2.78907604 5.69443316,2.95717615 5.60032864,3.32488835 C5.39520231,3.37903513 5.23988332,3.38045061 5.03797768,3.38155016 C4.83624434,3.38132914 4.6810979,3.38142304 4.47461971,3.38139931 C4.08309123,3.37727909 3.74290818,3.37327558 3.40271824,3.36927253 Z" id="Path" fill="#924E30"></path>
            <path d="M7.85788468,2.81117412 C7.91107146,2.9682827 7.91177485,3.12842327 7.8650709,3.33520101 C7.65992378,3.38178734 7.50218412,3.38173637 7.2978509,3.38145152 C7.09611756,3.3813175 6.94097801,3.38141705 6.73919643,3.38139886 C6.53755971,3.37728293 6.38256491,3.37328417 6.227577,3.36928541 C6.227577,3.20580948 6.227577,3.0423331 6.227577,2.81420598 C6.77773474,2.81420598 7.29156807,2.81420598 7.85788468,2.81117412 Z" id="Path" fill="#924E30"></path>
            <path d="M3.39966299,3.41857604 C3.74290818,3.37327558 4.08309123,3.37727909 4.4732266,3.42813524 C4.52735824,3.62967321 4.53155135,3.78435897 4.53574457,3.93904428 C4.31173519,3.94136157 4.08616027,3.92776914 3.86406129,3.94957378 C3.493264,3.98597671 3.34141406,3.83328971 3.39966299,3.41857604 Z" id="Path" fill="#E99658"></path>
            <path d="M4.58057259,3.94228745 C4.53155135,3.78435897 4.52735824,3.62967321 4.52455824,3.42825242 C4.6810979,3.38142304 4.83624434,3.38132914 5.03939835,3.42793558 C5.08371609,3.62902236 5.08003327,3.78340813 5.07635044,3.93779423 C4.92603157,3.94037366 4.7757196,3.94295208 4.58057259,3.94228745 Z" id="Path" fill="#000000"></path>
            <path d="M5.1242683,3.94027705 C5.08003327,3.78340813 5.08371609,3.62902236 5.08598513,3.42825073 C5.23988332,3.38045061 5.39520231,3.37903513 5.59676999,3.37345095 C5.69031587,3.72812643 5.65701892,4.02080293 5.1242683,3.94027705 Z" id="Path" fill="#E99658"></path>
            <path d="M6.22452864,3.41755152 C6.38256491,3.37328417 6.53755971,3.37728293 6.73780332,3.42813434 C6.78724525,3.62967321 6.79143835,3.78435897 6.79563157,3.93904428 C6.44022762,3.98029909 6.14127259,3.95307717 6.22452864,3.41755152 Z" id="Path" fill="#E99658"></path>
            <path d="M6.84040445,3.94228745 C6.79143835,3.78435897 6.78724525,3.62967321 6.78444525,3.42825242 C6.94097801,3.38141705 7.09611756,3.3813175 7.29927157,3.42794903 C7.34331349,3.62927841 7.33934784,3.78387536 7.33538231,3.93847276 C7.18531169,3.9408253 7.03524796,3.94317705 6.84040445,3.94228745 Z" id="Path" fill="#000000"></path>
            <path d="M7.38287248,3.94112022 C7.33934784,3.78387536 7.34331349,3.62927841 7.34585824,3.42818349 C7.50218412,3.38173637 7.65992378,3.38178734 7.86491225,3.38317604 C7.91153349,3.54199468 7.91091282,3.69947524 7.90625756,3.90446033 C7.74493169,3.94923152 7.58764717,3.94649954 7.38287248,3.94112022 Z" id="Path" fill="#E99658"></path>
            <path d="M2.87459519,2.8159853 C2.82894638,2.66176338 2.83120163,2.50762632 2.83606366,2.3075983 C2.99529993,2.26014304 3.15191542,2.25857875 3.355697,2.26292101 C3.39992513,2.42334519 3.39699406,2.57786293 3.39501474,2.7792479 C3.39596649,2.82611524 3.39351813,2.81721988 3.39801474,2.81842438 C3.24251643,2.81844225 3.08250784,2.81725604 2.87459519,2.8159853 Z" id="Path" fill="#E99658"></path>
            <path d="M1.65192649,6.77029626 C1.72811349,7.11448711 1.69694084,7.4088731 1.1790109,7.33676541 C1.10313429,6.99287626 1.1337553,6.69799976 1.65192649,6.77029626 Z" id="Path" fill="#A45635"></path>
            <path d="M6.78270039,6.77093931 C6.78245203,6.92776688 6.78258999,7.08497818 6.78252106,7.28930191 C6.78231417,7.33641287 6.7830866,7.33564293 6.73068604,7.33554383 C5.77088231,7.33501366 4.86347914,7.3345844 3.95607609,7.33415412 C3.95607609,7.33415412 3.9575657,7.33564553 3.95795191,7.33602666 C3.95820027,7.17919818 3.95806231,7.02198779 3.95813123,6.81766575 C3.95833813,6.77055479 3.9575657,6.77132474 4.00996626,6.77142383 C4.96976999,6.7719531 5.87717316,6.77238327 6.78457621,6.77281355 C6.78457621,6.77281355 6.7830866,6.77132474 6.78270039,6.77093931 Z" id="Path" fill="#E99658"></path>
            <path d="M6.78396931,6.72554745 C5.87717316,6.77238327 4.96976999,6.7719531 4.00922152,6.77216779 C3.95662084,6.61934282 3.9571657,6.46587299 3.95747609,6.2668114 C4.11240886,6.21587378 4.2675692,6.21052801 4.52271677,6.20434858 C5.34271203,6.20460892 6.06273383,6.20570293 6.78275553,6.20679694 C6.78275553,6.20679694 6.78275553,6.20609513 6.7823831,6.20607276 C6.78245203,6.36346067 6.78290728,6.52087197 6.78396931,6.72554745 Z" id="Path" fill="#EFB385"></path>
            <path d="M6.78667282,7.90472598 C6.7884866,8.06251649 6.78485903,8.21492598 6.73216875,8.41595231 C6.5253596,8.4685244 6.36761993,8.47248056 6.15914864,8.47257445 C5.76639948,8.47294609 5.42437508,8.47718056 5.03646039,8.47522361 C4.8364996,8.47315897 4.68244265,8.47728485 4.48119914,8.4750444 C4.27602445,8.46600722 4.11802954,8.46333649 3.96002784,8.46066666 C3.96002784,8.46066666 3.95773813,8.46369852 3.95943474,8.46479943 C3.95951056,8.31147965 3.95788299,8.15705717 3.95191044,7.95683694 C3.94756558,7.91103728 3.96003474,7.89872508 4.01759395,7.8976914 C4.9735631,7.89395084 5.87197993,7.89124304 6.77038988,7.88853524 C6.77038988,7.88853524 6.78122445,7.89934575 6.78667282,7.90472598 Z" id="Path" fill="#E99658"></path>
            <path d="M6.77474163,7.84278304 C5.87197993,7.89124304 4.9735631,7.89395084 4.02379406,7.89149999 C3.96739338,7.73315604 3.96235892,7.57997073 3.95669677,7.38046937 C4.86347914,7.3345844 5.77088231,7.33501366 6.73143078,7.33479897 C6.78274864,7.48844722 6.78092106,7.64273863 6.77474163,7.84278304 Z" id="Path" fill="#EFB385"></path>
            <path d="M3.96146231,9.59361355 C3.80353643,9.59436101 3.64561056,9.59510756 3.44056694,9.59559118 C3.39325609,9.43848169 3.3930492,9.28163683 3.39271813,9.07766993 C3.54834739,9.03067637 3.70411462,9.03080474 3.90926864,9.03096598 C3.95865542,9.03100044 3.96399338,9.0282496 3.96152434,9.07552338 C3.95985542,9.27973604 3.96066231,9.43667479 3.96146231,9.59361355 Z" id="Path" fill="#A45635"></path>
            <path d="M3.95915191,8.50850767 C4.11802954,8.46333649 4.27602445,8.46600722 4.47917146,8.51999479 C4.52660649,8.72191005 4.52889621,8.87250564 4.48371632,9.02592711 C4.27883135,9.02858496 4.12140897,9.02841683 3.96399338,9.0282496 C3.96399338,9.0282496 3.95865542,9.03100044 3.95568988,9.03207378 C3.95457259,8.87421423 3.95642084,8.71528146 3.95915191,8.50850767 Z" id="Path" fill="#738846"></path>
            <path d="M6.78209349,6.15949468 C6.06273383,6.20570293 5.34271203,6.20460892 4.5691518,6.20082609 C4.4926544,5.85339649 4.53706864,5.56668643 5.09559214,5.63844236 C5.53354864,5.63602508 5.87359372,5.63366734 6.21364581,5.63130869 C6.54722186,5.62121027 6.86271508,5.63245954 6.78209349,6.15949468 Z" id="Path" fill="#E99658"></path>
            <path d="M6.21528027,5.58373739 C5.87359372,5.63366734 5.53354864,5.63602508 5.14273745,5.63484575 C5.0660883,5.31474745 5.06586762,5.02322089 5.52281745,5.07386892 C5.83767609,5.10876666 6.28645349,4.92902248 6.21528027,5.58373739 Z" id="Path" fill="#A45635"></path>
            <path d="M6.20987338,8.4764375 C6.36761993,8.47248056 6.5253596,8.4685244 6.7300101,8.4619183 C6.77876242,8.61836485 6.78062445,8.77746236 6.78224513,8.98410078 C6.78200378,9.0316427 6.78274864,9.03089784 6.73635496,9.03084361 C6.53601485,9.03242033 6.38207519,9.03405219 6.22448039,8.98887412 C6.21717688,8.78685468 6.21352163,8.63164609 6.20987338,8.4764375 Z" id="Path" fill="#C16B46"></path>
            <path d="M3.96152434,9.07552338 C4.12140897,9.02841683 4.27883135,9.02858496 4.52975135,9.02907457 C4.7781127,9.03182722 4.93296965,9.03425739 5.08892999,9.03439705 C5.09003338,9.03210734 5.08509542,9.03090395 5.0863092,9.07792519 C5.08704027,9.28133513 5.08655056,9.43772225 5.08675745,9.5948757 C5.08744717,9.59564033 5.08808163,9.59634892 5.04099835,9.59613344 C4.83711338,9.59731965 4.68031169,9.59872135 4.52350299,9.60012315 C4.36724615,9.59856621 4.2109892,9.59700937 4.00809734,9.59453344 C3.96066231,9.43667479 3.95985542,9.27973604 3.96152434,9.07552338 Z" id="Path" fill="#8FAA59"></path>
            <path d="M4.5231927,9.64647536 C4.68031169,9.59872135 4.83711338,9.59731965 5.04090875,9.64303999 C5.08780581,9.84712847 5.0877092,10.0040966 5.0876196,10.1610638 C5.0876196,10.1610638 5.08784027,10.1608285 5.08797824,10.1606819 C4.93101101,10.1606586 4.77390581,10.160781 4.56966219,10.1610345 C4.52264095,10.0050526 4.52276502,9.84894056 4.5231927,9.64647536 Z" id="Path" fill="#A45635"></path>
            <path d="M5.13466841,10.1609354 C5.0877092,10.0040966 5.08780581,9.84712847 5.08799203,9.64325547 C5.08808163,9.59634892 5.08744717,9.59564033 5.13418558,9.5957206 C5.33805688,9.59582654 5.49519655,9.59584383 5.65254999,9.64292711 C5.65267406,9.84703965 5.65259135,10.0040871 5.65250852,10.1611337 C5.65250163,10.1611337 5.65281203,10.1608285 5.65294999,10.1606923 C5.49596886,10.1606389 5.3388431,10.1607225 5.13466841,10.1609354 Z" id="Path" fill="#C16B46"></path>
            <path d="M5.69961259,10.161013 C5.65259135,10.0040871 5.65267406,9.84703965 5.65224649,9.64246417 C5.65173621,9.59493434 5.65026027,9.59280146 5.69772287,9.59418078 C5.90249756,9.59543943 6.05980276,9.59531796 6.2174527,9.59552056 C6.21778378,9.59584462 6.21859756,9.5966757 6.21859756,9.5966757 C6.21832864,9.75328089 6.2180527,9.90988688 6.21753553,10.1134167 C6.06043722,10.160525 5.90357338,10.1607095 5.69961259,10.161013 Z" id="Path" fill="#A45635"></path>
            <path d="M6.22813564,9.03568327 C6.38207519,9.03405219 6.53601485,9.03242033 6.73656197,9.03063671 C6.78301756,9.18742202 6.78287282,9.34435999 6.78243824,9.54827513 C6.62557451,9.59550157 6.46899349,9.59574982 6.26550841,9.59633694 C6.21859756,9.5966757 6.21778378,9.59584462 6.21776999,9.54854587 C6.2166527,9.34399965 6.21554242,9.1867531 6.21783892,9.03110474 C6.22123903,9.03270304 6.22813564,9.03568327 6.22813564,9.03568327 Z" id="Path" fill="#A45635"></path>
            <path d="M6.15914864,8.47257366 C6.21352163,8.63164609 6.21717688,8.78685468 6.22448039,8.98887412 C6.22813564,9.03568327 6.22123903,9.03270304 6.17139711,9.03173152 C5.96502931,9.03085909 5.80850344,9.03095999 5.60496321,9.0309505 C5.40033338,9.03086259 5.2427179,9.03088327 5.08509542,9.03090395 C5.08509542,9.03090395 5.09003338,9.03210734 5.08899203,8.98771547 C5.08608163,8.78935389 5.0842196,8.63538496 5.08235056,8.48141513 C5.42437508,8.47718056 5.76639948,8.47294609 6.15914864,8.47257366 Z" id="Path" fill="#738846"></path>
            <path d="M5.03646039,8.47522361 C5.0842196,8.63538496 5.08608163,8.78935389 5.08788852,8.99000519 C4.93296965,9.03425739 4.7781127,9.03182722 4.57722084,9.0262496 C4.52889621,8.87250564 4.52660649,8.72191005 4.52634445,8.52636214 C4.68244265,8.47728485 4.8364996,8.47315897 5.03646039,8.47522361 Z" id="Path" fill="#564940"></path>
            <path d="M5.0863092,9.07792519 C5.2427179,9.03088327 5.40033338,9.03086259 5.60540457,9.07792259 C5.65198445,9.28093604 5.65112231,9.4368688 5.65026027,9.59280146 C5.65026027,9.59280146 5.65173621,9.59493434 5.6520327,9.59539807 C5.49519655,9.59584383 5.33805688,9.59582654 5.13349598,9.5949601 C5.08655056,9.43772225 5.08704027,9.28133513 5.0863092,9.07792519 Z" id="Path" fill="#564940"></path>
            <path d="M5.69772287,9.59418078 C5.65112231,9.4368688 5.65198445,9.28093604 5.65241203,9.07803208 C5.80850344,9.03095999 5.96502931,9.03085909 6.167997,9.03013321 C6.21554242,9.1867531 6.2166527,9.34399965 6.21743892,9.54822169 C6.05980276,9.59531796 5.90249756,9.59543943 5.69772287,9.59418078 Z" id="Path" fill="#8FAA59"></path>
        </g>
    </g>
</svg>
