<?xml version="1.0" encoding="UTF-8"?>

<svg width="10px" height="12px" viewBox="0 0 10 12" version="1.1" xmlns="http://www.w3.org/2000/svg" xmlns:xlink="http://www.w3.org/1999/xlink">
    <g id="Page-1" stroke="none" stroke-width="1" fill="none" fill-rule="evenodd">
        <g id="Group-8" transform="translate(0.084315, 0.061088)" fill-rule="nonzero">
            <path d="M0.0176782354,2.83658794 C0.0157989134,2.67681246 0.0139195913,2.51703653 0.0625924727,2.31113088 C0.480193716,2.31699506 0.612343433,2.1485519 0.580205128,1.79346433 C0.560411795,1.57480761 0.576260269,1.35292591 0.576105015,1.13249201 C0.576105015,1.13249201 0.576825806,1.13678422 0.622236653,1.13659032 C1.14149405,1.20978252 1.17242547,0.914568058 1.14107677,0.567520261 C1.14107677,0.567520261 1.14179756,0.571812917 1.19302569,0.571655628 C1.78161146,0.571567719 2.3210692,0.601009753 2.85568886,0.562769301 C3.31497326,0.529917662 3.45986106,0.717865007 3.35530468,1.13728557 C2.83735756,1.06434681 2.8057779,1.35711337 2.78885711,1.70234783 C2.38202151,1.65474772 2.24723733,1.80697179 2.26550298,2.16891156 C2.28576874,2.57050263 2.25753744,2.97454071 2.20485756,3.38331766 C2.01075191,3.46384354 1.741311,3.5285606 1.73416264,3.6149797 C1.69913473,4.03828433 1.412804,3.95263337 1.15243213,3.90773292 C1.14464581,3.5248528 1.14464581,3.19283111 1.14464581,2.83855687 C0.921822642,2.83855687 0.7561588,2.83855687 0.542670213,2.836578 C0.335788631,2.83526207 0.176735185,2.83592501 0.0176782354,2.83658794 Z" id="Path" fill="#1B1310"></path>
            <path d="M3.40248795,1.13757518 C3.45986106,0.717865007 3.31497326,0.529917662 2.85568886,0.562769301 C2.3210692,0.601009753 1.78161146,0.571567719 1.19088083,0.571290092 C1.14921485,0.406616306 1.16091846,0.242150657 1.17767033,0.00670884878 C1.96834117,0.00670884878 2.73163925,0.00669551545 3.49493383,0.00671269059 C4.24469383,0.00672997872 4.99484004,0.0210034251 5.7440449,0.000613142565 C6.10106953,-0.00910335461 6.28338185,0.0936826341 6.17487372,0.522893821 C5.73804479,0.670983425 5.13825541,0.276233369 5.03795428,1.04299179 C5.03364739,1.07591981 4.94913948,1.1224815 4.90241835,1.12199145 C4.45012366,1.11724953 4.53822468,1.44245484 4.5333005,1.75903427 C4.53812117,1.95985326 4.54415925,2.1142571 4.54245575,2.31438083 C4.5382936,2.51439167 4.54187643,2.66868263 4.49781044,2.82553732 C4.00099112,2.76296037 3.91790061,3.0127084 3.92599033,3.38800309 C3.71779496,3.3947954 3.55735179,3.39554535 3.39878106,3.34558704 C3.40001552,2.95567201 3.39937756,2.61646478 3.39987066,2.2289067 C3.40131552,2.02078196 3.40162931,1.86100953 3.40166038,1.7015258 C3.40137417,1.70181461 3.40061552,1.70257201 3.44799191,1.70220862 C3.65030445,1.60108252 3.80523722,1.50031924 3.96017349,1.39955608 C3.77365417,1.31160557 3.58713485,1.22365552 3.4010362,1.13613032 C3.40146038,1.13655585 3.40248795,1.13757518 3.40248795,1.13757518 Z" id="Path" fill="#352620"></path>
            <path d="M6.79134603,0.5716806 C6.80117033,0.406764103 6.81099451,0.241847606 6.8228223,0.0432894138 C7.35753157,0.0432894138 7.85828886,0.0432894138 8.2612692,0.0432894138 C8.5152892,0.298942295 8.72480185,0.509804894 9.0512779,0.838379696 C9.0512779,1.69045676 9.05129518,2.72037326 9.051271,3.75028987 C9.05125033,4.61477088 9.03691564,5.47960117 9.05806761,6.3435632 C9.06669191,6.69598444 8.93078004,6.82417371 8.54440332,6.79057936 C8.48863372,6.78830693 8.47184389,6.77191111 8.47746468,6.72562953 C8.47958196,6.52283077 8.47607496,6.36631518 8.47829914,6.15788275 C8.4786336,5.39230365 8.4732405,4.6786397 8.4751405,3.9187658 C8.48321304,3.71667913 8.48399925,3.56080241 8.48524411,3.35642772 C8.48533372,3.14626501 8.4849579,2.98460037 8.48531304,2.77742173 C8.48514411,2.58041868 8.484244,2.42892953 8.48420614,2.22524286 C8.43412626,1.74623924 8.72423982,1.1685458 7.98244886,1.04201687 C7.95083123,1.0366241 7.96036242,0.889805685 7.9151205,0.844162069 C7.81380558,0.741948397 7.69909744,0.604935741 7.5734892,0.584970431 C7.31851394,0.544441052 7.05269383,0.572117662 6.79134603,0.5716806 Z" id="Path" fill="#352620"></path>
            <path d="M6.74427315,0.5716806 C7.05269383,0.572117662 7.31851394,0.544441052 7.5734892,0.584970431 C7.69909744,0.604935741 7.81380558,0.741948397 7.9151205,0.844162069 C7.96036242,0.889805685 7.95083123,1.0366241 7.98244886,1.04201687 C8.72423982,1.1685458 8.43412626,1.74623924 8.43794355,2.22056433 C8.23610343,2.26471698 8.08139134,2.26135179 7.9248379,2.26208975 C7.92299643,2.26619235 7.93050694,2.26124105 7.92664479,2.21341167 C7.91473428,2.0212858 7.90668592,1.87698896 7.89793417,1.71998681 C7.69459055,1.70953879 7.52814727,1.70098749 7.359611,1.69644037 C7.35752129,1.70044568 7.36553518,1.69626761 7.36166614,1.64787958 C7.35780061,1.45677529 7.35780061,1.31405857 7.35780061,1.13726659 C7.1334223,1.14907665 6.97494468,1.15741811 6.81011518,1.16609359 C6.81011518,1.37104806 6.81011518,1.53724817 6.80207722,1.75143755 C6.78284253,1.95262772 6.77164581,2.10582851 6.75948016,2.2723145 C6.54519857,2.2723145 6.38309326,2.2723145 6.2233536,2.22466049 C6.21970874,2.01914964 6.21370174,1.86129269 6.2155501,1.65506794 C6.29127846,1.15221416 6.09239349,1.04491167 5.67772682,1.18944512 C5.66895089,1.36414794 5.66060942,1.53021145 5.65436456,1.69781246 C5.65646456,1.69934998 5.65516456,1.69365032 5.60441225,1.69700162 C5.21394242,1.70444184 4.87423179,1.70853066 4.53451767,1.71261902 C4.53822468,1.44245484 4.45012366,1.11724953 4.90241835,1.12199145 C4.94913948,1.1224815 5.03364739,1.07591981 5.03795428,1.04299179 C5.13825541,0.276233369 5.73804479,0.670983425 6.17493586,0.5716806 C6.38337609,0.5716806 6.54028468,0.5716806 6.74427315,0.5716806 Z" id="Path" fill="#1B1310"></path>
            <path d="M1.70722784,8.48209371 C1.36645168,8.51035009 1.07162773,8.48282738 1.14065959,7.96556738 C1.14152513,7.916478 1.14608716,7.91187111 1.19289462,7.91340037 C1.39319338,7.81398987 1.54668129,7.71305077 1.7001692,7.61211179 C1.51368784,7.5248728 1.32720987,7.43763393 1.14120095,7.35086749 C1.14167338,7.35134162 1.14261824,7.35228817 1.14228377,7.29922987 C1.14006298,6.33700806 1.13818027,5.42784365 1.13755609,4.52058794 C1.13881123,4.52249484 1.1343388,4.52058794 1.18264626,4.52230354 C1.3920623,4.5252432 1.5531779,4.52648455 1.7120762,4.58051619 C1.70986242,5.33382455 1.70986242,6.03434173 1.70986242,6.73485891 C1.76182502,6.70818105 1.81378422,6.6815023 1.86574694,6.65482444 C2.04683857,6.8525232 2.22793021,7.05022275 2.49049168,7.33685958 C2.50777812,7.33787077 2.67190061,7.34747179 2.83653349,7.4036284 C2.83694038,7.60674444 2.83683349,7.76330648 2.78925711,7.91889619 C2.25506151,7.82501405 2.25100976,8.14515902 2.21595417,8.4783023 C2.01554513,8.47953506 1.86138818,8.48081439 1.70722784,8.48209371 Z" id="Path" fill="#1B1310"></path>
            <path d="M6.79641857,8.47533156 C6.44318355,8.44807958 6.15307349,8.49491461 6.17449439,9.00722196 C5.97188524,9.04613789 5.81754569,9.04190343 5.66327496,8.98693721 C5.6633405,8.61267879 5.6633405,8.28915111 5.6633405,7.94416625 C5.42307236,7.92942907 5.26086016,7.91947981 5.0977136,7.86342568 C5.09536185,7.66222614 5.09394456,7.50713043 5.14029677,7.35175201 C5.34705428,7.34708037 5.5060388,7.34269235 5.71574456,7.34375879 C6.10691089,7.34557687 6.44735948,7.3419406 6.83465349,7.34252772 C7.03783496,7.35180806 7.19417123,7.3568641 7.35225914,7.40835947 C7.35499372,7.61002467 7.35597643,7.76524964 7.35695576,7.92047461 C7.35695576,7.92047461 7.35586264,7.91580557 7.3107553,7.91618659 C6.80387383,7.84638591 6.75405598,8.12215359 6.79641857,8.47533156 Z" id="Path" fill="#1B1310"></path>
            <path d="M0.571922303,7.35604083 C0.145562416,7.41162071 -0.020973968,7.25041981 0.00208840489,6.79886738 C0.0389611732,6.07690602 0.0133298738,5.35175145 0.06288558,4.57647133 C0.269094733,4.52351382 0.426537896,4.5220328 0.581929309,4.5213397 C0.579870665,4.52212761 0.582077557,4.51868105 0.580467162,4.57215405 C0.579608518,5.53271721 0.580363772,6.43980828 0.578822303,7.34918987 C0.576529196,7.35148128 0.571922303,7.35604083 0.571922303,7.35604083 Z" id="Path" fill="#1B1310"></path>
            <path d="M6.21182931,9.60095778 C6.25919541,9.94732625 6.24810558,10.2480029 5.66577507,10.1765194 C5.40815496,10.1787073 5.2463049,10.1813892 5.038344,10.1806314 C4.83834524,10.1705512 4.68445044,10.1639114 4.53149973,10.1118755 C4.53149973,9.91408026 4.53052106,9.76168026 4.57683541,9.61035789 C4.78128253,9.6112528 4.93844976,9.61106998 5.14309688,9.61183552 C5.34918185,9.61060625 5.50779055,9.60842941 5.7120962,9.60746478 C5.90913982,9.60610354 6.06048287,9.60353111 6.21182931,9.60095778 Z" id="Path" fill="#493125"></path>
            <path d="M2.29001021,10.7480084 C2.28345146,10.5895429 2.27688931,10.4310756 2.27298931,10.2259337 C2.27564456,10.1792573 2.28940671,10.1756434 2.34021767,10.175909 C2.91530332,10.1730702 3.43957112,10.1699658 3.96794592,10.1706047 C3.97205292,10.1743477 3.97930468,10.1827625 3.97564942,10.2278846 C3.97362874,10.42301 3.97525982,10.5730134 3.97689089,10.7230168 C3.81718569,10.7290979 3.65748389,10.7351772 3.39900174,10.7423291 C2.96348309,10.744936 2.6267484,10.7464722 2.29001021,10.7480084 Z" id="Path" fill="#4E4E4E"></path>
            <path d="M0.58398445,4.52055258 C0.426537896,4.5220328 0.269094733,4.52351382 0.0646615122,4.52322941 C0.0162333766,3.99457009 0.0147851281,3.46767721 0.0155091958,2.88868636 C0.176735185,2.83592501 0.335788631,2.83526207 0.537073603,2.8884945 C0.580863772,3.46844444 0.582425806,3.99449857 0.58398445,4.52055258 Z" id="Path" fill="#352620"></path>
            <path d="M0.527663207,1.1339954 C0.576260269,1.35292591 0.560411795,1.57480761 0.580205128,1.79346433 C0.612343433,2.1485519 0.480193716,2.31699506 0.0654132636,2.26328681 C0.0157402693,2.04130851 0.0298128117,1.81946422 0.00826083426,1.60113631 C-0.0274912561,1.23902422 0.120462077,1.08671348 0.527663207,1.1339954 Z" id="Path" fill="#352620"></path>
            <path d="M1.7214005,9.60124919 C1.71706592,9.44917766 1.71273146,9.29710614 1.76426987,9.09592297 C2.15803281,9.04780263 2.49591937,9.04879314 2.83426445,9.09661088 C2.91627225,9.62563744 2.5963136,9.62899868 2.2207336,9.6170684 C2.02401066,9.60971314 1.87270558,9.60548117 1.7214005,9.60124919 Z" id="Path" fill="#6F6F6F"></path>
            <path d="M4.02289824,10.7295409 C3.97525982,10.5730134 3.97362874,10.42301 4.02131202,10.225638 C4.22393846,10.1712701 4.37725044,10.1642709 4.53055903,10.1572709 C4.68445044,10.1639114 4.83834524,10.1705512 5.04162332,10.2265656 C5.09034456,10.4299204 5.08967552,10.5839014 5.08938592,10.7395427 C5.08976863,10.7412049 5.09291349,10.7418446 5.04602682,10.7414583 C4.8437901,10.7465877 4.68843665,10.7521067 4.53308321,10.757624 C4.37835733,10.7504378 4.22362807,10.7432531 4.02289824,10.7295409 Z" id="Path" fill="#7587A4"></path>
            <path d="M2.28313767,10.7966486 C2.6267484,10.7464722 2.96348309,10.744936 3.35114253,10.7444205 C3.40206389,10.9097722 3.40206389,11.0741051 3.40206389,11.2312068 C2.44507744,11.4226676 2.30931733,11.3738015 2.28313767,10.7966486 Z" id="Path" fill="#A26443"></path>
            <path d="M2.83380931,9.04978365 C2.49591937,9.04879314 2.15803281,9.04780263 1.77004581,9.05053619 C1.71473835,8.89531981 1.70953485,8.73637936 1.70577959,8.5297658 C1.86138818,8.48081439 2.01554513,8.47953506 2.26391338,8.47972817 C2.51734716,8.48122907 2.67656965,8.48125755 2.83655066,8.4811058 C2.83730931,8.48092648 2.8388197,8.47995665 2.83796456,8.52742354 C2.83600931,8.73318874 2.83490931,8.89148625 2.83380931,9.04978365 Z" id="Path" fill="#304050"></path>
            <path d="M7.40375631,7.91900128 C7.35597643,7.76524964 7.35499372,7.61002467 7.3990597,7.40477495 C7.59893778,7.34936568 7.75376705,7.34398207 7.91508953,7.34518297 C7.92158614,7.3517684 7.93447586,7.36504004 7.93447586,7.36504004 C7.94872434,7.70296794 7.91206535,7.99630998 7.40375631,7.91900128 Z" id="Path" fill="#352620"></path>
            <path d="M6.84308807,8.47740749 C6.75405598,8.12215359 6.80387383,7.84638591 7.31308626,7.91673924 C7.37997665,8.25202568 7.36796626,8.5608119 6.84308807,8.47740749 Z" id="Path" fill="#352620"></path>
            <path d="M8.49712355,6.79640964 C8.50750637,7.12926501 8.48109575,7.4293528 7.97999372,7.36023823 C7.93447586,7.36504004 7.92158614,7.3517684 7.91969993,7.3000928 C7.91841711,7.09637845 7.91901711,6.944338 7.96585552,6.79029405 C8.1653405,6.782831 8.31859394,6.77737145 8.47184389,6.77191111 C8.47184389,6.77191111 8.48863372,6.78830693 8.49712355,6.79640964 Z" id="Path" fill="#352620"></path>
            <path d="M1.1392527,7.9187893 C0.798035072,7.94425077 0.504252586,7.91367631 0.573653264,7.40252489 C0.571922303,7.35604083 0.576529196,7.35148128 0.62540558,7.35079676 C0.830397557,7.35083732 0.986506145,7.3515623 1.14261824,7.35228817 C1.14261824,7.35228817 1.14167338,7.35134162 1.14152852,7.39779122 C1.1429527,7.60011766 1.14451824,7.75599439 1.14608716,7.91187111 C1.14608716,7.91187111 1.14152513,7.916478 1.1392527,7.9187893 Z" id="Path" fill="#1B1310"></path>
            <path d="M4.53244874,10.8042177 C4.68843665,10.7521067 4.8437901,10.7465877 5.04748196,10.7868951 C5.09750321,10.984149 5.09918942,11.1355782 5.10087564,11.2870075 C4.75815123,11.3412598 4.45354445,11.3457874 4.53244874,10.8042177 Z" id="Path" fill="#845237"></path>
            <path d="M5.14790727,11.2941058 C5.09918942,11.1355782 5.09750321,10.984149 5.09436524,10.787283 C5.09291349,10.7418446 5.08976863,10.7412049 5.13599326,10.7411617 C5.33599891,10.7435946 5.48977654,10.7460687 5.64355756,10.7485412 C5.64355756,10.9122585 5.64355756,11.0759759 5.64355756,11.2739314 C5.48006264,11.2838712 5.33750242,11.2925386 5.14790727,11.2941058 Z" id="Path" fill="#A26443"></path>
            <path d="M1.09395564,0.568999583 C1.17242547,0.914568058 1.14149405,1.20978252 0.620095185,1.13622523 C0.548642642,0.794909753 0.574046371,0.495105572 1.09395564,0.568999583 Z" id="Path" fill="#352620"></path>
            <path d="M6.21710524,9.5560815 C6.06048287,9.60353111 5.90913982,9.60610354 5.71024106,9.56036252 C5.66285778,9.3539215 5.6630336,9.19579472 5.66320942,9.03766885 C5.81754569,9.04190343 5.97188524,9.04613789 6.17208061,9.05522941 C6.21941903,9.21045868 6.22090185,9.3608328 6.21710524,9.5560815 Z" id="Path" fill="#626262"></path>
            <path d="M5.64958863,10.7012372 C5.48977654,10.7460687 5.33599891,10.7435946 5.13561405,10.7394997 C5.08967552,10.5839014 5.09034456,10.4299204 5.08773066,10.2300061 C5.2463049,10.1813892 5.40815496,10.1787073 5.61850897,10.1771702 C5.66321292,10.3368547 5.65941631,10.4953936 5.64958863,10.7012372 Z" id="Path" fill="#4E4E4E"></path>
            <path d="M1.71690727,9.64885665 C1.87270558,9.60548117 2.02401066,9.60971314 2.22300253,9.66314557 C2.27693078,9.86677891 2.28316874,10.0212108 2.28940332,10.1756434 C2.28940332,10.1756434 2.27564456,10.1792573 2.26852716,10.1785806 C1.91138874,10.2078809 1.6207649,10.1701279 1.71690727,9.64885665 Z" id="Path" fill="#503121"></path>
            <path d="M1.71428999,4.52772602 C1.5531779,4.52648455 1.3920623,4.5252432 1.18561179,4.47545811 C1.14692513,4.27080681 1.15357349,4.11469992 1.16022185,3.95859292 C1.412804,3.95263337 1.69913473,4.03828433 1.73416264,3.6149797 C1.741311,3.5285606 2.01075191,3.46384354 2.21302309,3.39076173 C2.26675824,3.3924023 2.28273767,3.40767054 2.27825146,3.45505902 C2.28289631,3.6450197 2.29203089,3.7875928 2.30287236,3.95683778 C2.50547123,3.95683778 2.67091778,3.95683778 2.83646445,4.00326162 C2.83427824,4.2043302 2.83199552,4.35897585 2.78451564,4.51879653 C2.58778592,4.52893111 2.43625315,4.53388987 2.23716479,4.53555359 C2.03117281,4.53074761 1.87272976,4.52923631 1.71428999,4.52772602 Z" id="Path" fill="#352620"></path>
            <path d="M2.25859259,3.38495823 C2.25753744,2.97454071 2.28576874,2.57050263 2.26550298,2.16891156 C2.24723733,1.80697179 2.38202151,1.65474772 2.78842253,1.70190343 C2.83665756,1.70168964 2.83620242,1.70123665 2.83636795,1.74892591 C2.83749213,1.95683032 2.83844727,2.11704512 2.83826456,2.32801552 C2.83844727,2.71945427 2.83977146,3.06013778 2.79453304,3.399098 C2.59289281,3.4008067 2.4378153,3.40423857 2.28273767,3.40767054 C2.28273767,3.40767054 2.26675824,3.3924023 2.25859259,3.38495823 Z" id="Path" fill="#352620"></path>
            <path d="M1.15243213,3.90773292 C1.15357349,4.11469992 1.14692513,4.27080681 1.13730784,4.47375981 C1.1343388,4.52060523 1.13881123,4.52249484 1.09144174,4.52374749 C0.890074055,4.52289405 0.73607575,4.52078715 0.582077557,4.51868105 C0.582077557,4.51868105 0.579870665,4.52212761 0.581929309,4.5213397 C0.582425806,3.99449857 0.580863772,3.46844444 0.584898235,2.89047348 C0.7561588,2.83855687 0.921822642,2.83855687 1.14464581,2.83855687 C1.14464581,3.19283111 1.14464581,3.5248528 1.15243213,3.90773292 Z" id="Path" fill="#EBA069"></path>
            <path d="M2.83709552,1.70213359 C2.8057779,1.35711337 2.83735756,1.06434681 3.35530468,1.13728557 C3.40248795,1.13757518 3.40146038,1.13655585 3.40136727,1.18338218 C3.40105688,1.38766286 3.4008397,1.54511721 3.40061552,1.70257201 C3.40061552,1.70257201 3.40137417,1.70181461 3.35450129,1.70169303 C3.15048524,1.70145992 2.99334558,1.70134828 2.83620242,1.70123665 C2.83620242,1.70123665 2.83665756,1.70168964 2.83709552,1.70213359 Z" id="Path" fill="#352620"></path>
            <path d="M2.8297127,4.5136215 C2.83199552,4.35897585 2.83427824,4.2043302 2.83379891,4.00510467 C2.83103688,3.96052399 2.83293338,3.96683879 2.88156151,3.9646284 C3.08359485,3.95167732 3.23700343,3.94093676 3.40689146,3.92904173 C3.40689146,3.71603077 3.40689146,3.55445834 3.40375699,3.39188241 C3.40062242,3.39087721 3.39691202,3.39629631 3.39691202,3.39629631 C3.55735179,3.39554535 3.71779496,3.3947954 3.92754208,3.39716523 C3.97684953,3.40028591 3.96054931,3.40920761 3.9623666,3.45683834 C3.93304897,3.81926037 4.03578807,3.99738218 4.39205756,3.96497834 C4.6297084,3.94336523 4.87054558,3.95686455 5.15472456,3.95767484 C5.34898874,3.95868094 5.49848355,3.95666105 5.69619609,3.95655585 C6.22996061,4.03683009 6.25907812,3.73829574 6.22258117,3.33730083 C6.21967767,3.13909427 6.2137397,2.98666071 6.21586389,2.78703133 C6.22658117,2.58026094 6.22923982,2.42068681 6.2291536,2.26389405 C6.22640874,2.26667563 6.22098807,2.2723145 6.22098807,2.2723145 C6.38309326,2.2723145 6.54519857,2.2723145 6.75948016,2.2723145 C6.77164581,2.10582851 6.78284253,1.95262772 6.84832253,1.75090738 C7.05691451,1.70034783 7.21122309,1.69830772 7.36553518,1.69626761 C7.36553518,1.69626761 7.35752129,1.70044568 7.35815575,1.74432851 C7.28222739,2.26875359 7.57845824,2.29872772 7.93050694,2.26124105 C7.93050694,2.26124105 7.92299643,2.26619235 7.92285857,2.30882263 C7.92169304,2.50524331 7.92067236,2.65903337 7.86873383,2.82107913 C7.48333993,2.82933439 7.14886377,2.82933439 6.79827722,2.82933439 C6.79827722,3.0489623 6.79827722,3.21602614 6.79635643,3.43130444 C6.71606592,3.96509043 7.01464513,3.99415631 7.41461157,3.95767484 C7.60887575,3.95868094 7.75837055,3.95666015 7.95452095,3.95658343 C8.15673349,3.96067744 8.31229383,3.96282749 8.46785078,3.96497665 C8.4732405,4.6786397 8.4786336,5.39230365 8.4332849,6.16214568 C8.2317275,6.21496783 8.08091541,6.21161088 7.92674829,6.15785947 C7.92339654,5.78087427 7.92339654,5.45428535 7.92339654,5.11623845 C7.68549733,5.10252455 7.52107134,5.09304602 7.35652129,5.08749597 C7.35639372,5.09142275 7.36424897,5.09117269 7.36127993,5.04313337 C7.40481835,4.56677472 7.23687857,4.42472309 6.79010117,4.6017458 C6.79010117,4.7616415 6.79010117,4.92330874 6.74332479,5.08808817 C6.54026739,5.08912704 6.38398987,5.08705201 6.22720886,5.03631608 C6.18236343,4.45821834 6.02522727,4.40254354 5.11620694,4.60308546 C5.10716196,4.76292173 5.09787564,4.92704761 5.09251699,5.09129766 C5.09644456,5.09142275 5.09619292,5.08356828 5.04714411,5.08655631 C4.64766377,5.0395954 4.48387236,5.16688738 4.52653146,5.5428484 C4.55135236,5.76156546 4.52580377,5.98599811 4.4711101,6.21277992 C3.89308309,6.21705235 3.36686343,6.2164032 2.83862999,6.21854037 C2.8366162,6.22132659 2.8422197,6.21734207 2.84013349,6.17152343 C2.83504727,5.97317552 2.83204716,5.82064625 2.83124377,5.61577246 C2.83219552,5.21349213 2.83095405,4.86355732 2.8297127,4.5136215 Z" id="Path" fill="#EFB385"></path>
            <path d="M5.64797824,3.95464037 C5.49848355,3.95666105 5.34898874,3.95868094 5.14892445,3.90837258 C5.09835157,3.71631269 5.09835157,3.57658015 5.09835157,3.40920761 C4.68435383,3.40920761 4.32244987,3.40920761 3.96054931,3.40920761 C3.96054931,3.40920761 3.97684953,3.40028591 3.97529778,3.39112376 C3.91790061,3.0127084 4.00099112,2.76296037 4.54769033,2.82932625 C4.97932264,2.82874512 5.31342287,2.82693913 5.69461326,2.82738478 C5.89707066,2.83116636 6.0524379,2.83269698 6.20780513,2.83422715 C6.2137397,2.98666071 6.21967767,3.13909427 6.17495304,3.34307326 C5.97986129,3.40202648 5.83542863,3.40943518 5.67968547,3.4174241 C5.66761643,3.62190568 5.65779564,3.78827303 5.64797824,3.95464037 Z" id="Path" fill="#000000"></path>
            <path d="M5.6475197,2.82513303 C5.31342287,2.82693913 4.97932264,2.82874512 4.59534592,2.82676241 C4.54187643,2.66868263 4.5382936,2.51439167 4.59242874,2.31376794 C4.98623304,2.26618037 5.32231948,2.26492602 5.66095778,2.26617088 C5.66350603,2.26866998 5.66856129,2.27370761 5.66545428,2.31958354 C5.65740592,2.51868399 5.65246106,2.67190851 5.6475197,2.82513303 Z" id="Path" fill="#EFB385"></path>
            <path d="M2.84109213,3.40082128 C2.83977146,3.06013778 2.83844727,2.71945427 2.88469609,2.3233206 C3.08776038,2.27099981 3.24325179,2.27412874 3.39874309,2.277258 C3.39937756,2.61646478 3.40001552,2.95567201 3.39878106,3.34558704 C3.39691202,3.39629631 3.40062242,3.39087721 3.35588061,3.39335314 C3.15151281,3.39462636 2.99189033,3.39342297 2.83446106,3.39437902 C2.83665756,3.39654026 2.84109213,3.40082128 2.84109213,3.40082128 Z" id="Path" fill="#EBA069"></path>
            <path d="M5.65840942,2.26367167 C5.32231948,2.26492602 4.98623304,2.26618037 4.60017021,2.26804761 C4.54415925,2.1142571 4.53812117,1.95985326 4.5333005,1.75903427 C4.87423179,1.70853066 5.21394242,1.70444184 5.60683304,1.74481246 C5.65947835,1.94740523 5.65894389,2.10553845 5.65840942,2.26367167 Z" id="Path" fill="#EBA069"></path>
            <path d="M3.39987066,2.22890625 C3.24325179,2.27412874 3.08776038,2.27099981 2.88583744,2.27256535 C2.83844727,2.11704512 2.83749213,1.95683032 2.83636795,1.74892591 C2.99334558,1.70134828 3.15048524,1.70145992 3.3547875,1.70140433 C3.40162931,1.86100953 3.40131552,2.02078196 3.39987066,2.22890625 Z" id="Path" fill="#1B1310"></path>
            <path d="M3.44799541,1.70220862 C3.4008397,1.54511721 3.40105688,1.38766286 3.4009466,1.18295631 C3.58713485,1.22365552 3.77365417,1.31160557 3.96017349,1.39955608 C3.80523722,1.50031924 3.65030445,1.60108252 3.44799541,1.70220862 Z" id="Path" fill="#1B1310"></path>
            <path d="M7.90786524,3.95464037 C7.75837055,3.95666015 7.60887575,3.95868094 7.40883213,3.91004591 C7.35088332,3.71496094 7.3434797,3.57053088 7.33549688,3.41475167 C7.1310084,3.40269981 6.96464456,3.3928945 6.79827722,3.38308919 C6.79827722,3.21602614 6.79827722,3.0489623 6.79827722,2.82933439 C7.14886377,2.82933439 7.48333993,2.82933439 7.91531711,2.82926455 C8.17007507,2.82710851 8.32732852,2.8250223 8.48458547,2.82293563 C8.4849579,2.98460037 8.48533372,3.14626501 8.43707462,3.35283371 C8.23595507,3.40653258 8.08347066,3.4153284 7.93488287,3.42389913 C7.92415507,3.63462388 7.91600671,3.79463167 7.90786524,3.95464037 Z" id="Path" fill="#000000"></path>
            <path d="M7.93010004,6.20825484 C8.08091541,6.21161088 8.2317275,6.21496783 8.42755722,6.21406184 C8.47607496,6.36631518 8.47958196,6.52283077 8.47746468,6.72562953 C8.31859394,6.77737145 8.1653405,6.782831 7.97012117,6.78720263 C7.92814829,6.78611472 7.928531,6.77558263 7.9259275,6.72871755 C7.92557925,6.52398681 7.9278414,6.36612037 7.93010004,6.20825484 Z" id="Path" fill="#986849"></path>
            <path d="M8.48531304,2.77742218 C8.32732852,2.8250223 8.17007507,2.82710851 7.96623485,2.8210093 C7.92067236,2.65903337 7.92169304,2.50524331 7.92469654,2.30471958 C8.08139134,2.26135179 8.23610343,2.26471698 8.43708151,2.27276139 C8.484244,2.42892953 8.48514411,2.58041868 8.48531304,2.77742218 Z" id="Path" fill="#EBA069"></path>
            <path d="M7.95452095,3.95658343 C7.91600671,3.79463167 7.92415507,3.63462388 7.93488287,3.42389913 C8.08347066,3.4153284 8.23595507,3.40653258 8.43661598,3.40133167 C8.48399925,3.56080241 8.48321304,3.71667913 8.4751405,3.9187658 C8.31229383,3.96282749 8.15673349,3.96067744 7.95452095,3.95658343 Z" id="Path" fill="#CE9A84"></path>
            <path d="M5.66095778,2.26617088 C5.65894389,2.10553845 5.65947835,1.94740523 5.65758874,1.74146117 C5.65516456,1.69365032 5.65646456,1.69934998 5.70068581,1.69930083 C5.89916727,1.70064648 6.053431,1.70204094 6.20769485,1.70343574 C6.21370174,1.86129269 6.21970874,2.01914964 6.2233536,2.22466049 C6.22098807,2.2723145 6.22640874,2.26667563 6.18204276,2.26625879 C5.98130614,2.26846354 5.82493191,2.27108512 5.66856129,2.27370715 C5.66856129,2.27370715 5.66350603,2.26866998 5.66095778,2.26617088 Z" id="Path" fill="#EFB385"></path>
            <path d="M7.92664479,2.21341167 C7.57845824,2.29872772 7.28222739,2.26875359 7.36024886,1.74032365 C7.52814727,1.70098749 7.69459055,1.70953879 7.89793417,1.71998681 C7.90668592,1.87698896 7.91473428,2.0212858 7.92664479,2.21341167 Z" id="Path" fill="#EBA069"></path>
            <path d="M7.36166614,1.64787958 C7.21122309,1.69830772 7.05691451,1.70034783 6.85635711,1.70291857 C6.81011518,1.53724817 6.81011518,1.37104806 6.81011518,1.16609359 C6.97494468,1.15741811 7.1334223,1.14907665 7.35780061,1.13726659 C7.35780061,1.31405857 7.35780061,1.45677529 7.36166614,1.64787958 Z" id="Path" fill="#EBA069"></path>
            <path d="M6.2155466,1.65506794 C6.053431,1.70204094 5.89916727,1.70064648 5.69858569,1.69776376 C5.66060942,1.53021145 5.66895089,1.36414794 5.67772682,1.18944512 C6.09239349,1.04491167 6.29127846,1.15221416 6.2155466,1.65506794 Z" id="Path" fill="#EBA069"></path>
            <path d="M1.7120762,4.58051619 C1.87272976,4.52923631 2.03117281,4.53074761 2.23296129,4.58549732 C2.27727903,4.97398523 2.27824795,5.30923371 2.27698931,5.69258105 C2.19561609,6.21897054 2.48844343,6.25443732 2.8422197,6.21734207 C2.8422197,6.21734207 2.8366162,6.22132659 2.83745066,6.26615122 C2.83773349,6.4694258 2.83717835,6.62787676 2.83669213,6.83332128 C2.8362162,7.03602263 2.83567485,7.19172953 2.83464377,7.34989246 C2.83415066,7.35234851 2.8360197,7.35707269 2.8360197,7.35707269 C2.67190061,7.34747179 2.50777812,7.33787077 2.49049168,7.33685958 C2.22793021,7.05022275 2.04683857,6.8525232 1.86574694,6.65482444 C1.81378422,6.6815023 1.76182502,6.70818105 1.70986242,6.73485891 C1.70986242,6.03434173 1.70986242,5.33382455 1.7120762,4.58051619 Z" id="Path" fill="#735844"></path>
            <path d="M0.580467162,4.57215405 C0.73607575,4.52078715 0.890074055,4.52289405 1.09018321,4.5218397 C1.13818027,5.42784365 1.14006298,6.33700806 1.14228377,7.29922987 C0.986506145,7.3515623 0.830397557,7.35083732 0.62770219,7.34850535 C0.580363772,6.43980828 0.579608518,5.53271721 0.580467162,4.57215405 Z" id="Path" fill="#352620"></path>
            <path d="M2.8367266,7.91986772 C2.83683349,7.76330648 2.83694038,7.60674444 2.83653349,7.4036284 C2.8360197,7.35707269 2.83415066,7.35234851 2.88198908,7.35160715 C3.08707756,7.35136139 3.24432411,7.3518571 3.40173281,7.39908693 C3.40232242,7.60180388 3.40276038,7.75778659 3.40242931,7.96126987 C3.40165688,8.16630919 3.40165688,8.32384806 3.35471157,8.48164546 C3.15145078,8.48125585 2.99513518,8.4806067 2.8388197,8.47995665 C2.8388197,8.47995665 2.83730931,8.48092648 2.83654727,8.43427597 C2.83609903,8.23170648 2.83641281,8.0757867 2.8367266,7.91986772 Z" id="Path" fill="#4F3D2F"></path>
            <path d="M1.19289462,7.91340037 C1.14451824,7.75599439 1.1429527,7.60011766 1.14105959,7.397318 C1.32720987,7.43763393 1.51368784,7.5248728 1.7001692,7.61211179 C1.54668129,7.71305077 1.39319338,7.81398987 1.19289462,7.91340037 Z" id="Path" fill="#352620"></path>
            <path d="M2.78925711,7.91889619 C2.83641281,8.0757867 2.83609903,8.23170648 2.83578863,8.43445529 C2.67656965,8.48125755 2.51734716,8.48122907 2.31016208,8.47977472 C2.25100976,8.14515902 2.25506151,7.82501405 2.78925711,7.91889619 Z" id="Path" fill="#626262"></path>
            <path d="M5.66502671,7.33830444 C5.5060388,7.34269235 5.34705428,7.34708037 5.09423078,7.3514502 C4.84682807,7.35372354 4.69326434,7.35601495 4.49185518,7.35517619 C4.28543914,7.34951224 4.1268684,7.34697868 3.9677178,7.29844964 C3.96769417,7.09838794 3.96825281,6.94432071 4.01538784,6.78921122 C4.21690389,6.78650693 4.37184694,6.78484659 4.57459055,6.78416117 C4.78176524,6.78464309 4.94113598,6.78414738 5.14681417,6.78478015 C5.3472405,6.79467687 5.50135937,6.80344681 5.6570336,6.85617585 C5.66073699,7.04619167 5.66288185,7.19224761 5.66502671,7.33830444 Z" id="Path" fill="#674534"></path>
            <path d="M5.66327496,8.98693721 C5.6630336,9.19579472 5.66285778,9.3539215 5.664544,9.55915043 C5.50779055,9.60842941 5.34918185,9.61060625 5.14355891,9.56483676 C5.09590671,9.35994478 5.09526874,9.20299913 5.09594117,8.9944632 C5.08885485,8.59645879 5.08045824,8.25004286 5.07957202,7.90121235 C5.08708592,7.89879676 5.09864807,7.90953145 5.09864807,7.90953054 C5.26086016,7.91947981 5.42307236,7.92942907 5.6633405,7.94416625 C5.6633405,8.28915111 5.6633405,8.61267879 5.66327496,8.98693721 Z" id="Path" fill="#564940"></path>
            <path d="M7.92388614,6.78920614 C7.91901711,6.944338 7.91841711,7.09637845 7.91320332,7.29350817 C7.75376705,7.34398207 7.59893778,7.34936568 7.39731134,7.35833484 C7.19417123,7.3568641 7.03783496,7.35180806 6.83609485,7.29888591 C6.79287021,7.10460874 6.79504614,6.95819936 6.84282253,6.80260105 C7.04309372,6.79018196 7.19776434,6.78695258 7.40033552,6.78454828 C7.60833089,6.78211032 7.7684327,6.77884648 7.928531,6.77558354 C7.928531,6.77558354 7.92814829,6.78611472 7.92388614,6.78920614 Z" id="Path" fill="#674534"></path>
            <path d="M6.79722196,6.81178907 C6.79504614,6.95819936 6.79287021,7.10460874 6.78925292,7.29466173 C6.44735948,7.3419406 6.10691089,7.34557687 5.71574106,7.34375879 C5.66288185,7.19224761 5.66073699,7.04619167 5.66139225,6.8462015 C5.66418874,6.79226817 5.66906468,6.77148862 5.71931349,6.7778241 C6.10763157,6.77993698 6.44570083,6.77571461 6.78622185,6.78186987 C6.7886736,6.7922484 6.79722196,6.81178907 6.79722196,6.81178907 Z" id="Path" fill="#735844"></path>
            <path d="M4.53969711,7.35830636 C4.69326434,7.35601495 4.84682807,7.35372354 5.04646129,7.35173382 C5.09394456,7.50713043 5.09536185,7.66222614 5.0977136,7.86342659 C5.09864807,7.90953145 5.08708592,7.89879676 5.03576117,7.90541156 C4.83613134,7.9106806 4.68782626,7.90933574 4.53667982,7.86207834 C4.5357901,7.66354591 4.53774185,7.51092614 4.53969711,7.35830636 Z" id="Path" fill="#E99658"></path>
            <path d="M5.09463078,9.04605337 C5.09526874,9.20299913 5.09590671,9.35994478 5.09608253,9.5638884 C4.93844976,9.61106998 4.78128253,9.6112528 4.5778492,9.61137608 C4.5315797,9.61131653 4.53342117,9.61314591 4.53311767,9.56714885 C4.53053835,9.36942512 4.52826592,9.21770015 4.57313191,9.06026049 C4.77839281,9.05171552 4.93651179,9.04888444 5.09463078,9.04605337 Z" id="Path" fill="#845237"></path>
            <path d="M4.53150389,10.1118755 C4.37725044,10.1642709 4.22393846,10.1712701 4.02496727,10.180516 C3.97930468,10.1827625 3.97205292,10.1743477 3.96867699,10.1246412 C3.96609078,9.92062512 3.96688038,9.76631484 4.01473959,9.61210704 C4.21901767,9.61252173 4.37621937,9.61283382 4.53342117,9.61314591 C4.53342117,9.61314591 4.5315797,9.61131653 4.53056942,9.61029936 C4.53052106,9.76168026 4.53148321,9.91408026 4.53150389,10.1118755 Z" id="Path" fill="#845237"></path>
            <path d="M3.9676666,9.61200535 C3.96688038,9.76631484 3.96609078,9.92062512 3.96457349,10.120898 C3.43957112,10.1699658 2.91530332,10.1730702 2.34021767,10.175909 C2.28316874,10.0212108 2.27693078,9.86677891 2.26842027,9.66626885 C2.5963136,9.62899868 2.91627225,9.62563744 2.83426445,9.09661088 C2.83490931,8.89148625 2.83600931,8.73318874 2.83796456,8.52742354 C2.99513518,8.4806067 3.15145078,8.48125585 3.35466332,8.48159201 C3.40156038,8.48127732 3.4011466,8.48086015 3.4010362,8.52797359 C3.32905609,9.04488794 3.62230761,9.07619167 3.96667699,9.0932858 C3.96702874,9.29761744 3.96734942,9.45481133 3.9676666,9.61200535 Z" id="Path" fill="#564940"></path>
            <path d="M2.27922038,5.64448139 C2.27824795,5.30923371 2.27727903,4.97398523 2.28051349,4.58879303 C2.43625315,4.53388987 2.58778592,4.52893111 2.78451914,4.51879653 C2.83095405,4.86355732 2.83219552,5.21349213 2.78559496,5.61175088 C2.5849066,5.65487631 2.43206343,5.64967891 2.27922038,5.64448139 Z" id="Path" fill="#EBA069"></path>
            <path d="M2.27825146,3.45505902 C2.4378153,3.40423857 2.59289281,3.4008067 2.79453304,3.399098 C2.84109213,3.40082128 2.83665756,3.39654026 2.83620242,3.44224162 C2.83480931,3.64757574 2.83387134,3.80720681 2.83293338,3.96683879 C2.83293338,3.96683879 2.83103688,3.96052399 2.83369891,3.95868094 C2.67091778,3.95683778 2.50547123,3.95683778 2.30287236,3.95683778 C2.29203089,3.7875928 2.28289631,3.6450197 2.27825146,3.45505902 Z" id="Path" fill="#EBA069"></path>
            <path d="M6.22770886,5.08497698 C6.38398987,5.08705201 6.54026739,5.08912704 6.7910805,5.0904667 C7.04515925,5.09021235 7.2047023,5.09069258 7.36424897,5.09117269 C7.36424897,5.09117269 7.35639372,5.09142275 7.35644196,5.13596117 C7.35162807,5.34162806 7.34676253,5.50275653 7.29024468,5.66136433 C6.52937078,5.66052207 5.82015609,5.66219879 5.10636196,5.61573631 C5.09991711,5.40625382 5.09805496,5.24491145 5.09619292,5.08356828 C5.09619292,5.08356828 5.09644456,5.09142275 5.14446931,5.0913719 C5.53756321,5.08920636 5.88263609,5.08709167 6.22770886,5.08497698 Z" id="Path" fill="#CE6A39"></path>
            <path d="M5.04714411,5.08655631 C5.09805496,5.24491145 5.09991711,5.40625382 5.10086185,5.66096862 C5.10172739,5.9056084 5.1035205,6.05687563 5.10253428,6.25612094 C5.10000671,6.46394907 5.10025496,6.62380083 5.10050671,6.78365258 C4.94113598,6.78414738 4.78176524,6.78464309 4.57632502,6.73641156 C4.52780727,6.52774286 4.52536592,6.3678006 4.52291756,6.20785834 C4.52580377,5.98599811 4.55135236,5.76156546 4.52653146,5.5428484 C4.48387236,5.16688738 4.64766377,5.0395954 5.04714411,5.08655631 Z" id="Path" fill="#72533F"></path>
            <path d="M7.34190038,5.66388512 C7.34676253,5.50275653 7.35162807,5.34162806 7.35656953,5.13203439 C7.52107134,5.09304602 7.68549733,5.10252455 7.92339654,5.11623845 C7.92339654,5.45428535 7.92339654,5.78087427 7.92674829,6.15785947 C7.9278414,6.36612037 7.92557925,6.52398681 7.9259275,6.72871755 C7.7684327,6.77884648 7.60833089,6.78211032 7.4018597,6.73671416 C7.35283507,6.52808512 7.35017631,6.36811608 7.35087982,6.1629371 C7.35012468,5.96644704 7.34601428,5.81516602 7.34190038,5.66388512 Z" id="Path" fill="#72533F"></path>
            <path d="M4.4711136,6.21277992 C4.52536592,6.3678006 4.52780727,6.52774286 4.52851767,6.73543484 C4.37184694,6.78484659 4.21690389,6.78650693 3.9678666,6.78784749 C3.71560863,6.7884371 3.5574449,6.78934659 3.35253225,6.78846128 C3.14939213,6.78655258 2.99300761,6.7864397 2.83662309,6.78632681 C2.83717835,6.62787676 2.83773349,6.4694258 2.83946456,6.26336501 C3.36686343,6.2164032 3.89308309,6.21705235 4.4711136,6.21277992 Z" id="Path" fill="#986849"></path>
            <path d="M3.9623666,3.45683834 C4.32244987,3.40920761 4.68435383,3.40920761 5.09835157,3.40920761 C5.09835157,3.57658015 5.09835157,3.71631269 5.10415507,3.90534761 C4.87054558,3.95686455 4.6297084,3.94336523 4.39205756,3.96497834 C4.03578807,3.99738218 3.93304897,3.81926037 3.9623666,3.45683834 Z" id="Path" fill="#CE9A84"></path>
            <path d="M6.22720886,5.03631608 C5.88263609,5.08709167 5.53756321,5.08920636 5.14053824,5.09124772 C5.09787564,4.92704761 5.10716196,4.76292173 5.11620694,4.60308546 C6.02522727,4.40254354 6.18236343,4.45821834 6.22720886,5.03631608 Z" id="Path" fill="#72533F"></path>
            <path d="M2.27698931,5.69258026 C2.43206343,5.64967891 2.5849066,5.65487631 2.78339835,5.6640954 C2.83204716,5.82064625 2.83504727,5.97317552 2.84013349,6.17152343 C2.48844343,6.25443732 2.19561609,6.21897054 2.27698931,5.69258026 Z" id="Path" fill="#986849"></path>
            <path d="M5.66545428,2.31958354 C5.82493191,2.27108512 5.98130614,2.26846354 6.18478761,2.26347687 C6.22923982,2.42068681 6.22658117,2.58026094 6.21586038,2.78703133 C6.0524379,2.83269698 5.89707066,2.83116636 5.69461326,2.82738478 C5.65246106,2.67190851 5.65740592,2.51868399 5.66545428,2.31958354 Z" id="Path" fill="#1B1310"></path>
            <path d="M7.36127993,5.04313337 C7.2047023,5.09069258 7.04515925,5.09021235 6.83785688,5.08735371 C6.79010117,4.92330874 6.79010117,4.7616415 6.79010117,4.6017458 C7.23687857,4.42472309 7.40481835,4.56677472 7.36127993,5.04313337 Z" id="Path" fill="#72533F"></path>
            <path d="M2.88156151,3.9646284 C2.83387134,3.80720681 2.83480931,3.64757574 2.83400581,3.44008117 C2.99189033,3.39342297 3.15151281,3.39462636 3.35901507,3.39435834 C3.40689146,3.55445834 3.40689146,3.71603077 3.40689146,3.92904173 C3.23700343,3.94093676 3.08359485,3.95167732 2.88156151,3.9646284 Z" id="Path" fill="#352620"></path>
            <path d="M5.69619609,3.95655585 C5.65779564,3.78827303 5.66761643,3.62190568 5.67968547,3.4174241 C5.83542863,3.40943518 5.97986129,3.40202648 6.17191857,3.38884535 C6.25907812,3.73829574 6.22996061,4.03683009 5.69619609,3.95655585 Z" id="Path" fill="#CE9A84"></path>
            <path d="M6.79635643,3.43130444 C6.96464456,3.3928945 7.1310084,3.40269981 7.33549688,3.41475167 C7.3434797,3.57053088 7.35088332,3.71496094 7.36406614,3.90702083 C7.01464513,3.99415631 6.71606592,3.96509043 6.79635643,3.43130444 Z" id="Path" fill="#CE9A84"></path>
            <path d="M2.83669213,6.83332128 C2.99300761,6.7864397 3.14939213,6.78655258 3.35333914,6.83502388 C3.40224309,7.04004851 3.40358795,7.19671665 3.40396389,7.35303133 C3.40299835,7.35267698 3.40157417,7.3523528 3.40157417,7.3523528 C3.24432411,7.3518571 3.08707756,7.35136139 2.8824788,7.3491502 C2.83567485,7.19172953 2.8362162,7.03602263 2.83669213,6.83332128 Z" id="Path" fill="#674534"></path>
            <path d="M4.49185168,7.35517619 C4.53774185,7.51092614 4.5357901,7.66354591 4.53427631,7.86457834 C4.53471767,7.91299179 4.52991417,7.91790817 4.48300682,7.91844444 C4.27965631,7.91945992 4.12321665,7.91993845 3.91973846,7.91857032 C3.71620174,7.91573834 3.55969665,7.91475303 3.40319485,7.91376851 C3.40276038,7.75778659 3.40232242,7.60180388 3.40172387,7.39908693 C3.40157417,7.3523528 3.40299835,7.35267698 3.4506023,7.35220026 C3.65490106,7.34929676 3.81159937,7.34687088 3.96829767,7.34444501 C4.1268684,7.34697868 4.28543914,7.34951224 4.49185168,7.35517619 Z" id="Path" fill="#536082"></path>
            <path d="M3.40242592,7.96126907 C3.55969665,7.91475303 3.71620174,7.91573834 3.91970061,7.96540874 C3.96149756,8.17069631 3.95629756,8.32729721 3.9052901,8.48319032 C3.70670163,8.48194207 3.55392411,8.4814015 3.4011466,8.48086015 C3.4011466,8.48086015 3.40156038,8.48127732 3.40160863,8.48133167 C3.40165688,8.32384806 3.40165688,8.16630919 3.40242592,7.96126907 Z" id="Path" fill="#564940"></path>
            <path d="M5.14681417,6.78478015 C5.10025496,6.62380083 5.10000671,6.46394907 5.14889688,6.26087958 C5.66416807,6.13936275 5.68975462,6.43574614 5.66906468,6.77148862 C5.66906468,6.77148862 5.66418874,6.79226817 5.6598336,6.80224241 C5.50135937,6.80344681 5.3472405,6.79467687 5.14681417,6.78478015 Z" id="Path" fill="#986849"></path>
            <path d="M3.96771835,7.29844964 C3.81159937,7.34687088 3.65490106,7.34929676 3.45156784,7.35255371 C3.40358795,7.19671665 3.40224309,7.04004851 3.40009146,6.83681789 C3.5574449,6.78934659 3.71560863,6.7884371 3.92129021,6.78889054 C3.96825281,6.94432071 3.96769417,7.09838794 3.96771835,7.29844964 Z" id="Path" fill="#735844"></path>
            <path d="M5.09594117,8.9944632 C4.93651179,9.04888444 4.77839281,9.05171552 4.57308016,9.0511371 C4.5258866,9.04772761 4.53368321,9.03153857 4.53204874,8.98160094 C4.53024874,8.5937441 4.5300797,8.25582659 4.52991417,7.91790817 C4.52991417,7.91790817 4.53471767,7.91299179 4.53711778,7.91049088 C4.68782626,7.90933574 4.83613134,7.9106806 5.02824727,7.90782704 C5.08045824,8.25004286 5.08885485,8.59645879 5.09594117,8.9944632 Z" id="Path" fill="#536082"></path>
            <path d="M7.34752117,6.20814625 C7.35017631,6.36811608 7.35283507,6.52808512 7.35396264,6.73588828 C7.19776434,6.78695258 7.04309372,6.79018196 6.84282253,6.80260105 C6.79722196,6.81178907 6.7886736,6.7922484 6.78902535,6.73571246 C6.70481756,6.20151167 7.0252797,6.20377382 7.34752117,6.20814625 Z" id="Path" fill="#986849"></path>
            <path d="M7.35087982,6.1629371 C7.0252797,6.20377382 6.70481756,6.20151167 6.7865736,6.72533382 C6.44570083,6.77571461 6.10763157,6.77993698 5.71931349,6.7778241 C5.68975462,6.43574614 5.66416807,6.13936275 5.1516762,6.2129023 C5.1035205,6.05687563 5.10172739,5.9056084 5.10544129,5.70910794 C5.82015609,5.66219879 6.52937078,5.66052207 7.29024468,5.66136433 C7.34601428,5.81516602 7.35012468,5.96644704 7.35087982,6.1629371 Z" id="Path" fill="#EFB385"></path>
            <path d="M4.01473959,9.61210704 C3.96734942,9.45481133 3.96702874,9.29761744 3.96841496,9.09155043 C3.97012185,9.04267665 3.97360117,9.03920162 4.0201327,9.04061721 C4.22233835,9.03853439 4.37800908,9.03503608 4.53368321,9.03153778 C4.53368321,9.03153778 4.5258866,9.04772761 4.52593835,9.056851 C4.52826592,9.21770015 4.53053835,9.36942512 4.53311767,9.56714885 C4.37621937,9.61283382 4.21901767,9.61252173 4.01473959,9.61210704 Z" id="Path" fill="#4F3D2F"></path>
            <path d="M3.4010362,8.52797359 C3.55392411,8.4814015 3.70670163,8.48194207 3.91216942,8.52914772 C3.96777349,8.73027495 3.97068739,8.88473868 3.97360117,9.03920162 C3.97360117,9.03920162 3.97012185,9.04267665 3.96838389,9.04441201 C3.62230761,9.07619167 3.32905609,9.04488794 3.4010362,8.52797359 Z" id="Path" fill="#4F3D2F"></path>
            <path d="M4.0201327,9.04061721 C3.97068739,8.88473868 3.96777349,8.73027495 3.95798027,8.52985461 C3.95629756,8.32729721 3.96149756,8.17069631 3.96673903,7.96725619 C4.12321665,7.91993845 4.27965631,7.91945992 4.48300682,7.91844444 C4.5300797,8.25582659 4.53024874,8.5937441 4.53204874,8.98160015 C4.37800908,9.03503608 4.22233835,9.03853439 4.0201327,9.04061721 Z" id="Path" fill="#7587A4"></path>
        </g>
    </g>
</svg>
