<?xml version="1.0" encoding="UTF-8"?>

<svg width="12px" height="13px" viewBox="0 0 12 13" version="1.1" xmlns="http://www.w3.org/2000/svg" xmlns:xlink="http://www.w3.org/1999/xlink">
    <g id="Page-1" stroke="none" stroke-width="1" fill="none" fill-rule="evenodd">
        <g id="Group-15" transform="translate(0.644847, 0.715968)" fill-rule="nonzero">
            <path d="M0.524888588,5.06935593 C0.524888588,4.15579763 0.524888588,3.24223751 0.524888588,2.28654938 C0.70913887,2.27354746 0.850368023,2.26358011 1.04853571,2.25700079 C1.10547424,2.2603904 1.12130203,2.27606994 1.1142261,2.32681356 C1.10507424,2.89380429 1.13027797,3.41204621 1.09275684,3.92570362 C1.05956689,4.38006215 1.20980644,4.58564881 1.6707426,4.57214701 C1.66829774,4.96129785 1.66869424,5.29980158 1.66820463,5.68723684 C1.61382124,6.11015367 1.78195073,6.24023096 2.14746508,6.21619616 C2.45111322,6.1962322 2.81794836,6.11520192 2.83572441,6.62635932 C2.8374348,6.67550463 3.05594746,6.77121605 3.1486313,6.74737785 C3.23571153,6.72498113 3.34339548,6.57572429 3.34863006,6.47731627 C3.37356136,6.0086991 3.36664407,5.5383835 3.4166722,5.0719887 C3.61468475,5.07915254 3.76707955,5.08299921 3.92249153,5.13344452 C3.93168475,5.33603819 3.93786418,5.4920313 3.93897446,5.70056633 C3.93144678,6.47033695 3.92898814,7.18756893 3.87935661,7.90512859 C3.67494395,7.90558373 3.51770429,7.9057148 3.36052678,7.85714881 C3.30160881,7.28380102 3.14221051,7.2254487 2.25614904,7.42452328 C2.24845582,7.57888362 2.24028678,7.74281989 2.18544475,7.90629412 C1.98427706,7.90885277 1.82977537,7.91187006 1.67045977,7.91007345 C1.66564599,7.90525966 1.6560148,7.89563887 1.65943898,7.84963831 C1.74048814,7.32723254 1.43437446,7.31631175 1.10047073,7.34008441 C1.10091559,7.34052927 1.10180531,7.34141898 1.10149492,7.28839073 C1.10108113,6.69098418 1.07909808,6.14544362 1.10784667,5.60258938 C1.13053311,5.17416056 0.980962599,5.00396904 0.548481921,5.09306305 C0.540605989,5.08517164 0.524888588,5.06935593 0.524888588,5.06935593 Z" id="Path" fill="#7F7F7F"></path>
            <path d="M9.02940655,1.68161853 C9.19319107,1.69354802 9.35697571,1.70547921 9.56338825,1.72051548 C9.56338825,2.06987977 9.56338825,2.39932814 9.56338825,2.75458904 C9.75640768,2.79589288 9.91236113,2.82926565 10.141074,2.87820757 C10.141074,3.56311175 10.141074,4.26457469 10.1414188,5.0719939 C10.1431085,5.90261164 10.1444498,6.62726972 10.1457913,7.35192599 C10.1457913,7.35192599 10.143412,7.34347763 10.0994667,7.34322588 C9.57391944,7.26681808 9.54366395,7.56397661 9.58082644,7.91689424 C9.58082644,7.91689424 9.5784678,7.90808034 9.53338791,7.90752169 C9.32541672,7.90539062 9.1625252,7.9038148 9.00444418,7.84975559 C9.00414068,7.07959876 8.99903028,6.36192881 9.00007864,5.59347209 C9.0031304,5.2019522 9.00002689,4.8612209 9.0022304,4.47338554 C9.00728904,4.26899537 9.00704418,4.11170915 9.05434814,3.95330915 C9.25760565,3.85049763 9.41331424,3.74879831 9.56901944,3.64709887 C9.38052418,3.55931345 9.19202904,3.47152791 9.00630633,3.33701266 C9.00400621,3.13438633 8.99893379,2.97849153 8.99973379,2.77163751 C8.99767175,2.37991424 8.98973367,2.03914486 8.99332339,1.69312045 C9.00485107,1.68786339 9.02940655,1.68161853 9.02940655,1.68161853 Z" id="Path" fill="#666666"></path>
            <path d="M5.05645232,0.0160157062 C5.96191401,0.0103362712 6.86737582,0.00465694915 7.82608294,0.0526936723 C7.81328271,0.585016836 8.12344136,0.582840904 8.45327944,0.555518192 C8.45327944,0.555518192 8.44596215,0.560447571 8.44685876,0.604927345 C8.4460104,0.809834802 8.44426215,0.970262373 8.39606158,1.12852102 C8.19370418,1.12680034 8.03779559,1.12724859 7.82913469,1.12710203 C7.24446271,1.12751763 6.71254305,1.12852621 6.18004056,1.13044 C6.17945435,1.1313452 6.17634746,1.13311593 6.17901299,1.08431718 C6.25906565,0.557095819 5.95538644,0.520893672 5.61293435,0.563852768 C5.18223989,0.617879209 4.98769638,0.457017062 5.05645232,0.0160157062 Z" id="Path" fill="#939393"></path>
            <path d="M2.21981763,1.11454328 C2.23061424,0.948139774 2.24141435,0.781734463 2.25478689,0.575671864 C2.60409085,0.575671864 2.93768757,0.575671864 3.30112949,0.575671864 C3.33645751,0.383555932 3.3655165,0.225511073 3.40698588,-3.21964677e-15 C3.72552734,-3.21964677e-15 4.05816203,-3.21964677e-15 4.44156282,0.0540074576 C4.42364531,0.256406215 4.36449989,0.526740339 4.28470588,0.532978305 C3.83754576,0.567940791 3.93727446,0.873394124 3.93034678,1.18293718 C4.00788904,1.70671537 3.6955339,1.71313616 3.36378192,1.64902678 C3.40216508,1.25685175 3.2752913,1.08313266 2.90519062,1.12299864 C2.68886068,1.14630226 2.46928588,1.13947808 2.24332475,1.13829876 C2.23547638,1.13039175 2.21981763,1.11454328 2.21981763,1.11454328 Z" id="Path" fill="#7F7F7F"></path>
            <path d="M3.93297785,1.13657627 C3.93727446,0.873394124 3.83754576,0.567940791 4.28470588,0.532978305 C4.36449989,0.526740339 4.42364531,0.256406215 4.49287028,0.0620058757 C4.65006859,0.0110639548 4.80672203,0.00612937853 5.0099104,0.00860700565 C4.98769638,0.457017062 5.18223989,0.617879209 5.61293435,0.563852768 C5.95538644,0.520893672 6.25906565,0.557095819 6.12706068,1.08198429 C5.35928667,1.13115898 4.64613062,1.13386768 3.93297785,1.13657627 Z" id="Path" fill="#8F8F8F"></path>
            <path d="M9.01247525,10.1466775 C8.65178169,10.1466775 8.29108463,10.1466775 7.88013175,10.1466775 C7.88013175,9.98903435 7.88013175,9.85007424 7.87952147,9.61416124 C7.9518774,9.06021379 7.68827797,8.99356825 7.32234282,8.99317853 C7.31736689,8.78706249 7.31648757,8.62862621 7.36230192,8.47028316 C7.56383864,8.46995548 7.71868169,8.4695348 7.92015638,8.46956927 C8.12077232,8.46865898 8.27474644,8.46728994 8.43574825,8.51410079 C8.44779322,8.72465141 8.45281401,8.88702904 8.45249672,9.09671763 C8.45356565,9.2871887 8.45997616,9.43034542 8.46722441,9.5922713 C8.6724026,9.5922713 8.83817333,9.5922713 9.00580282,9.63845808 C9.00926497,9.83865684 9.01087186,9.99266542 9.01247525,10.1466775 Z" id="Path" fill="#B0B0B0"></path>
            <path d="M2.7857652,11.8467825 C2.61938757,11.8467825 2.45300983,11.8467825 2.22866249,11.8467825 C2.22866249,11.3171835 2.22866249,10.7988157 2.22751424,10.1811847 C2.22436938,9.92295435 2.22237277,9.76398701 2.22614181,9.55820893 C2.15928249,9.0537896 2.44780282,9.01158565 2.79217559,9.07507254 C2.79681706,9.27814723 2.79683435,9.43446271 2.79609977,9.63902362 C2.79602395,9.84613627 2.79670328,10.0050035 2.79702395,10.2116989 C2.7980791,10.4198426 2.79949638,10.5801547 2.80011367,10.7908225 C2.79479977,11.1763785 2.79028249,11.5115788 2.7857652,11.8467825 Z" id="Path" fill="#9C85A7"></path>
            <path d="M0.524650621,7.35157424 C0.35911435,7.34122927 0.193577966,7.33088429 1.38777878e-15,7.31878768 C1.38777878e-15,6.58875548 1.38777878e-15,5.87035096 1.38777878e-15,5.10859944 C0.145384407,5.0983252 0.286175593,5.08837684 0.475925989,5.0738922 C0.524888588,5.06935593 0.540605989,5.08517164 0.541336949,5.14367232 C0.546816384,5.90818588 0.551568136,6.61419706 0.548412994,7.32806701 C0.540505989,7.33591887 0.524650621,7.35157424 0.524650621,7.35157424 Z" id="Path" fill="#7F7F7F"></path>
            <path d="M10.1948228,7.3469087 C10.1444498,6.62726972 10.1431085,5.90261164 10.1423602,5.12429797 C10.3088723,5.0810009 10.4747811,5.09135785 10.6720522,5.10367356 C10.6720522,5.83207119 10.6720522,6.54979299 10.6720522,7.30923921 C10.5263782,7.32034633 10.3851181,7.33111887 10.1948228,7.3469087 Z" id="Path" fill="#787878"></path>
            <path d="M8.45783469,9.04940328 C8.45281401,8.88702904 8.44779322,8.72465141 8.44069661,8.46741062 C8.43976215,8.21547345 8.44090689,8.0584096 8.48860746,7.90194927 C8.68998904,7.90245266 8.84480791,7.90234576 8.99963028,7.90223887 C9.1625252,7.9038148 9.32541672,7.90539062 9.53752938,7.90943898 C9.58360226,8.06932701 9.5804609,8.22673559 9.57636768,8.42747232 C9.57541254,8.47079695 9.5836713,8.47038655 9.53529141,8.47146588 C9.33470644,8.48417288 9.18250475,8.49580757 9.0136374,8.50871458 C9.0136374,8.7194548 9.0136374,8.87916689 8.96726791,9.03860316 C8.76654497,9.04201356 8.61218814,9.04571017 8.45783469,9.04940328 Z" id="Path" fill="#6F6F6F"></path>
            <path d="M2.83383819,11.8521273 C2.79028249,11.5115788 2.79479977,11.1763785 2.84612791,10.7875121 C3.04738531,10.7298115 3.20182497,10.7257701 3.35676113,10.7700843 C3.36038531,10.9790798 3.36351989,11.1397194 3.36293706,11.3458114 C3.36113017,11.5429342 3.36303706,11.6946015 3.36494746,11.8462686 C3.20393537,11.8500032 3.04291977,11.8537377 2.83383819,11.8521273 Z" id="Path" fill="#464955"></path>
            <path d="M8.4425139,1.13069006 C8.44426215,0.970262373 8.4460104,0.809834802 8.44932768,0.601268701 C8.61635367,0.56175096 8.78181412,0.570373559 9.01435808,0.582492655 C9.01435808,0.921770508 9.01435808,1.25127932 9.02188226,1.63120249 C9.02940655,1.68161853 9.00485107,1.68786339 8.94921254,1.69063243 C8.7454,1.69137898 8.59722938,1.6893548 8.44747254,1.64105254 C8.44476565,1.44007966 8.44364147,1.28538486 8.4425139,1.13069006 Z" id="Path" fill="#7F7F7F"></path>
            <path d="M3.41569288,11.8527238 C3.36303706,11.6946015 3.36113017,11.5429342 3.41378249,11.3435217 C3.8120696,11.2968557 4.15579412,11.297935 4.49839446,11.3446872 C4.49370825,11.5422998 4.4901461,11.6942463 4.48658056,11.8461894 C4.14653537,11.8505205 3.80649028,11.854848 3.41569288,11.8527238 Z" id="Path" fill="#AF7A56"></path>
            <path d="M4.53795356,11.8518929 C4.4901461,11.6942463 4.49370825,11.5422998 4.54890881,11.3443252 C4.94156836,11.2972798 5.28258927,11.2962626 5.62220689,11.3414493 C5.62279311,11.5405653 5.62477932,11.6934808 5.62676554,11.8463963 C5.28095141,11.8501307 4.93513718,11.8538618 4.53795356,11.8518929 Z" id="Path" fill="#464955"></path>
            <path d="M1.65296655,9.61293367 C1.49029571,9.59865763 1.32762158,9.58438158 1.10568802,9.56490203 C1.10568802,9.2200948 1.10568802,8.89264644 1.15634723,8.51688023 C1.36038395,8.46961763 1.51376497,8.47067277 1.66650113,8.47108655 C1.66585977,8.4704452 1.66483559,8.46942102 1.66519073,8.52061819 C1.67100124,8.90935345 1.67645299,9.24689164 1.67468395,9.59156791 C1.66746328,9.59870588 1.65296655,9.61293367 1.65296655,9.61293367 Z" id="Path" fill="#4E4E4E"></path>
            <path d="M9.57545051,8.47492802 C9.74040407,8.47906249 9.90531966,8.47906249 10.105346,8.47906249 C10.105346,8.83906305 10.105346,9.19539458 10.105346,9.6011887 C9.96319616,9.6011887 9.82276011,9.6011887 9.62946836,9.60135388 C9.57660915,9.60151288 9.57063661,9.59556791 9.57249876,9.54807435 C9.57272282,9.34094441 9.57108497,9.18131164 9.57212633,8.97578181 C9.5777609,8.77672102 9.58071605,8.62355379 9.5836713,8.47038655 C9.5836713,8.47038655 9.57541254,8.47079695 9.57545051,8.47492802 Z" id="Path" fill="#C1C1C1"></path>
            <path d="M5.67330395,11.8521169 C5.62477932,11.6934808 5.62279311,11.5405653 5.62079997,11.3415321 C5.62079997,11.2954177 5.62204825,11.2970867 5.6688487,11.2965108 C5.87170621,11.2951591 6.02776305,11.2943798 6.1848165,11.296104 C6.1858165,11.298604 6.18641311,11.3039626 6.18575096,11.3487252 C6.1863096,11.5434653 6.1875304,11.6934393 6.18875107,11.8434134 C6.03244927,11.8482203 5.87614757,11.8530273 5.67330395,11.8521169 Z" id="Path" fill="#9F603B"></path>
            <path d="M6.75016757,10.726708 C6.74990893,10.8854477 6.74965028,11.0441908 6.6959635,11.2489551 C6.49049921,11.2979729 6.33845616,11.3009661 6.18641311,11.3039626 C6.18641311,11.3039626 6.1858165,11.298604 6.18546825,11.2493827 C6.18517175,11.0434253 6.18522689,10.886689 6.23251356,10.729884 C6.43789514,10.7291184 6.5960452,10.7284253 6.75290904,10.7290425 C6.75162282,10.7303563 6.75016757,10.726708 6.75016757,10.726708 Z" id="Path" fill="#816471"></path>
            <path d="M6.18575096,11.3487252 C6.33845616,11.3009661 6.49049921,11.2979729 6.68814271,11.2958522 C6.73373977,11.4565195 6.73373977,11.6163179 6.73373977,11.8317995 C6.58749333,11.8405099 6.43575379,11.849548 6.2363826,11.8510032 C6.1875304,11.6934393 6.1863096,11.5434653 6.18575096,11.3487252 Z" id="Path" fill="#AF7A56"></path>
            <path d="M7.32643944,9.04085842 C7.68827797,8.99356825 7.9518774,9.06021379 7.8779835,9.56474689 C7.72011627,9.60868531 7.56317661,9.60508531 7.37124,9.60041977 C7.33624305,9.59935424 7.33399819,9.57333661 7.32729469,9.5290913 C7.31628757,9.33467887 7.31197729,9.18451853 7.31188757,9.03735141 C7.31610147,9.04034802 7.32643944,9.04085842 7.32643944,9.04085842 Z" id="Path" fill="#C1C1C1"></path>
            <path d="M1.0896913,7.91649085 C0.926351638,7.90655277 0.763011864,7.89661469 0.565337288,7.88458701 C0.55412339,7.72917842 0.543885311,7.58732859 0.529150621,7.39852644 C0.524650621,7.35157424 0.540505989,7.33591887 0.592996158,7.33506712 C0.797591525,7.33661548 0.949700113,7.33901548 1.10180531,7.34141898 C1.10180531,7.34141898 1.10091559,7.34052927 1.10078452,7.38593661 C1.10750881,7.58262158 1.11436056,7.73390599 1.11334328,7.89302497 C1.10547774,7.90086644 1.0896913,7.91649085 1.0896913,7.91649085 Z" id="Path" fill="#7F7F7F"></path>
            <path d="M9.62807175,7.91191492 C9.54366395,7.56397661 9.57391944,7.26681808 10.1036908,7.34441209 C10.1406188,7.5101104 10.1293773,7.67436746 10.1157944,7.87283164 C9.96058927,7.88484904 9.81795311,7.89589401 9.62807175,7.91191492 Z" id="Path" fill="#787878"></path>
            <path d="M1.66714249,8.47173141 C1.51376497,8.47067277 1.36038395,8.46961763 1.16161966,8.46514508 C1.11049153,8.31016757 1.10475356,8.15861073 1.09435345,7.96177062 C1.0896913,7.91649085 1.10547774,7.90086644 1.1572748,7.89999062 C1.35805288,7.89795616 1.5070339,7.89679751 1.6560148,7.89563887 C1.6560148,7.89563887 1.66564599,7.90525966 1.66690463,7.95601537 C1.66782181,8.16175898 1.66748045,8.3167435 1.66714249,8.47173141 Z" id="Path" fill="#7F7F7F"></path>
            <path d="M7.29695638,10.173864 C7.29695638,10.338152 7.29695638,10.5024366 7.29695638,10.7023423 C7.13338565,10.7113078 6.98963232,10.7191838 6.79802678,10.7268838 C6.75016757,10.726708 6.75162282,10.7303563 6.75152282,10.682442 C6.75100893,10.4780742 6.75059514,10.3216208 6.79593356,10.1658294 C6.9934461,10.1689502 7.14519955,10.1714053 7.29695638,10.173864 Z" id="Path" fill="#8F8F8F"></path>
            <path d="M2.22037627,9.60502316 C2.22237277,9.76398701 2.22436938,9.92295435 2.22165898,10.1294324 C1.88795876,10.1890951 1.58084847,10.1755261 1.65759763,9.65905141 C1.65296655,9.61293367 1.66746328,9.59870588 1.71902588,9.59717141 C1.92052124,9.59876452 2.07044701,9.6018922 2.22037627,9.60502316 Z" id="Path" fill="#4E4E4E"></path>
            <path d="M9.06029311,10.1549603 C9.01087186,9.99266542 9.00926497,9.83865684 9.00690972,9.64066497 C9.00615797,9.5966852 9.00178203,9.59464034 9.04945842,9.5967748 C9.25496768,9.59779209 9.41280045,9.59668169 9.57063661,9.59556791 C9.57063661,9.59556791 9.57660915,9.60151288 9.57960915,9.60447153 C9.58261266,9.76836294 9.58261266,9.92929571 9.58261266,10.1393256 C9.41470045,10.1477913 9.26140565,10.155519 9.06029311,10.1549603 Z" id="Path" fill="#C1C1C1"></path>
            <path d="M7.30405989,10.1272255 C7.14519955,10.1714053 6.9934461,10.1689502 6.79617842,10.1659536 C6.75067107,10.1654191 6.75079514,10.1664294 6.75088562,10.1191461 C6.75096068,9.91461627 6.75091932,9.75736633 6.79948192,9.60061288 C7.01005661,9.59185062 7.17202746,9.58259198 7.33399819,9.57333661 C7.33399819,9.57333661 7.33624305,9.59935424 7.3242739,9.60457492 C7.31192893,9.76672497 7.31154621,9.92365774 7.30405989,10.1272255 Z" id="Path" fill="#675549"></path>
            <path d="M8.45018294,0.507719435 C8.12344136,0.582840904 7.81328271,0.585016836 7.87832836,0.0604109605 C8.04370949,0.0144105085 8.21009062,0.0144105085 8.41317898,0.0144105085 C8.42517921,0.172107119 8.43613096,0.316013785 8.45018294,0.507719435 Z" id="Path" fill="#7F7F7F"></path>
            <path d="M1.65483548,1.67952192 C1.66485288,1.51605469 1.67487017,1.35258565 1.68696689,1.15520237 C1.84222723,1.14400576 1.98407356,1.13377797 2.17286531,1.11904678 C2.21981412,1.11454328 2.23547638,1.13039175 2.23632814,1.18290441 C2.2353626,1.38750497 2.23354881,1.53959288 2.18588621,1.69138068 C1.98875638,1.69775153 1.83748237,1.70442226 1.6783565,1.70320847 C1.67050463,1.69532384 1.65483548,1.67952192 1.65483548,1.67952192 Z" id="Path" fill="#7F7F7F"></path>
            <path d="M1.09754316,2.25256452 C1.09991209,2.08139017 1.11020531,1.91804181 1.12267785,1.72009311 C1.27721062,1.70895853 1.41903288,1.69874113 1.60784531,1.68402203 C1.65483548,1.67952192 1.67050463,1.69532384 1.67135638,1.74780554 C1.67039424,1.95241119 1.66857706,2.10453186 1.62094203,2.25640768 C1.42385367,2.2627974 1.27257616,2.26943367 1.12130203,2.27606994 C1.12130203,2.27606994 1.10547424,2.2603904 1.09754316,2.25256452 Z" id="Path" fill="#7F7F7F"></path>
            <path d="M3.93034678,1.18293718 C4.64613062,1.13386768 5.35928667,1.13115898 6.12439175,1.13078316 C6.17634746,1.13311593 6.17945435,1.1313452 6.18195785,1.17665266 C6.18724068,1.37653582 6.19002,1.53111175 6.13944011,1.68730486 C5.50408147,1.85262215 4.69183797,1.27225537 4.35061006,2.22454 C4.34377898,2.24359028 4.2651574,2.23061254 4.24838825,2.25342486 C4.13659051,2.40550588 3.94656079,2.56000068 3.94049525,2.71973345 C3.91073277,3.50330068 3.93057096,4.28875424 3.92953989,5.07686983 C3.92618814,5.0801974 3.91947774,5.08684576 3.91947774,5.08684576 C3.76707955,5.08299921 3.61468475,5.07915254 3.41279627,5.02040023 C3.35694734,4.44039379 3.35059209,3.91528802 3.35010588,3.33741955 C3.35999571,2.75429932 3.36401989,2.2239435 3.36547164,1.69325661 C3.3629026,1.69292384 3.36525435,1.69805153 3.36525435,1.69805153 C3.6955339,1.71313616 4.00788904,1.70671537 3.93034678,1.18293718 Z" id="Path" fill="#EBA069"></path>
            <path d="M3.34423695,3.39018395 C3.35059209,3.91528802 3.35694734,4.44039379 3.36718203,5.01708644 C3.36664407,5.5383835 3.37356136,6.0086991 3.34863006,6.47731627 C3.34339548,6.57572429 3.23571153,6.72498113 3.1486313,6.74737785 C3.05594746,6.77121605 2.8374348,6.67550463 2.83572441,6.62635932 C2.81794836,6.11520192 2.45111322,6.1962322 2.14746508,6.21619616 C1.78195073,6.24023096 1.61382124,6.11015367 1.71413616,5.68992486 C1.91460734,5.64333989 2.06825729,5.64300192 2.27103887,5.64355887 C2.93319785,5.72139243 2.76545808,5.27240475 2.79796531,4.94669763 C2.84579345,4.46750271 2.52880034,4.50425492 2.22390045,4.51884644 C2.22788667,4.51756531 2.22662802,4.52584825 2.22804531,4.47808734 C2.2281591,4.27258847 2.2268487,4.11484881 2.27311469,3.95522644 C2.47473073,3.89152056 2.75758565,3.83722169 2.76170633,3.76664497 C2.78667559,3.3391748 3.06284418,3.37597864 3.34423695,3.39018395 Z" id="Path" fill="#666666"></path>
            <path d="M3.9265261,7.90480102 C3.92898814,7.18756893 3.93144678,6.47033695 3.98460599,5.69967322 C4.51541537,5.72487175 4.50924282,5.40663898 4.54242249,5.08169051 C4.7458661,5.07787672 4.90245412,5.07465593 5.10557017,5.07506983 C5.30784136,5.08319571 5.4635913,5.08768712 5.61983446,5.13759808 C5.61893785,5.33567266 5.61754475,5.4883261 5.56965458,5.64265706 C5.0587765,5.5736287 5.02765198,5.86692847 5.00422068,6.20746847 C4.47755288,6.14274023 4.4621009,6.44490554 4.49560136,6.83837548 C4.49340825,7.22853842 4.49364271,7.56815243 4.44636972,7.90679412 C4.24149853,7.90535966 4.08413819,7.90489062 3.92628475,7.90493898 C3.92579164,7.90545616 3.9265261,7.90480102 3.9265261,7.90480102 Z" id="Path" fill="#C1C1C1"></path>
            <path d="M1.1142261,2.32681356 C1.27257616,2.26943367 1.42385367,2.2627974 1.62045921,2.25592836 C1.66579085,2.25569729 1.66499763,2.25489559 1.66530802,2.30770475 C1.66808395,2.89392328 1.67054599,3.42733096 1.67028734,4.00701661 C1.6679322,4.20908441 1.66830463,4.36487401 1.66977017,4.51925672 C1.67086328,4.51784814 1.67357706,4.52149989 1.67357706,4.52149989 C1.20980644,4.58564881 1.05956689,4.38006215 1.09275684,3.92570362 C1.13027797,3.41204621 1.10507424,2.89380429 1.1142261,2.32681356 Z" id="Path" fill="#939393"></path>
            <path d="M1.10149492,7.28839073 C0.949700113,7.33901548 0.797591525,7.33661548 0.600903164,7.32721186 C0.551568136,6.61419706 0.546816384,5.90818588 0.549212994,5.15156373 C0.980962599,5.00396904 1.13053311,5.17416056 1.10784667,5.60258938 C1.07909808,6.14544362 1.10108113,6.69098418 1.10149492,7.28839073 Z" id="Path" fill="#939393"></path>
            <path d="M2.22191073,5.64266395 C2.06825729,5.64300192 1.91460734,5.64333989 1.71502237,5.64098983 C1.66869424,5.29980158 1.66829774,4.96129785 1.6707426,4.57214701 C1.67357706,4.52149989 1.67086328,4.51784814 1.7161913,4.51724294 C1.9165591,4.51970678 2.07159186,4.52277751 2.22662802,4.52584825 C2.22662802,4.52584825 2.22788667,4.51756531 2.2281487,4.56960554 C2.22624181,4.96198407 2.22407627,5.30232407 2.22191073,5.64266395 Z" id="Path" fill="#EBA069"></path>
            <path d="M2.23211774,7.90675616 C2.24028678,7.74281989 2.24845582,7.57888362 2.25614904,7.42452328 C3.14221051,7.2254487 3.30160881,7.28380102 3.36074056,7.85694181 C3.36088192,7.90542169 3.36185435,7.90444927 3.3104296,7.90480441 C2.91594249,7.90492169 2.57287322,7.90468723 2.23032113,7.90496305 C2.23083153,7.90547345 2.23211774,7.90675616 2.23211774,7.90675616 Z" id="Path" fill="#4E4E4E"></path>
            <path d="M1.65943898,7.84963831 C1.5070339,7.89679751 1.35805288,7.89795616 1.16514384,7.89214915 C1.11436056,7.73390599 1.10750881,7.58262158 1.10034316,7.38548836 C1.43437446,7.31631175 1.74048814,7.32723254 1.65943898,7.84963831 Z" id="Path" fill="#939393"></path>
            <path d="M1.66650113,8.47108655 C1.66748045,8.3167435 1.66782181,8.16175898 1.67172192,7.96082576 C1.82977537,7.91187006 1.98427706,7.90885277 2.18544475,7.90629412 C2.23211774,7.90675616 2.23083153,7.90547345 2.23063842,7.95216701 C2.30367367,8.47035209 2.01028768,8.50118 1.66483559,8.46942102 C1.66483559,8.46942102 1.66585977,8.4704452 1.66650113,8.47108655 Z" id="Path" fill="#4E4E4E"></path>
            <path d="M3.36067153,7.90563209 C3.51770429,7.9057148 3.67494395,7.90558373 3.87935661,7.90512859 C3.9265261,7.90480102 3.92579164,7.90545616 3.92586395,7.95166011 C3.92274678,8.15261412 3.91956045,8.30736407 3.86988068,8.46538305 C3.66697153,8.47266938 3.51054904,8.47668667 3.35558181,8.4754487 C3.35703356,8.47019345 3.36489232,8.46264859 3.36367164,8.41616531 C3.36225435,8.21460441 3.36205435,8.05952689 3.36185774,7.90444927 C3.36185435,7.90444927 3.36088192,7.90542169 3.36067153,7.90563209 Z" id="Path" fill="#4E4E4E"></path>
            <path d="M4.49556689,5.08228192 C4.50924282,5.40663898 4.51541537,5.72487175 3.98967853,5.64713299 C3.93786418,5.4920313 3.93168475,5.33603819 3.92249153,5.13344452 C3.91947774,5.08684576 3.92618814,5.0801974 3.97612316,5.07932497 C4.18255989,5.07973017 4.33906508,5.0810061 4.49556689,5.08228192 Z" id="Path" fill="#EBA069"></path>
            <path d="M9.00444418,7.84975559 C8.84480791,7.90234576 8.68998904,7.90245266 8.49067989,7.90355966 C8.44618972,7.90455966 8.44847944,7.90920102 8.44670011,7.85790734 C8.44033446,7.46613062 8.43574825,7.12564418 8.4353965,6.73729503 C8.5254148,6.21889966 8.24167367,6.17078192 7.8845939,6.15821797 C7.88093864,5.95493989 7.87858,5.79845706 7.87772136,5.59573582 C7.88254215,5.39514056 7.88586633,5.24078192 7.93521514,5.08409232 C8.13527254,5.08262678 8.28930531,5.08349401 8.4441104,5.13103932 C8.37258554,5.63369141 8.64735062,5.68122644 8.99391989,5.64425887 C8.99903028,6.36192881 9.00414068,7.07959876 9.00444418,7.84975559 Z" id="Path" fill="#BDBDBD"></path>
            <path d="M8.44905525,1.68733073 C8.59722938,1.6893548 8.7454,1.69137898 8.93768486,1.69589107 C8.98973367,2.03914486 8.99767175,2.37991424 8.95444712,2.7709513 C8.75042757,2.82134836 8.59756723,2.82147424 8.4450035,2.77028226 C8.44333107,2.37829525 8.44136215,2.03762768 8.44180689,1.69455141 C8.44422079,1.69214113 8.44905525,1.68733073 8.44905525,1.68733073 Z" id="Path" fill="#EBA069"></path>
            <path d="M9.00007864,5.59347209 C8.64735062,5.68122644 8.37258554,5.63369141 8.44487254,5.08625266 C8.44725186,4.84716215 8.44964147,4.69953977 8.49609718,4.53899141 C8.69241311,4.52420678 8.84467006,4.52234814 8.99692339,4.52048949 C9.00002689,4.8612209 9.0031304,5.2019522 9.00007864,5.59347209 Z" id="Path" fill="#EFB385"></path>
            <path d="M9.00353379,3.38374418 C9.19202904,3.47152791 9.38052418,3.55931345 9.56901944,3.64709887 C9.41331424,3.74879831 9.25760565,3.85049763 9.00695107,3.95186079 C8.75339661,3.94980565 8.59478791,3.94808667 8.43958972,3.90024305 C8.4454139,3.70087017 8.44782768,3.54762023 8.49638339,3.39116497 C8.69619254,3.38655119 8.84986316,3.38514768 9.00353379,3.38374418 Z" id="Path" fill="#7F7F7F"></path>
            <path d="M8.43618271,3.94636768 C8.59478791,3.94808667 8.75339661,3.94980565 8.95940226,3.95297469 C9.00704418,4.11170915 9.00728904,4.26899537 9.0022304,4.47338554 C8.84467006,4.52234814 8.69241311,4.52420678 8.4896661,4.52698791 C8.43917593,4.52791028 8.43726203,4.50093412 8.4404104,4.45591469 C8.44355864,4.25916938 8.44355864,4.10744362 8.44059311,3.95426599 C8.43762757,3.95281435 8.43618271,3.94636768 8.43618271,3.94636768 Z" id="Path" fill="#CB7E50"></path>
            <path d="M9.00630633,3.33701266 C8.84986316,3.38514768 8.69619254,3.38655119 8.49481785,3.34320068 C8.44688633,3.13892768 8.44665186,2.9794122 8.44602418,2.82028282 C8.44563458,2.82066904 8.44470701,2.82160181 8.44470701,2.82160181 C8.59756723,2.82147424 8.75042757,2.82134836 8.94857458,2.8219087 C8.99893379,2.97849153 9.00400621,3.13438633 9.00630633,3.33701266 Z" id="Path" fill="#EFB385"></path>
            <path d="M6.19279593,1.68568757 C6.19002,1.53111175 6.18724068,1.37653582 6.18254407,1.17574746 C6.71254305,1.12852621 7.24446271,1.12751763 7.82854847,1.17356463 C7.8782904,1.37564102 7.87586621,1.53066 7.87574203,1.68661175 C7.87804554,1.68754271 7.87657311,1.68341514 7.82428294,1.68616339 C7.24454893,1.68708068 6.7171052,1.68524791 6.1889304,1.68548068 C6.18819582,1.68754791 6.19279593,1.68568757 6.19279593,1.68568757 Z" id="Path" fill="#666666"></path>
            <path d="M7.87344554,1.68568068 C7.87586621,1.53066 7.8782904,1.37564102 7.88130079,1.17415774 C8.03779559,1.12724859 8.19370418,1.12680034 8.39606158,1.12852102 C8.44364147,1.28538486 8.44476565,1.44007966 8.44747254,1.64105254 C8.44905525,1.68733073 8.44422079,1.69214113 8.39489955,1.69242215 C8.18820418,1.6903635 8.03082305,1.68802203 7.87344554,1.68568068 Z" id="Path" fill="#EBA069"></path>
            <path d="M2.23173492,1.69168068 C2.23354881,1.53959288 2.2353626,1.38750497 2.2441765,1.19081311 C2.46928588,1.13947808 2.68886068,1.14630226 2.90519062,1.12299864 C3.2752913,1.08313266 3.40216508,1.25685175 3.36378192,1.64902678 C3.36525435,1.69805153 3.3629026,1.69292384 3.31346418,1.69234621 C2.9193391,1.6911548 2.57465254,1.69053932 2.23036599,1.69032554 C2.2307626,1.69072554 2.23173492,1.69168068 2.23173492,1.69168068 Z" id="Path" fill="#939393"></path>
            <path d="M7.31560486,8.47019006 C7.31648757,8.62862621 7.31736689,8.78706249 7.32234282,8.99317853 C7.32643944,9.04085842 7.31610147,9.04034802 7.26576633,9.03774802 C7.06064,9.03515141 6.90584859,9.03515492 6.75148825,9.03150655 C6.75191593,9.0278548 6.75300904,9.02058915 6.75204,8.97487141 C6.66227695,8.7783348 6.58802791,8.51062497 6.48211288,8.49744893 C6.07898429,8.44729661 6.22058588,8.79494881 6.18311311,9.01591322 C6.18351311,9.02418576 6.18317853,9.04074113 6.1371539,9.03927559 C5.93773797,9.04172395 5.78435006,9.04563774 5.62733797,9.00132 C5.62270689,8.79213842 5.6217,8.63118836 5.6206728,8.42321706 C5.62062757,8.21933898 5.6206,8.06247864 5.66789017,7.90554927 C6.19559254,7.98280192 6.20780983,7.66838463 6.24471718,7.33532226 C6.63224215,7.33630847 6.96958384,7.33461198 7.30983932,7.38075729 C7.31370486,7.58782508 7.31465311,7.74704757 7.31562554,7.95325672 C7.31562904,8.15688994 7.31561864,8.31354 7.31560486,8.47019006 Z" id="Path" fill="#959595"></path>
            <path d="M8.45249672,9.09671763 C8.61218814,9.04571017 8.76654497,9.04201356 8.96526441,9.03649277 C9.00962701,9.03466181 9.00556836,9.03049277 9.00773729,9.07768983 C9.00719944,9.28147141 9.00448904,9.43805582 9.00178203,9.59464034 C9.00178203,9.59464034 9.00615797,9.5966852 9.00505107,9.59447831 C8.83817333,9.5922713 8.6724026,9.5922713 8.46722441,9.5922713 C8.45997616,9.43034542 8.45356565,9.2871887 8.45249672,9.09671763 Z" id="Path" fill="#000000"></path>
            <path d="M7.36230192,8.47028316 C7.31561864,8.31354 7.31562904,8.15688994 7.36292949,7.95306011 C7.56797311,7.9067252 7.72572316,7.90756655 7.88168701,7.90663209 C7.87989729,7.90485616 7.87626621,7.90132508 7.87768,7.94866011 C7.87723864,8.15370034 7.87538,8.31140893 7.87352136,8.46911412 C7.71868169,8.4695348 7.56383864,8.46995548 7.36230192,8.47028316 Z" id="Path" fill="#787878"></path>
            <path d="M7.92015638,8.46956927 C7.87538,8.31140893 7.87723864,8.15370034 7.92544949,7.95010147 C8.13069311,7.90586994 8.28958802,7.90753548 8.44847944,7.90920102 C8.44847944,7.90920102 8.44618972,7.90455966 8.44412079,7.90294927 C8.44090689,8.0584096 8.43976215,8.21547345 8.43367232,8.41923085 C8.27474644,8.46728994 8.12077232,8.46865898 7.92015638,8.46956927 Z" id="Path" fill="#C1C1C1"></path>
            <path d="M3.31043311,7.90480441 C3.36205435,8.05952689 3.36225435,8.21460441 3.31587797,8.41901706 C2.78732734,8.37850972 2.7675409,8.68629243 2.78755831,9.02831345 C2.44780282,9.01158565 2.15928249,9.0537896 2.22614181,9.55820893 C2.07044701,9.6018922 1.92052124,9.59876452 1.72624667,9.59002994 C1.67645299,9.24689164 1.67100124,8.90935345 1.66519073,8.52061819 C2.01028768,8.50118 2.30367367,8.47035209 2.23012463,7.95165672 C2.57287322,7.90468723 2.91594249,7.90492169 3.31043311,7.90480441 Z" id="Path" fill="#666666"></path>
            <path d="M2.79217559,9.07507254 C2.7675409,8.68629243 2.78732734,8.37850972 3.31709525,8.46550034 C3.36489232,8.46264859 3.35703356,8.47019345 3.35798192,8.52131469 C3.36003017,8.72620667 3.36113017,8.87998418 3.36157503,9.08117266 C3.36023706,9.28700588 3.35955435,9.44542486 3.31203311,9.60195424 C3.1090791,9.59696791 2.95296712,9.59387141 2.79685153,9.59077819 C2.79683435,9.43446271 2.79681706,9.27814723 2.79217559,9.07507254 Z" id="Path" fill="#C1C1C1"></path>
            <path d="M3.35626802,10.7217252 C3.20182497,10.7257701 3.04738531,10.7298115 2.84692791,10.7371599 C2.79949638,10.5801547 2.7980791,10.4198426 2.84438316,10.212692 C3.05048542,10.1659225 3.20887333,10.1659915 3.3660061,10.2129817 C3.36066814,10.4158942 3.35658531,10.5718821 3.35577492,10.7278667 C3.35905085,10.7278632 3.35626802,10.7217252 3.35626802,10.7217252 Z" id="Path" fill="#A4A4A4"></path>
            <path d="M3.36726124,10.1660569 C3.20887333,10.1659915 3.05048542,10.1659225 2.84473831,10.1648638 C2.79670328,10.0050035 2.79602395,9.84613627 2.7960962,9.63902362 C2.95296712,9.59387141 3.1090791,9.59696791 3.3116365,9.60042316 C3.35807503,9.6007852 3.3552887,9.60277492 3.35811977,9.6497478 C3.36047503,9.85490531 3.3599922,10.0130898 3.36013367,10.1680087 C3.36075435,10.1647467 3.36726124,10.1660569 3.36726124,10.1660569 Z" id="Path" fill="#816471"></path>
            <path d="M9.53528802,8.47146588 C9.58071605,8.62355379 9.5777609,8.77672102 9.52563616,8.98183356 C9.31949944,9.03268237 9.16253209,9.03158927 9.00556836,9.03049277 C9.00556836,9.03049277 9.00962701,9.03466181 9.01163051,9.03677209 C9.0136374,8.87916689 9.0136374,8.7194548 9.0136374,8.50871458 C9.18250475,8.49580757 9.33470644,8.48417288 9.53528802,8.47146588 Z" id="Path" fill="#000000"></path>
            <path d="M5.62220339,11.2953315 C5.28258927,11.2962626 4.94156836,11.2972798 4.55002949,11.2986557 C4.15579412,11.297935 3.8120696,11.2968557 3.41749977,11.298066 C3.36351989,11.1397194 3.36038531,10.9790798 3.35676113,10.7700843 C3.35626802,10.7217252 3.35905085,10.7278632 3.40918938,10.7278976 C3.9908165,10.7279425 4.52231198,10.7279529 5.10118045,10.7290701 C5.30605853,10.7304011 5.46355333,10.7306253 5.62089311,10.7778879 C5.62117232,10.9823142 5.62161028,11.1396988 5.62204825,11.2970867 C5.62204825,11.2970867 5.62079311,11.2954177 5.62220339,11.2953315 Z" id="Path" fill="#816471"></path>
            <path d="M9.00773729,9.07768983 C9.16253209,9.03158927 9.31949944,9.03268237 9.52295333,9.02772723 C9.57108497,9.18131164 9.57272282,9.34094441 9.57249876,9.54807435 C9.41280045,9.59668169 9.25496768,9.59779209 9.04945842,9.5967748 C9.00448904,9.43805582 9.00719944,9.28147141 9.00773729,9.07768983 Z" id="Path" fill="#B0B0B0"></path>
            <path d="M5.6688487,11.2965108 C5.62161028,11.1396988 5.62117232,10.9823142 5.66792463,10.7778327 C5.87217853,10.730346 6.02924588,10.7299529 6.18600271,10.7299529 C6.18569243,10.7303598 6.18528203,10.7299529 6.18528203,10.7299529 C6.18522689,10.886689 6.18517175,11.0434253 6.18446825,11.2468827 C6.02776305,11.2943798 5.87170621,11.2951591 5.6688487,11.2965108 Z" id="Path" fill="#675549"></path>
            <path d="M6.75042621,10.1652915 C6.75059514,10.3216208 6.75100893,10.4780742 6.75281243,10.6811316 C6.5960452,10.7284253 6.43789514,10.7291184 6.23251356,10.729884 C6.18528203,10.7299529 6.18569243,10.7303598 6.18589582,10.6830454 C6.18616825,10.4792191 6.18624068,10.3227035 6.18588893,10.1657398 C6.18546825,10.1652915 6.18426136,10.1668329 6.23149638,10.1663949 C6.43608486,10.1661156 6.59344169,10.1662707 6.75079514,10.1664294 C6.75079514,10.1664294 6.75067107,10.1654191 6.75042621,10.1652915 Z" id="Path" fill="#4E4E4E"></path>
            <path d="M6.75105487,9.03515831 C6.90584859,9.03515492 7.06064,9.03515141 7.26154904,9.03475141 C7.31197729,9.18451853 7.31628757,9.33467887 7.32729469,9.5290913 C7.17202746,9.58259198 7.01005661,9.59185062 6.79950949,9.55360881 C6.75097446,9.34912734 6.75101582,9.19214282 6.75105487,9.03515831 Z" id="Path" fill="#7F7F7F"></path>
            <path d="M6.75148825,9.03150655 C6.75101582,9.19214282 6.75097446,9.34912734 6.75090893,9.55311571 C6.75091932,9.75736633 6.75096068,9.91461627 6.75089514,10.1191461 C6.59344169,10.1662707 6.43608486,10.1661156 6.23141356,10.1150012 C6.18379232,9.7229452 6.18348542,9.38184486 6.18317853,9.04074113 C6.18317853,9.04074113 6.18351311,9.02418576 6.23039977,9.02241684 C6.43586407,9.02063051 6.5944348,9.02060983 6.75300904,9.02058915 C6.75300904,9.02058915 6.75191593,9.0278548 6.75148825,9.03150655 Z" id="Path" fill="#816471"></path>
            <path d="M1.66627356,2.25617661 C1.66857706,2.10453186 1.67039424,1.95241119 1.67920475,1.75569175 C1.83748237,1.70442226 1.98875638,1.69775153 2.18588621,1.69138068 C2.23173492,1.69168068 2.2307626,1.69072554 2.23064531,1.73750192 C2.30308056,2.25486282 2.01042904,2.28659243 1.66499763,2.25489559 C1.66499763,2.25489559 1.66579085,2.25569729 1.66627356,2.25617661 Z" id="Path" fill="#939393"></path>
            <path d="M7.87574554,1.68661175 C8.03082305,1.68802203 8.18820418,1.6903635 8.39248576,1.69483243 C8.44136215,2.03762768 8.44333107,2.37829525 8.4450035,2.77028226 C8.44470701,2.82160181 8.44563458,2.82066904 8.39753401,2.82063458 C7.98745367,2.7728565 7.84238655,2.93020475 7.87703514,3.29194836 C7.89803887,3.51125593 7.88280418,3.73403085 7.88643186,3.95483842 C7.88901808,3.95442814 7.89133876,3.95912644 7.83796927,3.95714362 C7.2537904,3.94159006 6.72298802,3.92801751 6.19006486,3.86613232 C6.06780836,3.44626904 6.53928599,2.73732158 5.6200896,2.77416508 C5.61975164,2.67087424 5.64205537,2.59591831 5.61433785,2.56271277 C5.52399887,2.45448915 5.41539774,2.36151051 5.31382418,2.26266802 C5.22986113,2.35939842 5.14589819,2.45613051 5.06193514,2.55285921 C5.1740226,2.64172915 5.27902034,2.74278542 5.40138373,2.81398621 C5.45706712,2.84638825 5.54710599,2.81975356 5.62131028,2.8677765 C5.61934475,3.07526497 5.61763435,3.23487186 5.56497175,3.39133051 C5.18904689,3.38818395 4.86407785,3.38818395 4.50522554,3.38818395 C4.50522554,3.62218994 4.50522554,3.78425209 4.50148418,3.99353028 C4.40542791,4.52111537 4.71468994,4.53772938 5.05373503,4.56731424 C5.05624203,4.76608011 5.05764542,4.91875774 5.05904542,5.07143525 C4.90245412,5.07465593 4.7458661,5.07787672 4.54242249,5.08169051 C4.33906508,5.0810061 4.18255989,5.07973017 3.97947153,5.0759974 C3.93057096,4.28875424 3.91073277,3.50330068 3.94049525,2.71973345 C3.94656079,2.56000068 4.13659051,2.40550588 4.24838825,2.25342486 C4.2651574,2.23061254 4.34377898,2.24359028 4.35061006,2.22454 C4.69183797,1.27225537 5.50408147,1.85262215 6.13944011,1.68730486 C6.19279593,1.68568757 6.18819582,1.68754791 6.18773379,1.73472949 C6.13520565,2.15094791 6.29782814,2.29341153 6.66283898,2.25946633 C6.88485525,2.23881955 7.11342678,2.23210565 7.33367062,2.26065254 C7.79843774,2.32089627 7.94078418,2.10629051 7.87657311,1.68341514 C7.87657311,1.68341514 7.87804554,1.68754271 7.87574554,1.68661175 Z" id="Path" fill="#EFB385"></path>
            <path d="M1.66530802,2.30770475 C2.01042904,2.28659243 2.30308056,2.25486282 2.2302487,1.73710192 C2.57465254,1.69053932 2.9193391,1.6911548 3.31602972,1.69268079 C3.36401989,2.2239435 3.35999571,2.75429932 3.35010588,3.33741955 C3.06284418,3.37597864 2.78667559,3.3391748 2.76170633,3.76664497 C2.75758565,3.83722169 2.47473073,3.89152056 2.2271591,3.95278847 C1.98009085,3.95507119 1.82654768,3.95790395 1.67300814,3.96073853 C1.67054599,3.42733096 1.66808395,2.89392328 1.66530802,2.30770475 Z" id="Path" fill="#7F7F7F"></path>
            <path d="M2.27103887,5.64355887 C2.22407627,5.30232407 2.22624181,4.96198407 2.22415898,4.57088667 C2.52880034,4.50425492 2.84579345,4.46750271 2.79796531,4.94669763 C2.76545808,5.27240475 2.93319785,5.72139243 2.27103887,5.64355887 Z" id="Path" fill="#4E4E4E"></path>
            <path d="M1.67028734,4.00701661 C1.82654768,3.95790395 1.98009085,3.95507119 2.17958271,3.95467469 C2.2268487,4.11484881 2.2281591,4.27258847 2.22805054,4.47808734 C2.07159186,4.52277751 1.9165591,4.51970678 1.71509819,4.51864983 C1.66830463,4.36487401 1.6679322,4.20908441 1.67028734,4.00701661 Z" id="Path" fill="#4E4E4E"></path>
            <path d="M5.10557017,5.07506983 C5.05764542,4.91875774 5.05624203,4.76608011 5.10230452,4.5649348 C5.31147243,4.51354113 5.47317763,4.51061695 5.67939718,4.51128079 C5.87309243,4.51248079 6.02226994,4.51009288 6.21989627,4.50960147 C6.43012271,4.51470847 6.59189345,4.51791706 6.7527435,4.5679539 C6.82402701,5.09263028 6.51198565,5.10301153 6.13140215,5.08445955 C5.92972746,5.08563537 5.77453266,5.0889061 5.61933785,5.09217684 C5.4635913,5.08768712 5.30784136,5.08319571 5.10557017,5.07506983 Z" id="Path" fill="#EBA069"></path>
            <path d="M4.49387718,7.90776316 C4.49364271,7.56815243 4.49340825,7.22853842 4.54193288,6.83412373 C4.74623164,6.77753345 4.9017748,6.77574023 5.05665582,6.82064079 C5.05880407,7.02270158 5.06160757,7.17806192 5.06140068,7.38127458 C5.05723514,7.58817333 5.05608678,7.74722339 5.05531435,7.90590452 C5.05568678,7.90553209 5.05616271,7.90505616 5.00899322,7.90523209 C4.8042496,7.90459412 4.64668226,7.90378723 4.48977718,7.90457345 C4.4904426,7.90616994 4.49387718,7.90776316 4.49387718,7.90776316 Z" id="Path" fill="#787878"></path>
            <path d="M3.91637085,8.46211401 C3.91956045,8.30736407 3.92274678,8.15261412 3.92635367,7.95114294 C4.08413819,7.90489062 4.24149853,7.90535966 4.44636972,7.90679412 C4.49387718,7.90776316 4.4904426,7.90616994 4.49052542,7.95213605 C4.4912461,8.15565898 4.49188056,8.31321582 4.49037367,8.46860373 C4.48823232,8.46643819 4.48226328,8.46525548 4.43533175,8.46705898 C4.23105356,8.46661062 4.0737139,8.46436237 3.91637085,8.46211401 Z" id="Path" fill="#7F7F7F"></path>
            <path d="M5.61983446,5.13759808 C5.77453266,5.0889061 5.92972746,5.08563537 6.1341435,5.13034113 C6.18637175,5.33160192 6.18938203,5.48488463 6.14481955,5.64113119 C5.93908621,5.64528814 5.78092237,5.64648475 5.62111379,5.64602441 C5.61946542,5.64436915 5.61614814,5.64097944 5.61614814,5.64097944 C5.61754475,5.4883261 5.61893785,5.33567266 5.61983446,5.13759808 Z" id="Path" fill="#B0B0B0"></path>
            <path d="M5.05731446,6.77394712 C4.9017748,6.77574023 4.74623164,6.77753345 4.54436045,6.78357141 C4.4621009,6.44490554 4.47755288,6.14274023 5.00568972,6.20890294 C5.05411096,6.20900475 5.05692475,6.21179266 5.05637299,6.2586139 C5.05561435,6.46230927 5.05541435,6.61918339 5.05561435,6.77566102 C5.05601096,6.77526441 5.05731446,6.77394712 5.05731446,6.77394712 Z" id="Path" fill="#B0B0B0"></path>
            <path d="M5.05263853,6.20756847 C5.02765198,5.86692847 5.0587765,5.5736287 5.56965458,5.64265706 C5.61614814,5.64097944 5.61946542,5.64436915 5.62022757,5.69269729 C5.62062068,5.89727718 5.62025164,6.05352712 5.57299944,6.21014441 C5.36971785,6.21093751 5.21332305,6.21136508 5.05692475,6.21179266 C5.05692475,6.21179266 5.05411096,6.20900475 5.05263853,6.20756847 Z" id="Path" fill="#B0B0B0"></path>
            <path d="M3.86988068,8.46538305 C4.0737139,8.46436237 4.23105356,8.46661062 4.4386835,8.51546633 C4.48622881,8.72263073 4.48348734,8.88319107 4.43506621,9.03990667 C4.23503288,9.03595831 4.08067605,9.03585492 3.87921525,9.03560316 C3.67548192,9.03488938 3.51885605,9.03432384 3.36223017,9.03375831 C3.36113017,8.87998418 3.36003017,8.72620667 3.35653017,8.52656994 C3.51054904,8.47668667 3.66697153,8.47266938 3.86988068,8.46538305 Z" id="Path" fill="#9C85A7"></path>
            <path d="M5.61987921,6.20977718 C5.62025164,6.05352712 5.62062068,5.89727718 5.62187582,5.69435424 C5.78092237,5.64648475 5.93908621,5.64528814 6.19678565,5.64387266 C6.82295808,5.64309503 7.34959141,5.64253469 7.87622136,5.64197435 C7.87858,5.79845706 7.88093864,5.95493989 7.8823835,6.16052486 C7.88146972,6.20962712 7.87709379,6.21407198 7.82454497,6.21277548 C7.05605367,6.21234441 6.3401148,6.21320644 5.6230965,6.21299266 C5.62201718,6.21191333 5.61987921,6.20977718 5.61987921,6.20977718 Z" id="Path" fill="#959595"></path>
            <path d="M7.87772136,5.59573582 C7.34959141,5.64253469 6.82295808,5.64309503 6.24435853,5.64091051 C6.18938203,5.48488463 6.18637175,5.33160192 6.18062339,5.13243593 C6.51198565,5.10301153 6.82402701,5.09263028 6.79924056,4.56534 C7.0019635,4.51763774 7.1572652,4.5193826 7.31349446,4.56796768 C7.24223853,5.09347684 7.55520746,5.10275458 7.88919051,5.08642508 C7.88586633,5.24078192 7.88254215,5.39514056 7.87772136,5.59573582 Z" id="Path" fill="#EFB385"></path>
            <path d="M7.93521514,5.08409232 C7.55520746,5.10275458 7.24223853,5.09347684 7.36207774,4.56561243 C7.57145944,4.51346701 7.73317842,4.51051876 7.94001514,4.51119808 C8.13584147,4.51019458 8.28655006,4.5055652 8.43726203,4.50093412 C8.43726203,4.50093412 8.43917593,4.52791028 8.4456035,4.5399139 C8.44964147,4.69953977 8.44725186,4.84716215 8.44410011,5.03957288 C8.28930531,5.08349401 8.13527254,5.08262678 7.93521514,5.08409232 Z" id="Path" fill="#EBA069"></path>
            <path d="M8.44670011,7.85790734 C8.28958802,7.90753548 8.13069311,7.90586994 7.92403232,7.90276655 C7.87626621,7.90132508 7.87989729,7.90485616 7.88079729,7.85515559 C7.88434904,7.46351684 7.8869974,7.12158203 7.9349565,6.7784748 C8.13056215,6.77992305 8.28086034,6.78254384 8.43116203,6.78516452 C8.43574825,7.12564418 8.44033446,7.46613062 8.44670011,7.85790734 Z" id="Path" fill="#787878"></path>
            <path d="M8.4353965,6.73729503 C8.28086034,6.78254384 8.13056215,6.77992305 7.92876339,6.77835062 C7.87726621,6.77939898 7.86533503,6.77651616 7.8708661,6.72973627 C7.87663175,6.52666508 7.87686282,6.37036678 7.87709379,6.21407198 C7.87709379,6.21407198 7.88146972,6.20962712 7.88368011,6.20732023 C8.24167367,6.17078192 8.5254148,6.21889966 8.4353965,6.73729503 Z" id="Path" fill="#959595"></path>
            <path d="M7.88384565,3.95524881 C7.88280418,3.73403085 7.89803887,3.51125593 7.87703514,3.29194836 C7.84238655,2.93020475 7.98745367,2.7728565 8.39792373,2.82024667 C8.44665186,2.9794122 8.44688633,3.13892768 8.44867944,3.34640938 C8.44782768,3.54762023 8.4454139,3.70087017 8.43958972,3.90024305 C8.43618271,3.94636768 8.43762757,3.95281435 8.39398576,3.95200565 C8.19484565,3.95254701 8.03934734,3.95389876 7.88384565,3.95524881 Z" id="Path" fill="#EBA069"></path>
            <path d="M7.88643186,3.95483842 C8.03934734,3.95389876 8.19484565,3.95254701 8.3969513,3.9534574 C8.44355864,4.10744362 8.44355864,4.25916938 8.4404104,4.45591469 C8.28655006,4.5055652 8.13584147,4.51019458 7.93466,4.46574588 C7.88656983,4.2641539 7.88895605,4.11164023 7.89133876,3.95912644 C7.89133876,3.95912644 7.88901808,3.95442814 7.88643186,3.95483842 Z" id="Path" fill="#000000"></path>
            <path d="M7.82428294,1.68616339 C7.94078418,2.10629051 7.79843774,2.32089627 7.33367062,2.26065254 C7.11342678,2.23210565 6.88485525,2.23881955 6.66283898,2.25946633 C6.29782814,2.29341153 6.13520565,2.15094791 6.18846825,1.73266226 C6.7171052,1.68524791 7.24454893,1.68708068 7.82428294,1.68616339 Z" id="Path" fill="#EBA069"></path>
            <path d="M4.48074599,9.04374802 C4.48348734,8.88319107 4.48622881,8.72263073 4.48561503,8.51366633 C4.48226328,8.46525548 4.48823232,8.46643819 4.5371052,8.46846588 C4.74352825,8.47029345 4.9010748,8.47009695 5.10532531,8.47014859 C5.30825164,8.47034859 5.46447062,8.47029345 5.6206896,8.47023831 C5.6217,8.63118836 5.62270689,8.79213842 5.62394486,9.04603085 C5.62066203,9.28899559 5.61715164,9.43902486 5.5677235,9.59352994 C5.36775582,9.60039898 5.21371266,9.6027887 5.05851096,9.55790893 C5.12660136,9.04980328 4.84655695,9.00049243 4.49333921,9.03840316 C4.49063921,9.04258599 4.48074599,9.04374802 4.48074599,9.04374802 Z" id="Path" fill="#B0B0B0"></path>
            <path d="M5.06441446,7.33342576 C5.06160757,7.17806192 5.05880407,7.02270158 5.05665582,6.82064079 C5.05731446,6.77394712 5.05601096,6.77526441 5.10304249,6.77543333 C5.30888621,6.7736678 5.46770169,6.77173333 5.67330395,6.77187053 C5.87644068,6.77894373 6.03279412,6.78393006 6.18809582,6.83434441 C6.18954418,7.03072588 6.19203729,7.18168271 6.1945339,7.33263605 C6.20780983,7.66838463 6.19559254,7.98280192 5.6679487,7.90549062 C5.6206896,7.90550102 5.62031028,7.90588723 5.62040689,7.85885571 C5.69698011,7.34799492 5.40560791,7.3117565 5.06441446,7.33342576 Z" id="Path" fill="#B0B0B0"></path>
            <path d="M5.61364124,9.58905062 C5.61715164,9.43902486 5.62066203,9.28899559 5.62756554,9.09425898 C5.78435006,9.04563774 5.93773797,9.04172395 6.1371539,9.03927559 C6.18348542,9.38184486 6.18379232,9.7229452 6.18417853,10.1154426 C6.18426136,10.1668329 6.18546825,10.165288 6.13884701,10.1652294 C5.9358896,10.1649225 5.77954655,10.1646776 5.62272757,10.1167047 C5.61937921,9.90900249 5.61651028,9.74902486 5.61364124,9.58905062 Z" id="Path" fill="#675549"></path>
            <path d="M6.24471718,7.33532226 C6.19203729,7.18168271 6.18954418,7.03072588 6.23891706,6.82948915 C6.63123175,6.78244034 6.97167345,6.78567831 7.3131704,6.83435819 C7.31178418,7.03083966 7.30935311,7.18187921 7.30692203,7.33291537 C6.96958384,7.33461198 6.63224215,7.33630847 6.24471718,7.33532226 Z" id="Path" fill="#787878"></path>
            <path d="M7.30983932,7.38075729 C7.30935311,7.18187921 7.31178418,7.03083966 7.35937774,6.82968226 C7.55813853,6.77854723 7.71173684,6.77753345 7.86533503,6.77651616 C7.86533503,6.77651616 7.87726621,6.77939898 7.88345944,6.77952305 C7.8869974,7.12158203 7.88434904,7.46351684 7.8825904,7.85692802 C7.72572316,7.90756655 7.56797311,7.9067252 7.36291232,7.90608034 C7.31465311,7.74704757 7.31370486,7.58782508 7.30983932,7.38075729 Z" id="Path" fill="#B0B0B0"></path>
            <path d="M5.62067582,8.42321706 C5.46447062,8.47029345 5.30825164,8.47034859 5.10402181,8.42320678 C5.05605921,8.21902859 5.05611096,8.06204068 5.05615931,7.90505616 C5.05615931,7.90505616 5.05568678,7.90553209 5.10244249,7.90570102 C5.30623785,7.90587684 5.46327412,7.90588034 5.62031028,7.90588723 C5.62031028,7.90588723 5.6206896,7.90550102 5.62062757,7.90555966 C5.6206,8.06247864 5.62062757,8.21933898 5.62067582,8.42321706 Z" id="Path" fill="#787878"></path>
            <path d="M6.75204,8.97487141 C6.5944348,9.02060983 6.43586407,9.02063051 6.22999977,9.01414768 C6.22058588,8.79494881 6.07898429,8.44729661 6.48211288,8.49744893 C6.58802791,8.51062497 6.66227695,8.7783348 6.75204,8.97487141 Z" id="Path" fill="#9C85A7"></path>
            <path d="M3.36157503,9.08117266 C3.51885605,9.03432384 3.67548192,9.03488938 3.87836,9.08249333 C3.92606395,9.28566113 3.92751921,9.44179379 3.88134633,9.59891277 C3.67424395,9.60085424 3.51476633,9.60181627 3.3552887,9.60277492 C3.3552887,9.60277492 3.35807503,9.6007852 3.35847153,9.60231288 C3.35955435,9.44542486 3.36023706,9.28700588 3.36157503,9.08117266 Z" id="Path" fill="#B0B0B0"></path>
            <path d="M5.05380407,10.7279632 C4.52231198,10.7279529 3.9908165,10.7279425 3.40591345,10.7278976 C3.35658531,10.5718821 3.36066814,10.4158942 3.3660061,10.2129817 C3.36726124,10.1660569 3.36075435,10.1647467 3.40724452,10.1661191 C3.60999503,10.1612018 3.76624847,10.1549121 3.97363006,10.1556293 C4.36790339,10.1612225 4.71105198,10.1598052 5.0506626,10.1636225 C5.04712814,10.1688605 5.04896949,10.1813641 5.05194542,10.2266025 C5.05454542,10.423884 5.0541765,10.5759236 5.05380407,10.7279632 Z" id="Path" fill="#4E4E4E"></path>
            <path d="M3.92250531,10.1486189 C3.76624847,10.1549121 3.60999503,10.1612018 3.40662384,10.1693846 C3.3599922,10.0130898 3.36047503,9.85490531 3.35811977,9.6497478 C3.51476633,9.60181627 3.67424395,9.60085424 3.88009107,9.59913695 C3.92646407,9.59837831 3.92849853,9.5966852 3.92762949,9.64279266 C3.92533989,9.84213966 3.9239226,9.99537921 3.92250531,10.1486189 Z" id="Path" fill="#C1C1C1"></path>
            <path d="M5.10118045,10.7290701 C5.0541765,10.5759236 5.05454542,10.423884 5.09980113,10.2209472 C5.30419299,10.1681811 5.46370169,10.1663053 5.62320689,10.1644329 C5.77954655,10.1646776 5.9358896,10.1649225 6.13927119,10.1656776 C6.18624068,10.3227035 6.18616825,10.4792191 6.18620621,10.682642 C6.02924588,10.7299494 5.87217853,10.730346 5.66808328,10.7307942 C5.46355333,10.7306253 5.30605853,10.7304011 5.10118045,10.7290701 Z" id="Path" fill="#626262"></path>
            <path d="M7.83796927,3.95714362 C7.88895605,4.11164023 7.88656983,4.2641539 7.88954226,4.46211819 C7.73317842,4.51051876 7.57145944,4.51346701 7.36115367,4.51877051 C7.1572652,4.5193826 7.0019635,4.51763774 6.80016463,4.51851017 C6.59189345,4.51791706 6.43012271,4.51470847 6.22565141,4.46450441 C6.1811061,4.26681774 6.17925785,4.11612644 6.1784061,3.95190565 C6.17939921,3.93837616 6.19218215,3.91444486 6.19218215,3.91444486 C6.72298802,3.92801751 7.2537904,3.94159006 7.83796927,3.95714362 Z" id="Path" fill="#CB7E50"></path>
            <path d="M5.63487944,4.50769107 C5.47317763,4.51061695 5.31147243,4.51354113 5.10120113,4.51884644 C4.71468994,4.53772938 4.40542791,4.52111537 4.55145367,3.9950113 C4.94460633,3.94796938 5.28405141,3.9466591 5.62531729,3.94807458 C5.62713797,3.95080226 5.62266554,3.95560056 5.62227582,4.00165277 C5.62621729,4.20103254 5.63054836,4.35436181 5.63487944,4.50769107 Z" id="Path" fill="#CB7E50"></path>
            <path d="M5.61982068,2.8216191 C6.53928599,2.73732158 6.06780836,3.44626904 6.19006486,3.86613232 C6.19218215,3.91444486 6.17939921,3.93837616 6.13275729,3.94529864 C5.93163096,3.95334881 5.77714994,3.95447469 5.62266554,3.95560056 C5.62266554,3.95560056 5.62713797,3.95080226 5.62438621,3.9020948 C5.61973096,3.70041672 5.61782746,3.54744599 5.61592407,3.39447706 C5.61763435,3.23487186 5.61934475,3.07526497 5.62087232,2.86820746 C5.6206896,2.82075525 5.61982068,2.8216191 5.61982068,2.8216191 Z" id="Path" fill="#EBA069"></path>
            <path d="M5.56497175,3.39133051 C5.61782746,3.54744599 5.61973096,3.70041672 5.62256554,3.89936712 C5.28405141,3.9466591 4.94460633,3.94796938 4.55519514,3.94779876 C4.50522554,3.78425209 4.50522554,3.62218994 4.50522554,3.38818395 C4.86407785,3.38818395 5.18904689,3.38818395 5.56497175,3.39133051 Z" id="Path" fill="#7F7F7F"></path>
            <path d="M5.62112407,2.82032418 C5.54710599,2.81975356 5.45706712,2.84638825 5.40138373,2.81398621 C5.27902034,2.74278542 5.1740226,2.64172915 5.06193514,2.55285921 C5.14589819,2.45613051 5.22986113,2.35939842 5.31382418,2.26266802 C5.41539774,2.36151051 5.52399887,2.45448915 5.61433785,2.56271277 C5.64205537,2.59591831 5.61975164,2.67087424 5.6200896,2.77416508 C5.61982068,2.8216191 5.6206896,2.82075525 5.62112407,2.82032418 Z" id="Path" fill="#EBA069"></path>
            <path d="M5.62227582,4.00165277 C5.77714994,3.95447469 5.93163096,3.95334881 6.13176418,3.95882814 C6.17925785,4.11612644 6.1811061,4.26681774 6.17719921,4.46260791 C6.02226994,4.51009288 5.87309243,4.51248079 5.67939718,4.5112791 C5.63054836,4.35436181 5.62621729,4.20103254 5.62227582,4.00165277 Z" id="Path" fill="#000000"></path>
            <path d="M5.62040689,7.85885571 C5.46327412,7.90588034 5.30623785,7.90587684 5.10207006,7.90607345 C5.05608678,7.74722339 5.05723514,7.58817333 5.06140068,7.38127458 C5.40560791,7.3117565 5.69698011,7.34799492 5.62040689,7.85885571 Z" id="Path" fill="#959595"></path>
            <path d="M5.00899322,7.90523209 C5.05611096,8.06204068 5.05605921,8.21902859 5.05731446,8.42295503 C4.9010748,8.47009695 4.74352825,8.47029345 4.53925006,8.47063141 C4.49188056,8.31321582 4.4912461,8.15565898 4.48985989,7.95054294 C4.64668226,7.90378723 4.8042496,7.90459412 5.00899322,7.90523209 Z" id="Path" fill="#C1C1C1"></path>
            <path d="M5.62651729,6.76979537 C5.46770169,6.77173333 5.30888621,6.7736678 5.10264249,6.77583333 C5.05541435,6.61918339 5.05561435,6.46230927 5.05637299,6.2586139 C5.21332305,6.21136508 5.36971785,6.21093751 5.57299944,6.21014441 C5.61987921,6.20977718 5.62201718,6.21191333 5.62182068,6.25929661 C5.62325514,6.46105062 5.62488621,6.61542475 5.62651729,6.76979537 Z" id="Path" fill="#959595"></path>
            <path d="M3.92771921,9.59815412 C3.92751921,9.44179379 3.92606395,9.28566113 3.92546395,9.08263819 C4.08067605,9.03585492 4.23503288,9.03595831 4.43506621,9.03990667 C4.48074599,9.04374802 4.49063921,9.04258599 4.4922496,9.08545198 C4.49087028,9.28506452 4.48787706,9.44180757 4.43856621,9.60003356 C4.23766746,9.59990249 4.08308294,9.59829559 3.92849853,9.5966852 C3.92849853,9.5966852 3.92646407,9.59837831 3.92771921,9.59815412 Z" id="Path" fill="#81576E"></path>
            <path d="M5.67330395,6.77187819 C5.62488621,6.61542475 5.62325514,6.46105062 5.6228965,6.26037593 C6.3401148,6.21320644 7.05605367,6.21234441 7.82454497,6.21277548 C7.87686282,6.37036678 7.87663175,6.52666508 7.8708661,6.72973627 C7.71173684,6.77753345 7.55813853,6.77854723 7.35832949,6.78424034 C6.97167345,6.78567831 6.63123175,6.78244034 6.23996542,6.78406102 C6.03279412,6.78393006 5.87644068,6.77894373 5.67330395,6.77187819 Z" id="Path" fill="#EBA069"></path>
            <path d="M4.48488395,9.59855424 C4.48787706,9.44180757 4.49087028,9.28506452 4.4949496,9.08126576 C4.84655695,9.00049243 5.12660136,9.04980328 5.05852136,9.55637435 C5.05968689,9.60210938 5.06108,9.60440599 5.01304836,9.60311977 C4.80497028,9.60074045 4.64492712,9.59964734 4.48488395,9.59855424 Z" id="Path" fill="#C1C1C1"></path>
            <path d="M5.62272757,10.1167047 C5.46370169,10.1663053 5.30419299,10.1681811 5.0968287,10.1757088 C5.04896949,10.1813641 5.04712814,10.1688605 5.05143853,10.1175392 C5.05752475,9.91228181 5.05930407,9.75834565 5.06108,9.60440599 C5.06108,9.60440599 5.05968689,9.60210938 5.0596765,9.60364384 C5.21371266,9.6027887 5.36775582,9.60039898 5.5677235,9.59352994 C5.61651028,9.74902486 5.61937921,9.90900249 5.62272757,10.1167047 Z" id="Path" fill="#816471"></path>
            <path d="M5.01304836,9.60311977 C5.05930407,9.75834565 5.05752475,9.91228181 5.05497299,10.1123046 C4.71105198,10.1598052 4.36790339,10.1612225 3.97363006,10.1556293 C3.9239226,9.99537921 3.92533989,9.84213966 3.92762949,9.64279266 C4.08308294,9.59829559 4.23766746,9.59990249 4.43856621,9.60003356 C4.64492712,9.59964734 4.80497028,9.60074045 5.01304836,9.60311977 Z" id="Path" fill="#B0B0B0"></path>
        </g>
    </g>
</svg>
