<?xml version="1.0" encoding="UTF-8"?>

<svg width="11px" height="14px" viewBox="0 0 11 14" version="1.1" xmlns="http://www.w3.org/2000/svg" xmlns:xlink="http://www.w3.org/1999/xlink">
    <g id="Page-1" stroke="none" stroke-width="1" fill="none" fill-rule="evenodd">
        <g id="Group-3" transform="translate(0.610483, 0.586288)" fill-rule="nonzero">
            <path d="M9.05315235,6.78966282 C9.04931088,6.94074554 9.04546953,7.09182825 8.99922761,7.29018904 C8.49718071,7.26791977 8.43755936,7.54488836 8.42223506,7.90228542 C7.89958094,7.8328191 7.88482907,8.1402191 7.85926331,8.47395379 C7.65895766,8.47231243 7.50488704,8.47339864 7.29747088,8.47277446 C6.49420681,8.47056068 5.74412964,8.47777458 4.99448681,8.46303299 C4.84501631,8.46009503 4.67635235,8.40307028 4.55393721,8.31748305 C4.4034528,8.21226475 4.29220331,8.05092158 4.16399495,7.91384068 C4.09269066,8.10079797 4.02138648,8.28775864 3.90379902,8.47273311 C3.70256229,8.47196407 3.54760885,8.47318136 3.39172433,8.42712565 C3.46435269,7.91604418 3.17550817,7.87440927 2.82793879,7.85178836 C2.82565608,7.64811706 2.82558704,7.49126362 2.87804286,7.33653774 C3.45933891,7.33726881 3.98810331,7.33586881 4.56489597,7.33647921 C4.77286376,7.34013616 4.93280342,7.34178271 5.0896328,7.39251085 C5.1045502,7.64298599 4.99606625,7.91357175 5.37127032,7.90590271 C5.82750297,7.89657503 6.28407348,7.90368542 6.77639619,7.90368542 C6.77639619,7.67277944 6.77639619,7.50879141 6.77892037,7.34581028 C6.78144455,7.34681718 6.78683077,7.34593785 6.83780376,7.34417582 C7.03586116,7.34169299 7.18502139,7.32478418 7.32965744,7.34325514 C7.78170388,7.40097299 7.99452681,7.2375539 7.9030293,6.71212746 C7.90544309,6.13524181 7.90385687,5.61014983 7.94991258,5.08346463 C8.1564528,5.08243186 8.315358,5.0829922 8.47454591,5.08167153 C8.47482874,5.0797922 8.47109077,5.08045774 8.47222184,5.13319966 C8.47367698,5.54288181 8.49707721,5.90168915 8.46838727,6.25628102 C8.43340071,6.68869096 8.5983128,6.85122215 9.02804173,6.76419186 C9.03643495,6.77265921 9.05315235,6.78966282 9.05315235,6.78966282 Z" id="Path" fill="#873316"></path>
            <path d="M9.05119371,1.11390712 C9.21638173,1.12721582 9.38156975,1.14052633 9.59964806,1.15809718 C9.59964806,2.81664655 9.59964806,4.45935435 9.54788885,6.15552644 C9.34550037,6.21056328 9.19487111,6.21213571 9.04250399,6.16196621 C9.04024874,5.94489661 9.01958648,5.77664814 9.04302806,5.6147878 C9.11024953,5.15064814 8.87781246,5.02705367 8.47109077,5.08045774 C8.47109077,5.08045774 8.47482874,5.0797922 8.47454591,5.03414859 C8.47393902,4.83048429 8.47361495,4.67246362 8.52202919,4.51472565 C8.94368907,4.56625379 9.07577326,4.39359503 9.0428971,4.03428588 C9.02260026,3.81248508 9.03922806,3.58731017 9.03922806,3.36364915 C9.03924184,2.25345243 9.03923495,2.25345243 7.90867766,2.20794158 C7.83901484,1.67967017 8.14762512,1.65384927 8.48635303,1.69329277 C8.91539913,1.74325537 9.11982207,1.59596407 9.02900037,1.13590554 C9.03638659,1.12856068 9.05119371,1.11390712 9.05119371,1.11390712 Z" id="Path" fill="#9F3C1A"></path>
            <path d="M2.82551811,7.33440847 C2.82558704,7.49126362 2.82565608,7.64811706 2.82584483,7.85476418 C2.82597326,7.90455446 2.82118704,7.91004757 2.77498648,7.90787853 C2.57485326,7.90658203 2.42091359,7.90744757 2.2178493,7.90726825 C1.80445167,7.85570215 1.67340885,8.01115209 1.68792625,8.37763548 C1.71145066,8.97143175 1.6945884,9.56682791 1.64618783,10.1623655 C1.21990388,10.2169247 1.11088885,10.0365366 1.12419936,9.67995672 C1.1457858,9.10164 1.1028232,8.52027503 1.13807879,7.94331345 C1.16569631,7.49131887 1.03338794,7.26699559 0.555937888,7.33293254 C0.557930995,7.18174983 0.559920713,7.03056542 0.564055176,6.8258391 C0.566196645,6.77229706 0.580007154,6.75588655 0.625852464,6.7628591 C0.827178792,6.76991774 0.982659809,6.77000395 1.18361032,6.77268328 C1.38195732,6.77454362 1.53483495,6.77381085 1.73578885,6.77389706 C1.94301868,6.77481435 2.10217913,6.77491096 2.30804342,6.77479706 C2.51019744,6.77598508 2.66564049,6.77738508 2.82304218,6.82517525 C2.82516636,7.02584475 2.82534568,7.18012746 2.82551811,7.33440847 Z" id="Path" fill="#9A3919"></path>
            <path d="M8.46893902,7.90068881 C8.43755936,7.54488836 8.49718071,7.26791977 9.00477936,7.33536542 C9.21818173,7.34460339 9.38363879,7.35594486 9.57566851,7.36910712 C9.57566851,8.29014486 9.57566851,9.18687887 9.57566851,10.1224617 C9.41010116,10.1491792 9.25171314,10.1747416 9.09332523,10.2003038 C9.12017382,10.258608 9.14702919,10.3169155 9.17387778,10.3752231 C8.97395145,10.4947795 8.77401823,10.6143394 8.52520862,10.6910437 C8.54566399,10.1829899 8.26808162,10.1256479 7.90891902,10.1165858 C7.87714625,9.75418169 7.97336116,9.54292079 8.33397201,9.60364904 C8.95951687,9.70898814 9.1182841,9.39905017 9.04161427,8.85018203 C9.02375201,8.72230486 9.03604184,8.59021028 9.0361728,8.41348418 C9.11847032,7.88756452 8.82118422,7.8739713 8.47720116,7.91103379 C8.47431145,7.90769582 8.46893902,7.90068881 8.46893902,7.90068881 Z" id="Path" fill="#9F3C1A"></path>
            <path d="M0.559641391,6.78078339 C0.387398114,6.7747626 0.221710092,6.76025209 0.0290355152,6.74337955 C0.0290355152,5.07525254 0.0290355152,3.42623774 0.0290355152,1.73192418 C0.172585346,1.71701548 0.314042069,1.70232395 0.511513255,1.69056859 C0.567520826,1.69350316 0.582327832,1.70814463 0.576141617,1.75741932 C0.568758679,2.14411842 0.567565572,2.48154282 0.565872464,2.87043684 C0.565224216,3.2654687 0.565075967,3.60903288 0.564817323,3.99982689 C0.565562182,4.20617051 0.566420713,4.36528599 0.566334611,4.57646938 C0.567758679,5.15180678 0.570124216,5.67507638 0.570286363,6.24510847 C0.572058792,6.4465452 0.576031221,6.60121593 0.580007154,6.75588655 C0.580007154,6.75588655 0.566196645,6.77229706 0.559641391,6.78078339 Z" id="Path" fill="#9F3C1A"></path>
            <path d="M4.52287472,0.0128845198 C5.05082546,0.00866214689 5.57877608,0.00444135593 6.15992037,0.0526125424 C6.14625823,0.57488904 6.45069608,0.583396045 6.77962376,0.560866441 C6.77934794,0.560604407 6.77879619,0.560082034 6.77897552,0.612856723 C6.78015484,1.19868384 6.78115484,1.73173627 6.78101837,2.31060644 C6.77788591,2.50986215 6.77591337,2.6633035 6.77711348,2.81723966 C6.78028591,2.81773797 6.77495484,2.81401028 6.72392659,2.8164 C6.33090851,2.81402407 5.98891167,2.80925684 5.64790094,2.75937864 C5.64839066,2.56231266 5.64790094,2.41036102 5.69599811,2.25751627 C5.90057269,2.15185299 6.19495529,2.0345948 6.18684489,1.94463175 C6.16148591,1.66358554 6.45679958,1.23842565 5.91311077,1.11787785 C5.82136501,1.09753446 5.67508749,1.00412136 5.67439088,0.9431 C5.66936331,0.500664068 5.36379439,0.55843887 5.03809427,0.560645763 C4.83362297,0.560744068 4.67635235,0.560868249 4.51921269,0.515069379 C4.52051608,0.317062034 4.5216954,0.164972429 4.52287472,0.0128845198 Z" id="Path" fill="#9F3C1A"></path>
            <path d="M0.557782747,7.33443266 C1.03338794,7.26699559 1.16569631,7.49131887 1.13807879,7.94331345 C1.1028232,8.52027503 1.1457858,9.10164 1.12419936,9.67995672 C1.11088885,10.0365366 1.21990388,10.2169247 1.64648444,10.1636414 C1.69536772,10.1641035 1.69616772,10.1663346 1.69537461,10.2177592 C1.6959884,10.6138912 1.6973884,10.9586053 1.69694015,11.3005712 C1.69508489,11.2978263 1.70118851,11.2952435 1.70118851,11.2952435 C1.53566252,11.2868951 1.37013653,11.2785503 1.17683439,11.2687984 C1.14999958,11.0955207 1.12540625,10.9366948 1.10081292,10.7778689 C1.04223981,10.8051347 0.983666702,10.8323971 0.925093707,10.8596628 C0.805899244,10.6630573 0.686708284,10.4664551 0.565217323,10.168869 C0.561703425,9.15594407 0.560482747,8.24399955 0.559265572,7.33205672 C0.559265572,7.33205672 0.559630995,7.33593266 0.557782747,7.33443266 Z" id="Path" fill="#B0411C"></path>
            <path d="M7.34330591,11.8391219 C6.81632071,11.8459427 6.28934252,11.8527635 5.65863213,11.861605 C5.20950309,11.8621739 4.86410614,11.8607188 4.51916433,11.8124664 C4.51814365,11.6103884 4.51666094,11.4551005 4.56271653,11.2994401 C5.07955676,11.3685236 5.1224745,11.082986 5.13193665,10.7306132 C5.33893891,10.7284718 5.49816139,10.7255338 5.70308783,10.7252269 C5.90131755,10.7261062 6.05385721,10.7243511 6.25408693,10.7254993 C6.46106862,10.7288753 6.62034614,10.7293477 6.77854794,10.7772344 C6.69905054,11.3048643 7.01053676,11.3215749 7.34743009,11.3500062 C7.34474727,11.5425497 7.34403009,11.6908341 7.34330591,11.8391219 Z" id="Path" fill="#BB451D"></path>
            <path d="M4.51870229,11.859267 C4.86410614,11.8607188 5.20950309,11.8621739 5.60671427,11.8662981 C5.65437687,12.0204446 5.65023891,12.1719153 5.59133484,12.3729693 C5.19415111,12.4274043 4.85171981,12.4322629 4.50929529,12.4371217 C4.17261574,12.4340285 3.8359293,12.4309389 3.39748998,12.428094 C2.95596094,12.4245008 2.61619857,12.4206663 2.27643619,12.4168284 C2.27056026,12.2606576 2.26468433,12.1044835 2.25292557,11.9028296 C2.24702896,11.8573463 2.24363585,11.8487358 2.29215359,11.8522669 C2.81652489,11.9355782 2.86328399,11.6523234 2.8204215,11.2913293 C2.82264218,11.2912849 2.8244215,11.2953435 2.8712841,11.2951573 C3.0743484,11.2956159 3.23054331,11.2962539 3.38777947,11.3438682 C3.31675111,11.8639912 3.61269235,11.8900949 4.00328975,11.8589946 C4.20631958,11.8596739 4.36251439,11.8594705 4.51870229,11.859267 Z" id="Path" fill="#8C573B"></path>
            <path d="M0.510282182,7.33520678 C0.560482747,8.24399955 0.561703425,9.15594407 0.561614094,10.1215789 C0.395280939,10.1637069 0.230261843,10.1521481 0.0025282836,10.1361998 C0.0025282836,9.27585921 -0.0104958972,8.42576362 0.0225768712,7.57746463 C0.025901052,7.4921878 0.308376532,7.41779729 0.510282182,7.33520678 Z" id="Path" fill="#9F3C1A"></path>
            <path d="M6.78290659,0.0136656497 C7.32119529,0.0136656497 7.8594771,0.0136656497 8.43346964,0.0136656497 C8.45986998,0.192557288 8.48313224,0.350167571 8.50638772,0.507777966 C8.56548489,0.480610395 8.62458207,0.453442825 8.68367936,0.426273559 C8.80319789,0.623977514 8.92271642,0.821679661 9.04671088,1.06664452 C9.05119371,1.11390712 9.03638659,1.12856068 8.97950331,1.12971763 C8.72092105,1.12898825 8.51509811,1.15096949 8.31890975,1.11712949 C8.17963235,1.09310508 7.94370557,1.0003713 7.939278,0.926944633 C7.91291902,0.489795028 7.61229506,0.565402712 7.29798817,0.560647458 C7.09345484,0.560442373 6.93612207,0.560263051 6.77879619,0.560082034 C6.77879619,0.560082034 6.77934794,0.560604407 6.77944444,0.515126328 C6.78067213,0.317653446 6.7817893,0.165660339 6.78290659,0.0136656497 Z" id="Path" fill="#9F3C1A"></path>
            <path d="M7.34939563,11.3057505 C7.01053676,11.3215749 6.69905054,11.3048643 6.77840998,10.7773723 C6.77934794,10.7300959 6.77907213,10.7302373 6.83052094,10.7291442 C7.04679224,10.728358 7.21457348,10.7087577 7.37588557,10.7327443 C7.83764241,10.8014001 7.96309891,10.5723218 7.90915348,10.1653553 C7.90928455,10.1651242 7.90825698,10.1649862 7.90825698,10.1649862 C8.26808162,10.1256479 8.54566399,10.1829899 8.47750467,10.6964438 C8.51338083,11.0929758 8.48306331,11.3862514 7.91273981,11.300585 C7.66217834,11.3010988 7.50578354,11.3034229 7.34939563,11.3057505 Z" id="Path" fill="#8F3517"></path>
            <path d="M1.68294693,0.548628362 C1.69588501,0.384119661 1.70882998,0.21961096 1.72610602,-2.88657986e-15 C2.44179665,-2.88657986e-15 3.14408026,-2.88657986e-15 3.89993687,0.0513298305 C3.9549719,0.253642373 3.95642715,0.404628588 3.9046128,0.557380226 C3.13830083,0.56552339 2.42525857,0.571897627 1.7048919,0.570866554 C1.69756772,0.563464746 1.68294693,0.548628362 1.68294693,0.548628362 Z" id="Path" fill="#9F3C1A"></path>
            <path d="M2.27128444,12.4658703 C2.61619857,12.4206663 2.95596094,12.4245008 3.34721348,12.4326699 C3.38385529,12.6001649 3.36899992,12.7633322 3.35499981,12.9171028 C2.41743778,13.0940531 2.31102275,13.052994 2.27128444,12.4658703 Z" id="Path" fill="#3F3F3F"></path>
            <path d="M4.51374365,12.4845428 C4.85171981,12.4322629 5.19415111,12.4274043 5.58701066,12.4183249 C5.63744568,12.5789646 5.63744568,12.7438285 5.63744568,12.8997406 C4.79392602,13.1122912 4.58824794,13.0408353 4.51374365,12.4845428 Z" id="Path" fill="#3B322F"></path>
            <path d="M7.34743009,11.3500062 C7.50578354,11.3034229 7.66217834,11.3010988 7.86519439,11.3036954 C7.91181563,11.4724111 7.91181563,11.6362094 7.91181563,11.8341944 C7.72537902,11.8426668 7.58185337,11.8491945 7.39081676,11.8474186 C7.34403009,11.6908341 7.34474727,11.5425497 7.34743009,11.3500062 Z" id="Path" fill="#7F7F7F"></path>
            <path d="M9.04424196,6.21370644 C9.19487111,6.21213571 9.34550037,6.21056328 9.54115778,6.20786328 C9.64364851,6.55451706 9.62974489,6.84743243 9.09962184,6.78446441 C9.05315235,6.78966282 9.03643495,6.77265921 9.03486252,6.71973096 C9.03693834,6.51577017 9.0405867,6.3647374 9.04424196,6.21370644 Z" id="Path" fill="#873316"></path>
            <path d="M2.25142207,11.8558946 C2.09444794,11.8544462 1.93308071,11.8544462 1.72135416,11.8544462 C1.71262998,11.6992756 1.70400229,11.5458601 1.69828501,11.3438441 C1.70118851,11.2952435 1.69508489,11.2978263 1.74236128,11.2977425 C1.94125314,11.2995885 2.09287552,11.3015125 2.24994625,11.3487614 C2.25147732,11.5456359 2.24755314,11.6971859 2.24363585,11.8487358 C2.24363585,11.8487358 2.24702896,11.8573463 2.25142207,11.8558946 Z" id="Path" fill="#EFB385"></path>
            <path d="M0.560100035,1.68619955 C0.544748171,1.35344418 0.541779131,1.03220271 1.0783954,1.12554169 C1.13247179,1.12853141 1.14724094,1.14319186 1.14110987,1.18809412 C1.13329258,1.38562734 1.13160286,1.53826 1.08395755,1.69079616 C0.886110543,1.69651525 0.734219131,1.70233085 0.582327832,1.70814463 C0.582327832,1.70814463 0.567520826,1.69350316 0.560100035,1.68619955 Z" id="Path" fill="#9F3C1A"></path>
            <path d="M3.9578754,0.555612994 C3.95642715,0.404628588 3.9549719,0.253642373 3.95229608,0.0577729944 C4.11008399,0.00850870056 4.2690858,0.00412757062 4.47548806,0.00631548023 C4.5216954,0.164972429 4.52051608,0.317062034 4.51939891,0.514855593 C4.51946094,0.560559548 4.52001269,0.560128588 4.47308806,0.560294011 C4.27006512,0.558844068 4.11396681,0.557228475 3.9578754,0.555612994 Z" id="Path" fill="#873316"></path>
            <path d="M6.73551303,0.00719830508 C6.7817893,0.165660339 6.78067213,0.317653446 6.77972037,0.515386667 C6.45069608,0.583396045 6.14625823,0.57488904 6.21196241,0.0593333333 C6.36990896,0.00935344633 6.52901416,0.00504135593 6.73551303,0.00719830508 Z" id="Path" fill="#873316"></path>
            <path d="M1.12506828,1.1212209 C1.1093302,0.787844859 1.10758196,0.467367119 1.63636704,0.553104294 C1.68294693,0.548628362 1.69756772,0.563464746 1.6987815,0.615687797 C1.7662719,1.11770542 1.46817902,1.14372983 1.14724094,1.14319186 C1.14724094,1.14319186 1.13247179,1.12853141 1.12506828,1.1212209 Z" id="Path" fill="#9F3C1A"></path>
            <path d="M7.90227066,5.08505774 C7.90385687,5.61014983 7.90544309,6.13524181 7.85574602,6.71619989 C7.31731246,6.90789684 7.36542342,6.4740852 7.26805676,6.23476701 C6.16456874,6.23476701 5.09762591,6.23476701 3.99926207,6.23476701 C3.96981348,6.41151548 3.94339246,6.57006384 3.91204738,6.75818147 C3.72359698,6.75818147 3.5589745,6.75818147 3.39275891,6.71243785 C3.45678026,6.19192339 3.1509493,6.18668023 2.82046975,6.21258407 C2.82174568,6.21097537 2.82238704,6.21326508 2.8233319,6.16557831 C2.82559393,5.95981921 2.82691122,5.80174847 2.87460139,5.64391051 C3.37278625,5.71764757 3.42193156,5.44266689 3.44307665,5.09261299 C3.83613619,5.08755435 4.17843653,5.08940441 4.52017823,5.13941356 C4.51961958,5.32983977 4.51961958,5.47210689 4.51961958,5.61647921 C4.73904263,5.61647921 4.89804444,5.61647921 5.08315676,5.61647921 C5.08315676,5.42247525 5.08315676,5.25686486 5.131178,5.08735266 C5.56330693,5.12171503 5.75675043,5.00034136 5.58729337,4.54843288 C5.44515393,4.52642915 5.28726941,4.50198757 5.11181235,4.47482689 C5.09866738,4.28597311 5.08727405,4.12224023 5.07878433,3.91072588 C5.08192919,3.70419605 5.08215676,3.54544938 5.13527461,3.38633209 C5.53937563,3.38578554 5.89351744,3.35692147 6.24107303,3.39247186 C6.70742297,3.44017412 6.83641066,3.22764768 6.77495484,2.81401028 C6.77495484,2.81401028 6.78028591,2.81773797 6.82380365,2.81866034 C7.02144715,2.82443107 7.17557303,2.82927774 7.33481619,2.88357492 C7.33978862,3.26645842 7.33964376,3.59989141 7.29204331,3.93947277 C6.78270659,3.83907333 6.77161687,4.19718079 6.72107834,4.50258757 C6.28655631,4.47425966 6.09743009,4.61937503 6.28373563,5.05702124 C6.45386851,5.06874384 6.61724964,5.0799991 6.78006523,5.13941356 C6.77950659,5.32983977 6.77950659,5.47210689 6.77950659,5.61647921 C6.99892964,5.61647921 7.15793145,5.61647921 7.34304376,5.61647921 C7.34304376,5.42247525 7.34304376,5.25686486 7.38952015,5.08736814 C7.59141902,5.0840078 7.74684828,5.08453367 7.90227066,5.08505774 Z" id="Path" fill="#EFB385"></path>
            <path d="M3.95008919,8.47471932 C4.02138648,8.28775864 4.09269066,8.10079797 4.16399495,7.91384068 C4.29220331,8.05092158 4.4034528,8.21226475 4.55393721,8.31748305 C4.67635235,8.40307028 4.84501631,8.46009503 4.99448681,8.46303299 C5.74412964,8.47777458 6.49420681,8.47056068 7.29480196,8.51866463 C7.3479128,8.72019446 7.35035427,8.87412023 7.30503653,9.03082542 C6.79252049,8.96585582 6.73840263,9.24314847 6.72733359,9.6000835 C5.95571811,9.59991446 5.23714467,9.60082825 4.51891608,9.55429672 C4.59844806,9.02515638 4.28450659,9.0122322 3.95042015,8.98114565 C3.95244783,8.78167785 3.95126851,8.62820034 3.95008919,8.47471932 Z" id="Path" fill="#BB451D"></path>
            <path d="M3.39434512,6.75818147 C3.5589745,6.75818147 3.72359698,6.75818147 3.91204738,6.75818147 C3.94339246,6.57006384 3.96981348,6.41151548 3.99926207,6.23476701 C5.09762591,6.23476701 6.16456874,6.23476701 7.26805676,6.23476701 C7.36542342,6.4740852 7.31731246,6.90789684 7.85175981,6.76799356 C7.99452681,7.2375539 7.78170388,7.40097299 7.32965744,7.34325514 C7.18502139,7.32478418 7.03586116,7.34169299 6.8352658,7.29497695 C6.8256519,6.8839104 6.66790535,6.74744508 6.30275653,6.76971435 C5.89517958,6.79456972 5.48238196,6.80373367 5.07647393,6.76771254 C4.62762761,6.72788282 4.45648783,6.90149503 4.51687472,7.33446881 C3.98810331,7.33586881 3.45933891,7.33726881 2.87804286,7.33653774 C2.82534568,7.18012746 2.82516636,7.02584475 2.82708365,6.8211252 C2.82917337,6.77068497 2.83698715,6.76286249 2.88316704,6.76733492 C3.08434851,6.76726429 3.23934331,6.76272282 3.39434512,6.75818147 Z" id="Path" fill="#C1471E"></path>
            <path d="M6.78062388,5.09125435 C6.61724964,5.0799991 6.45386851,5.06874384 6.28373563,5.05702124 C6.09743009,4.61937503 6.28655631,4.47425966 6.72107834,4.50258757 C6.77161687,4.19718079 6.78270659,3.83907333 7.33841619,3.94546249 C7.58767416,3.94337277 7.74310342,3.94144 7.90195348,3.98735944 C7.83686309,4.50186339 8.11993518,4.55216226 8.4749667,4.51611706 C8.47444941,4.51560497 8.47329077,4.51444282 8.47329077,4.51444282 C8.47361495,4.67246362 8.47393902,4.83048429 8.4742632,5.0360296 C8.315358,5.0829922 8.1564528,5.08243186 7.94991258,5.08346463 C7.74684828,5.08453367 7.59141902,5.0840078 7.34275416,5.08293706 C7.09322037,5.08534576 6.93692207,5.08829921 6.78062388,5.09125435 Z" id="Path" fill="#C1471E"></path>
            <path d="M4.56489597,7.33647921 C4.45648783,6.90149503 4.62762761,6.72788282 5.07647393,6.76771254 C5.48238196,6.80373367 5.89517958,6.79456972 6.30275653,6.76971435 C6.66790535,6.74744508 6.8256519,6.8839104 6.7842997,7.2967391 C6.78683077,7.34593785 6.78144455,7.34681718 6.72654738,7.34407232 C6.14535472,7.34202746 5.61905235,7.34272757 5.09274998,7.34342757 C4.93280342,7.34178271 4.77286376,7.34013616 4.56489597,7.33647921 Z" id="Path" fill="#B0411C"></path>
            <path d="M5.0896328,7.39251085 C5.61905235,7.34272757 6.14535472,7.34202746 6.7240232,7.34306542 C6.77639619,7.50879141 6.77639619,7.67277944 6.77639619,7.90368542 C6.28407348,7.90368542 5.82750297,7.89657503 5.37127032,7.90590271 C4.99606625,7.91357175 5.1045502,7.64298599 5.0896328,7.39251085 Z" id="Path" fill="#EBA069"></path>
            <path d="M9.04250399,6.16196621 C9.0405867,6.3647374 9.03693834,6.51577017 9.0264693,6.71126192 C8.5983128,6.85122215 8.43340071,6.68869096 8.46838727,6.25628102 C8.49707721,5.90168915 8.47367698,5.54288181 8.47222184,5.13319966 C8.87781246,5.02705367 9.11024953,5.15064814 9.04302806,5.6147878 C9.01958648,5.77664814 9.04024874,5.94489661 9.04250399,6.16196621 Z" id="Path" fill="#C1471E"></path>
            <path d="M7.90549145,8.47668136 C7.88482907,8.1402191 7.89958094,7.8328191 8.42223506,7.90228542 C8.46893902,7.90068881 8.47431145,7.90769582 8.47504941,7.95643774 C8.47744252,8.15728825 8.47908399,8.30940373 8.47884941,8.50926802 C8.54295359,9.03009096 8.25663326,9.07202249 7.90404998,8.98224904 C7.9070432,8.78305718 7.90627077,8.62986927 7.90549145,8.47668136 Z" id="Path" fill="#B0411C"></path>
            <path d="M2.82806987,7.90157503 C3.17550817,7.87440927 3.46435269,7.91604418 3.3925519,8.42546362 C3.39430365,8.47108136 3.39699337,8.47349864 3.34840659,8.47287107 C3.13817676,8.4695296 2.9765267,8.46681921 2.818918,8.41794282 C2.82236636,8.21786825 2.82177326,8.06395616 2.82118704,7.91004757 C2.82118704,7.91004757 2.82597326,7.90455446 2.82806987,7.90157503 Z" id="Path" fill="#B0411C"></path>
            <path d="M3.90379902,8.47273311 C3.95126851,8.62820034 3.95244783,8.78167785 3.90355755,8.98400079 C3.36966896,9.11707469 3.35935156,8.81485412 3.39699337,8.47349864 C3.39699337,8.47349864 3.39430365,8.47108136 3.39348297,8.47274 C3.54760885,8.47318136 3.70256229,8.47196407 3.90379902,8.47273311 Z" id="Path" fill="#7F7F7F"></path>
            <path d="M7.85926331,8.47395379 C7.90627077,8.62986927 7.9070432,8.78305718 7.85850467,8.98481808 C7.65705416,9.03160825 7.5049215,9.02982542 7.35278874,9.02804271 C7.35035427,8.87412023 7.3479128,8.72019446 7.34814037,8.52038192 C7.50488704,8.47339864 7.65895766,8.47231243 7.85926331,8.47395379 Z" id="Path" fill="#7F7F7F"></path>
            <path d="M7.34520241,0.560673333 C7.61229506,0.565402712 7.91291902,0.489795028 7.939278,0.926944633 C7.94370557,1.0003713 8.17963235,1.09310508 8.31890975,1.11712949 C8.51509811,1.15096949 8.72092105,1.12898825 8.97211698,1.13706249 C9.11982207,1.59596407 8.91539913,1.74325537 8.48635303,1.69329277 C8.14762512,1.65384927 7.83901484,1.67967017 7.90912591,2.20748124 C7.9092432,2.25554203 7.90987766,2.25494034 7.86222885,2.25517141 C7.65508173,2.25672655 7.49558342,2.25804723 7.33825066,2.2581904 C7.34041619,2.25701277 7.33995416,2.26257831 7.34128523,2.20948463 C7.34348523,1.62448339 7.34434727,1.09257921 7.34520241,0.560673333 Z" id="Path" fill="#C1471E"></path>
            <path d="M7.90879484,2.25600237 C9.03923495,2.25345243 9.03924184,2.25345243 9.03922806,3.36364915 C9.03922806,3.58731017 9.02260026,3.81248508 9.0428971,4.03428588 C9.07577326,4.39359503 8.94368907,4.56625379 8.52202919,4.51472565 C8.47329077,4.51444282 8.47444941,4.51560497 8.47453213,4.46322158 C8.47461495,3.89876192 8.47461495,3.38668734 8.47461495,2.82313458 C8.22689495,2.82313458 8.06359665,2.82313458 7.90409133,2.82223277 C7.90787766,2.82133107 7.90544309,2.82873458 7.90687766,2.78070825 C7.90882941,2.57343525 7.90935348,2.41418689 7.90987766,2.25494034 C7.90987766,2.25494034 7.9092432,2.25554203 7.90879484,2.25600237 Z" id="Path" fill="#C1471E"></path>
            <path d="M1.69507111,10.1628276 C1.6945884,9.56682791 1.71145066,8.97143175 1.68792625,8.37763548 C1.67340885,8.01115209 1.80445167,7.85570215 2.21479416,7.95327559 C2.26296704,8.15428475 2.26507744,8.30824158 2.26449811,8.51545424 C2.26033258,9.10295729 2.25884975,9.63720452 2.21066998,10.1680001 C2.00804015,10.1651415 1.85210738,10.165738 1.69616772,10.1663346 C1.69616772,10.1663346 1.69536772,10.1641035 1.69507111,10.1628276 Z" id="Path" fill="#BB451D"></path>
            <path d="M2.26718094,8.46219853 C2.26507744,8.30824158 2.26296704,8.15428475 2.26391879,7.95432045 C2.42091359,7.90744757 2.57485326,7.90658203 2.77498648,7.90787853 C2.82177326,8.06395616 2.82236636,8.21786825 2.77329687,8.42008768 C2.57148772,8.4663296 2.41933427,8.46426407 2.26718094,8.46219853 Z" id="Path" fill="#7F7F7F"></path>
            <path d="M0.625852464,6.7628591 C0.576031221,6.60121593 0.572058792,6.4465452 0.615590318,6.24935333 C0.814720035,6.21199266 0.966345911,6.2171548 1.1227545,6.26782599 C1.13107179,6.46558678 1.13460636,6.61783853 1.13814083,6.77009017 C0.982659809,6.77000395 0.827178792,6.76991774 0.625852464,6.7628591 Z" id="Path" fill="#C1471E"></path>
            <path d="M1.18361032,6.77268328 C1.13460636,6.61783853 1.13107179,6.46558678 1.12892354,6.26155695 C1.13031314,6.20977706 1.14270648,6.19728904 1.1873345,6.20181842 C1.38236422,6.20570633 1.53276591,6.20506328 1.68788489,6.25177243 C1.69096761,6.45710915 1.68934004,6.61509186 1.68770557,6.77307638 C1.53483495,6.77381085 1.38195732,6.77454362 1.18361032,6.77268328 Z" id="Path" fill="#EBA069"></path>
            <path d="M1.73578885,6.77389706 C1.68934004,6.61509186 1.69096761,6.45710915 1.69371947,6.25573797 C1.69484354,6.2123513 1.70776783,6.21802023 1.75397529,6.21558927 C1.95476365,6.21156328 2.10934467,6.20996847 2.26270501,6.20926328 C2.26149122,6.21015299 2.26118083,6.20788915 2.26044975,6.25522927 C2.26025665,6.46005051 2.26079461,6.61752983 2.26133258,6.77500915 C2.10217913,6.77491096 1.94301868,6.77481435 1.73578885,6.77389706 Z" id="Path" fill="#873316"></path>
            <path d="M2.30804342,6.77479706 C2.26079461,6.61752983 2.26025665,6.46005051 2.3071745,6.25631209 C2.51055597,6.21112542 2.66646806,6.21219435 2.82238704,6.21326508 C2.82238704,6.21326508 2.82174568,6.21097537 2.82238704,6.25836554 C2.82768365,6.45812463 2.83233201,6.61049356 2.83698715,6.76286249 C2.83698715,6.76286249 2.82917337,6.77068497 2.8251319,6.77473503 C2.66564049,6.77738508 2.51019744,6.77598508 2.30804342,6.77479706 Z" id="Path" fill="#C1471E"></path>
            <path d="M7.30502964,9.03082542 C7.5049215,9.02982542 7.65705416,9.03160825 7.85473913,9.03082203 C8.25663326,9.07202249 8.54295359,9.03009096 8.52484309,8.51238181 C8.72662455,8.46518475 8.88054354,8.4626226 9.03445563,8.46005706 C9.03604184,8.59021028 9.02375201,8.72230486 9.04161427,8.85018203 C9.1182841,9.39905017 8.95951687,9.70898814 8.33397201,9.60364904 C7.97336116,9.54292079 7.87714625,9.75418169 7.90891902,10.1165858 C7.90825698,10.1649862 7.90928455,10.1651242 7.86183574,10.1647586 C7.66055077,10.1012959 7.37734071,10.0444608 7.37393382,9.97408068 C7.35233359,9.52772407 7.04499913,9.60955593 6.77876862,9.59957311 C6.77925145,9.60002825 6.78036173,9.60117311 6.78036173,9.60117311 C6.73840263,9.24314847 6.79252049,8.96585582 7.30502964,9.03082542 Z" id="Path" fill="#873316"></path>
            <path d="M9.0361728,8.41348757 C8.88054354,8.4626226 8.72662455,8.46518475 8.52671891,8.4646296 C8.47908399,8.30940373 8.47744252,8.15728825 8.47794602,7.95977571 C8.82118422,7.8739713 9.11847032,7.88756452 9.0361728,8.41348757 Z" id="Path" fill="#7F7F7F"></path>
            <path d="M0.564927606,3.95259706 C0.565075967,3.60903288 0.565224216,3.2654687 0.612928171,2.87097819 C0.817613142,2.82008282 0.974735628,2.82011559 1.18437585,2.82027073 C1.77025133,2.82334486 2.30362275,2.82629661 2.83255958,2.87579198 C2.82104907,3.07815288 2.81397314,3.23397356 2.75549665,3.38840452 C2.20307676,3.38701492 1.70205744,3.38701492 1.17115156,3.38701492 C1.1529893,3.61955718 1.14016162,3.78385379 1.08049201,3.94956938 C0.87741043,3.95152113 0.721167267,3.9520591 0.564927606,3.95259706 Z" id="Path" fill="#B0411C"></path>
            <path d="M1.12414071,6.2160461 C0.966345911,6.2171548 0.814720035,6.21199266 0.617790318,6.20258734 C0.570124216,5.67507638 0.567758679,5.15180678 0.612597097,4.57272621 C0.814640713,4.51410667 0.969480374,4.51129977 1.1259545,4.56165718 C1.13263043,5.14231017 1.1376684,5.66979876 1.14270648,6.19728904 C1.14270648,6.19728904 1.13031314,6.20977706 1.12414071,6.2160461 Z" id="Path" fill="#EBA069"></path>
            <path d="M1.1318615,2.82014836 C0.974735628,2.82011559 0.817613142,2.82008282 0.613431673,2.81950859 C0.567565572,2.48154282 0.568758679,2.14411842 0.576141617,1.75741932 C0.734219131,1.70233085 0.886110543,1.69651525 1.08381608,1.69061644 C1.12963043,1.69054791 1.12934772,1.69023751 1.12943732,1.73766395 C1.1306615,1.94350418 1.13179597,2.10191797 1.13192704,2.30697887 C1.13123393,2.50913277 1.13154772,2.66464147 1.1318615,2.82014836 Z" id="Path" fill="#C1471E"></path>
            <path d="M1.12432004,4.50849277 C0.969480374,4.51129977 0.814640713,4.51410667 0.613538566,4.52065672 C0.566420713,4.36528599 0.565562182,4.20617051 0.564817323,3.99982689 C0.721167267,3.9520591 0.87741043,3.95152113 1.08138512,3.9504591 C1.12912004,3.94993141 1.13078907,3.95159695 1.13032704,3.99823887 C1.12750286,4.20020667 1.12514761,4.35553424 1.12447179,4.51173254 C1.126158,4.51260316 1.12432004,4.50849277 1.12432004,4.50849277 Z" id="Path" fill="#873316"></path>
            <path d="M5.08528783,0.560671638 C5.36379439,0.55843887 5.66936331,0.500664068 5.67439088,0.9431 C5.67508749,1.00412136 5.82136501,1.09753446 5.91311077,1.11787785 C6.45679958,1.23842565 6.16148591,1.66358554 6.18684489,1.94463175 C6.19495529,2.0345948 5.90057269,2.15185299 5.64925958,2.25632825 C5.39764998,2.25565073 5.24135857,2.2552696 5.08487405,2.20225876 C5.08487405,1.6199765 5.08508094,1.09032407 5.08528783,0.560671638 Z" id="Path" fill="#C1471E"></path>
            <path d="M6.72392659,2.8164 C6.83641066,3.22764768 6.70742297,3.44017412 6.24107303,3.39247186 C5.89351744,3.35692147 5.53937563,3.38578554 5.13625393,3.38634938 C5.08432919,3.3867391 5.08294987,3.38834249 5.08348094,3.34039028 C5.08593619,3.13282938 5.08787416,2.97322237 5.13624015,2.81638791 C5.33742173,2.81427062 5.49216817,2.8093809 5.64692162,2.80449119 C5.98891167,2.80925684 6.33090851,2.81402407 6.72392659,2.8164 Z" id="Path" fill="#EBA069"></path>
            <path d="M7.29798817,0.560647458 C7.34434727,1.09257921 7.34348523,1.62448339 7.29496738,2.20655706 C7.09225484,2.25941277 6.93720489,2.26210249 6.78214794,2.2647922 C6.78115484,1.73173627 6.78015484,1.19868384 6.77897552,0.612856723 C6.93612207,0.560263051 7.09345484,0.560442373 7.29798817,0.560647458 Z" id="Path" fill="#873316"></path>
            <path d="M5.03808738,0.560645763 C5.08508094,1.09032407 5.08488094,1.6199765 5.08443958,2.20268802 C5.08420512,2.25574723 5.08319133,2.25676102 5.03659766,2.25626791 C4.83493337,2.25022475 4.67986275,2.24467299 4.52308851,2.18750859 C4.52092297,1.61063842 4.52046783,1.08538429 4.52001269,0.560128588 C4.52001269,0.560128588 4.51946094,0.560559548 4.51926783,0.560775141 C4.67635235,0.560868249 4.83362297,0.560744068 5.03808738,0.560645763 Z" id="Path" fill="#873316"></path>
            <path d="M5.64790094,2.75937695 C5.49216817,2.8093809 5.33742173,2.81427062 5.13549529,2.81842237 C5.0883293,2.81768452 5.09144659,2.81585684 5.08874998,2.76934949 C5.08510162,2.5674835 5.08414309,2.41212136 5.08319133,2.25676102 C5.08319133,2.25676102 5.08420512,2.25574723 5.08463958,2.25531401 C5.24135857,2.2552696 5.39764998,2.25565073 5.60067292,2.25721966 C5.64790094,2.41036102 5.64839066,2.56231266 5.64790094,2.75937695 Z" id="Path" fill="#873316"></path>
            <path d="M6.78100309,2.31060644 C6.93720489,2.26210249 7.09225484,2.25941277 7.29362953,2.25965073 C7.33995416,2.26257831 7.34041619,2.25701277 7.34157484,2.30417537 C7.34667834,2.50430689 7.3506232,2.65727751 7.34839563,2.81626554 C7.34222309,2.82228282 7.3296919,2.8341226 7.3296919,2.8341226 C7.17557303,2.82927774 7.02144715,2.82443107 6.820638,2.81816384 C6.77591337,2.6633035 6.77788591,2.50986215 6.78100309,2.31060644 Z" id="Path" fill="#EBA069"></path>
            <path d="M1.69537461,10.2177592 C1.85210738,10.165738 2.00804015,10.1651415 2.21093891,10.2146488 C2.17442817,10.7335546 2.4786867,10.7551203 2.81484907,10.7900553 C2.82057326,10.9890023 2.82249744,11.1421729 2.8244215,11.2953435 C2.8244215,11.2953435 2.82264218,11.2912849 2.77280026,11.2925918 C2.56346693,11.2970815 2.40398241,11.3002608 2.244491,11.3034367 C2.09287552,11.3015125 1.94125314,11.2995885 1.74421653,11.3004919 C1.6973884,10.9586053 1.6959884,10.6138912 1.69537461,10.2177592 Z" id="Path" fill="#3F3F3F"></path>
            <path d="M4.51856433,9.60174215 C5.23714467,9.60082825 5.95571811,9.59991446 6.72733359,9.6000835 C6.78036173,9.60117311 6.77925145,9.60002825 6.77987213,9.65099435 C6.78001687,10.0447159 6.77954105,10.3874783 6.77907213,10.7302373 C6.77907213,10.7302373 6.77934794,10.7300959 6.77948591,10.729958 C6.62034614,10.7293477 6.46106862,10.7288753 6.25690083,10.678485 C6.26014907,10.2202558 6.10214738,10.0748198 5.65739077,10.233625 C5.65739077,10.3954406 5.65739077,10.5590182 5.65739077,10.7225958 C5.49816139,10.7255338 5.33893891,10.7284718 5.13207461,10.7307511 C5.08443269,10.7300959 5.08470851,10.7302373 5.08386715,10.6829885 C5.01855608,10.4827519 4.96154173,10.2019591 4.88839608,10.1976936 C4.44147382,10.1716174 4.52159891,9.86976576 4.52032987,9.59951107 C4.51950229,9.59985582 4.51856433,9.60174215 4.51856433,9.60174215 Z" id="Path" fill="#873316"></path>
            <path d="M2.8712841,11.2951573 C2.82249744,11.1421729 2.82057326,10.9890023 2.81998015,10.7846896 C2.82131122,10.7335477 2.83170433,10.7229303 2.88384286,10.7263821 C3.65222376,10.7299684 4.36846614,10.7301028 5.08470851,10.7302373 C5.08470851,10.7302373 5.08443269,10.7300959 5.08429472,10.729958 C5.1224745,11.082986 5.07955676,11.3685236 4.51682648,11.297385 C4.26969958,11.298047 4.11599439,11.300385 3.91441292,11.2995574 C3.70660365,11.2965608 3.54667778,11.2967263 3.38674501,11.2968919 C3.23054331,11.2962539 3.0743484,11.2956159 2.8712841,11.2951573 Z" id="Path" fill="#8F3517"></path>
            <path d="M5.70308783,10.7252269 C5.65739077,10.5590182 5.65739077,10.3954406 5.65739077,10.233625 C6.10214738,10.0748198 6.26014907,10.2202558 6.20920376,10.6755816 C6.05385721,10.7243511 5.90131755,10.7261062 5.70308783,10.7252269 Z" id="Path" fill="#7F7F7F"></path>
            <path d="M3.9622893,11.3027229 C4.11599439,11.300385 4.26969958,11.298047 4.46929484,11.2977608 C4.51666094,11.4551005 4.51814365,11.6103884 4.51916433,11.8124699 C4.36251439,11.8594705 4.20631958,11.8596739 4.00257246,11.8126527 C3.95743405,11.6111919 3.95986162,11.4569591 3.9622893,11.3027229 Z" id="Path" fill="#7F7F7F"></path>
            <path d="M3.91441292,11.2995574 C3.95986162,11.4569591 3.95743405,11.6111919 3.95573054,11.8117699 C3.61269235,11.8900949 3.31675111,11.8639912 3.38777947,11.3438682 C3.54667778,11.2967263 3.70660365,11.2965608 3.91441292,11.2995574 Z" id="Path" fill="#C1471E"></path>
            <path d="M2.24994625,11.3487614 C2.40398241,11.3002608 2.56346693,11.2970815 2.77058648,11.2926366 C2.86328399,11.6523234 2.81652489,11.9355782 2.29215359,11.8522669 C2.24755314,11.6971859 2.25147732,11.5456359 2.24994625,11.3487614 Z" id="Path" fill="#6A4933"></path>
            <path d="M6.83052094,10.7291442 C6.77954105,10.3874783 6.78001687,10.0447159 6.7793893,9.65053571 C7.04499913,9.60955593 7.35233359,9.52772407 7.37393382,9.97408068 C7.37734071,10.0444608 7.66055077,10.1012959 7.86170467,10.1649931 C7.96309891,10.5723218 7.83764241,10.8014001 7.37588557,10.7327443 C7.21457348,10.7087577 7.04679224,10.728358 6.83052094,10.7291442 Z" id="Path" fill="#BB451D"></path>
            <path d="M4.47308806,0.560294011 C4.52046783,1.08538429 4.52092297,1.61063842 4.47570874,2.19343966 C4.27131337,2.24795062 4.11258749,2.24491605 3.95438568,2.19568972 C4.02538648,1.68063051 3.7267832,1.66371831 3.39148987,1.64190599 C3.4596354,0.987379774 3.01454094,1.15747311 2.69302704,1.12329684 C2.22450455,1.07349458 2.24647032,1.38149277 2.20826297,1.69054791 C1.81441043,1.69044441 1.47188252,1.69034102 1.12934772,1.69023751 C1.12934772,1.69023751 1.12963043,1.69054791 1.12977179,1.69072034 C1.13160286,1.53826 1.13329258,1.38562734 1.14110987,1.18809412 C1.46817902,1.14372983 1.7662719,1.11770542 1.7061058,0.623091299 C2.42525857,0.571897627 3.13830083,0.56552339 3.9046128,0.557370295 C4.11396681,0.557228475 4.27006512,0.558844068 4.47308806,0.560294011 Z" id="Path" fill="#C1471E"></path>
            <path d="M4.52073687,5.09125435 C4.17843653,5.08940441 3.83613619,5.08755435 3.39658648,5.08708023 C3.14360433,5.08386644 2.98787857,5.07927672 2.82866987,5.02818124 C2.82611811,4.82515831 2.8270354,4.66863763 2.82614568,4.51387729 C2.82433879,4.51563593 2.82080083,4.51914814 2.86833924,4.51784113 C3.38894501,4.59909729 3.42261439,4.30674746 3.43787665,3.95589356 C3.63905811,3.95692124 3.79384602,3.96117119 3.95095122,4.01140113 C4.05537992,4.20758429 4.15750523,4.35778938 4.25962354,4.50799277 C4.34723834,4.32434938 4.43484625,4.14070938 4.52046783,3.95229356 C4.51847472,3.94752113 4.51587472,3.93750542 4.56264761,3.94129175 C4.76489811,3.9495539 4.92038953,3.95403153 5.07587393,3.95850746 C5.08727405,4.12224023 5.09866738,4.28597311 5.11181235,4.47482689 C5.28726941,4.50198757 5.44515393,4.52642915 5.58729337,4.54843288 C5.75675043,5.00034136 5.56330693,5.12171503 5.08441891,5.08291977 C4.83333337,5.08534576 4.67703506,5.0883009 4.52073687,5.09125435 Z" id="Path" fill="#C1471E"></path>
            <path d="M2.82795258,4.51211695 C2.8270354,4.66863763 2.82611811,4.82515831 2.82675947,5.07562667 C2.82829054,5.3276087 2.82826297,5.48564328 2.82822851,5.64367605 C2.82691122,5.80174847 2.82559393,5.95981921 2.8233319,6.16557831 C2.66646806,6.21219435 2.51055597,6.21112542 2.30790546,6.20897186 C2.26118083,6.20788915 2.26149122,6.21015299 2.26113258,6.15665062 C2.26076704,5.58939955 2.26076704,5.07565254 2.26076704,4.54130701 C2.49874207,4.52906023 2.66334388,4.5205878 2.82795258,4.51211695 Z" id="Path" fill="#EBA069"></path>
            <path d="M7.89853269,3.93950893 C7.74310342,3.94144 7.58767416,3.94337277 7.3858719,3.93931412 C7.33964376,3.59989141 7.33978862,3.26645842 7.33481619,2.88357492 C7.3296919,2.8341226 7.34222309,2.82228282 7.39384433,2.82048452 C7.59879145,2.82203627 7.75211732,2.82538452 7.90544309,2.82873458 C7.90544309,2.82873458 7.90787766,2.82133107 7.90755348,2.87300237 C7.90432591,3.26295141 7.9014293,3.60123107 7.89853269,3.93950893 Z" id="Path" fill="#EBA069"></path>
            <path d="M2.87460139,5.64391051 C2.82826297,5.48564328 2.82829054,5.3276087 2.83022851,5.12213062 C2.98787857,5.07927672 3.14360433,5.08386644 3.34582037,5.09398893 C3.42193156,5.44266689 3.37278625,5.71764757 2.87460139,5.64391051 Z" id="Path" fill="#C89574"></path>
            <path d="M6.78006523,5.13941356 C6.93692207,5.08829921 7.09322037,5.08534576 7.29627778,5.08682328 C7.34304376,5.25686486 7.34304376,5.42247525 7.34304376,5.61647921 C7.15793145,5.61647921 6.99892964,5.61647921 6.77950659,5.61647921 C6.77950659,5.47210689 6.77950659,5.32983977 6.78006523,5.13941356 Z" id="Path" fill="#000000"></path>
            <path d="M4.52017823,5.13941356 C4.67703506,5.0883009 4.83333337,5.08534576 5.03639077,5.08682328 C5.08315676,5.25686486 5.08315676,5.42247525 5.08315676,5.61647921 C4.89804444,5.61647921 4.73904263,5.61647921 4.51961958,5.61647921 C4.51961958,5.47210689 4.51961958,5.32983977 4.52017823,5.13941356 Z" id="Path" fill="#000000"></path>
            <path d="M2.88316704,6.76733492 C2.83233201,6.61049356 2.82768365,6.45812463 2.82111111,6.25997424 C3.1509493,6.18668023 3.45678026,6.19192339 3.39275891,6.71243785 C3.23934331,6.76272282 3.08434851,6.76726429 2.88316704,6.76733492 Z" id="Path" fill="#EBA069"></path>
            <path d="M5.07878433,3.91072588 C4.92038953,3.95403153 4.76489811,3.9495539 4.56404071,3.89537401 C4.4516119,3.37840791 4.74745653,3.35891458 5.08294987,3.38834249 C5.08294987,3.38834249 5.08432919,3.3867391 5.08335687,3.38672011 C5.08215676,3.54544938 5.08192919,3.70419605 5.07878433,3.91072588 Z" id="Path" fill="#C89574"></path>
            <path d="M2.81617314,10.7389132 C2.4786867,10.7551203 2.17442817,10.7335546 2.25762907,10.2180972 C2.25884975,9.63720452 2.26033258,9.10295729 2.26449811,8.51545424 C2.41933427,8.46426407 2.57148772,8.4663296 2.76926229,8.46625367 C2.9765267,8.46681921 3.13817676,8.4695296 3.34840659,8.47287107 C3.35935156,8.81485412 3.36966896,9.11707469 3.90036444,9.02998757 C4.28450659,9.0122322 4.59844806,9.02515638 4.51891608,9.55429672 C4.51856433,9.60174215 4.51950229,9.59985582 4.47289495,9.60091797 C4.27292715,9.6688704 4.10418049,9.71409853 3.97065484,9.80892373 C3.8446397,9.89841435 3.75569393,10.0400884 3.65043755,10.1588103 C3.56069868,10.0437711 3.48320128,9.91553525 3.37757246,9.81763412 C3.28353698,9.73047107 3.16041145,9.63073898 3.04617574,9.62566994 C2.97671981,9.62258712 2.84573902,9.78328203 2.83640094,9.87952452 C2.80936625,10.1581896 2.82986987,10.4414652 2.83170433,10.7229303 C2.83170433,10.7229303 2.82131122,10.7335477 2.81617314,10.7389132 Z" id="Path" fill="#8F3517"></path>
            <path d="M7.90195348,3.98735944 C7.9014293,3.60123107 7.90432591,3.26295141 7.90376037,2.87390407 C8.06359665,2.82313458 8.22689495,2.82313458 8.47461495,2.82313458 C8.47461495,3.38668734 8.47461495,3.89876192 8.47504941,4.46373367 C8.11993518,4.55216226 7.83686309,4.50186339 7.90195348,3.98735944 Z" id="Path" fill="#873316"></path>
            <path d="M7.90687766,2.78070825 C7.75211732,2.82538452 7.59879145,2.82203627 7.40001687,2.81446723 C7.3506232,2.65727751 7.34667834,2.50430689 7.3394093,2.3053513 C7.49558342,2.25804723 7.65508173,2.25672655 7.86222885,2.25517141 C7.90935348,2.41418689 7.90882941,2.57343525 7.90687766,2.78070825 Z" id="Path" fill="#9F3C1A"></path>
            <path d="M1.1873345,6.20181842 C1.1376684,5.66979876 1.13263043,5.14231017 1.1259545,4.56165548 C1.12432004,4.50849277 1.126158,4.51260316 1.17116196,4.5132635 C1.37028828,4.51592734 1.52442094,4.51793085 1.68438828,4.5720452 C1.69607111,5.15544475 1.70191947,5.68673333 1.70776783,6.21802023 C1.70776783,6.21802023 1.69484354,6.2123513 1.68900207,6.20838565 C1.53276591,6.20506328 1.38236422,6.20570633 1.1873345,6.20181842 Z" id="Path" fill="#EFB385"></path>
            <path d="M1.75397529,6.21558927 C1.70191947,5.68673333 1.69607111,5.15544475 1.69036071,4.52542407 C1.68819518,4.27129367 1.68589868,4.11589367 1.73520263,3.95748328 C2.12706218,3.95125559 2.46732105,3.9480435 2.81327665,3.99239401 C2.81958015,4.19968599 2.82019393,4.35941706 2.82080083,4.51914814 C2.82080083,4.51914814 2.82433879,4.51563593 2.82614568,4.51387559 C2.66334388,4.5205878 2.49874207,4.52906023 2.26076704,4.54130701 C2.26076704,5.07565254 2.26076704,5.58939955 2.26234636,6.15576102 C2.10934467,6.20996847 1.95476365,6.21156328 1.75397529,6.21558927 Z" id="Path" fill="#C1471E"></path>
            <path d="M1.18437585,2.82027073 C1.13154772,2.66464147 1.13123393,2.50913277 1.18448275,2.30524949 C1.9594258,2.25743864 2.68081303,2.25800249 3.39729687,2.30480983 C3.38909676,2.50598791 3.38580015,2.66092418 3.38415879,2.81681209 C3.38581393,2.81776723 3.38417947,2.8135913 3.33856512,2.81612407 C3.14095608,2.82218621 2.98897506,2.82571729 2.83698715,2.82924667 C2.30362275,2.82629661 1.77025133,2.82334486 1.18437585,2.82027073 Z" id="Path" fill="#873316"></path>
            <path d="M2.83255958,2.87579028 C2.98897506,2.82571729 3.14095608,2.82218621 3.3401928,2.86810576 C3.38879326,3.26474282 3.39014501,3.61192768 3.39149676,3.95911435 C3.42261439,4.30674746 3.38894501,4.59909729 2.86833924,4.51784113 C2.82019393,4.35941706 2.81958015,4.19968599 2.81966975,3.94641073 C2.81588354,3.69850972 2.81139382,3.54415107 2.80689721,3.38979254 C2.81397314,3.23397356 2.82104907,3.07815288 2.83255958,2.87579028 Z" id="Path" fill="#EBA069"></path>
            <path d="M2.75549665,3.38840452 C2.81139382,3.54415107 2.81588354,3.69850972 2.81398004,3.89884983 C2.46732105,3.9480435 2.12706218,3.95125559 1.68941597,3.95348497 C1.43828207,3.95220045 1.28453563,3.95189876 1.13078907,3.95159695 C1.13078907,3.95159695 1.12912004,3.94993141 1.12822354,3.94904181 C1.14016162,3.78385379 1.1529893,3.61955718 1.17115156,3.38701492 C1.70205744,3.38701492 2.20307676,3.38701492 2.75549665,3.38840452 Z" id="Path" fill="#873316"></path>
            <path d="M3.40220037,2.25856621 C2.68081303,2.25800249 1.9594258,2.25743864 1.18548625,2.25860249 C1.13179597,2.10191797 1.1306615,1.94350418 1.12943732,1.73766395 C1.47188252,1.69034102 1.81441043,1.69044441 2.2596084,1.69054791 C2.70572365,1.69047898 3.04918263,1.69040994 3.39263472,1.69034102 C3.7267832,1.66371831 4.02538648,1.68063051 3.90858523,2.20193627 C3.70890026,2.25577141 3.55555371,2.25716791 3.40220037,2.25856621 Z" id="Path" fill="#B0411C"></path>
            <path d="M1.13032704,3.99823887 C1.28453563,3.95189876 1.43828207,3.95220045 1.6378154,3.95649706 C1.68589868,4.11589367 1.68819518,4.27129367 1.68451936,4.47331311 C1.52442094,4.51793085 1.37028828,4.51592734 1.16947574,4.51239288 C1.12514761,4.35553424 1.12750286,4.20020667 1.13032704,3.99823887 Z" id="Path" fill="#EBA069"></path>
            <path d="M3.43787665,3.95589356 C3.39014501,3.61192768 3.38879326,3.26474282 3.38580704,2.86557469 C3.38417947,2.8135913 3.38581393,2.81776723 3.43726275,2.81835006 C4.02295891,2.81790859 4.55719924,2.81688271 5.09144659,2.81585684 C5.09144659,2.81585684 5.0883293,2.81768452 5.08906727,2.81564994 C5.08787416,2.97322237 5.08593619,3.13282938 5.08348094,3.34039028 C4.74745653,3.35891458 4.4516119,3.37840791 4.51727472,3.89158768 C4.51587472,3.93750542 4.51847472,3.94752113 4.47268806,3.94939864 C4.26747879,3.95599017 4.10806331,3.96070576 3.94864083,3.96542124 C3.79384602,3.96117119 3.63905811,3.95692124 3.43787665,3.95589356 Z" id="Path" fill="#EFB385"></path>
            <path d="M5.08874998,2.76934949 C4.55719924,2.81688271 4.02295891,2.81790859 3.43560761,2.8173948 C3.38580015,2.66092418 3.38909676,2.50598791 3.39729687,2.30480983 C3.55555371,2.25716791 3.70890026,2.25577141 3.90806105,2.24812644 C4.11258749,2.24491605 4.27131337,2.24795062 4.47741913,2.24505401 C4.67986275,2.24467299 4.83493337,2.25022475 5.03659077,2.25626791 C5.08414309,2.41212136 5.08510162,2.5674835 5.08874998,2.76934949 Z" id="Path" fill="#EBA069"></path>
            <path d="M2.88384286,10.7263821 C2.82986987,10.4414652 2.80936625,10.1581896 2.83640094,9.87952452 C2.84573902,9.78328203 2.97671981,9.62258712 3.04617574,9.62566994 C3.16041145,9.63073898 3.28353698,9.73047107 3.37757246,9.81763412 C3.48320128,9.91553525 3.56069868,10.0437711 3.65043755,10.1588103 C3.75569393,10.0400884 3.8446397,9.89841435 3.97065484,9.80892373 C4.10418049,9.71409853 4.27292715,9.6688704 4.47372941,9.60057311 C4.52159891,9.86976576 4.44147382,10.1716174 4.88839608,10.1976936 C4.96154173,10.2019591 5.01855608,10.4827519 5.08386715,10.6829885 C4.36846614,10.7301028 3.65222376,10.7299684 2.88384286,10.7263821 Z" id="Path" fill="#BB451D"></path>
            <path d="M3.39148987,1.64190599 C3.04918263,1.69040994 2.70572365,1.69047898 2.31092625,1.69054791 C2.24647032,1.38149277 2.22450455,1.07349458 2.69302704,1.12329684 C3.01454094,1.15747311 3.4596354,0.987379774 3.39148987,1.64190599 Z" id="Path" fill="#9F3C1A"></path>
            <path d="M3.95095122,4.01140113 C4.10806331,3.96070576 4.26747879,3.95599017 4.47467427,3.95417288 C4.43484625,4.14070938 4.34723834,4.32434938 4.25962354,4.50799277 C4.15750523,4.35778938 4.05537992,4.20758429 3.95095122,4.01140113 Z" id="Path" fill="#CE6A39"></path>
        </g>
    </g>
</svg>
