<?xml version="1.0" encoding="UTF-8"?>

<svg width="12px" height="14px" viewBox="0 0 12 14" version="1.1" xmlns="http://www.w3.org/2000/svg" xmlns:xlink="http://www.w3.org/1999/xlink">
    <g id="Page-1" stroke="none" stroke-width="1" fill="none" fill-rule="evenodd">
        <g id="Group-10" transform="translate(0.263318, 0.399617)" fill-rule="nonzero">
            <path d="M1.65465785,0.529997062 C1.66442181,0.361982486 1.67418395,0.19396791 1.6854548,4.4408921e-16 C4.11235401,4.4408921e-16 6.53316169,4.4408921e-16 9.01475638,4.4408921e-16 C9.01475638,0.149143051 9.01475638,0.291537288 8.9717748,0.485006215 C8.76810023,0.537262034 8.60740881,0.538442599 8.39548056,0.539205085 C8.17973684,0.538682486 8.01243672,0.557982034 7.85124701,0.534789605 C7.39077638,0.468535367 7.26445424,0.696555593 7.27254576,1.10359107 C7.07631605,1.05541209 6.80467853,1.01964147 6.79814915,0.956472203 C6.73303288,0.326404068 6.26082429,0.576389605 5.93808621,0.552966328 C5.84212486,0.546001356 5.6658522,0.691818644 5.65155887,0.786524633 C5.63776734,0.877908249 5.78337932,0.995312768 5.86280949,1.09832169 C5.96907966,1.23613785 6.18602339,1.38569977 6.16975605,1.50487051 C6.0770826,2.1837478 6.41706215,2.31679028 6.98280463,2.23457164 C7.09291966,2.21856847 7.20751051,2.23337209 7.3193652,2.2807722 C7.3180687,2.48382621 7.31744113,2.64007446 7.26434395,2.79699139 C6.68307548,2.7971852 6.1542748,2.79675379 5.62488452,2.74753254 C5.6788765,2.32761062 5.50974011,2.21190463 5.15065684,2.22715175 C4.55721582,2.25234994 3.96214203,2.23908768 3.36660441,2.19416904 C3.36491638,1.98673141 3.36438023,1.82715819 3.41661186,1.66772362 C3.88068588,1.66752452 4.2934939,1.68662249 4.70237774,1.65499164 C4.8248791,1.6455148 4.9364252,1.49443073 5.05299028,1.40822249 C4.97157209,1.30729073 4.89801955,1.19843593 4.80654271,1.10763797 C4.7135313,1.01531729 4.53657932,0.95748904 4.51093593,0.855698757 C4.36997921,0.296164746 3.93397616,0.591032203 3.6376487,0.57163887 C3.55770136,0.566406328 3.45456565,0.915503503 3.31491932,1.10230836 C3.11491887,1.03839492 2.83488124,0.982362147 2.83010023,0.90851435 C2.8014826,0.466337514 2.50163107,0.542644181 2.18763966,0.539581243 C1.99743932,0.543035819 1.85144113,0.547096836 1.69342904,0.544232994 C1.68141333,0.53730791 1.65465785,0.529997062 1.65465785,0.529997062 Z" id="Path" fill="#AEAEAE"></path>
            <path d="M0.526345424,6.7652626 C0.359300565,6.75572723 0.192256384,6.74619175 7.21644966e-16,6.73521661 C7.21644966e-16,5.06115164 7.21644966e-16,3.39770994 7.21644966e-16,1.68556215 C0.145368814,1.67908023 0.287046215,1.67276294 0.488451977,1.67193356 C0.548181921,1.67742158 0.569009718,1.69804983 0.559976836,1.7460913 C0.547318079,2.12843819 0.543690508,2.46274316 0.53954904,2.84436418 C0.539505989,3.04932079 0.539978418,3.20696215 0.539762825,3.41143684 C0.539836949,3.61534644 0.540595593,3.77242316 0.540568023,3.98205864 C0.542100791,4.56304181 0.544421469,5.09146655 0.544004294,5.67094102 C0.549256045,6.05687469 0.557244068,6.39175684 0.555514689,6.73630023 C0.545799096,6.74596068 0.526345424,6.7652626 0.526345424,6.7652626 Z" id="Path" fill="#9B9B9B"></path>
            <path d="M8.4584209,7.8750887 C8.62421932,7.8750887 8.79001763,7.8750887 8.98132147,7.8750887 C9.00179243,8.06658384 9.01901503,8.22768136 9.03952215,8.41950418 C9.20071186,8.43662757 9.3609878,8.45365458 9.56723661,8.47556508 C9.56723661,8.82413017 9.56723661,9.17144441 9.56723661,9.56039266 C9.76922158,9.5720565 9.92807503,9.58122994 10.1451033,9.59376282 C10.1451033,9.75323435 10.1451033,9.89529028 10.1384102,10.0893381 C10.1317186,10.1413292 10.1095219,10.1549845 10.0655438,10.1510233 C9.54177085,10.0724103 9.56408655,10.3937225 9.57846949,10.7082915 C9.57838847,10.7077398 9.57978328,10.7079406 9.53257073,10.7078087 C9.32798565,10.7075958 9.17061503,10.7075156 9.01334079,10.6546977 C9.0133374,10.2109197 9.03023582,9.81873424 9.00401831,9.42945322 C8.99470102,9.29111028 8.88793085,9.04851718 8.81312655,9.04358859 C8.36618373,9.01414429 8.4630365,8.69490294 8.4427,8.38658825 C8.44927424,8.18515333 8.45384847,8.03012056 8.4584209,7.8750887 Z" id="Path" fill="#B7B7B7"></path>
            <path d="M8.44671559,0.539623277 C8.60740881,0.538442599 8.76810023,0.537262034 8.97699729,0.534836384 C9.19251345,0.533591525 9.35982565,0.533591525 9.57681774,0.533591525 C9.57681774,1.64978463 9.57681774,2.73506429 9.52306881,3.87369367 C9.31728904,3.92748305 9.16525458,3.92792316 9.01329774,3.88125842 C9.01317537,3.6774704 9.01297356,3.52078757 9.01293571,3.31273661 C9.01326147,2.91883695 9.01342362,2.5763052 9.01366667,2.18221977 C9.01366497,1.92770282 9.03720316,1.72096079 9.00554588,1.52304746 C8.98287672,1.38131232 8.89274814,1.13871864 8.82162497,1.13464215 C8.38554599,1.10964328 8.45129842,0.810547345 8.44671559,0.539623277 Z" id="Path" fill="#B5B5B5"></path>
            <path d="M9.0132426,10.7074355 C9.17061503,10.7075156 9.32798565,10.7075958 9.53204486,10.7555523 C9.58051266,10.9626201 9.58229367,11.1218141 9.58407469,11.2810072 C9.58407469,11.2810072 9.57901435,11.2733581 9.53575864,11.2744098 C9.03915661,11.1976046 8.97687492,11.4658094 9.01112531,11.8194382 C8.46175028,11.8194382 7.91237525,11.8194382 7.31660486,11.8194382 C7.31660486,11.6581572 7.31660486,11.516834 7.32192384,11.3315569 C7.32724463,11.2876021 7.3511191,11.2790866 7.39967299,11.2764908 C7.65423446,11.2731227 7.86324023,11.2931436 8.06517175,11.2640563 C8.19371966,11.2455397 8.41600147,11.157218 8.41782215,11.0949819 C8.4307861,10.6514581 8.73475153,10.7091355 9.0132426,10.7074355 Z" id="Path" fill="#C1C1C1"></path>
            <path d="M8.45409503,7.82950802 C8.45384847,8.03012056 8.44927424,8.18515333 8.39560124,8.39041853 C8.1885696,8.43607672 8.03063684,8.43150169 7.87528169,8.38011842 C7.92101153,8.00905311 7.80243096,7.86015921 7.45296847,7.87743785 C7.03140689,7.89828034 6.60777977,7.87732836 6.18674927,7.82827955 C6.18855107,7.62708158 6.18864927,7.4720739 6.24166373,7.31732136 C7.00516181,7.31029186 7.71574034,7.30300644 8.43450169,7.30392802 C8.44268113,7.31213593 8.4590209,7.32857401 8.4590209,7.32857401 C8.45593638,7.48035842 8.45285356,7.63214373 8.45409503,7.82950802 Z" id="Path" fill="#E99658"></path>
            <path d="M9.01322181,3.92836328 C9.16525458,3.92792316 9.31728904,3.92748305 9.51489638,3.92587435 C9.56047277,4.46764034 9.56047277,5.01057435 9.56047277,5.59597729 C9.39039322,5.61300339 9.23137254,5.62892339 9.01055808,5.65102881 C9.01055808,5.80431932 9.01055808,5.94786045 8.95728678,6.13983412 C8.75277073,6.18640362 8.60152938,6.18454068 8.44975017,6.18519763 C8.4492139,6.18771751 8.4541174,6.18715198 8.45214158,6.14031175 C8.44540701,5.93736814 8.44065006,5.78126294 8.44043446,5.57836938 C8.44464836,5.37576712 8.44431898,5.21995424 8.49268508,5.06247141 C8.89696542,5.10360124 9.05429469,4.95903153 9.0175478,4.59087831 C8.99566994,4.37165774 9.01424079,4.14840056 9.01412362,3.92745977 C9.01362192,3.92796192 9.01322181,3.92836328 9.01322181,3.92836328 Z" id="Path" fill="#9B9B9B"></path>
            <path d="M4.48777017,12.3890652 C4.14887164,12.3947704 3.8099748,12.4004739 3.3742252,12.4069189 C3.12168102,12.4038068 2.96598791,12.3999567 2.80575514,12.3494182 C2.80387921,12.1461781 2.80654136,11.9896211 2.85613322,11.8332643 C3.06037345,11.8302651 3.21768554,11.8270676 3.4254861,11.8294159 C3.81835073,11.8410402 4.1607252,11.8471188 4.50082723,11.8979977 C4.49495819,12.0915533 4.49136508,12.2403084 4.48777017,12.3890652 Z" id="Path" fill="#C81732"></path>
            <path d="M1.09131718,8.46017876 C0.924977401,8.45086825 0.758639435,8.44155785 0.536993898,8.42915164 C0.536993898,7.90479333 0.536993898,7.38675401 0.531669605,6.81698904 C0.526345424,6.7652626 0.545799096,6.74596068 0.599339322,6.74518136 C0.802986441,6.74588486 0.953089831,6.74736757 1.10343977,6.79673458 C1.10543638,7.00405492 1.10718802,7.16349198 1.10737605,7.3734426 C1.11394158,7.75648825 1.12207277,8.08902203 1.12048644,8.43121548 C1.11077085,8.44087593 1.09131718,8.46017876 1.09131718,8.46017876 Z" id="Path" fill="#9B9B9B"></path>
            <path d="M1.68422034,11.2610846 C1.68092373,11.1071028 1.67762542,10.95312 1.73073977,10.7536032 C2.11930441,10.7059389 2.45145977,10.7038104 2.79012215,10.7476652 C2.80112226,10.9466424 2.80561367,11.0996346 2.80529469,11.2624889 C2.80048429,11.2723494 2.78661006,11.2893487 2.74096644,11.2815625 C2.5405487,11.2740555 2.38577458,11.2743348 2.18537243,11.2733486 C1.98790463,11.2684166 1.83606158,11.2647502 1.68422034,11.2610846 Z" id="Path" fill="#74455B"></path>
            <path d="M8.45028463,6.18267774 C8.60152938,6.18454068 8.75277073,6.18640362 8.94936938,6.18841571 C9.00095446,6.45166181 9.0077287,6.71474655 9.01310633,6.97785977 C9.01498395,7.06977379 9.01340802,7.16175751 9.01340802,7.31936011 C8.84112169,7.31936011 8.69927017,7.31936011 8.50821977,7.32396712 C8.4590209,7.32857401 8.44268113,7.31213593 8.44211898,7.25496542 C8.44446554,6.85942147 8.44737593,6.5210496 8.45028463,6.18267774 Z" id="Path" fill="#E99658"></path>
            <path d="M2.23099876,11.274615 C2.38577458,11.2743348 2.5405487,11.2740555 2.74588723,11.326581 C2.80070328,11.5306127 2.80495333,11.6818393 2.80920508,11.8330651 C2.80654136,11.9896211 2.80387921,12.1461781 2.75896316,12.3522528 C2.56235932,12.4028774 2.40800938,12.4039809 2.25365763,12.4050878 C2.24689718,12.2474085 2.24013853,12.0897275 2.23233672,11.8379911 C2.23119706,11.5874942 2.23109876,11.4310546 2.23099876,11.274615 Z" id="Path" fill="#6C2426"></path>
            <path d="M6.19030972,11.8586654 C6.18895107,12.0078162 6.18759073,12.1569678 6.13384181,12.3531062 C5.92724644,12.4070051 5.77304305,12.4139155 5.57210463,12.4149 C5.36829198,12.4092706 5.21121785,12.4095689 5.05414192,12.4098671 C5.05414192,12.4098671 5.05948,12.4057137 5.05820576,12.3570614 C5.05440576,12.1566713 5.05188158,12.0049342 5.10120282,11.8470333 C5.49404859,11.8329453 5.83504712,11.825021 6.17918373,11.8276349 C6.18232339,11.8381738 6.19030972,11.8586654 6.19030972,11.8586654 Z" id="Path" fill="#C81732"></path>
            <path d="M2.24665062,12.4532124 C2.40800938,12.4039809 2.56235932,12.4028774 2.76350113,12.3989394 C2.96598791,12.3999567 3.12168102,12.4038068 3.32383322,12.413312 C3.35736113,12.5813536 3.34443175,12.7437398 3.33221085,12.8972346 C2.39109017,13.0715417 2.28562,13.0315189 2.24665062,12.4532124 Z" id="Path" fill="#4F3D2F"></path>
            <path d="M2.78361345,10.701681 C2.45145977,10.7038104 2.11930441,10.7059389 1.73772429,10.7077949 C1.68321853,10.5494354 1.6781426,10.3913501 1.7272139,10.1862737 C1.93755243,10.1366688 2.09374203,10.1340532 2.29464079,10.1360292 C2.48983266,10.1458405 2.64031186,10.1510612 2.79444113,10.201729 C2.79326531,10.3986777 2.78843944,10.5501802 2.78361345,10.701681 Z" id="Path" fill="#C81732"></path>
            <path d="M0.537759322,1.66711582 C0.536330056,1.4923609 0.545321582,1.32791209 0.556319887,1.12678554 C0.711828588,1.11777853 0.854430056,1.10951921 1.05372373,1.1055148 C1.1104191,1.10977006 1.12950215,1.12869311 1.12066576,1.17266294 C1.17573887,1.65318508 0.88321661,1.68784237 0.569009718,1.69804983 C0.569009718,1.69804983 0.548181921,1.67742158 0.537759322,1.66711582 Z" id="Path" fill="#9B9B9B"></path>
            <path d="M1.10086502,1.10031774 C1.10064316,0.92681096 1.10996395,0.762756045 1.12138305,0.561772203 C1.27604169,0.55302452 1.4182191,0.544982599 1.60752983,0.533468814 C1.65465966,0.529997062 1.68141333,0.53730791 1.68123491,0.588780452 C1.67564949,0.794083842 1.67024599,0.94791435 1.66714429,1.10232881 C1.66944429,1.10291243 1.66699774,1.09883785 1.62189548,1.10012723 C1.42769684,1.11050881 1.27859853,1.11960124 1.12950215,1.12869311 C1.12950215,1.12869311 1.1104191,1.10977006 1.10086502,1.10031774 Z" id="Path" fill="#9B9B9B"></path>
            <path d="M1.65629412,9.0251539 C1.49203718,9.01587627 1.32778192,9.00659853 1.12737797,8.99527864 C1.11838994,8.83958893 1.11015706,8.69695638 1.09662068,8.50724994 C1.09131718,8.46017785 1.11077085,8.44087593 1.16435254,8.44009921 C1.36818237,8.44340701 1.51843051,8.44749062 1.66894949,8.44953469 C1.66922181,8.44749412 1.66514249,8.44804927 1.66627186,8.4932765 C1.67663921,8.68783898 1.68587718,8.83717514 1.68542373,8.99618463 C1.67573232,9.00585808 1.65629412,9.0251539 1.65629412,9.0251539 Z" id="Path" fill="#9B9B9B"></path>
            <path d="M2.24992994,10.1314377 C2.09374203,10.1340532 1.93755243,10.1366688 1.73465537,10.139418 C1.6833513,9.98005672 1.6787565,9.82056102 1.72468621,9.61578113 C1.92614542,9.57487379 2.07708158,9.57924972 2.23281085,9.62919684 C2.24171096,9.82699209 2.24581955,9.97921446 2.24992994,10.1314377 Z" id="Path" fill="#933133"></path>
            <path d="M10.7162321,10.1500499 C10.7162321,9.98506712 10.7162321,9.82008339 10.7162321,9.61630531 C10.8897908,9.61630531 11.0591962,9.61630531 11.2510155,9.61630531 C11.2510155,9.78328994 11.2510155,9.9394252 11.2510155,10.1431258 C11.0873879,10.1431258 10.9457398,10.1431258 10.7573929,10.1439284 C10.7106923,10.1447319 10.7162321,10.1500499 10.7162321,10.1500499 Z" id="Path" fill="#A7A7A7"></path>
            <path d="M2.22801944,9.58362565 C2.07708158,9.57924972 1.92614542,9.57487379 1.73022768,9.56793062 C1.67917198,9.41520565 1.67309605,9.26504881 1.66165797,9.07002339 C1.65629412,9.0251539 1.67573232,9.00585808 1.72895186,9.00506757 C1.9312748,9.00904339 2.08037808,9.01380904 2.23101605,9.06397164 C2.23811266,9.26037469 2.24367299,9.41138147 2.24392994,9.56769785 C2.23862814,9.57300746 2.22801944,9.58362565 2.22801944,9.58362565 Z" id="Path" fill="#9B9B9B"></path>
            <path d="M5.05497469,12.4568142 C5.21121785,12.4095689 5.36829198,12.4092706 5.5733339,12.4595297 C5.62385864,12.6591458 5.62641729,12.808206 5.62897593,12.9572663 C5.28289277,13.0020306 4.98769119,12.982489 5.05497469,12.4568142 Z" id="Path" fill="#352620"></path>
            <path d="M5.67600226,12.960956 C5.62641729,12.808206 5.62385864,12.6591458 5.62007062,12.4654574 C5.77304305,12.4139155 5.92724644,12.4070051 6.12749006,12.3975946 C6.22077729,12.7410967 6.21433582,13.0446311 5.67600226,12.960956 Z" id="Path" fill="#4F3D2F"></path>
            <path d="M7.3161687,11.2814444 C7.15586689,11.274846 7.00664452,11.2744037 6.7995078,11.2735443 C6.74159333,11.2731262 6.71774136,11.2591321 6.72964147,11.214504 C6.74558994,11.0158441 6.74963831,10.8618139 6.80067853,10.7077569 C7.00455492,10.7073975 7.16144113,10.7070631 7.31841356,10.7544299 C7.32937571,10.9611158 7.34024825,11.1201012 7.3511191,11.2790866 C7.3511191,11.2790866 7.32724463,11.2876021 7.3161687,11.2814444 Z" id="Path" fill="#9B9B9B"></path>
            <path d="M9.63181322,11.2770141 C9.58229367,11.1218141 9.58051266,10.9626201 9.5792574,10.7556834 C9.57978328,10.7079406 9.57838847,10.7077398 9.62350441,10.7076707 C9.81702904,10.7005888 9.96543582,10.6935758 10.1238686,10.6948689 C10.1338963,10.7031742 10.1554138,10.7178433 10.1554138,10.7178433 C10.145974,10.8835581 10.1365325,11.049272 10.1249479,11.2526009 C9.96808757,11.2597924 9.82382045,11.2664071 9.63181322,11.2770141 Z" id="Path" fill="#ADADAD"></path>
            <path d="M10.1442982,10.1379334 C10.3122397,10.1373249 10.4676017,10.140112 10.6695988,10.1464749 C10.7162321,10.1500499 10.7106923,10.1447319 10.7080389,10.1420249 C10.7053853,10.2999619 10.7053853,10.4606051 10.7053853,10.6775145 C10.5524268,10.6884498 10.4017854,10.6992199 10.2032798,10.7139157 C10.1554138,10.7178433 10.1338963,10.7031742 10.1341205,10.6514797 C10.1260721,10.451518 10.1177962,10.3032516 10.1095201,10.1549845 C10.1095201,10.1549845 10.1317186,10.1413292 10.1442982,10.1379334 Z" id="Path" fill="#A7A7A7"></path>
            <path d="M5.0493574,11.8531964 C5.05188158,12.0049342 5.05440576,12.1566713 5.05938508,12.3538906 C4.90218859,12.3997774 4.74253684,12.4001808 4.53532757,12.3948256 C4.49136508,12.2403084 4.49495819,12.0915533 4.54584497,11.8905321 C4.74520927,11.8432436 4.89728339,11.8482195 5.0493574,11.8531964 Z" id="Path" fill="#6C2426"></path>
            <path d="M2.18537412,11.2733495 C2.23109876,11.4310546 2.23119706,11.5874942 2.22832633,11.7907414 C1.87206542,11.8718293 1.58351062,11.8318496 1.67914441,11.3090282 C1.83606158,11.2647502 1.98790463,11.2684166 2.18537412,11.2733495 Z" id="Path" fill="#3B322F"></path>
            <path d="M6.7548452,11.2770788 C6.75939525,11.441147 6.75069514,11.6012617 6.73938983,11.8093226 C6.59154339,11.8194831 6.43848136,11.8300021 6.23786362,11.8495938 C6.19030972,11.8586654 6.18232339,11.8381738 6.18373548,11.7823481 C6.18616994,11.5751002 6.18719412,11.4236779 6.23275153,11.2724098 C6.42410362,11.2680864 6.57092249,11.2636088 6.71774136,11.2591321 C6.71774136,11.2591321 6.74159333,11.2731262 6.7548452,11.2770788 Z" id="Path" fill="#ADADAD"></path>
            <path d="M9.05916723,11.8273141 C8.97687492,11.4658094 9.03915661,11.1976046 9.53964147,11.2768504 C9.58677819,11.4393426 9.58677819,11.6004453 9.58677819,11.8105278 C9.4147591,11.8193745 9.26098316,11.8272823 9.05916723,11.8273141 Z" id="Path" fill="#ADADAD"></path>
            <path d="M2.23184531,0.54018791 C2.50163107,0.542644181 2.8014826,0.466337514 2.83010023,0.90851435 C2.83488124,0.982362147 3.11491887,1.03839492 3.31552972,1.14949898 C3.36347853,1.35342011 3.36366124,1.51050249 3.36384395,1.66758441 C3.36438023,1.82715819 3.36491638,1.98673141 3.36516983,2.24017864 C3.36409751,2.48831073 3.3633078,2.64256927 3.31623492,2.79730463 C3.11553435,2.79889774 2.96111548,2.80001367 2.75339932,2.80009085 C2.16760667,2.79877661 1.63511288,2.79850113 1.10323288,2.79815684 C1.10384836,2.7980887 1.10383627,2.79850508 1.10398113,2.74989853 C1.07025831,2.38383751 1.16808362,2.19877254 1.5324635,2.22969141 C1.77354893,2.25014859 2.01847921,2.24468814 2.26041977,2.22997503 C2.47919627,2.21667062 2.82378633,2.32857356 2.76690294,1.9335748 C2.75109073,1.82376113 2.44394079,1.67601808 2.27651989,1.68339966 C1.83352192,1.70293175 1.59008994,1.58792226 1.66699774,1.09883785 C1.66699774,1.09883785 1.66944429,1.10291243 1.71459299,1.10279367 C2.22603831,1.17446599 2.26773876,0.889889831 2.23184531,0.54018791 Z" id="Path" fill="#B7B7B7"></path>
            <path d="M7.32003763,2.2339661 C7.20751051,2.23337209 7.09291966,2.21856847 6.98280463,2.23457164 C6.41706215,2.31679028 6.0770826,2.1837478 6.16975605,1.50487051 C6.18602339,1.38569977 5.96907966,1.23613785 5.86280949,1.09832169 C5.78337932,0.995312768 5.63776734,0.877908249 5.65155887,0.786524633 C5.6658522,0.691818644 5.84212486,0.546001356 5.93808621,0.552966328 C6.26082429,0.576389605 6.73303288,0.326404068 6.79814915,0.956472203 C6.80467853,1.01964147 7.07631605,1.05541209 7.27164746,1.10348249 C7.31837559,1.10306655 7.3183704,1.10156328 7.31811356,1.15311729 C7.31876011,1.54897141 7.3196652,1.89327141 7.31974802,2.23634497 C7.31892554,2.23511819 7.32003763,2.2339661 7.32003763,2.2339661 Z" id="Path" fill="#BDBDBD"></path>
            <path d="M3.41661186,1.66772362 C3.36366124,1.51050249 3.36347853,1.35342011 3.36268542,1.14914768 C3.45456565,0.915503503 3.55770136,0.566406328 3.6376487,0.57163887 C3.93397616,0.591032203 4.36997921,0.296164746 4.51093593,0.855698757 C4.53657932,0.95748904 4.7135313,1.01531729 4.80654271,1.10763797 C4.89801955,1.19843593 4.97157209,1.30729073 5.05299028,1.40822249 C4.9364252,1.49443073 4.8248791,1.6455148 4.70237774,1.65499164 C4.2934939,1.68662249 3.88068588,1.66752452 3.41661186,1.66772362 Z" id="Path" fill="#C3C3C3"></path>
            <path d="M8.39548056,0.539205085 C8.45129842,0.810547345 8.38554599,1.10964328 8.82162497,1.13464215 C8.89274814,1.13871864 8.98287672,1.38131232 9.00554588,1.52304746 C9.03720316,1.72096079 9.01366497,1.92770282 8.96625932,2.18199831 C8.76048972,2.23392249 8.60220531,2.23451525 8.44624836,2.23411525 C8.44857774,2.23312294 8.44658633,2.23778249 8.44717774,2.18998633 C8.34635243,1.98328011 8.25450316,1.81696497 8.13959672,1.66849345 C8.07951672,1.59086373 7.90843209,1.54521446 7.90789412,1.48406169 C7.90397864,1.0396148 7.59396486,1.10388576 7.3183704,1.10156328 C7.3183704,1.10156328 7.31837559,1.10306655 7.31927559,1.10317514 C7.26445424,0.696555593 7.39077638,0.468535367 7.85124701,0.534789605 C8.01243672,0.557982034 8.17973684,0.538682486 8.39548056,0.539205085 Z" id="Path" fill="#C3C3C3"></path>
            <path d="M3.36251638,2.79682791 C3.3633078,2.64256927 3.36409751,2.48831073 3.36632158,2.28804249 C3.96214203,2.23908768 4.55721582,2.25234994 5.15065684,2.22715175 C5.50974011,2.21190463 5.6788765,2.32761062 5.62404305,2.74837695 C5.6237965,2.79801153 5.62235164,2.79945898 5.56955977,2.7989965 C4.79940983,2.79869514 4.08205367,2.79885593 3.36422508,2.79854599 C3.36375085,2.79807537 3.36251638,2.79682791 3.36251638,2.79682791 Z" id="Path" fill="#EBA069"></path>
            <path d="M7.31681345,2.79632226 C7.31744113,2.64007446 7.3180687,2.48382621 7.3193652,2.2807722 C7.32003763,2.2339661 7.31892554,2.23511819 7.37082441,2.23475831 C7.76401153,2.23552689 8.10529977,2.23665446 8.44658633,2.23778249 C8.44658633,2.23778249 8.44857774,2.23312294 8.44790701,2.28528644 C8.44895186,2.67996023 8.45066734,3.02247006 8.4487122,3.36320395 C8.44504147,3.36142768 8.43804305,3.35724226 8.39181842,3.35922768 C8.19484734,3.29651311 7.9184287,3.23942418 7.91397356,3.16586554 C7.88725085,2.72457232 7.58709921,2.8034426 7.31921695,2.79873525 C7.31849458,2.79801198 7.31681345,2.79632226 7.31681345,2.79632226 Z" id="Path" fill="#EBA069"></path>
            <path d="M5.62463616,2.79716712 C6.1542748,2.79675379 6.68307548,2.7971852 7.26434395,2.79696972 C7.31681525,2.79632226 7.31849458,2.79801198 7.31871006,2.84722542 C7.36821582,3.26642226 7.19779492,3.39968542 6.83966689,3.36673672 C6.61894373,3.3464296 6.3917722,3.33952441 6.17286983,3.36796475 C5.71769062,3.42710124 5.5638235,3.22326102 5.62235164,2.79945898 C5.62235164,2.79945898 5.6237965,2.79801153 5.62463616,2.79716712 Z" id="Path" fill="#EBA069"></path>
            <path d="M2.18763966,0.539581243 C2.26773876,0.889889831 2.22603831,1.17446599 1.71229299,1.10221006 C1.67024599,0.94791435 1.67564949,0.794083842 1.69324802,0.595705537 C1.85144113,0.547096836 1.99743932,0.543035819 2.18763966,0.539581243 Z" id="Path" fill="#C3C3C3"></path>
            <path d="M1.62189548,1.10012723 C1.59008994,1.58792226 1.83352192,1.70293175 2.27651989,1.68339966 C2.44394079,1.67601808 2.75109073,1.82376113 2.76690294,1.9335748 C2.82378633,2.32857356 2.47919627,2.21667062 2.26041977,2.22997503 C2.01847921,2.24468814 1.77354893,2.25014859 1.5324635,2.22969141 C1.16808362,2.19877254 1.07025831,2.38383751 1.05695299,2.74976316 C0.853207684,2.7978391 0.696635254,2.79744384 0.540062825,2.79704859 C0.543690508,2.46274316 0.547318079,2.12843819 0.559976836,1.7460913 C0.88321661,1.68784237 1.17573887,1.65318508 1.12066576,1.17266294 C1.27859853,1.11960124 1.42769684,1.11050881 1.62189548,1.10012723 Z" id="Path" fill="#C1C1C1"></path>
            <path d="M0.54674226,5.61989051 C0.544421469,5.09146655 0.542100791,4.56304181 0.587034011,3.98140305 C0.789955254,3.92582271 0.945620791,3.92345672 1.10215525,3.97449559 C1.10239661,4.56190429 1.10176904,5.09590802 1.05484441,5.62766565 C0.854611186,5.62357672 0.700676723,5.62173367 0.54674226,5.61989051 Z" id="Path" fill="#EBA069"></path>
            <path d="M0.544004294,5.67094102 C0.700676723,5.62173367 0.854611186,5.62357672 1.05631684,5.62554056 C1.10408972,5.62566215 1.09954316,5.62453797 1.10133107,5.67125661 C1.10435356,5.87398723 1.10558802,6.02999932 1.10549523,6.23339209 C1.10370011,6.43807966 1.10324667,6.59538836 1.10365876,6.75213062 C1.10452599,6.75156418 1.10319492,6.7488504 1.10319492,6.74885119 C0.953089831,6.74736757 0.802986441,6.74588486 0.609056723,6.7355209 C0.557244068,6.39175684 0.549256045,6.05687469 0.544004294,5.67094102 Z" id="Path" fill="#C3C3C3"></path>
            <path d="M0.539546304,2.84436418 C0.696635254,2.79744384 0.853207684,2.7978391 1.05680825,2.79836972 C1.10383627,2.79850508 1.10384836,2.7980887 1.10370531,2.84509525 C1.1030087,3.04843797 1.10245695,3.20477503 1.05512373,3.36205175 C0.852380113,3.36352893 0.696414576,3.3640661 0.540450734,3.36460316 C0.539978418,3.20696215 0.539505989,3.04932079 0.539546304,2.84436418 Z" id="Path" fill="#ADADAD"></path>
            <path d="M0.539762825,3.41143684 C0.696414576,3.3640661 0.852380113,3.36352893 1.05608576,3.36300136 C1.10382599,3.36300136 1.10553119,3.3647122 1.10484147,3.4114713 C1.10272418,3.61436023 1.10129492,3.7704904 1.10208972,3.9259261 C1.10431559,3.9252322 1.10128802,3.92109073 1.10128802,3.92109073 C0.945620791,3.92345672 0.789955254,3.92582271 0.587822034,3.92884429 C0.540595593,3.77242316 0.539836949,3.61534644 0.539762825,3.41143684 Z" id="Path" fill="#C3C3C3"></path>
            <path d="M7.39967299,11.2764908 C7.34024825,11.1201012 7.32937571,10.9611158 7.31791006,10.7549894 C7.31731864,10.7078484 7.31465661,10.7069363 7.36214158,10.7071742 C7.87959379,10.7805371 7.91525458,10.4895468 7.88357492,10.0951847 C7.88297141,9.89203593 7.88236802,9.73580316 7.88229559,9.52828102 C7.88392667,9.13639141 7.88503006,8.79579017 7.88055243,8.44918034 C7.87497141,8.44317085 7.87270407,8.42692667 7.87270407,8.42692667 C8.03063684,8.43150169 8.1885696,8.43607672 8.39360124,8.43682158 C8.4630365,8.69490294 8.36618373,9.01414429 8.81312655,9.04358859 C8.88793085,9.04851718 8.99470102,9.29111028 9.00401831,9.42945322 C9.03023582,9.81873424 9.0133374,10.2109197 9.01334079,10.6546977 C8.73475153,10.7091355 8.4307861,10.6514581 8.41782215,11.0949819 C8.41600147,11.157218 8.19371966,11.2455397 8.06517175,11.2640563 C7.86324023,11.2931436 7.65423446,11.2731227 7.39967299,11.2764908 Z" id="Path" fill="#ADADAD"></path>
            <path d="M10.0655438,10.1510233 C10.1177962,10.3032516 10.1260721,10.451518 10.1240945,10.6431736 C9.96543582,10.6935758 9.81702904,10.7005888 9.62358554,10.7082217 C9.56408655,10.3937225 9.54177085,10.0724103 10.0655438,10.1510233 Z" id="Path" fill="#C3C3C3"></path>
            <path d="M8.45238124,3.36498023 C8.45066734,3.02247006 8.44895186,2.67996023 8.44557763,2.28627876 C8.60220531,2.23451525 8.76048972,2.23392249 8.96618169,2.23355141 C9.01342362,2.5763052 9.01326147,2.91883695 8.96610068,3.31227537 C8.76353119,3.36378113 8.60795537,3.36438068 8.45238124,3.36498023 Z" id="Path" fill="#ADADAD"></path>
            <path d="M8.4487122,3.36320395 C8.60795537,3.36438068 8.76353119,3.36378113 8.96593853,3.36364316 C9.01297356,3.52078757 9.01317537,3.6774704 9.01329774,3.88125842 C9.01322181,3.92836328 9.01362192,3.92796192 8.96674203,3.92856621 C8.76206734,3.92718994 8.60427424,3.92520972 8.44721559,3.87631266 C8.44465006,3.6720113 8.44134655,3.51462678 8.43804305,3.35724226 C8.43804305,3.35724226 8.44504147,3.36142768 8.4487122,3.36320395 Z" id="Path" fill="#9B9B9B"></path>
            <path d="M8.44975017,6.18519672 C8.44737593,6.5210496 8.44446554,6.85942147 8.43393785,7.24675672 C7.71574034,7.30300644 7.00516181,7.31029186 6.24184644,7.31782215 C6.18911141,7.3180661 6.19096836,7.31773164 6.19013379,7.27066734 C6.25926384,6.75832373 5.97605209,6.71832328 5.5797391,6.75529446 C5.37270588,6.75404271 5.21340927,6.75452712 5.00782768,6.75425989 C4.80708576,6.75569186 4.65262723,6.75787458 4.49687198,6.71227503 C4.41160215,6.50816927 4.32763051,6.35184689 4.24365887,6.19552441 C4.14275435,6.25538802 3.95600395,6.31341028 3.95467638,6.37540576 C3.9450435,6.8250348 3.62931073,6.74781763 3.36028023,6.75421514 C3.36354395,6.75317288 3.36147672,6.75970486 3.36225085,6.70637582 C3.36473198,6.11834599 3.36643887,5.58364441 3.41511876,5.05214282 C3.6192365,5.06041966 3.77638136,5.0654991 3.93207616,5.11778757 C3.89320158,5.4831287 4.00082859,5.65600554 4.3548687,5.62588712 C4.59246102,5.60567571 4.83289299,5.61883537 5.11683401,5.61976723 C5.31118791,5.62067153 5.46076192,5.61887243 5.66255729,5.61863785 C6.06207379,5.62003706 6.40937073,5.61987153 6.80225266,5.62093017 C6.99877898,5.62908712 7.14972203,5.63601831 7.30629446,5.68986542 C7.28798554,6.0462504 7.3880574,6.22483853 7.7418009,6.19187616 C7.97734147,6.16992938 8.21655096,6.18735017 8.4541174,6.18715198 C8.4541174,6.18715198 8.4492139,6.18771751 8.44975017,6.18519672 Z" id="Path" fill="#EFB385"></path>
            <path d="M5.05411096,6.75501164 C5.21340927,6.75452712 5.37270588,6.75404271 5.57858746,6.80189842 C5.55130949,7.32372056 5.85156113,7.34442079 6.19096836,7.31773164 C6.19096836,7.31773164 6.18911141,7.3180661 6.18892859,7.3175661 C6.18864927,7.4720739 6.18855107,7.62708158 6.13580045,7.83167006 C5.76085322,7.88124904 5.43856,7.88124904 5.06606102,7.88124904 C5.06606102,8.11576633 5.06606102,8.27523616 5.01895706,8.4396009 C4.81435311,8.44457944 4.6568548,8.44466215 4.4968513,8.39371254 C4.49509955,7.9998504 4.49585299,7.65702079 4.49534271,7.31621435 C4.49407887,7.31823684 4.49003751,7.32076701 4.53756904,7.3192687 C5.05480927,7.39135062 5.09635107,7.10809401 5.05411096,6.75501164 Z" id="Path" fill="#ECA570"></path>
            <path d="M5.06606102,8.4347061 C5.06606102,8.27523616 5.06606102,8.11576633 5.06606102,7.88124904 C5.43856,7.88124904 5.76085322,7.88124904 6.13409695,7.87785853 C6.60777977,7.87732836 7.03140689,7.89828034 7.45296847,7.87743785 C7.80243096,7.86015921 7.92101153,8.00905311 7.87528169,8.38011842 C7.87270407,8.42692667 7.87497141,8.44317085 7.83303989,8.44647864 C7.63295322,8.45521571 7.47479458,8.46064599 7.26449571,8.45922531 C6.6832565,8.45605718 6.15416102,8.45974079 5.57877706,8.45698215 C5.37701277,8.44526136 5.22153695,8.43998373 5.06606102,8.4347061 Z" id="Path" fill="#CE6A39"></path>
            <path d="M8.44648113,3.92322949 C8.60427424,3.92520972 8.76206734,3.92718994 8.96724203,3.92806407 C9.01424079,4.14840056 8.99566994,4.37165774 9.0175478,4.59087831 C9.05429469,4.95903153 8.89696542,5.10360124 8.4453191,5.06041186 C8.19077141,5.06248689 8.0322904,5.06495254 7.82804667,5.06342915 C7.62954802,5.06426633 7.47681006,5.0690922 7.31809966,5.06468181 C7.31212723,5.05544463 7.30120814,5.03634701 7.30738927,4.99130429 C7.31467379,4.79387537 7.31577729,4.6414896 7.31765661,4.49129186 C7.31843243,4.49348023 7.31437379,4.4912078 7.36619333,4.49191898 C7.58299751,4.49284655 7.75061311,4.47423864 7.91246836,4.49685876 C8.37174068,4.56104475 8.50661627,4.34175955 8.44162249,3.92594384 C8.44271898,3.9243235 8.44648113,3.92322949 8.44648113,3.92322949 Z" id="Path" fill="#B5B5B5"></path>
            <path d="M8.45214158,6.14031175 C8.21655096,6.18735017 7.97734147,6.16992938 7.7418009,6.19187616 C7.3880574,6.22483853 7.28798554,6.0462504 7.31336689,5.68206621 C7.31480825,5.62735006 7.32915672,5.61243006 7.37416588,5.61710429 C7.56989729,5.62074915 7.72061627,5.61971977 7.91862701,5.62012328 C8.12257582,5.62275695 8.27923446,5.62395774 8.4358913,5.62515864 C8.44065006,5.78126294 8.44540701,5.93736814 8.45214158,6.14031175 Z" id="Path" fill="#E99658"></path>
            <path d="M8.44043446,5.57836938 C8.27923446,5.62395774 8.12257582,5.62275695 7.92384429,5.57419864 C7.87911627,5.37369989 7.87646271,5.22055853 7.87380927,5.06741808 C8.0322904,5.06495254 8.19077141,5.06248689 8.39662023,5.0620809 C8.44431898,5.21995424 8.44464836,5.37576712 8.44043446,5.57836938 Z" id="Path" fill="#ECA570"></path>
            <path d="M6.18821831,11.2722555 C6.18719412,11.4236779 6.18616994,11.5751002 6.18059401,11.7718102 C5.83504712,11.825021 5.49404859,11.8329453 5.10120452,11.8470333 C4.89728339,11.8482195 4.74520927,11.8432436 4.5481174,11.8457316 C4.1607252,11.8471188 3.81835073,11.8410402 3.4235774,11.7839887 C3.36778023,11.5805028 3.36438362,11.4279899 3.36251808,11.2739615 C3.36404746,11.2724451 3.36707503,11.2694244 3.41979288,11.2697581 C4.37807763,11.2711417 5.28364452,11.2721925 6.18895966,11.2729925 C6.18870791,11.2727425 6.1882165,11.2722555 6.18821831,11.2722555 Z" id="Path" fill="#C3C3C3"></path>
            <path d="M3.36098712,11.275478 C3.36438362,11.4279899 3.36778023,11.5805028 3.37308723,11.7784429 C3.21768554,11.8270676 3.06037345,11.8302651 2.85613322,11.8332643 C2.80495333,11.6818393 2.80070328,11.5306127 2.79153085,11.3343673 C2.78661006,11.2893487 2.80048429,11.2723494 2.8508504,11.2684632 C3.05447164,11.2682114 3.20773017,11.2718451 3.36098712,11.275478 Z" id="Path" fill="#933133"></path>
            <path d="M2.22948147,9.01857458 C2.08037808,9.01380904 1.9312748,9.00904339 1.73864328,8.99539322 C1.68587718,8.83717514 1.67663921,8.68783898 1.71376203,8.4931791 C2.23035559,8.52028113 2.26604565,8.22983141 2.28028893,7.88215164 C2.38364701,7.88190169 2.45865989,7.90425537 2.4918861,7.87653175 C2.60014588,7.78619887 2.69314,7.67757446 2.79201006,7.57598972 C2.6952591,7.49201379 2.59850621,7.40803785 2.50175345,7.32406102 C2.41288181,7.43617435 2.31179966,7.54118757 2.24062994,7.66359412 C2.20823469,7.71931107 2.23498328,7.80941469 2.18771548,7.88365085 C1.6661391,7.80944136 1.63993876,8.10769638 1.66867706,8.45157525 C1.51843051,8.44749062 1.36818237,8.44340701 1.17406983,8.43043876 C1.12207277,8.08902203 1.11394158,7.75648825 1.15389379,7.37164689 C1.66976667,7.38794192 1.69843593,7.09444215 1.66893051,6.75297028 C1.66888565,6.75293062 1.66920463,6.75326158 1.71644825,6.75310904 C1.91643492,6.69072384 2.19705876,6.63562927 2.20099492,6.56508972 C2.22504011,6.13436079 2.50921559,6.18338203 2.7895791,6.23691288 C2.7203748,6.75597718 3.02119537,6.78137401 3.36147672,6.75970486 C3.36147672,6.75970486 3.36354395,6.75317288 3.36274056,6.80520362 C3.36352678,7.19846565 3.36511819,7.53969706 3.36536983,7.92838497 C3.36383887,8.13317345 3.36364576,8.29050271 3.31643661,8.44779672 C2.80322576,8.37360791 2.76926678,8.66577243 2.74752689,9.00950723 C2.54351774,9.01345729 2.38650045,9.01601593 2.22948147,9.01857458 Z" id="Path" fill="#C3C3C3"></path>
            <path d="M1.66897706,6.75300994 C1.69843593,7.09444215 1.66976667,7.38794192 1.15545932,7.32113424 C1.10718802,7.16349198 1.10543638,7.00405492 1.10343977,6.79673367 C1.10319492,6.7488504 1.10452599,6.75156418 1.15096271,6.75223571 C1.35459254,6.7529409 1.51178565,6.75297548 1.66897706,6.75300994 Z" id="Path" fill="#ADADAD"></path>
            <path d="M3.36251808,11.2739615 C3.20773017,11.2718451 3.05447164,11.2682114 2.85566079,11.2586027 C2.80561367,11.0996346 2.80112226,10.9466424 2.79012215,10.7476661 C2.78843944,10.5501802 2.79326531,10.3986777 2.79723254,10.1534544 C2.79846362,9.89951277 2.80055503,9.73929367 2.80071887,9.5787687 C2.79879299,9.57846181 2.79962226,9.58172994 2.84659864,9.58032554 C3.05030949,9.57897989 3.20704576,9.57903853 3.3637113,9.63167266 C3.36478712,10.2126394 3.36593028,10.7410323 3.36707503,11.2694244 C3.36707503,11.2694244 3.36404746,11.2724451 3.36251808,11.2739615 Z" id="Path" fill="#C3C3C3"></path>
            <path d="M2.80264475,9.57907469 C2.80055503,9.73929367 2.79846362,9.89951277 2.7935826,10.1080072 C2.64031186,10.1510612 2.48983266,10.1458405 2.29464079,10.1360292 C2.24581955,9.97921446 2.24171096,9.82699209 2.23281085,9.62919684 C2.22801944,9.58362565 2.23862814,9.57300746 2.28936836,9.57304184 C2.4942861,9.57507548 2.64846542,9.57707559 2.80264475,9.57907469 Z" id="Path" fill="#9B9B9B"></path>
            <path d="M2.80071887,9.5787687 C2.64846542,9.57707559 2.4942861,9.57507548 2.29467017,9.56773232 C2.24367299,9.41138147 2.23811266,9.26037469 2.23101605,9.06397164 C2.38650045,9.01601593 2.54351774,9.01345729 2.74953209,9.01171073 C2.79852746,9.01252282 2.80241537,9.01684181 2.80113955,9.06372079 C2.7997826,9.26764282 2.79970158,9.42468678 2.79962226,9.58172994 C2.79962226,9.58172994 2.79879299,9.57846181 2.80071887,9.5787687 Z" id="Path" fill="#ADADAD"></path>
            <path d="M6.72964147,11.214504 C6.57092249,11.2636088 6.42410362,11.2680864 6.23274983,11.2724098 C6.1882165,11.2722555 6.18870791,11.2727425 6.188092,11.2258722 C6.18797695,11.0220225 6.18845616,10.8650432 6.2359791,10.7079673 C6.43982102,10.707751 6.59661763,10.7076312 6.75352452,10.7076191 C6.75363141,10.7077277 6.75368655,10.7077828 6.75368655,10.7077828 C6.74963831,10.8618139 6.74558994,11.0158441 6.72964147,11.214504 Z" id="Path" fill="#C3C3C3"></path>
            <path d="M7.31782215,10.7072889 C7.16144113,10.7070631 7.00455492,10.7073975 6.80067853,10.707758 C6.75368655,10.7077828 6.75363141,10.7077277 6.75363141,10.6606014 C6.68230136,10.1452008 6.97391831,10.1121789 7.31849627,10.1426473 C7.31860316,10.1427559 7.31885831,10.1430077 7.3187652,10.1900116 C7.31733243,10.3936562 7.31599446,10.5502958 7.31465661,10.7069363 C7.31465661,10.7069363 7.31731864,10.7078484 7.31782215,10.7072889 Z" id="Path" fill="#C3C3C3"></path>
            <path d="M3.36225085,6.70637582 C3.02119537,6.78137401 2.7203748,6.75597718 2.79440667,6.18961492 C2.79155492,5.93723458 2.78831864,5.77918192 2.7899704,5.57453661 C2.79161876,5.37194203 2.78837729,5.21594034 2.78991695,5.01265446 C2.79149288,4.8073078 2.78828768,4.64924576 2.79001876,4.44457966 C2.79166531,4.24195808 2.7883739,4.08594034 2.78943593,3.88268169 C2.79090497,3.67734927 2.78801864,3.51925785 2.78969458,3.31462158 C2.79840328,3.11242746 2.80254983,2.95677842 2.8066965,2.80112972 C2.96111548,2.80001367 3.11553435,2.79889774 3.31623492,2.79730463 C3.36251638,2.79682791 3.36375085,2.79807537 3.36392158,2.84990825 C3.36399921,3.04853322 3.3801252,3.19749831 3.3607991,3.34171186 C3.3009278,3.78849492 3.46474339,4.00402825 3.93048994,3.97714655 C3.92279503,4.17879096 3.91777254,4.3339496 3.8663513,4.48898452 C3.3471887,4.41567684 3.3341678,4.71335288 3.36814576,5.04894373 C3.36643887,5.58364441 3.36473198,6.11834599 3.36225085,6.70637582 Z" id="Path" fill="#EBA069"></path>
            <path d="M2.75339932,2.80009085 C2.80254983,2.95677842 2.79840328,3.11242746 2.73958023,3.31528237 C2.34344655,3.36478938 2.00199107,3.36708938 1.61438158,3.36679458 C1.41399492,3.3643704 1.25976384,3.36454102 1.10553119,3.3647122 C1.10553119,3.3647122 1.10382599,3.36301085 1.10286565,3.36206124 C1.10245695,3.20477503 1.1030087,3.04843797 1.10308972,2.84516339 C1.63511288,2.79850113 2.16760667,2.79877661 2.75339932,2.80009085 Z" id="Path" fill="#C3C3C3"></path>
            <path d="M8.44717774,2.18998633 C8.10529977,2.23665446 7.76401153,2.23552689 7.37164859,2.23598508 C7.3196652,1.89327141 7.31876011,1.54897141 7.31811356,1.15311729 C7.59396486,1.10388576 7.90397864,1.0396148 7.90789412,1.48406169 C7.90843209,1.54521446 8.07951672,1.59086373 8.13959672,1.66849345 C8.25450316,1.81696497 8.34635243,1.98328011 8.44717774,2.18998633 Z" id="Path" fill="#ADADAD"></path>
            <path d="M3.93316407,3.93066068 C3.46474339,4.00402825 3.3009278,3.78849492 3.3607991,3.34171186 C3.3801252,3.19749831 3.36399921,3.04853322 3.36439401,2.85037887 C4.08205367,2.79885593 4.79940983,2.79869514 5.56955977,2.7989965 C5.5638235,3.22326102 5.71769062,3.42710124 6.17286983,3.36796475 C6.3917722,3.33952441 6.61894373,3.3464296 6.83966689,3.36673672 C7.19779492,3.39968542 7.36821582,3.26642226 7.31943424,2.8479487 C7.58709921,2.8034426 7.88725085,2.72457232 7.91397356,3.16586554 C7.9184287,3.23942418 8.19484734,3.29651311 8.39181842,3.35922768 C8.44134655,3.51462678 8.44465006,3.6720113 8.44721559,3.87631266 C8.44648113,3.92322949 8.44271898,3.9243235 8.39105808,3.92611153 C8.0171574,3.92789898 7.69491944,3.92789898 7.34957424,3.92789898 C7.33455503,4.16824689 7.32446531,4.32972712 7.31437379,4.4912078 C7.31437379,4.4912078 7.31843243,4.49348023 7.27126644,4.49272678 C7.06973492,4.49293107 6.91537107,4.49388881 6.71282056,4.49406814 C6.50354418,4.49387638 6.34245446,4.49446305 6.13539695,4.49442645 C5.93621028,4.49259492 5.78298621,4.49139096 5.62760689,4.44315808 C5.70397672,3.91712475 5.3867991,3.90740136 5.05604203,3.86786768 C5.12320655,3.2067496 4.66712395,3.39796294 4.35470147,3.36305525 C3.88330316,3.31038395 3.91971571,3.63031898 3.93002441,3.93213831 C3.92900023,3.93062011 3.93316407,3.93066068 3.93316407,3.93066068 Z" id="Path" fill="#EFB385"></path>
            <path d="M1.10261559,5.62778712 C1.10176904,5.09590802 1.10239661,4.56190429 1.10215525,3.97449559 C1.10128802,3.92109073 1.10431559,3.9252322 1.14873164,3.92651706 C1.34678215,3.92773175 1.5004165,3.92766147 1.66176836,3.92715718 C1.66948565,3.9267235 1.68494621,3.9266348 1.67930994,3.97361367 C1.67546678,4.17806384 1.67725989,4.33553492 1.67591672,4.5400252 C1.67486847,4.74405537 1.67696158,4.90106701 1.67591164,5.10521763 C1.67682881,5.30970859 1.68088927,5.46706124 1.67721672,5.62436983 C1.66948565,5.62432508 1.65404927,5.62345864 1.60814011,5.62326554 C1.408,5.62356034 1.25377243,5.62404915 1.09954316,5.62453797 C1.09954316,5.62453797 1.10408972,5.62566215 1.10261559,5.62778712 Z" id="Path" fill="#EFB385"></path>
            <path d="M1.10133107,5.67125661 C1.25377243,5.62404915 1.408,5.62356034 1.61337299,5.66954712 C1.66451141,5.8709174 1.66450633,6.0258122 1.61813333,6.18423299 C1.41678633,6.18717695 1.26180531,6.18659412 1.10682429,6.18601232 C1.10558802,6.02999932 1.10435356,5.87398723 1.10133107,5.67125661 Z" id="Path" fill="#EBA069"></path>
            <path d="M1.10548983,6.23339209 C1.26180531,6.18659412 1.41678633,6.18717695 1.61961955,6.2320826 C1.66805119,6.43535808 1.66862701,6.59430983 1.66920294,6.75326158 C1.66920294,6.75326158 1.66888565,6.75293062 1.66893051,6.75297028 C1.51178565,6.75297548 1.35459254,6.7529409 1.15009718,6.75280124 C1.10324667,6.59538836 1.10370011,6.43807966 1.10548983,6.23339209 Z" id="Path" fill="#9B9B9B"></path>
            <path d="M1.65404757,3.92759119 C1.5004165,3.92766147 1.34678215,3.92773175 1.14650746,3.92721107 C1.10129492,3.7704904 1.10272418,3.61436023 1.10484147,3.4114713 C1.25976384,3.36454102 1.41399492,3.3643704 1.61733333,3.41314328 C1.66230972,3.61725548 1.65817864,3.77242316 1.65404757,3.92759119 Z" id="Path" fill="#EBA069"></path>
            <path d="M7.31838768,10.1425386 C6.97391831,10.1121789 6.68230136,10.1452008 6.75352282,10.6604927 C6.59661763,10.7076312 6.43982102,10.707751 6.23591186,10.6564185 C6.18868203,10.4019114 6.21230644,10.1950367 6.18044407,9.99709401 C6.15764893,9.85548034 6.06744802,9.6137061 5.99536102,9.60922938 C5.55894407,9.58212994 5.62554825,9.28423356 5.67669367,9.01259514 C6.08574994,9.01273051 6.4445539,8.98632158 6.79777333,9.0194591 C7.23838158,9.06079401 7.37716068,8.86943322 7.31663763,8.46607627 C7.47479458,8.46064599 7.63295322,8.45521571 7.83862271,8.45248723 C7.88503006,8.79579017 7.88392667,9.13639141 7.83545718,9.52768712 C7.31873073,9.50601096 7.28914418,9.79978407 7.31838768,10.1425386 Z" id="Path" fill="#B7B7B7"></path>
            <path d="M7.31849627,10.1426473 C7.28914418,9.79978407 7.31873073,9.50601096 7.8349278,9.57897638 C7.88236802,9.73580316 7.88297141,9.89203593 7.83650893,10.0954192 C7.63258249,10.1427154 7.47572045,10.1428619 7.31885831,10.1430077 C7.31885831,10.1430077 7.31860316,10.1427559 7.31849627,10.1426473 Z" id="Path" fill="#C3C3C3"></path>
            <path d="M7.3187652,10.1900116 C7.47572045,10.1428619 7.63258249,10.1427154 7.83650893,10.1423353 C7.91525458,10.4895468 7.87959379,10.7805371 7.36214158,10.7071742 C7.31599446,10.5502958 7.31733243,10.3936562 7.3187652,10.1900116 Z" id="Path" fill="#9B9B9B"></path>
            <path d="M5.62976384,4.49018757 C5.78298621,4.49139096 5.93621028,4.49259492 6.13747288,4.5417148 C6.27204158,5.08080271 5.94606904,5.07743537 5.5684235,5.06262316 C5.3715765,5.06132486 5.22010068,5.06391198 5.01680023,5.0640861 C4.62115966,5.06464124 4.27734373,5.06760938 3.9335261,5.07057751 C3.77638136,5.0654991 3.6192365,5.06041966 3.41511876,5.05214282 C3.3341678,4.71335288 3.3471887,4.41567684 3.92061051,4.49025605 C4.5574365,4.49116339 5.09359932,4.49067548 5.62976384,4.49018757 Z" id="Path" fill="#B7B7B7"></path>
            <path d="M3.3667096,7.88092757 C3.36511819,7.53969706 3.36352678,7.19846565 3.35947672,6.80624588 C3.62931073,6.74781763 3.9450435,6.8250348 3.95467638,6.37540576 C3.95600395,6.31341028 4.14275435,6.25538802 4.24365887,6.19552441 C4.32763051,6.35184689 4.41160215,6.50816927 4.49438237,6.75873932 C4.49213921,7.00891446 4.49108746,7.16484034 4.49003751,7.32076701 C4.49003751,7.32076701 4.49407887,7.31823684 4.44776282,7.31662475 C3.92407266,7.23571525 3.89947582,7.53632712 3.88021345,7.88163955 C3.67792508,7.88210508 3.5223165,7.88151627 3.3667096,7.88092757 Z" id="Path" fill="#EBA069"></path>
            <path d="M5.6137913,5.06650938 C5.94606904,5.07743537 6.27204158,5.08080271 6.18343718,4.54234068 C6.34245446,4.49446305 6.50354418,4.49387638 6.71070847,4.54033458 C6.75643141,4.74141661 6.75608147,4.89545322 6.75518655,5.09710712 C6.75531593,5.30305254 6.75599175,5.46137842 6.75666768,5.6197052 C6.40937073,5.61987153 6.06207379,5.62003706 5.66836768,5.57290203 C5.61923616,5.37257141 5.61651367,5.21954045 5.6137913,5.06650938 Z" id="Path" fill="#ECA570"></path>
            <path d="M3.93207616,5.11778667 C4.27734373,5.06760938 4.62115966,5.06464124 5.01255356,5.10948147 C5.06410237,5.31054825 5.06807831,5.46380599 5.07205424,5.61706463 C4.83289299,5.61883537 4.59246102,5.60567571 4.3548687,5.62588712 C4.00082859,5.65600554 3.89320158,5.4831287 3.93207616,5.11778667 Z" id="Path" fill="#ECA570"></path>
            <path d="M4.53756904,7.3192687 C4.49108746,7.16484034 4.49213921,7.00891446 4.49567887,6.8065226 C4.65262723,6.75787458 4.80708576,6.75569186 5.00782768,6.75425989 C5.09635107,7.10809401 5.05480927,7.39135062 4.53756904,7.3192687 Z" id="Path" fill="#B7B7B7"></path>
            <path d="M6.19013379,7.27066734 C5.85156113,7.34442079 5.55130949,7.32372056 5.62632418,6.80363379 C5.97605209,6.71832328 6.25926384,6.75832373 6.19013379,7.27066734 Z" id="Path" fill="#E99658"></path>
            <path d="M5.11683401,5.61976723 C5.06807831,5.46380599 5.06410237,5.31054825 5.0643748,5.11189525 C5.22010068,5.06391198 5.3715765,5.06132486 5.56842181,5.06262316 C5.61651367,5.21954045 5.61923616,5.37257141 5.61614814,5.57133819 C5.46076192,5.61887243 5.31118791,5.62067153 5.11683401,5.61976723 Z" id="Path" fill="#000000"></path>
            <path d="M6.80225266,5.62093017 C6.75599175,5.46137842 6.75531593,5.30305254 6.80091819,5.10026927 C6.99853243,5.04932384 7.14987028,5.04283503 7.30120814,5.03634701 C7.30120814,5.03634701 7.31212723,5.05544463 7.31568938,5.10916768 C7.32255322,5.31273797 7.32585492,5.46258362 7.32915672,5.61243006 C7.32915672,5.61243006 7.31480825,5.62735006 7.30773582,5.63514927 C7.14972203,5.63601831 6.99877898,5.62908712 6.80225266,5.62093017 Z" id="Path" fill="#E99658"></path>
            <path d="M5.62396373,9.01247537 C5.62554825,9.28423356 5.55894407,9.58212994 5.99536102,9.60922938 C6.06744802,9.6137061 6.15764893,9.85548034 6.18044407,9.99709401 C6.21230644,10.1950367 6.18868203,10.4019114 6.18886655,10.6565142 C6.18845616,10.8650432 6.18797695,11.0220225 6.18835277,11.2261221 C5.28364452,11.2721925 4.37807763,11.2711417 3.41979288,11.2697581 C3.36593028,10.7410323 3.36478712,10.2126394 3.36375085,9.58449198 C3.43373966,9.02035299 3.15219853,8.97765514 2.80241537,9.01684181 C2.80241537,9.01684181 2.79852746,9.01252282 2.79652226,9.01031932 C2.76926678,8.66577243 2.80322576,8.37360791 3.36357164,8.44782 C3.61469853,8.44786136 3.77167435,8.44784328 3.97612836,8.44779582 C4.18219096,8.44675966 4.34077379,8.44575277 4.4993565,8.44474576 C4.6568548,8.44466215 4.81435311,8.44457944 5.01895706,8.4396009 C5.22153695,8.43998373 5.37701277,8.44526136 5.57775977,8.50259819 C5.62334136,8.70726249 5.62365345,8.85986938 5.62396373,9.01247537 Z" id="Path" fill="#AEAEAE"></path>
            <path d="M4.4968513,8.39371254 C4.34077379,8.44575277 4.18219096,8.44675966 3.9761852,8.40069876 C3.92813989,8.19594825 3.92751751,8.03826633 3.92689672,7.88058441 C3.89947582,7.53632712 3.92407266,7.23571525 4.44902667,7.31460226 C4.49585299,7.65702079 4.49509955,7.9998504 4.4968513,8.39371254 Z" id="Path" fill="#B7B7B7"></path>
            <path d="M5.67669367,9.01259514 C5.62365345,8.85986938 5.62334136,8.70726249 5.62404655,8.50904045 C6.15416102,8.45974079 6.6832565,8.45605718 7.26449571,8.45922531 C7.37716068,8.86943322 7.23838158,9.06079401 6.79777333,9.0194591 C6.4445539,8.98632158 6.08574994,9.01273051 5.67669367,9.01259514 Z" id="Path" fill="#C3C3C3"></path>
            <path d="M7.36619333,4.49191898 C7.32446531,4.32972712 7.33455503,4.16824689 7.34957424,3.92789898 C7.69491944,3.92789898 8.0171574,3.92789898 8.38996328,3.9277313 C8.50661627,4.34175955 8.37174068,4.56104475 7.91246836,4.49685876 C7.75061311,4.47423864 7.58299751,4.49284655 7.36619333,4.49191898 Z" id="Path" fill="#C3C3C3"></path>
            <path d="M7.30738927,4.99130429 C7.14987028,5.04283503 6.99853243,5.04932384 6.80146294,5.05265153 C6.75608147,4.89545322 6.75643141,4.74141661 6.75889356,4.54111311 C6.91537107,4.49388881 7.06973492,4.49293107 7.27049051,4.49053842 C7.31577729,4.6414896 7.31467379,4.79387537 7.30738927,4.99130429 Z" id="Path" fill="#C3C3C3"></path>
            <path d="M7.37416588,5.61710429 C7.32585492,5.46258362 7.32255322,5.31273797 7.32166181,5.11840565 C7.47681006,5.0690922 7.62954802,5.06426633 7.82804667,5.06342915 C7.87646271,5.22055853 7.87911627,5.37369989 7.87655412,5.57276588 C7.72061627,5.61971977 7.56989729,5.62074915 7.37416588,5.61710429 Z" id="Path" fill="#000000"></path>
            <path d="M1.71644655,6.75310904 C1.66862701,6.59430983 1.66805119,6.43535808 1.66598734,6.22855751 C1.66450633,6.0258122 1.66451141,5.8709174 1.65928215,5.66974023 C1.65404927,5.62345864 1.66948565,5.62432508 1.72667073,5.62388023 C2.11759751,5.62266644 2.45134079,5.6218974 2.78508068,5.62112847 C2.78831864,5.77918192 2.79155492,5.93723458 2.7899635,6.14258418 C2.50921559,6.18338203 2.22504011,6.13436079 2.20099492,6.56508972 C2.19705876,6.63562927 1.91643492,6.69072384 1.71644655,6.75310904 Z" id="Path" fill="#ADADAD"></path>
            <path d="M1.66894949,8.44953469 C1.63993876,8.10769638 1.6661391,7.80944136 2.18719311,7.88312407 C2.2338574,7.88286893 2.23280565,7.88182147 2.23280565,7.88182147 C2.26604565,8.22983141 2.23035559,8.52028113 1.71263446,8.44795107 C1.66514249,8.44804927 1.66922181,8.44749412 1.66894949,8.44953469 Z" id="Path" fill="#ADADAD"></path>
            <path d="M3.88021345,7.88163955 C3.92751751,8.03826633 3.92813989,8.19594825 3.92870542,8.40072814 C3.77167435,8.44784328 3.61469853,8.44785616 3.41058938,8.44785616 C3.36364576,8.29050271 3.36383887,8.13317345 3.36536983,7.92838497 C3.5223165,7.88151627 3.67792508,7.88210508 3.88021345,7.88163955 Z" id="Path" fill="#9B9B9B"></path>
            <path d="M2.23438158,7.8833948 C2.23498328,7.80941469 2.20823469,7.71931107 2.24062994,7.66359412 C2.31179966,7.54118757 2.41288181,7.43617435 2.50175345,7.32406102 C2.59850621,7.40803785 2.6952591,7.49201379 2.79201006,7.57598972 C2.69314,7.67757446 2.60014588,7.78619887 2.4918861,7.87653175 C2.45865989,7.90425537 2.38364701,7.88190169 2.28028893,7.88215164 C2.23280565,7.88182147 2.2338574,7.88286893 2.23438158,7.8833948 Z" id="Path" fill="#ADADAD"></path>
            <path d="M2.80113955,9.06372079 C3.15219853,8.97765514 3.43373966,9.02035299 3.36381819,9.53191638 C3.20704576,9.57903853 3.05030949,9.57897989 2.84659864,9.58032554 C2.79970158,9.42468678 2.7997826,9.26764282 2.80113955,9.06372079 Z" id="Path" fill="#9B9B9B"></path>
            <path d="M5.62760689,4.44315853 C5.09359932,4.49067548 4.5574365,4.49116339 3.96701096,4.49037977 C3.91777254,4.3339496 3.92279503,4.17879096 3.93048994,3.97714655 C3.93316407,3.93066068 3.92900023,3.93062011 3.98101808,3.92978181 C4.37367412,3.92432136 4.71431232,3.91969932 5.05495062,3.91507684 C5.3867991,3.90740136 5.70397672,3.91712475 5.62760689,4.44315853 Z" id="Path" fill="#C3C3C3"></path>
            <path d="M2.7899722,5.57453661 C2.45134079,5.6218974 2.11759751,5.62266644 1.73440192,5.62392508 C1.68088927,5.46706124 1.67682881,5.30970859 1.72596904,5.10519345 C2.11448881,5.05866791 2.44981153,5.05930328 2.78513412,5.05993864 C2.78837729,5.21594034 2.79161876,5.37194203 2.7899722,5.57453661 Z" id="Path" fill="#C3C3C3"></path>
            <path d="M2.78991695,5.01265446 C2.44981153,5.05930328 2.11448881,5.05866791 1.72911051,5.05805582 C1.67696158,4.90106701 1.67486847,4.74405537 1.72597254,4.54003458 C2.11447164,4.49241209 2.44977706,4.49179785 2.78508068,4.49118407 C2.78828768,4.64924576 2.79149288,4.8073078 2.78991695,5.01265446 Z" id="Path" fill="#ADADAD"></path>
            <path d="M1.66176655,3.92715718 C1.65817864,3.77242316 1.66230972,3.61725548 1.66348734,3.41573864 C2.00199107,3.36708938 2.34344655,3.36478938 2.73501808,3.36182768 C2.78801864,3.51925785 2.79090497,3.67734927 2.73966644,3.88205107 C2.3520104,3.9279861 2.0184774,3.92731017 1.68494621,3.9266348 C1.68494621,3.9266348 1.66948565,3.9267235 1.66176655,3.92715718 Z" id="Path" fill="#ADADAD"></path>
            <path d="M1.67930994,3.97361367 C2.0184774,3.92731017 2.3520104,3.9279861 2.73531288,3.92929254 C2.7883739,4.08594034 2.79166531,4.24195808 2.79001876,4.44457921 C2.44977706,4.49179785 2.11447164,4.49241209 1.72911051,4.49301605 C1.67725989,4.33553492 1.67546678,4.17806384 1.67930994,3.97361367 Z" id="Path" fill="#C3C3C3"></path>
            <path d="M5.05604203,3.86786814 C4.71431232,3.91969932 4.37367412,3.92432136 3.98204226,3.93129989 C3.91971571,3.63031898 3.88330316,3.31038395 4.35470147,3.36305525 C4.66712395,3.39796294 5.12320655,3.2067496 5.05604203,3.86786814 Z" id="Path" fill="#ECA570"></path>
        </g>
    </g>
</svg>
