<?xml version="1.0" encoding="UTF-8"?>

<svg width="10px" height="14px" viewBox="0 0 10 14" version="1.1" xmlns="http://www.w3.org/2000/svg" xmlns:xlink="http://www.w3.org/1999/xlink">
    <g id="Page-1" stroke="none" stroke-width="1" fill="none" fill-rule="evenodd">
        <g id="Group-9" transform="translate(0.266723, 0.947093)" fill-rule="nonzero">
            <path d="M8.42074294,1.12232168 C8.42686373,1.65155558 8.43298441,2.18078903 8.38622181,2.76278462 C8.00350734,2.81554688 7.67367955,2.81554688 7.3592278,2.81554688 C7.31380316,3.04713434 7.28279932,3.20519728 7.25344034,3.35488123 C7.07636599,3.376594 6.93203345,3.39429253 6.75183831,3.41638801 C6.75183831,3.60402067 6.75183831,3.76828587 6.74971763,3.9808149 C6.66972701,4.51363671 6.96664418,4.54476903 7.36737266,4.50720474 C7.56187141,4.50808587 7.71165232,4.50616507 7.90834068,4.50637886 C8.11050497,4.50997378 8.26576192,4.51143502 8.42847751,4.56327694 C8.43236034,4.95224677 8.4287809,5.29083502 8.3802287,5.63340858 C8.18501966,5.63498361 8.03478689,5.63257231 7.88120938,5.58328993 C7.94503073,5.05059694 7.64425853,5.04204779 7.25467141,5.08391457 C7.05908994,5.07911197 6.90833661,5.08094123 6.70836542,5.08058519 C6.49495966,5.07985502 6.33077164,5.08131106 6.12109345,5.07998948 C5.92407401,5.08241547 5.77254814,5.08761976 5.5740391,5.08610948 C5.36949198,5.08352756 5.21192825,5.08765942 5.00776045,5.08613445 C4.80553751,5.08111626 4.64991514,5.08175592 4.44684395,5.08048089 C3.93228305,4.99634982 3.88903435,5.28549355 3.8668409,5.63604824 C3.35841808,5.56824496 3.32813503,5.86242055 3.30260023,6.20115705 C3.10741186,6.20325197 2.95745503,6.20296225 2.80013266,6.15726259 C2.78934972,5.95906474 2.78592904,5.80627683 2.78470486,5.60423931 C2.78552215,5.39083694 2.78414282,5.22668428 2.78576011,5.01766383 C2.78703593,4.82292982 2.78531175,4.67306519 2.78604621,4.47389841 C2.78686701,4.26069558 2.78522554,4.09679468 2.78609107,3.88404361 C2.78103582,3.69408801 2.77348056,3.55298304 2.7640426,3.37675129 C2.36566576,3.37675129 2.01294463,3.37675129 1.66007864,3.33086248 C1.65736486,3.13245298 1.65479412,2.9799314 1.65445616,2.77406067 C1.65522859,2.18934858 1.65376655,1.65798711 1.65230621,1.12662519 C1.65230621,1.12662519 1.6466009,1.11243457 1.70001706,1.11434101 C2.24730237,1.20642225 2.26368192,0.909999538 2.20779853,0.555065413 C2.20779853,0.555065413 2.2165296,0.542508464 2.27089571,0.548101007 C2.48355333,0.552537843 2.64184124,0.551382024 2.84625729,0.55248338 C3.04786294,0.556241572 3.20335085,0.557743041 3.3570974,0.557546317 C3.35535944,0.555848012 3.35131808,0.55315208 3.35271808,0.599696939 C3.35584226,0.800475018 3.35756983,0.954708238 3.35769051,1.15696688 C3.27911028,1.67526575 3.5648652,1.72087185 3.91917944,1.73689796 C3.91857605,2.12359095 3.91809322,2.45945287 3.86992034,2.8030705 C3.43039819,2.76919807 3.24872384,2.90290428 3.41228768,3.35204677 C3.55493751,3.36983355 3.71524271,3.38982259 3.89651367,3.41242541 C3.90767932,3.6030401 3.91732768,3.7677914 3.92484847,3.98183694 C3.86992723,4.3950053 4.02033232,4.54989321 4.39137085,4.51396168 C4.61340441,4.49245976 4.83886542,4.50637378 5.10750983,4.50716688 C5.30213266,4.50795649 5.45203085,4.505947 5.65006068,4.50579185 C6.18180441,4.58449954 6.21498407,4.28997909 6.17503537,3.88568191 C6.27407096,3.32926372 5.93850169,3.36151626 5.61146712,3.33747592 C5.60416701,3.14554971 5.59493593,3.00162733 5.58376678,2.8274957 C5.38714395,2.8274957 5.22318011,2.8274957 5.01074328,2.82388315 C4.80006158,2.82128654 4.63785288,2.82230304 4.47602701,2.81974564 C4.47640282,2.8161714 4.48357537,2.81576417 4.48419254,2.76434248 C4.48498226,2.54822801 4.46583028,2.38075886 4.48900994,2.21936914 C4.55507266,1.75938044 4.32768746,1.63098214 3.9202209,1.63738168 C3.91859322,1.42929796 3.91687944,1.26911909 3.91710011,1.06288485 C3.92040712,0.862271402 3.92177605,0.707712419 3.92118294,0.554460329 C3.91922079,0.555767221 3.91574147,0.559025865 3.96340068,0.557721911 C4.17025119,0.557322589 4.3294461,0.558227108 4.48685819,0.557401007 C4.48507537,0.555670385 4.4809374,0.552921233 4.4822478,0.600927447 C4.44259898,1.07080688 4.59572486,1.22992078 5.02976068,1.04226564 C5.03777107,0.876545752 5.04559186,0.714733662 5.05141266,0.554243041 C5.04941605,0.555564397 5.04588497,0.558866995 5.09358554,0.557471967 C5.30037751,0.5570366 5.45946893,0.557996374 5.61673616,0.557264171 C5.61491198,0.555572532 5.6108809,0.552921233 5.6121913,0.600927447 C5.57254249,1.07080688 5.72566836,1.22992078 6.1596904,1.04227084 C6.16770429,0.876542702 6.17553198,0.714732306 6.18130791,0.55426869 C6.17925955,0.555615696 6.17565266,0.558986204 6.22330836,0.557697843 C6.43014859,0.557317052 6.58934,0.558224284 6.74670723,0.557446091 C6.74488994,0.555760555 6.74082441,0.552921233 6.7421348,0.600927447 C6.70248599,1.07080688 6.85561186,1.22992078 7.2896374,1.04226959 C7.29765119,0.876542702 7.30547548,0.714732306 7.3111548,0.554430159 C7.30900994,0.555938295 7.30514441,0.559486882 7.3529174,0.558120216 C7.55886441,0.550749707 7.71703864,0.544745978 7.87521277,0.538742476 C7.87521277,0.538742476 7.88776124,0.547474453 7.88222316,0.600578521 C7.80121537,1.10804824 8.0782426,1.15319152 8.42074294,1.12232168 Z" id="Path" fill="#EFB385"></path>
            <path d="M7.29436847,9.04016767 C7.14863582,9.04016767 7.00290316,9.04016767 6.82948056,9.04016767 C6.77613853,9.21843265 6.72652768,9.38424304 6.66354418,9.59473931 C6.34780282,9.59473931 6.03874079,9.59473931 5.67013672,9.59882044 C5.6105878,9.60290146 5.59063932,9.60398078 5.59837729,9.5566157 C5.70213367,9.03566937 5.40250621,9.00510959 5.05680576,8.9711644 C5.05261266,8.57845231 5.05212644,8.23656835 5.09819593,7.89721197 C5.29987051,7.9059949 5.45499299,7.91225095 5.61157051,7.96586361 C5.57472192,8.34827728 5.71012339,8.48924959 6.05918237,8.47078044 C6.4702835,8.44902926 6.88362249,8.46955716 7.30057198,8.51895592 C7.30155819,8.72416248 7.29796158,8.88216507 7.29436847,9.04016767 Z" id="Path" fill="#493125"></path>
            <path d="M0.534040339,7.33114451 C0.367704068,7.33114451 0.201369492,7.33114451 2.1649349e-15,7.33114451 C2.1649349e-15,6.02211626 2.1649349e-15,4.74260993 2.1649349e-15,3.4159488 C0.136163616,3.40320462 0.276570282,3.39006361 0.474798305,3.38021649 C0.532619661,3.3835105 0.551631977,3.40228959 0.544114689,3.44649129 C0.537326667,3.64035513 0.538057627,3.79001716 0.534686893,3.9874749 C0.53148,4.19480869 0.532371412,4.3543462 0.531728249,4.56023039 C0.530266215,4.76168858 0.530336949,4.91680157 0.530197288,5.11947095 C0.531526554,5.32595434 0.53306452,5.48488022 0.533069718,5.69625152 C0.530374802,6.27820711 0.529214463,6.80771807 0.529545537,7.33572474 C0.531033446,7.33422135 0.534040339,7.33114451 0.534040339,7.33114451 Z" id="Path" fill="#8F6049"></path>
            <path d="M8.42520158,5.62942315 C8.4287809,5.29083502 8.43236034,4.95224677 8.43593277,4.51732044 C8.43457751,4.2669749 8.43322237,4.11296722 8.43403616,3.91131931 C8.36763887,3.41462202 8.63138316,3.34127253 8.98933887,3.37443671 C8.99432508,4.36351005 8.98563198,5.35294078 9.01147017,6.34146982 C9.02094271,6.70403592 8.86968237,6.80862067 8.49551966,6.72895513 C8.43744316,6.52300372 8.43206034,6.36204157 8.4315948,6.15376948 C8.43274305,5.94744733 8.42897401,5.78843524 8.42520158,5.62942315 Z" id="Path" fill="#493125"></path>
            <path d="M5.61552237,11.2835503 C5.6139913,11.4411615 5.61245672,11.5987726 5.55934588,11.8057715 C5.35388147,11.8591842 5.20000045,11.86321 4.99849831,11.8636256 C4.7916339,11.8624773 4.63238384,11.8649394 4.47313729,11.8674015 C4.13835774,11.8642635 3.80357469,11.8611238 3.36687333,11.859729 C2.92325119,11.8577307 2.58155435,11.8539859 2.23985401,11.850241 C2.23391254,11.6950582 2.22797119,11.5398755 2.26973367,11.3389957 C2.66269661,11.2921072 3.00795559,11.290915 3.40060825,11.28994 C3.60575186,11.2900106 3.76350192,11.2898659 3.96798,11.2898357 C4.17085808,11.2898745 4.32700814,11.2897985 4.53061729,11.28994 C4.73629887,11.2898072 4.89451785,11.2894572 5.10002011,11.2893331 C5.30579819,11.2883115 5.4643,11.2870641 5.62023966,11.2876813 C5.61768102,11.2895469 5.61552237,11.2835503 5.61552237,11.2835503 Z" id="Path" fill="#75764E"></path>
            <path d="M8.99482169,3.32756587 C8.63138316,3.34127253 8.36763887,3.41462202 8.38815977,3.90595762 C8.18561966,3.94739039 8.03112486,3.94654553 7.82924328,3.94563909 C7.62375141,3.94560767 7.4656565,3.94563863 7.26116113,3.94562869 C7.06045898,3.94124248 6.90614689,3.93689716 6.75183831,3.9325514 C6.75183831,3.76828587 6.75183831,3.60402067 6.75183831,3.41638801 C6.93203345,3.39429253 7.07636599,3.376594 7.25344034,3.35488123 C7.28279932,3.20519728 7.31380316,3.04713434 7.3592278,2.81554688 C7.67367955,2.81554688 8.00350734,2.81554688 8.38477017,2.81541536 C8.76746746,2.79681784 9.09565729,2.78207886 8.99482169,3.32756587 Z" id="Path" fill="#674534"></path>
            <path d="M8.45311571,7.32858587 C8.61844859,7.33726191 8.78378147,7.34593784 8.97631808,7.35604135 C8.97631808,8.09019863 8.97631808,8.80891084 8.97631808,9.56764677 C8.82485085,9.57802711 8.68320102,9.58773581 8.49113333,9.54822078 C8.44030181,9.14755253 8.41111864,8.79317366 8.44658113,8.4453862 C8.49334373,7.98677852 8.2934174,7.84205445 7.87436791,7.90020948 C7.87451966,7.90036462 7.87476791,7.90059389 7.87467141,7.85362959 C7.88285774,7.65086959 7.89113706,7.4950731 7.94528599,7.33780846 C8.14513638,7.33375581 8.2991278,7.33117129 8.45311571,7.32858587 Z" id="Path" fill="#9E725F"></path>
            <path d="M7.87421277,7.90005513 C8.2934174,7.84205445 8.49334373,7.98677852 8.44658113,8.4453862 C8.41111864,8.79317366 8.44030181,9.14755253 8.44166384,9.55250869 C8.44261209,9.76709389 8.44261209,9.92816801 8.44261209,10.0880741 C8.0106522,10.2532122 7.82073977,10.1427117 7.87356102,9.60022135 C7.87361277,8.96617807 7.87391277,8.43311705 7.87421277,7.90005513 Z" id="Path" fill="#8F6049"></path>
            <path d="M3.35321458,11.2897227 C3.00795559,11.290915 2.66269661,11.2921072 2.26551299,11.2925512 C2.21358475,11.2918029 2.22051243,11.2872959 2.22123661,11.2422981 C2.21355028,11.053233 2.20513638,10.9091677 2.19512599,10.7378011 C1.99821684,10.7378011 1.83460475,10.7378011 1.67098915,10.7378011 C1.66691672,10.5830667 1.66284418,10.4283322 1.65679073,10.2156203 C1.6548096,10.1576429 1.65788554,10.1344755 1.7087861,10.1436445 C2.10292147,10.1551111 2.44615288,10.1574085 2.78980147,10.2067375 C2.71852136,10.7191905 3.00611763,10.7564228 3.35291808,10.7718549 C3.35394565,10.9758735 3.35358906,11.1327985 3.35321458,11.2897227 Z" id="Path" fill="#5E3926"></path>
            <path d="M7.87436791,7.90020948 C7.87391277,8.43311705 7.87361277,8.96617807 7.87238859,9.55266304 C7.70652124,9.59630315 7.54157458,9.58651942 7.34127243,9.57463909 C7.32902395,9.41954089 7.31775831,9.27690564 7.30043062,9.08721909 C7.29796158,8.88216507 7.30155819,8.72416248 7.30523062,8.47071231 C7.30633751,8.21404564 7.30736508,8.05282666 7.30908588,7.89555942 C7.30978237,7.89951027 7.30176158,7.89927152 7.34969661,7.8996749 C7.55667819,7.90024993 7.71572136,7.90042236 7.87476791,7.90059389 C7.87476791,7.90059389 7.87451966,7.90036462 7.87436791,7.90020948 Z" id="Path" fill="#9E725F"></path>
            <path d="M1.6492165,9.01943298 C1.65306136,8.86465547 1.65690621,8.70987705 1.66067175,8.5103705 C1.66059243,8.46564157 1.6571148,8.46399581 1.70467571,8.46465875 C1.90951932,8.46506745 2.06680045,8.46481219 2.27063028,8.46481219 C2.47168418,8.46423547 2.62619627,8.4634027 2.78373932,8.5139705 C2.78788418,8.90855852 2.78900147,9.25174587 2.78994633,9.59510654 C2.7897739,9.59527988 2.7899774,9.59507637 2.74299412,9.59530055 C2.53943661,9.59507897 2.38285559,9.59463163 2.22570565,9.54741558 C2.28739593,9.05129547 2.03480689,8.98233005 1.66766497,9.03810394 C1.66150282,9.03189265 1.6492165,9.01943298 1.6492165,9.01943298 Z" id="Path" fill="#675549"></path>
            <path d="M1.60278497,1.1240131 C1.65376655,1.65798711 1.65522859,2.18934858 1.60792983,2.76987694 C1.40299311,2.81771976 1.24681379,2.81639603 1.09063446,2.81507231 C1.09063446,2.26712315 1.09063446,1.719174 1.09063446,1.12140101 C1.27295887,1.12140101 1.4131122,1.12140101 1.60278497,1.1240131 Z" id="Path" fill="#EBA069"></path>
            <path d="M5.61945684,9.59830146 C5.62498452,9.74811005 5.62164655,9.90251863 5.61940508,10.1517291 C5.62011887,10.4098638 5.61973266,10.5731967 5.61788441,10.732976 C5.61641887,10.7294234 5.62397412,10.7282932 5.5759426,10.7276148 C5.36964723,10.7266122 5.21138339,10.7262889 5.05043672,10.7271785 C5.04775051,10.7283932 5.0421539,10.7302665 5.04456429,10.6827436 C5.12509966,10.161362 4.8284826,10.1312384 4.4834409,10.111989 C4.48427876,9.90847818 4.48469266,9.75193072 4.53211729,9.59554451 C4.73584362,9.59546519 4.8925626,9.59522474 5.09475107,9.59511784 C5.29036011,9.59816089 5.44049966,9.60107129 5.59063932,9.60398168 C5.59063932,9.60398078 5.6105878,9.60290146 5.61945684,9.59830146 Z" id="Path" fill="#796651"></path>
            <path d="M1.04332881,2.81529344 C1.24681379,2.81639603 1.40299311,2.81771976 1.60569876,2.82322666 C1.65479412,2.9799314 1.65736486,3.13245298 1.65994768,3.37893762 C1.65724588,3.63304982 1.65453209,3.79319818 1.60533672,3.95038225 C1.40285175,3.94582745 1.24684655,3.94423818 1.09273107,3.94433909 C1.09462249,3.94602914 1.09956045,3.94719084 1.09794836,3.90004587 C1.16193695,3.40391592 0.922094689,3.32415592 0.551631977,3.40228959 C0.551631977,3.40228959 0.532619661,3.3835105 0.52308678,3.37414654 C0.526997175,3.20275547 0.540438757,3.04072779 0.55652,2.84688428 C0.712747571,2.83573332 0.854385311,2.82562372 1.04332881,2.81529344 Z" id="Path" fill="#8F6049"></path>
            <path d="M2.23353672,11.899388 C2.58155435,11.8539859 2.92325119,11.8577307 3.3169452,11.8641359 C3.35431458,12.0318826 3.33969379,12.1969724 3.3257626,12.3542603 C2.36609333,12.5267725 2.26949921,12.4896739 2.23353672,11.899388 Z" id="Path" fill="#564940"></path>
            <path d="M8.44769842,7.28307852 C8.2991278,7.33117129 8.14513638,7.33375581 7.93482373,7.33377739 C7.87850249,7.33121524 7.85678497,7.32841174 7.86357819,7.27810948 C7.86936102,6.88892587 7.86835062,6.55004451 7.91420633,6.20933219 C8.11627401,6.20536055 8.27147582,6.20321999 8.42667751,6.20107954 C8.43206034,6.36204157 8.43744316,6.52300372 8.44748113,6.7323957 C8.44885017,6.93307378 8.44556384,7.08532202 8.44769842,7.28307852 Z" id="Path" fill="#8F6049"></path>
            <path d="M6.74880384,0.00835343605 C6.90428136,0.00300631741 7.05976237,-0.00234068824 7.26193017,0.0464494813 C7.30746169,0.253553549 7.30630305,0.406520329 7.30514441,0.559486882 C7.30514441,0.559486882 7.30900994,0.555938295 7.26345085,0.555402589 C7.05887277,0.554218295 6.89984689,0.553569707 6.74082441,0.552921007 C6.74082441,0.552921233 6.74488994,0.555760555 6.74512441,0.511166656 C6.74650723,0.313833097 6.74765548,0.16109321 6.74880384,0.00835343605 Z" id="Path" fill="#EBA069"></path>
            <path d="M7.3529174,0.558120216 C7.30630305,0.406520329 7.30746169,0.253553549 7.30803062,0.0547894813 C7.47185661,0.00899196713 7.6362722,0.00899196713 7.8383296,0.00899196713 C7.85124011,0.162262476 7.86314373,0.303579086 7.87513006,0.491819086 C7.71703864,0.544745978 7.55886441,0.550749707 7.3529174,0.558120216 Z" id="Path" fill="#607393"></path>
            <path d="M5.61855684,0.558956035 C5.45946893,0.557996374 5.30037751,0.5570366 5.09511311,0.511236939 C5.04783672,0.313709142 5.04672983,0.161021233 5.04562633,0.00833309707 C5.20503853,0.00311840781 5.36444712,-0.00209605547 5.56978384,0.0460955829 C5.61665684,0.252653323 5.61760859,0.40580451 5.61855684,0.558956035 Z" id="Path" fill="#607393"></path>
            <path d="M4.99950859,0.000675243964 C5.04672983,0.161021233 5.04783672,0.313709142 5.04741266,0.51263208 C5.04588497,0.558866995 5.04941605,0.555564397 5.00371209,0.555215922 C4.79898576,0.554218521 4.63995989,0.553569933 4.4809374,0.552921233 C4.4809374,0.552921233 4.48507537,0.555670385 4.48527186,0.511121459 C4.48661672,0.313833097 4.48776508,0.16109321 4.48891684,0.00835366204 C4.6437426,0.00324145865 4.79857198,-0.00187063174 4.99950859,0.000675243964 Z" id="Path" fill="#EBA069"></path>
            <path d="M4.44159209,0.00112145865 C4.48776508,0.16109321 4.48661672,0.313833097 4.48705469,0.51285208 C4.3294461,0.558227108 4.17025119,0.557322589 3.96500757,0.511466882 C3.91786565,0.313788012 3.91677254,0.161060668 3.91568282,0.00833309707 C4.0752122,0.00351840781 4.23473808,-0.00129628146 4.44159209,0.00112145865 Z" id="Path" fill="#607393"></path>
            <path d="M6.70149977,0.00112191063 C6.74765548,0.16109321 6.74650723,0.313833097 6.74694169,0.51285208 C6.58934,0.558224284 6.43014859,0.557317052 6.22488768,0.511522476 C6.17782508,0.313898747 6.17683198,0.161162363 6.17583887,0.00842586543 C6.33529232,0.0035805547 6.49474237,-0.00126464304 6.70149977,0.00112191063 Z" id="Path" fill="#607393"></path>
            <path d="M6.12977627,0.000743831535 C6.17683198,0.161162363 6.17782508,0.313898747 6.17723198,0.512810724 C6.17565266,0.558986204 6.17925955,0.555615696 6.13360395,0.555241346 C5.92892927,0.554218521 5.76990339,0.553569933 5.6108809,0.552921233 C5.6108809,0.552921233 5.61491198,0.555572532 5.61673616,0.557264171 C5.61760859,0.40580451 5.61665684,0.252653323 5.61706023,0.0539607807 C5.77351718,0.0033005547 5.92861548,-0.00181865434 6.12977627,0.000743831535 Z" id="Path" fill="#EBA069"></path>
            <path d="M2.80013266,0.550226204 C2.64184124,0.551382024 2.48355333,0.552537843 2.27798893,0.550955244 C2.23071944,0.388298521 2.23071944,0.22837999 2.23071944,0.0176877863 C2.3863626,0.00937128916 2.53840904,0.00124688238 2.73956644,0.0458430406 C2.79249458,0.24911773 2.79631537,0.399671967 2.80013266,0.550226204 Z" id="Path" fill="#EBA069"></path>
            <path d="M3.86953062,0.000674678992 C3.91677254,0.161060668 3.91786565,0.313788012 3.91734836,0.512770611 C3.91574147,0.559025865 3.91922079,0.555767221 3.87348927,0.555518973 C3.66894565,0.554564397 3.51013356,0.553858295 3.35131808,0.55315208 C3.35131808,0.55315208 3.35535944,0.555848012 3.3554974,0.511374679 C3.35660079,0.314101572 3.35756983,0.161301685 3.35853876,0.00850191063 C3.51348881,0.00333998973 3.66843537,-0.00182193118 3.86953062,0.000674678992 Z" id="Path" fill="#EBA069"></path>
            <path d="M3.31121412,0.00129343605 C3.35756983,0.161301685 3.35660079,0.314101572 3.35723537,0.513072984 C3.20335085,0.557743041 3.04786294,0.556241572 2.84625729,0.552483154 C2.79631537,0.399671967 2.79249458,0.24911773 2.78731864,0.0535306112 C2.9452722,0.00369366204 3.10458079,-0.00111051875 3.31121412,0.00129343605 Z" id="Path" fill="#607393"></path>
            <path d="M1.09914667,7.8959827 C0.939551751,7.8959827 0.779958644,7.8959827 0.566482147,7.8959827 C0.553906102,7.73116971 0.542340452,7.57958869 0.532407571,7.37957615 C0.534040339,7.33114451 0.531033446,7.33422135 0.576859774,7.33514462 C0.780401695,7.33551524 0.938118983,7.3349618 1.09538282,7.38163988 C1.09444486,7.58649818 1.09395864,7.74412666 1.09487932,7.90033355 C1.09628621,7.89891197 1.09914667,7.8959827 1.09914667,7.8959827 Z" id="Path" fill="#8F6049"></path>
            <path d="M1.66128215,8.46372259 C1.49562859,8.4618044 1.32928542,8.4618044 1.13018836,8.4618044 C1.11696927,8.28162745 1.10637085,8.13716202 1.09745864,7.9443392 C1.09914667,7.8959827 1.09628621,7.89891197 1.14218678,7.8996879 C1.34566486,7.90010338 1.50324079,7.89974394 1.66034418,7.94653841 C1.65895458,8.15046044 1.65803559,8.30722779 1.65711661,8.46399581 C1.6571148,8.46399581 1.66059243,8.46564157 1.66128215,8.46372259 Z" id="Path" fill="#8F6049"></path>
            <path d="M1.11267435,9.59881445 C1.05740825,9.25107265 1.07061006,8.95647027 1.60242972,9.02374948 C1.6492165,9.01943298 1.66150282,9.03189265 1.66280972,9.08344315 C1.6627339,9.28837649 1.66135107,9.4417592 1.65989932,9.59521095 C1.6598304,9.59527988 1.65969243,9.59541784 1.61402294,9.59540835 C1.41646215,9.59653683 1.26456746,9.59767558 1.11267435,9.59881445 Z" id="Path" fill="#675549"></path>
            <path d="M4.47727525,11.9137641 C4.63238384,11.8649394 4.7916339,11.8624773 4.9994948,11.9082916 C5.04942644,12.1063662 5.05074373,12.2561661 5.0520609,12.4059661 C4.70803989,12.4542131 4.41577458,12.4362199 4.47727525,11.9137641 Z" id="Path" fill="#4F3D2F"></path>
            <path d="M5.09940633,12.4121024 C5.05074373,12.2561661 5.04942644,12.1063662 5.04711605,11.911902 C5.20000045,11.86321 5.35388147,11.8591842 5.55367333,11.8527047 C5.65381243,12.2031552 5.64361921,12.5046965 5.09940633,12.4121024 Z" id="Path" fill="#564940"></path>
            <path d="M2.16131864,0.555159425 C2.26368192,0.909999538 2.24730237,1.20642225 1.70629638,1.10997502 C1.65915797,0.942792193 1.65915797,0.78188225 1.65915797,0.587931176 C1.83514271,0.575311176 1.97499254,0.565282363 2.16131864,0.555159425 Z" id="Path" fill="#607393"></path>
            <path d="M8.42886883,1.07429615 C8.0782426,1.15319152 7.80121537,1.10804824 7.87936113,0.607666882 C8.04263525,0.561651289 8.20323367,0.561651289 8.41307729,0.561651289 C8.42120847,0.719670272 8.42909819,0.872970272 8.42886883,1.07429615 Z" id="Path" fill="#EBA069"></path>
            <path d="M5.61934994,10.7365287 C5.61973266,10.5731967 5.62011887,10.4098638 5.6247052,10.1976452 C5.97716079,10.1299513 6.26945367,10.1730225 6.12668655,10.6856816 C5.9249878,10.7310036 5.77216893,10.7337665 5.61934994,10.7365287 Z" id="Path" fill="#503121"></path>
            <path d="M1.10547605,9.64603649 C1.26456746,9.59767558 1.41646215,9.59653683 1.61414373,9.64066055 C1.65925277,9.83544033 1.65857006,9.9849575 1.65788554,10.1344755 C1.65788554,10.1344755 1.6548096,10.1576429 1.65681661,10.1691784 C1.49358034,10.1666525 1.32833706,10.1525912 1.12872113,10.1356048 C1.11797446,9.97945649 1.10812429,9.8363575 1.10547605,9.64603649 Z" id="Path" fill="#796651"></path>
            <path d="M1.66606497,10.785549 C1.83460475,10.7378011 1.99821684,10.7378011 2.19512599,10.7378011 C2.20513638,10.9091677 2.21355028,11.053233 2.2241435,11.245236 C2.06567966,11.2931719 1.90504,11.2931719 1.68838249,11.2931719 C1.67898237,11.1344676 1.67006158,10.9838822 1.66606497,10.785549 Z" id="Path" fill="#EFB385"></path>
            <path d="M5.61788441,10.7329769 C5.77216893,10.7337665 5.9249878,10.7310036 6.12336588,10.7334985 C6.16892497,10.9046366 6.16892497,11.0705168 6.16892497,11.2893296 C6.00139209,11.2893296 5.85664565,11.2893296 5.66371254,11.2864399 C5.61552237,11.2835503 5.61768102,11.2895469 5.61662576,11.2413041 C5.61837062,11.0381389 5.62117412,10.8832157 5.62397763,10.7282932 C5.62397412,10.7282932 5.61641887,10.7294234 5.61788441,10.7329769 Z" id="Path" fill="#EBA069"></path>
            <path d="M2.78251175,5.65348892 C2.78592904,5.80627683 2.78934972,5.95906474 2.79314983,6.20404327 C2.7966774,6.45325208 2.79982576,6.61027016 2.75427006,6.7681349 C2.46011514,6.77715909 2.21853661,6.79604722 2.20897435,6.43285355 C2.20700881,6.35825197 2.08474203,6.22496598 2.01641367,6.22398666 C1.5674052,6.2175418 1.67916859,5.88672948 1.65468893,5.58681152 C1.65217684,5.38053773 1.64664237,5.22169366 1.64939232,5.06199366 C1.65767345,5.06113931 1.66506497,5.07606101 1.71264475,5.07583344 C1.91971605,5.07820767 2.07920395,5.08081027 2.23357119,5.13029095 C2.12210102,5.67448146 2.46073921,5.65417344 2.78251175,5.65348892 Z" id="Path" fill="#674534"></path>
            <path d="M3.92697616,3.93254281 C3.91732768,3.7677914 3.90767932,3.6030401 3.89651367,3.41242541 C3.71524271,3.38982259 3.55493751,3.36983355 3.41228768,3.35204677 C3.24872384,2.90290428 3.43039819,2.76919807 3.91673458,2.80982824 C4.16868565,2.81114123 4.3261322,2.81345242 4.48357537,2.81576372 C4.48357537,2.81576417 4.47640282,2.8161714 4.47934768,2.86681163 C4.39755718,3.41000123 4.72368147,3.40031321 5.05234373,3.38339242 C5.05051605,3.38149626 5.04682294,3.37774926 5.04809887,3.42557988 C5.04989887,3.63348688 5.05042644,3.79356417 5.05087469,3.94993185 C5.05079537,3.9462227 5.05823684,3.9472714 5.00652938,3.94664428 C4.61220441,3.94152564 4.26959028,3.93703423 3.92697616,3.93254281 Z" id="Path" fill="#674534"></path>
            <path d="M5.05436441,5.09179231 C5.21192825,5.08765942 5.36949198,5.08352756 5.57201153,5.13557027 C5.61744644,5.52353061 5.61792927,5.85531536 5.5716391,6.19450609 C5.36699198,6.20440372 5.20912124,6.20689423 5.00439141,6.20789683 C4.80131684,6.20785287 4.64509435,6.20929683 4.4870409,6.16274372 C4.48465119,5.95612157 4.48409944,5.7974957 4.48265808,5.63942587 C4.48176847,5.63998361 4.48079254,5.63784745 4.52794825,5.63866813 C5.0297365,5.71495513 5.08355785,5.43969355 5.05436441,5.09179231 Z" id="Path" fill="#8F6049"></path>
            <path d="M5.61841198,6.18710089 C5.61792927,5.85531536 5.61744644,5.52353061 5.6189913,5.14228507 C5.77254814,5.08761976 5.92407401,5.08241547 6.12593831,5.13009445 C6.17519751,5.51861683 6.17412158,5.85425502 6.12694181,6.19652338 C5.92669469,6.19780101 5.77255514,6.19245095 5.61841198,6.18710089 Z" id="Path" fill="#674534"></path>
            <path d="M6.75758667,5.08277152 C6.90833661,5.08094123 7.05908994,5.07911197 7.25797492,5.12926338 C7.30927209,5.33314575 7.31243412,5.48504745 7.31325141,5.68498496 C7.31261345,5.89268733 7.31432034,6.05235287 7.3144652,6.21169683 C7.31290655,6.21137445 7.31072373,6.20904937 7.26410599,6.20748123 C7.06204169,6.20057603 6.90659514,6.19523886 6.74871412,6.13976157 C6.7500452,5.75400564 6.75381424,5.41838813 6.75758667,5.08277152 Z" id="Path" fill="#674534"></path>
            <path d="M6.70836542,5.08058519 C6.75381424,5.41838813 6.7500452,5.75400564 6.70080328,6.14526078 C6.49456655,6.19723118 6.33380271,6.19356304 6.17304226,6.189894 C6.17412158,5.85425502 6.17519751,5.51861683 6.17143186,5.13287197 C6.33077164,5.08131106 6.49495966,5.07985502 6.70836542,5.08058519 Z" id="Path" fill="#EBA069"></path>
            <path d="M4.48419254,2.76434248 C4.3261322,2.81345242 4.16868565,2.81114123 3.96442825,2.80207219 C3.91809322,2.45945287 3.91857605,2.12359095 3.91938633,1.73670259 C3.9197174,1.68567536 3.92013119,1.68528654 3.92013119,1.68528654 C4.32768746,1.63098214 4.55507266,1.75938044 4.48900994,2.21936914 C4.46583028,2.38075886 4.48498226,2.54822801 4.48419254,2.76434248 Z" id="Path" fill="#F09F84"></path>
            <path d="M2.23869198,5.08341287 C2.07920395,5.08081027 1.91971605,5.07820767 1.7104861,5.02902948 C1.66649593,4.82647807 1.6722478,4.67050225 1.7243139,4.51307728 C1.92660576,4.50877637 2.08258678,4.50592372 2.28389243,4.50631773 C2.4806739,4.51411005 2.63213424,4.5186549 2.78358757,4.52320067 C2.78531175,4.67306519 2.78703593,4.82292982 2.74064237,5.02272767 C2.54124701,5.07624553 2.38996949,5.07982914 2.23869198,5.08341287 Z" id="Path" fill="#493125"></path>
            <path d="M3.92484847,3.98183694 C4.26959028,3.93703423 4.61220441,3.94152564 5.00265695,3.99321027 C5.05459198,4.19505863 5.05868859,4.34971423 5.0627852,4.50436937 C4.83886542,4.50637378 4.61340441,4.49245976 4.39137085,4.51396168 C4.02033232,4.54989321 3.86992723,4.3950053 3.92484847,3.98183694 Z" id="Path" fill="#EBA069"></path>
            <path d="M1.65181819,3.95334688 C1.65453209,3.79319818 1.65724588,3.63304982 1.66009243,3.42482643 C2.01294463,3.37675129 2.36566576,3.37675129 2.7640426,3.37675129 C2.77348056,3.55298304 2.78103582,3.69408801 2.74094237,3.88947592 C2.54171605,3.94684553 2.39014192,3.94993265 2.19014655,3.95044383 C1.98114429,3.94706067 1.82056667,3.94625287 1.65911661,3.9486314 C1.65824418,3.95181762 1.65181819,3.95334688 1.65181819,3.95334688 Z" id="Path" fill="#493125"></path>
            <path d="M2.80297401,6.76728835 C2.79982576,6.61027016 2.7966774,6.45325208 2.80051887,6.24945332 C2.95745503,6.20296225 3.10741186,6.20325197 3.30538644,6.20386146 C3.35341119,6.20418123 3.35893876,6.20963739 3.35716294,6.25600858 C3.35510079,6.45827287 3.35481458,6.61416507 3.30753819,6.77022451 C3.10422215,6.76870214 2.94789977,6.76701242 2.79396011,6.76851423 C2.79634294,6.77170474 2.80297062,6.76728835 2.80297401,6.76728835 Z" id="Path" fill="#EBA069"></path>
            <path d="M5.10750983,4.50716688 C5.05868859,4.34971423 5.05459198,4.19505863 5.05436441,3.99383705 C5.05823684,3.9472714 5.05079537,3.9462227 5.09761311,3.94625734 C5.30073955,3.94874123 5.45704475,3.95118959 5.61296362,3.94937061 C5.61257751,3.94510293 5.60400836,3.94538474 5.60861537,3.99182067 C5.60946023,4.19348361 5.60569458,4.34871072 5.60193254,4.50393841 C5.45203085,4.505947 5.30213266,4.50795649 5.10750983,4.50716688 Z" id="Path" fill="#000000"></path>
            <path d="M2.2385678,3.95301931 C2.39014192,3.94993265 2.54171605,3.94684553 2.73843887,3.93832654 C2.78522554,4.09679468 2.78686701,4.26069558 2.78604972,4.47389841 C2.63213424,4.5186549 2.4806739,4.51411005 2.27845797,4.46071976 C2.23132294,4.25892361 2.23494362,4.10597152 2.2385678,3.95301931 Z" id="Path" fill="#EBA069"></path>
            <path d="M5.65006068,4.50579185 C5.60569458,4.34871072 5.60946023,4.19348361 5.65608136,3.99194903 C5.85667322,3.94135796 6.01441288,3.93707344 6.17214915,3.93278892 C6.21498407,4.28997909 6.18180441,4.58449954 5.65006068,4.50579185 Z" id="Path" fill="#EBA069"></path>
            <path d="M6.74971763,3.9808149 C6.90614689,3.93689716 7.06045898,3.94124248 7.26206463,3.99244779 C7.31379277,4.19433965 7.31822734,4.34937197 7.32265842,4.50440383 C6.96664418,4.54476903 6.66972701,4.51363671 6.74971763,3.9808149 Z" id="Path" fill="#EBA069"></path>
            <path d="M7.36737266,4.50720474 C7.31822734,4.34937197 7.31379277,4.19433965 7.30845819,3.99248869 C7.4656565,3.94563863 7.62375141,3.94560767 7.8283191,3.99228959 C7.87034034,4.19408361 7.86588859,4.34916428 7.86143672,4.5042453 C7.71165232,4.50616507 7.56187141,4.50808587 7.36737266,4.50720474 Z" id="Path" fill="#000000"></path>
            <path d="M7.90834068,4.50637886 C7.86588859,4.34916428 7.87034034,4.19408361 7.87571277,3.99235163 C8.03112486,3.94654553 8.18561966,3.94739039 8.38598734,3.95359739 C8.43322237,4.11296722 8.43457751,4.2669749 8.42847751,4.46693886 C8.26576192,4.51143502 8.11050497,4.50997378 7.90834068,4.50637886 Z" id="Path" fill="#EBA069"></path>
            <path d="M5.0541748,3.38528813 C4.72368147,3.40031321 4.39755718,3.41000123 4.47897186,2.87038587 C4.63785288,2.82230304 4.80006158,2.82128654 5.00738452,2.87008157 C5.05305751,3.07502428 5.05361616,3.23015615 5.0541748,3.38528813 Z" id="Path" fill="#EC7759"></path>
            <path d="M5.05234373,3.38339242 C5.05361616,3.23015615 5.05305751,3.07502428 5.05585751,2.87369411 C5.22318011,2.8274957 5.38714395,2.8274957 5.58376678,2.8274957 C5.59493593,3.00162733 5.60416701,3.14554971 5.61342226,3.33559445 C5.61344644,3.38171694 5.61727401,3.37794926 5.56976316,3.37913106 C5.36377469,3.37945829 5.20529706,3.37860349 5.04682294,3.37774926 C5.04682294,3.37774926 5.05051605,3.38149626 5.05234373,3.38339242 Z" id="Path" fill="#674534"></path>
            <path d="M6.17503537,3.88568191 C6.01441288,3.93707344 5.85667322,3.94135796 5.65147446,3.94551366 C5.60400836,3.94538474 5.61257751,3.94510293 5.61352226,3.90102914 C5.61540158,3.69728632 5.61633955,3.53761773 5.61727401,3.37794926 C5.61727401,3.37794926 5.61344644,3.38171694 5.61149469,3.38359841 C5.93850169,3.36151626 6.27407096,3.32926372 6.17503537,3.88568191 Z" id="Path" fill="#674534"></path>
            <path d="M2.23357119,5.13029185 C2.38996949,5.07982914 2.54124701,5.07624553 2.73764226,5.06759716 C2.78414282,5.22668428 2.78552215,5.39083694 2.78470486,5.60423931 C2.46073921,5.65417344 2.12210102,5.67448146 2.23357119,5.13029185 Z" id="Path" fill="#EBA069"></path>
            <path d="M3.91309322,5.63361118 C3.88903435,5.28549355 3.93228305,4.99634982 4.44346113,5.12655129 C4.48528576,5.32897332 4.4830374,5.48341039 4.48079254,5.63784745 C4.48079254,5.63784745 4.48176847,5.63998361 4.43585412,5.64015174 C4.2340174,5.64119231 4.07809842,5.64206293 3.91989672,5.64061378 C3.9176139,5.6382931 3.91309322,5.63361118 3.91309322,5.63361118 Z" id="Path" fill="#EBA069"></path>
            <path d="M4.52794825,5.63866813 C4.4830374,5.48341039 4.48528576,5.32897332 4.49091333,5.12846507 C4.64991514,5.08175592 4.80553751,5.08111626 5.00776045,5.08613445 C5.08355785,5.43969355 5.0297365,5.71495513 4.52794825,5.63866813 Z" id="Path" fill="#9E725F"></path>
            <path d="M7.31559627,5.63694914 C7.31243412,5.48504745 7.30927209,5.33314575 7.30280994,5.13589615 C7.64425853,5.04204779 7.94503073,5.05059694 7.87667831,5.5879227 C7.87549548,5.63942756 7.86651616,5.64848033 7.8209087,5.64533106 C7.6220652,5.64043796 7.46883243,5.6386931 7.31559627,5.63694914 Z" id="Path" fill="#9E725F"></path>
            <path d="M3.35062486,6.20147694 C3.32813503,5.86242055 3.35841808,5.56824496 3.8668409,5.63604824 C3.91309322,5.63361118 3.9176139,5.6382931 3.91877944,5.68687637 C3.91787254,5.89009671 3.91580362,6.04473298 3.86777198,6.20193039 C3.66751808,6.20620711 3.51322667,6.2079218 3.35893876,6.20963739 C3.35893876,6.20963739 3.35341119,6.20418123 3.35062486,6.20147694 Z" id="Path" fill="#EBA069"></path>
            <path d="M8.4315948,6.15376948 C8.27147582,6.20321999 8.11627401,6.20536055 7.91615808,6.20834767 C7.87124373,6.20919592 7.86969887,6.21254338 7.87138859,6.16517649 C7.87088859,5.96136654 7.86870237,5.80492338 7.86651266,5.64848033 C7.86651266,5.64848033 7.87549548,5.63942756 7.88002667,5.63479479 C8.03478689,5.63257231 8.18501966,5.63498361 8.3802252,5.63340858 C8.42897401,5.78843524 8.43274305,5.94744733 8.4315948,6.15376948 Z" id="Path" fill="#9E725F"></path>
            <path d="M3.35271808,0.599696939 C3.51013356,0.553858295 3.66894565,0.554564397 3.8754548,0.554211967 C3.92177605,0.707712419 3.92040712,0.862271402 3.87092373,1.06715129 C3.66830429,1.11462858 3.5138026,1.11178496 3.3592974,1.10894146 C3.35756983,0.954708238 3.35584226,0.800475018 3.35271808,0.599696939 Z" id="Path" fill="#7587A4"></path>
            <path d="M6.7421348,0.600927221 C6.89984689,0.553569707 7.05887277,0.554218295 7.26559571,0.55389434 C7.30547548,0.714732306 7.29765119,0.876542702 7.2896374,1.04226959 C6.85561186,1.22992078 6.70248599,1.07080688 6.7421348,0.600927221 Z" id="Path" fill="#7587A4"></path>
            <path d="M5.6121913,0.600927447 C5.76990339,0.553569933 5.92892927,0.554218521 6.1356522,0.55389434 C6.17553198,0.714732306 6.16770429,0.876542702 6.1596904,1.04227084 C5.72566836,1.22992078 5.57254249,1.07080688 5.6121913,0.600927447 Z" id="Path" fill="#7587A4"></path>
            <path d="M4.4822478,0.600927447 C4.63995989,0.553569933 4.79898576,0.554218521 5.0057087,0.55389434 C5.04559186,0.714733662 5.03777107,0.876545752 5.02976068,1.04226564 C4.59572486,1.22992078 4.44259898,1.07080688 4.4822478,0.600927447 Z" id="Path" fill="#7587A4"></path>
            <path d="M3.35769051,1.15696688 C3.5138026,1.11178496 3.66830429,1.11462858 3.86898576,1.11320609 C3.91687944,1.26911909 3.91859322,1.42929796 3.9202209,1.63738168 C3.92013119,1.68528654 3.9197174,1.68567536 3.91951051,1.68587106 C3.5648652,1.72087185 3.27911028,1.67526575 3.35769051,1.15696688 Z" id="Path" fill="#F09F84"></path>
            <path d="M5.04927819,9.59498507 C4.8925626,9.59522474 4.73584362,9.59546519 4.53193107,9.54801129 C4.43627141,9.35226598 4.39637096,9.07957332 4.33802542,9.07556643 C3.79264362,9.03811683 3.9299348,8.64382372 3.92223808,8.33253321 C3.91392418,7.99629152 3.92533469,7.65956112 3.97358701,7.32802383 C4.17120633,7.33912993 4.32338734,7.34525683 4.47852362,7.39761163 C4.41304011,7.92553298 4.72747458,7.92204937 5.05512994,7.8994749 C5.05255751,7.9003914 5.05164023,7.8946844 5.05164023,7.8946844 C5.05212644,8.23656835 5.05261266,8.57845231 5.05290576,9.01896485 C5.0515678,9.27672462 5.05042294,9.435854 5.04927819,9.59498507 Z" id="Path" fill="#9E725F"></path>
            <path d="M5.61011186,7.9185062 C5.45499299,7.91225095 5.29987051,7.9059949 5.09819593,7.89721197 C5.05164023,7.8946844 5.05255751,7.9003914 5.05215751,7.85364428 C5.05523333,7.65402745 5.05870927,7.50115852 5.11405469,7.34267739 C5.8764252,7.34086711 6.5869296,7.34466711 7.30223751,7.39411332 C7.30528237,7.59293016 7.30352023,7.74610089 7.30176158,7.89927152 C7.30176158,7.89927152 7.30978237,7.89951027 7.25656802,7.8988844 C6.67227537,7.90500779 6.14119367,7.91175694 5.61011186,7.9185062 Z" id="Path" fill="#EBA069"></path>
            <path d="M5.61157051,7.96586361 C6.14119367,7.91175694 6.67227537,7.90500779 7.25587141,7.89493355 C7.30736508,8.05282666 7.30633751,8.21404564 7.3006513,8.42350835 C6.88362249,8.46955716 6.4702835,8.44902926 6.05918237,8.47078044 C5.71012339,8.48924959 5.57472192,8.34827728 5.61157051,7.96586361 Z" id="Path" fill="#674534"></path>
            <path d="M5.09475107,9.59511784 C5.05042294,9.435854 5.0515678,9.27672462 5.05661266,9.0697931 C5.40250621,9.00510959 5.70213367,9.03566937 5.59837729,9.5566157 C5.44049966,9.60107129 5.29036011,9.59816089 5.09475107,9.59511784 Z" id="Path" fill="#675549"></path>
            <path d="M1.09583627,7.33440835 C0.938118983,7.3349618 0.780401695,7.33551524 0.575370169,7.33664801 C0.529214463,6.80771807 0.530374802,6.27820711 0.578121921,5.69484722 C0.775493107,5.64141637 0.926277514,5.64183626 1.08340678,5.69448168 C1.09036554,6.27735875 1.09097751,6.80801118 1.09267582,7.33757739 C1.09376203,7.33649027 1.09583627,7.33440835 1.09583627,7.33440835 Z" id="Path" fill="#493125"></path>
            <path d="M0.533262825,4.51388417 C0.532371412,4.3543462 0.53148,4.19480869 0.581121921,3.98954564 C0.787624181,3.94494383 0.94359322,3.94606711 1.09956045,3.94719084 C1.09956045,3.94719084 1.09462249,3.94602914 1.09425695,3.99117411 C1.09245695,4.19146123 1.09102407,4.34660383 1.0433374,4.50583411 C0.842476497,4.5112427 0.687869718,4.51256349 0.533262825,4.51388417 Z" id="Path" fill="#7F7F7F"></path>
            <path d="M1.09794836,3.90004587 C0.94359322,3.94606711 0.787624181,3.94494383 0.585222034,3.94174937 C0.538057627,3.79001716 0.537326667,3.64035513 0.544114689,3.44649129 C0.922094689,3.32415592 1.16193695,3.40391592 1.09794836,3.90004587 Z" id="Path" fill="#EBA069"></path>
            <path d="M1.07706023,5.64225524 C0.926277514,5.64183626 0.775493107,5.64141637 0.579656384,5.6424018 C0.53306452,5.48488022 0.531526554,5.32595434 0.57719435,5.12109603 C0.781265537,5.07248598 0.938131073,5.06981016 1.0922896,5.07262135 C1.08958102,5.07810846 1.09067062,5.09029999 1.09195864,5.13593242 C1.09972418,5.33433378 1.10619842,5.4871044 1.10377593,5.64057411 C1.09487932,5.64127332 1.07706023,5.64225524 1.07706023,5.64225524 Z" id="Path" fill="#674534"></path>
            <path d="M1.09499831,5.06713332 C0.938131073,5.06981016 0.781265537,5.07248598 0.577401243,5.07353863 C0.530336949,4.91680157 0.530266215,4.76168858 0.531728249,4.56023039 C0.687869718,4.51256349 0.842476497,4.5112427 1.04526328,4.55331909 C1.09396203,4.75352123 1.09447932,4.91032733 1.09499831,5.06713332 Z" id="Path" fill="#EBA069"></path>
            <path d="M3.40060825,11.28994 C3.35358011,11.1327985 3.35394565,10.9758735 3.35417322,10.773386 C3.35403525,10.7278234 3.35792497,10.7275949 3.40428418,10.7263372 C3.60650011,10.7256113 3.76236045,10.7261441 3.91945537,10.7265329 C3.92068983,10.726388 3.92327955,10.7253906 3.9217174,10.7724033 C3.92052429,10.9761839 3.92088633,11.1329529 3.92124847,11.289721 C3.76350192,11.2898659 3.60575186,11.2900106 3.40060825,11.28994 Z" id="Path" fill="#7F7F7F"></path>
            <path d="M3.96798,11.2898357 C3.92088633,11.1329529 3.92052429,10.9761839 3.96809379,10.7726705 C4.17082023,10.7262967 4.32560814,10.7266682 4.48231672,10.7738377 C4.48387876,10.9769985 4.48351672,11.1333607 4.48315469,11.2897227 C4.32700814,11.2897985 4.17085808,11.2898745 3.96798,11.2898357 Z" id="Path" fill="#5E3926"></path>
            <path d="M4.53061729,11.28994 C4.48351672,11.1333607 4.48387876,10.9769985 4.52935175,10.7731998 C4.73036429,10.727263 4.8862591,10.7287648 5.0421539,10.7302665 C5.0421539,10.7302665 5.04775051,10.7283932 5.04927819,10.7740912 C5.05145062,10.9762287 5.05209198,11.1326676 5.05273684,11.2891072 C4.89451785,11.2894572 4.73629887,11.2898072 4.53061729,11.28994 Z" id="Path" fill="#7F7F7F"></path>
            <path d="M5.10001661,11.2893331 C5.05209198,11.1326676 5.05145062,10.9762287 5.05196441,10.7728774 C5.21138339,10.7262889 5.36964723,10.7266122 5.5759426,10.7276148 C5.62117412,10.8832157 5.61837062,11.0381389 5.61918441,11.2394394 C5.4643,11.2870641 5.30579819,11.2883115 5.10001661,11.2893331 Z" id="Path" fill="#5E3926"></path>
            <path d="M7.34969661,7.8996749 C7.30352023,7.74610089 7.30528237,7.59293016 7.34876215,7.38969863 C7.54591254,7.33589637 7.70134881,7.332154 7.85678497,7.32841174 C7.85678497,7.32841174 7.87850249,7.33121524 7.88896124,7.33524632 C7.89113706,7.4950731 7.88285774,7.65086959 7.87467141,7.85362959 C7.71572136,7.90042236 7.55667819,7.90024993 7.34969661,7.8996749 Z" id="Path" fill="#674534"></path>
            <path d="M3.35278011,10.7262915 C3.00611763,10.7564228 2.71852136,10.7191905 2.78978768,10.1597051 C2.78956701,9.90878677 2.7897704,9.75193163 2.7899774,9.59507637 C2.7899774,9.59507637 2.7897739,9.59527988 2.83694339,9.59498022 C3.04080768,9.59488327 3.1974991,9.59507039 3.35455944,9.64227603 C3.35521119,9.84602485 3.35550079,10.0027542 3.35537322,10.2067504 C3.35594565,10.4118768 3.35693537,10.5697364 3.35792497,10.7275949 C3.35792497,10.7275949 3.35403525,10.7278234 3.35278011,10.7262915 Z" id="Path" fill="#675549"></path>
            <path d="M2.74299412,9.59530055 C2.7897704,9.75193163 2.78956701,9.90878677 2.7893739,10.1126735 C2.44615288,10.1574085 2.10292147,10.1551111 1.7087861,10.1436445 C1.65857006,9.9849575 1.65925277,9.83544033 1.65981311,9.64067005 C1.65969154,9.59541784 1.6598304,9.59527988 1.70705503,9.59534191 C1.91161243,9.59499716 2.06894531,9.59459106 2.22627808,9.59418507 C2.38285559,9.59463163 2.53943661,9.59507897 2.74299412,9.59530055 Z" id="Path" fill="#75764E"></path>
            <path d="M3.3541939,9.5952566 C3.1974991,9.59507039 3.04080768,9.59488327 2.83711232,9.59481524 C2.78900147,9.25174587 2.78788418,8.90855852 2.78700836,8.46299581 C2.78970836,8.01867197 2.79217051,7.67672338 2.79284294,7.33438248 C2.79104983,7.33399118 2.78969458,7.33687129 2.83677096,7.33618948 C3.04084565,7.33549886 3.19784045,7.33549197 3.3547939,7.33543942 C3.35474565,7.33539287 3.35455944,7.33520926 3.35462147,7.38814688 C3.35452497,8.15914248 3.35435944,8.87719954 3.3541939,9.5952566 Z" id="Path" fill="#9E725F"></path>
            <path d="M2.79463254,7.33477479 C2.79217051,7.67672338 2.78970836,8.01867197 2.78398068,8.41159524 C2.62619627,8.4634027 2.47168418,8.46423547 2.27096124,8.41785479 C2.22473661,8.21339219 2.22472282,8.05614394 2.22477458,7.85186496 C2.15061853,7.3279488 2.4535461,7.30823649 2.79463254,7.33477479 Z" id="Path" fill="#674534"></path>
            <path d="M2.22471647,7.89889479 C2.22472282,8.05614394 2.22473661,8.21339219 2.22441593,8.41759965 C2.06680045,8.46481219 1.90951932,8.46506745 1.70467571,8.46465875 C1.65803559,8.30722779 1.65895458,8.15046044 1.65930113,7.94757716 C1.6587304,7.90146293 1.65655446,7.90363796 1.70393435,7.90251976 C1.90911593,7.90056632 2.06691424,7.89973016 2.22471647,7.89889479 Z" id="Path" fill="#493125"></path>
            <path d="M2.22570565,9.54741558 C2.06894531,9.59459106 1.91161243,9.59499716 1.70712407,9.59527298 C1.66135107,9.4417592 1.6627339,9.28837649 1.66897186,9.08965445 C2.03480689,8.98233005 2.28739593,9.05129547 2.22570565,9.54741558 Z" id="Path" fill="#796651"></path>
            <path d="M3.35455944,9.64227603 C3.35435944,8.87719954 3.35452497,8.15914248 3.4022565,7.38822451 C3.6097174,7.33376869 3.76960881,7.33217468 3.92625887,7.32924971 C3.9230209,7.32791863 3.92814508,7.32304451 3.92814508,7.32304451 C3.92533469,7.65956112 3.91392418,7.99629152 3.92223808,8.33253321 C3.9299348,8.64382372 3.79264362,9.03811683 4.33802542,9.07556643 C4.39637096,9.07957332 4.43627141,9.35226598 4.48491672,9.54785005 C4.48469266,9.75193072 4.48427876,9.90847818 4.43658859,10.1124529 C4.23288294,10.1601559 4.07645706,10.16043 3.87292723,10.1604784 C3.66914565,10.1599956 3.51246814,10.1597395 3.35578701,10.1594835 C3.35550079,10.0027542 3.35521119,9.84602485 3.35455944,9.64227603 Z" id="Path" fill="#8F6049"></path>
            <path d="M3.9200278,10.1607051 C4.07645706,10.16043 4.23288294,10.1601559 4.43616452,10.1594172 C4.8284826,10.1312384 5.12509966,10.161362 5.04456429,10.6827436 C4.8862591,10.7287648 4.73036429,10.727263 4.52743446,10.726401 C4.32560814,10.7266697 4.17082023,10.7262967 3.96965593,10.7256578 C3.92327955,10.7253906 3.92068983,10.726388 3.92017254,10.6791729 C3.91977605,10.4748732 3.91990486,10.3177896 3.9200278,10.1607051 Z" id="Path" fill="#75764E"></path>
            <path d="M1.0922896,5.07262135 C1.09447932,4.91032733 1.09396203,4.75352123 1.09151718,4.54923106 C1.09102407,4.34660383 1.09245695,4.19146123 1.09236554,3.98948349 C1.24684655,3.94423818 1.40285175,3.94582745 1.60533672,3.95038225 C1.65181819,3.95334688 1.65824418,3.95181762 1.65904938,3.99610259 C1.66590282,4.19843366 1.67195119,4.35648067 1.67799955,4.51452722 C1.6722478,4.67050225 1.66649593,4.82647807 1.66290282,5.02925705 C1.66506497,5.07606101 1.65767345,5.06113931 1.60381254,5.06654022 C1.39685684,5.07806112 1.24376373,5.0841801 1.09067062,5.09029999 C1.09067062,5.09029999 1.08958102,5.07810846 1.0922896,5.07262135 Z" id="Path" fill="#EFB385"></path>
            <path d="M7.86357819,7.27810948 C7.70134881,7.332154 7.54591254,7.33589637 7.34395514,7.34405332 C6.5869296,7.34466711 5.8764252,7.34086711 5.0652887,7.33829118 C4.80162373,7.34347231 4.63859435,7.34742745 4.47556836,7.35138361 C4.32338734,7.34525683 4.17120633,7.33912993 3.97358701,7.32802383 C3.92814508,7.32304451 3.9230209,7.32791863 3.92207955,7.28391818 C3.92299672,7.08802892 3.92485198,6.93613931 3.97380079,6.77898677 C4.16299254,6.76138993 4.30509062,6.74905886 4.46354757,6.735307 C4.47433729,6.53821773 4.48330983,6.37437106 4.49116508,6.20903219 C4.4900478,6.20754078 4.48887537,6.21073999 4.48887537,6.21073999 C4.64509435,6.20929683 4.80131684,6.20785287 5.00366045,6.25827411 C5.04978847,6.45218225 5.04978847,6.59422349 5.04978847,6.74034835 C5.82987989,6.74034835 6.56449492,6.74034835 7.31072373,6.74034835 C7.31072373,6.54320564 7.31072373,6.37612711 7.31072373,6.20904937 C7.31072373,6.20904937 7.31290655,6.21137445 7.36060362,6.20913219 C7.56209898,6.20877355 7.71590068,6.21065807 7.86969887,6.21254338 C7.86969887,6.21254338 7.87124373,6.20919592 7.86929198,6.21017954 C7.86835062,6.55004451 7.86936102,6.88892587 7.86357819,7.27810948 Z" id="Path" fill="#000000"></path>
            <path d="M1.65977345,7.90042327 C1.50324079,7.89974394 1.34566486,7.90010338 1.14077989,7.90110948 C1.09395864,7.74412666 1.09444486,7.58649818 1.09538282,7.38163988 C1.09583627,7.33440835 1.09376203,7.33649027 1.14030056,7.33648428 C1.66865458,7.2561705 1.68994802,7.55725909 1.65655446,7.90363796 C1.65655446,7.90363796 1.6587304,7.90146293 1.65977345,7.90042327 Z" id="Path" fill="#493125"></path>
            <path d="M1.70393435,7.90251976 C1.68994802,7.55725909 1.66865458,7.2561705 1.13921435,7.3375705 C1.09097751,6.80801118 1.09036554,6.27735875 1.08340678,5.69448078 C1.07706023,5.64225524 1.09487932,5.64127332 1.14832136,5.64075784 C1.3517322,5.63824225 1.50170102,5.63624225 1.65166825,5.63424135 C1.67916859,5.88672948 1.5674052,6.2175418 2.01641367,6.22398666 C2.08474203,6.22496598 2.20700881,6.35825197 2.20897435,6.43285355 C2.21853661,6.79604722 2.46011514,6.77715909 2.75426655,6.7681349 C2.80297062,6.76728835 2.79634294,6.77170474 2.79313944,6.81661468 C2.78985322,7.01997389 2.7897739,7.17842214 2.78969458,7.33687129 C2.78969458,7.33687129 2.79104983,7.33399118 2.79284294,7.33438248 C2.4535461,7.30823649 2.15061853,7.3279488 2.22477458,7.85186496 C2.06691424,7.89973016 1.90911593,7.90056632 1.70393435,7.90251976 Z" id="Path" fill="#8F6049"></path>
            <path d="M1.65468893,5.58681152 C1.50170102,5.63624225 1.3517322,5.63824225 1.15721797,5.64005863 C1.10619842,5.4871044 1.09972418,5.33433378 1.09195864,5.13593242 C1.24376373,5.0841801 1.39685684,5.07806112 1.59552972,5.06739547 C1.64664237,5.22169366 1.65217684,5.38053773 1.65468893,5.58681152 Z" id="Path" fill="#7F7F7F"></path>
            <path d="M5.56976316,3.37913106 C5.61633955,3.53761773 5.61540158,3.69728632 5.61390847,3.90529637 C5.45704475,3.95118959 5.30073955,3.94874123 5.09769243,3.94996677 C5.05042644,3.79356417 5.04989887,3.63348688 5.04809887,3.42557988 C5.20529706,3.37860349 5.36377469,3.37945829 5.56976316,3.37913106 Z" id="Path" fill="#EC7759"></path>
            <path d="M7.26410599,6.20748123 C7.31072373,6.37612711 7.31072373,6.54320564 7.31072373,6.74034835 C6.56449492,6.74034835 5.82987989,6.74034835 5.04978847,6.74034835 C5.04978847,6.59422349 5.04978847,6.45218225 5.05051955,6.25976202 C5.20912124,6.20689423 5.36699198,6.20440372 5.5716391,6.19450609 C5.77255514,6.19245095 5.92669469,6.19780101 6.12694181,6.19652338 C6.33380271,6.19356304 6.49456655,6.19723118 6.70323774,6.1954001 C6.90659514,6.19523886 7.06204169,6.20057603 7.26410599,6.20748123 Z" id="Path" fill="#F9F8D5"></path>
            <path d="M3.91373458,6.19936914 C3.91580362,6.04473298 3.91787254,5.89009671 3.92105876,5.68919716 C4.07809842,5.64206293 4.2340174,5.64119231 4.43674384,5.6395949 C4.48409944,5.7974957 4.48465119,5.95612157 4.4870409,6.16274372 C4.48887537,6.21073999 4.4900478,6.20754078 4.44393695,6.20752349 C4.24126576,6.20962869 4.08470542,6.21175208 3.92453469,6.21025547 C3.92092429,6.20663649 3.91373458,6.19936914 3.91373458,6.19936914 Z" id="Path" fill="#9E725F"></path>
            <path d="M7.87138859,6.16517649 C7.71590068,6.21065807 7.56209898,6.20877355 7.36216226,6.20945457 C7.31432034,6.05235287 7.31261345,5.89268733 7.31325141,5.68498496 C7.46883243,5.6386931 7.6220652,5.64043796 7.82090531,5.64533106 C7.86870237,5.80492338 7.87088859,5.96136654 7.87138859,6.16517649 Z" id="Path" fill="#8F6049"></path>
            <path d="M1.7243139,4.51307728 C1.67195119,4.35648067 1.66590282,4.19843366 1.65992,3.99291592 C1.82056667,3.94625287 1.98114429,3.94706067 2.19014316,3.95044428 C2.23494362,4.10597152 2.23132294,4.25892361 2.23313322,4.45747321 C2.08258678,4.50592372 1.92660576,4.50877637 1.7243139,4.51307728 Z" id="Path" fill="#674534"></path>
            <path d="M3.92671062,6.78425061 C3.92485198,6.93613931 3.92299672,7.08802892 3.92531751,7.28524926 C3.76960881,7.33217468 3.6097174,7.33376869 3.40219446,7.33528598 C3.35455944,7.33520926 3.35474565,7.33539287 3.35474565,7.28835016 C3.35467322,7.08422462 3.35460079,6.92714101 3.35453186,6.77005818 C3.35481458,6.61416507 3.35510079,6.45827287 3.35716294,6.25600858 C3.51322667,6.2079218 3.66751808,6.20620711 3.86777198,6.20193039 C3.91373458,6.19936914 3.92092429,6.20663649 3.92152429,6.25741886 C3.92365537,6.46688496 3.92518294,6.62556779 3.92671062,6.78425061 Z" id="Path" fill="#9E725F"></path>
            <path d="M3.30753819,6.77022451 C3.35460079,6.92714101 3.35467322,7.08422462 3.3547939,7.28839581 C3.19784045,7.33549197 3.04084565,7.33549886 2.83677096,7.33618948 C2.7897739,7.17842214 2.78985322,7.01997389 2.79075672,6.81342327 C2.94789977,6.76701242 3.10422215,6.76870214 3.30753819,6.77022451 Z" id="Path" fill="#674534"></path>
            <path d="M4.47852362,7.39761163 C4.63859435,7.34742745 4.80162373,7.34347231 5.0134191,7.34390248 C5.05870927,7.50115852 5.05523333,7.65402745 5.05472644,7.8527279 C4.72747458,7.92204937 4.41304011,7.92553298 4.47852362,7.39761163 Z" id="Path" fill="#674534"></path>
            <path d="M3.87293073,10.1604784 C3.91990362,10.3177896 3.91977605,10.4748732 3.91893808,10.6793177 C3.76236045,10.7261441 3.60650011,10.7256113 3.40428418,10.7263372 C3.35693537,10.5697364 3.35594565,10.4118768 3.35537322,10.2067504 C3.51246814,10.1597395 3.66914565,10.1599956 3.87293073,10.1604784 Z" id="Path" fill="#796651"></path>
            <path d="M3.97380079,6.77898677 C3.92518294,6.62556779 3.92365537,6.46688496 3.92513819,6.26103796 C4.08470542,6.21175208 4.24126576,6.20962869 4.44505424,6.2090149 C4.48330983,6.37437106 4.47433729,6.53821773 4.46354757,6.735307 C4.30509062,6.74905886 4.16299254,6.76138993 3.97380079,6.77898677 Z" id="Path" fill="#8F6049"></path>
        </g>
    </g>
</svg>
