<?xml version="1.0" encoding="UTF-8"?>
<svg width="11px" height="14px" viewBox="0 0 11 14" version="1.1" xmlns="http://www.w3.org/2000/svg" xmlns:xlink="http://www.w3.org/1999/xlink">
    <g id="Page-1" stroke="none" stroke-width="1" fill="none" fill-rule="evenodd">
        <g id="Group-13" transform="translate(0.463281, 0.611059)" fill-rule="nonzero">
            <path d="M1.67261492,0.524560904 C1.68551333,0.358784972 1.69841175,0.193007232 1.71342915,-2.60902411e-15 C3.94910734,-2.60902411e-15 6.16393864,-2.60902411e-15 8.42415503,-2.60902411e-15 C8.43854305,0.145887797 8.45254147,0.287816949 8.42347571,0.481074237 C8.22044927,0.534514463 8.06048203,0.536626554 7.84734689,0.537716271 C6.88652768,0.537386893 5.97887797,0.538078305 5.02455367,0.537719661 C4.82214802,0.53736791 4.66641525,0.538069718 4.45917672,0.537905876 C4.06388271,0.537616271 3.72009785,0.538193785 3.32963842,0.537717966 C3.12723277,0.53736791 2.9715,0.538069718 2.76454249,0.537909379 C2.37530203,0.54187322 2.03728621,0.546700791 1.69259966,0.544793898 C1.68592723,0.538059322 1.67261492,0.524560904 1.67261492,0.524560904 Z" id="Path" fill="#984D1F"></path>
            <path d="M9.00989932,4.48530463 C9.00989932,5.77630339 9.00989932,7.06730384 9.00989932,8.40194441 C8.85418384,8.41794802 8.71316508,8.43244475 8.51945944,8.40261684 C8.46047085,8.1954904 8.45416915,8.03267819 8.45334836,7.81796893 C8.45443638,6.86385672 8.45004497,5.96165017 8.45204497,5.01255695 C8.46410023,4.80890305 8.46976237,4.65213582 8.52014226,4.49342881 C8.71320994,4.48943051 8.86155288,4.48736847 9.00989932,4.48530463 Z" id="Path" fill="#984D1F"></path>
            <path d="M0.00715344633,3.92874158 C0.00715344633,3.20098531 0.00715344633,2.47323073 0.00715344633,1.70853085 C0.183098531,1.68111672 0.340983051,1.6565165 0.498867571,1.63191627 C0.471863729,1.5740087 0.44486,1.51610294 0.417856271,1.45819537 C0.616080904,1.33812847 0.814305537,1.21806169 1.06668757,1.10055345 C1.12084508,1.10311209 1.13428147,1.11645537 1.12890723,1.16176621 C1.12231582,1.36026497 1.12110023,1.51345119 1.11937616,1.71342056 C1.11789164,1.91615209 1.11691571,2.07210384 1.06777379,2.22904701 C0.415194237,2.16203243 0.586271977,2.60636486 0.551347458,2.92647186 C0.500567571,3.39192701 0.808239887,3.37255785 1.11694508,3.41077898 C1.11713299,3.61536226 1.11599853,3.77305198 1.06914791,3.92898463 C0.870997514,3.92898294 0.718564746,3.93074158 0.519391864,3.93038475 C0.31748452,3.92842429 0.162318983,3.92858294 0.00715344633,3.92874158 Z" id="Path" fill="#984D1F"></path>
            <path d="M7.9005165,0.538740339 C8.06048203,0.536626554 8.22044927,0.534514463 8.42836542,0.529829944 C8.63921944,0.535912768 8.80212124,0.544569718 8.99865096,0.555012994 C9.00965458,0.712807797 9.01950633,0.854145537 9.03006508,1.09596034 C9.02956508,1.7297104 9.02836508,2.26298181 8.98046452,2.79592045 C8.7780313,2.79685153 8.62230542,2.79811706 8.46547266,2.74622158 C8.46368305,2.2855096 8.47693492,1.87716554 8.45381571,1.47089209 C8.44689661,1.34929243 8.34299718,1.1342539 8.27564814,1.13111593 C7.8402209,1.1108191 7.89490429,0.816215819 7.9005165,0.538740339 Z" id="Path" fill="#B06A3C"></path>
            <path d="M9.02716508,2.79625492 C9.02836508,2.26298181 9.02956508,1.7297104 9.03217548,1.14306599 C9.19931525,1.10004486 9.36504124,1.11039492 9.56901243,1.12313299 C9.56901243,1.46312475 9.56901243,1.79316633 9.56901243,2.15746339 C9.7685078,2.20197944 9.93818203,2.23984192 10.1036563,2.27676814 C10.296348,2.73780949 10.0442798,2.8337209 9.63120621,2.80432746 C9.61001288,3.13131898 9.60196452,3.48368836 9.07772079,3.31699345 C9.02823401,3.1131826 9.02769955,2.95471876 9.02716508,2.79625492 Z" id="Path" fill="#C0652C"></path>
            <path d="M2.2607904,11.2682898 C2.2607904,10.9147341 2.2607904,10.5611785 2.2607904,10.160381 C2.4239974,10.1524362 2.56628859,10.1455085 2.80461017,10.1384221 C3.0574165,10.1398463 3.21418893,10.1414325 3.37365096,10.1938642 C3.37738723,10.5853616 3.37843379,10.9260136 3.33245401,11.2698967 C3.12871729,11.2788658 2.97200689,11.2846003 2.76930463,11.2851279 C2.56914034,11.2760451 2.41496452,11.2721692 2.2607904,11.2682898 Z" id="Path" fill="#A349A4"></path>
            <path d="M6.18614237,10.1457188 C6.19220791,10.2973033 6.19827356,10.4488911 6.20550983,10.6938282 C6.20628395,10.9471931 6.20588915,11.1072018 6.20528915,11.2696519 C6.20508734,11.2720933 6.20225977,11.2760933 6.15108847,11.2740244 C5.75738249,11.2726623 5.41484938,11.2733727 5.0254209,11.2723933 C4.82155141,11.2701794 4.66457559,11.2696519 4.50802554,11.2223306 C4.50877209,11.019225 4.50909277,10.8629164 4.56079853,10.7062112 C4.93640102,10.7058112 5.26062011,10.7058112 5.61161017,10.7058112 C5.62251028,10.4618602 5.62976893,10.2994136 5.68295921,10.1380877 C5.88130621,10.1413774 6.0337252,10.1435463 6.18614237,10.1457188 Z" id="Path" fill="#A349A4"></path>
            <path d="M1.11105017,8.45045876 C0.947167345,8.43880339 0.783284407,8.42714814 0.55913548,8.41120655 C0.55913548,7.68506746 0.55913548,6.98217695 0.607982486,6.22985492 C0.807881243,6.17968362 0.958932994,6.17894576 1.11286226,6.2266635 C1.11988994,6.43673819 1.12403819,6.59835379 1.12628475,6.80538192 C1.12564859,7.00254621 1.12691582,7.15429955 1.12537785,7.35450181 C1.12421062,7.56521785 1.12584859,7.7274852 1.12627785,7.93605299 C1.13078486,8.13668972 1.13650565,8.29102938 1.13480554,8.44894147 C1.12738825,8.4525174 1.11105017,8.45045876 1.11105017,8.45045876 Z" id="Path" fill="#6A3E22"></path>
            <path d="M1.10998294,6.1782061 C0.958932994,6.17894576 0.807881243,6.17968362 0.611706667,6.17618531 C0.561721695,5.64943638 0.556861243,5.12692373 0.550709492,4.50548757 C0.554990508,4.24854339 0.560561356,4.0905209 0.56613209,3.93250023 C0.718564746,3.93074158 0.870997514,3.92898294 1.06839627,3.92666056 C1.11336226,3.92609842 1.10959672,3.92851232 1.1129226,3.97546452 C1.12222791,4.17917367 1.12820554,4.33593401 1.12774339,4.53914486 C1.12559684,4.74158158 1.12989006,4.8975661 1.12880554,5.10078034 C1.12701243,5.30622056 1.13060034,5.46442746 1.12776757,5.66818836 C1.1155209,5.86606124 1.10969672,6.01838192 1.10356554,6.17408531 C1.10326045,6.17746644 1.10998294,6.1782061 1.10998294,6.1782061 Z" id="Path" fill="#EBA069"></path>
            <path d="M8.44786734,7.86986949 C8.45416915,8.03267819 8.46047085,8.1954904 8.47095898,8.40693062 C8.4751452,8.80738339 8.4751452,9.15920441 8.4751452,9.57708147 C8.28700859,9.57708147 8.14592949,9.57708147 7.95283085,9.53331209 C7.89802328,9.33045808 7.89523367,9.17137017 7.89411808,8.96078847 C7.89673537,8.56594621 7.89767503,8.22259412 7.94451345,7.87961446 C8.14289672,7.87661446 8.29538113,7.87324203 8.44786734,7.86986949 Z" id="Path" fill="#C5845C"></path>
            <path d="M2.23807119,9.01751672 C2.08457299,9.01555458 1.93107299,9.01359593 1.73095356,8.96687819 C1.68158056,8.76004147 1.67882542,8.59795684 1.67899085,8.39057525 C1.68009266,8.19348689 1.67827706,8.04169898 1.67884949,7.84243819 C1.68483062,7.63784282 1.68842373,7.48072384 1.73834678,7.32140486 C1.93930068,7.31798418 2.09392475,7.3167565 2.24846271,7.36258814 C2.24850576,7.56635243 2.24863164,7.72306102 2.24863853,7.93105299 C2.25453695,8.32357797 2.26055424,8.66482316 2.26032147,9.01110282 C2.2540696,9.01614079 2.23807119,9.01751672 2.23807119,9.01751672 Z" id="Path" fill="#C46328"></path>
            <path d="M7.89244395,9.01228215 C7.89523367,9.17137017 7.89802328,9.33045808 7.90372859,9.5375948 C7.90664588,9.58564712 7.90412678,9.57876768 7.85855559,9.57828836 C7.65015853,9.57882633 7.48733605,9.57984362 7.32451186,9.58086079 C7.16961356,9.57779876 7.01471525,9.57473661 6.81422689,9.5142739 C6.77058497,9.12272475 6.77253164,8.78857627 6.82056836,8.45089661 C7.02197921,8.44559661 7.17730158,8.44382757 7.33281186,8.4892522 C7.26141627,8.99846475 7.54431944,9.04371695 7.89244395,9.01228215 Z" id="Path" fill="#C0652C"></path>
            <path d="M4.50401864,12.3824055 C4.34998588,12.3888677 4.19595492,12.3953298 3.94520384,12.403354 C3.50935424,12.4018471 3.17022463,12.3987747 2.83109322,12.3957023 C2.82507593,12.2408557 2.81905695,12.0860127 2.81368102,11.8861484 C2.81432237,11.8411306 2.81928621,11.8371064 2.86563853,11.8364133 C3.06646305,11.8318581 3.22093548,11.8279925 3.42691367,11.8280573 C3.82149898,11.8308754 4.16457695,11.829765 4.50774972,11.8308685 C4.50784802,11.8330788 4.50831345,11.8376202 4.5083739,11.8833621 C4.50696181,12.0802056 4.50549107,12.2313073 4.50401864,12.3824055 Z" id="Path" fill="#A349A4"></path>
            <path d="M8.98046452,2.79592045 C9.02769955,2.95471876 9.02823401,3.1131826 9.02920994,3.31955559 C9.02779616,3.52413367 9.02593751,3.68080441 8.97156791,3.88242723 C8.76604147,3.92763469 8.61302599,3.92788983 8.46130023,3.92804158 C8.46259333,3.92793989 8.46067785,3.92957435 8.46125198,3.88116859 C8.45871232,3.67135593 8.45559503,3.50994904 8.45583119,3.30264328 C8.45962949,3.10335831 8.46007605,2.9499739 8.46190373,2.79749808 C8.46328305,2.79840836 8.46657616,2.7993826 8.46657616,2.7993826 C8.62230542,2.79811706 8.7780313,2.79685153 8.98046452,2.79592045 Z" id="Path" fill="#984D1F"></path>
            <path d="M2.82464667,12.4447269 C3.17022463,12.3987747 3.50935424,12.4018471 3.89941198,12.4100231 C3.94056418,12.577387 3.93078983,12.7396406 3.92136734,12.8960733 C2.9707948,13.078527 2.85251593,13.0339921 2.82464667,12.4447269 Z" id="Path" fill="#845237"></path>
            <path d="M6.21435299,11.8400755 C6.21000644,11.9947426 6.20566158,12.1494098 6.14784542,12.3512603 C5.94161729,12.4041679 5.78886034,12.4098921 5.58896847,12.410061 C5.38385073,12.4064127 5.22586621,12.4083128 5.06788169,12.4102128 C5.06788169,12.4102128 5.06804034,12.4021402 5.07085243,12.3535156 C5.07451458,12.1515306 5.07536633,11.9981703 5.12665311,11.8413651 C5.50991243,11.837972 5.84273853,11.8380202 6.18507164,11.8422202 C6.19458034,11.8463721 6.21435299,11.8400755 6.21435299,11.8400755 Z" id="Path" fill="#A349A4"></path>
            <path d="M6.77447819,8.45443119 C6.77253164,8.78857627 6.77058497,9.12272475 6.76830915,9.50664282 C6.6099487,9.56367096 6.45191774,9.57092972 6.25368271,9.57601254 C6.21347887,9.57383661 6.21244441,9.55142949 6.20919085,9.50250486 C6.2025391,9.12182124 6.19914249,8.79006938 6.24360678,8.45333458 C6.45247288,8.45038282 6.61347469,8.45240701 6.77447819,8.45443119 Z" id="Path" fill="#C5845C"></path>
            <path d="M1.67607186,8.43587582 C1.67882542,8.59795684 1.68158056,8.76004147 1.68487718,8.97079548 C1.67683401,9.1846461 1.66825107,9.34983073 1.65807514,9.54566045 C1.48974395,9.55418124 1.34557514,9.56147785 1.11676395,9.57305729 C1.11676395,9.21484994 1.11676395,8.88369797 1.11390712,8.50150407 C1.11105017,8.45045876 1.12738825,8.4525174 1.17877853,8.44869322 C1.37880305,8.44186893 1.52743751,8.43887243 1.67607186,8.43587582 Z" id="Path" fill="#984D1F"></path>
            <path d="M5.07000757,12.4571029 C5.22586621,12.4083128 5.38385073,12.4064127 5.58972373,12.4541925 C5.63896904,12.6515499 5.64032599,12.7992205 5.64168294,12.9468946 C5.2935704,13.0027814 5.00032407,12.9881088 5.07000757,12.4571029 Z" id="Path" fill="#6A4933"></path>
            <path d="M5.68898,12.9536877 C5.64032599,12.7992205 5.63896904,12.6515499 5.63685695,12.4597443 C5.78886034,12.4098921 5.94161729,12.4041679 6.14011254,12.3970643 C6.23907401,12.7456061 6.23822915,13.0524853 5.68898,12.9536877 Z" id="Path" fill="#845237"></path>
            <path d="M5.07621808,11.8448066 C5.07536633,11.9981703 5.07451458,12.1515306 5.0738939,12.3508672 C4.91555243,12.3968919 4.7569835,12.3969471 4.55121571,12.3897056 C4.50549107,12.2313073 4.50696181,12.0802056 4.55545017,11.8822828 C4.75927661,11.834396 4.9160887,11.8333271 5.07395944,11.8353374 C5.07501808,11.8384133 5.07621808,11.8448066 5.07621808,11.8448066 Z" id="Path" fill="#853A85"></path>
            <path d="M6.19295797,10.0997597 C6.0337252,10.1435463 5.88130621,10.1413774 5.6834696,10.1403705 C5.63805006,10.141536 5.64264497,10.1420188 5.64126565,10.0957666 C5.63869492,9.89619876 5.63750531,9.74287989 5.68411096,9.58501605 C5.89208395,9.57079175 6.05226497,9.56111232 6.21244441,9.55142949 C6.21244441,9.55142949 6.21347887,9.57383661 6.20669085,9.58283322 C6.19985977,9.74582124 6.19981661,9.89980915 6.19295797,10.0997597 Z" id="Path" fill="#666666"></path>
            <path d="M3.37096305,10.1430154 C3.21418893,10.1414325 3.0574165,10.1398463 2.85378486,10.1342911 C2.80884825,9.97793424 2.81076893,9.82554282 2.81238621,9.62502339 C2.81208621,9.57689186 2.81634825,9.57259175 2.86319706,9.57382972 C3.06713729,9.57813672 3.22422859,9.58120226 3.37971661,9.62971311 C3.37721141,9.82675322 3.37630791,9.97834802 3.37327164,10.13286 C3.37113887,10.1357808 3.37096305,10.1430154 3.37096305,10.1430154 Z" id="Path" fill="#C5845C"></path>
            <path d="M7.32816011,9.62903379 C7.48733605,9.57984362 7.65015853,9.57882633 7.86202463,9.57899876 C7.90167684,9.74540407 7.89228531,9.91061616 7.88235593,10.0852698 C7.47478757,10.2315369 7.27242847,10.1308118 7.32816011,9.62903379 Z" id="Path" fill="#C5845C"></path>
            <path d="M2.80996542,9.57905051 C2.64230497,9.58121254 2.4767652,9.58121254 2.27528192,9.58121254 C2.26426113,9.4000278 2.25551797,9.25628486 2.24242294,9.06503096 C2.23807119,9.01751672 2.2540696,9.01614079 2.30551853,9.01217175 C2.50938113,9.00882 2.66179141,9.0094339 2.81391028,9.05709989 C2.81452927,9.26029864 2.81543966,9.4164452 2.81634825,9.57259175 C2.81634825,9.57259175 2.81208621,9.57689186 2.80996542,9.57905051 Z" id="Path" fill="#C5845C"></path>
            <path d="M6.74854339,11.268045 C6.8045078,11.6144108 6.79611288,11.9107797 6.26133458,11.8373995 C6.21435299,11.8400755 6.19458034,11.8463721 6.19414418,11.795968 C6.19655797,11.5890727 6.19940802,11.4325847 6.20225808,11.2760933 C6.20225977,11.2760933 6.20508734,11.2720933 6.25053446,11.2705863 C6.44683492,11.2687381 6.59769006,11.2683932 6.74854339,11.268045 Z" id="Path" fill="#845237"></path>
            <path d="M2.25639898,11.3160627 C2.41496452,11.2721692 2.56914034,11.2760451 2.76850814,11.3302354 C2.81556373,11.5327341 2.81742588,11.684922 2.81928621,11.8371064 C2.81928621,11.8371064 2.81432237,11.8411306 2.81155164,11.8395651 C2.64373605,11.830696 2.47868938,11.8233924 2.28003548,11.8145993 C2.26988531,11.6513631 2.26094734,11.5075993 2.25639898,11.3160627 Z" id="Path" fill="#A26443"></path>
            <path d="M6.75617966,11.2208306 C6.59769006,11.2683932 6.44683492,11.2687381 6.25073785,11.268145 C6.20588915,11.1072018 6.20628395,10.9471931 6.20890294,10.7391253 C6.37536508,10.7034525 6.53960147,10.7158389 6.7377122,10.7307769 C6.74696237,10.8877063 6.75539006,11.0306595 6.75617966,11.2208306 Z" id="Path" fill="#853A85"></path>
            <path d="M1.11411051,1.09645684 C1.09816554,0.763082486 1.09601209,0.442346215 1.62594203,0.52878339 C1.67261492,0.524560904 1.68592723,0.538059322 1.68717379,0.589858192 C1.75488136,1.09307062 1.45788678,1.12029164 1.13428147,1.11645537 C1.13428147,1.11645537 1.12084508,1.10311209 1.11411051,1.09645684 Z" id="Path" fill="#984D1F"></path>
            <path d="M0.519391864,3.93038475 C0.560561356,4.0905209 0.554990508,4.24854339 0.545171525,4.45378701 C0.377409266,4.49093051 0.213897175,4.48085107 0.0180363842,4.46877684 C0.00894836158,4.30788712 0.00089819209,4.16538215 -3.44169138e-15,3.97580938 C0.162318983,3.92858294 0.31748452,3.92842429 0.519391864,3.93038475 Z" id="Path" fill="#B05924"></path>
            <path d="M8.46000881,3.92814328 C8.61302599,3.92788983 8.76604147,3.92763469 8.96447819,3.92920192 C9.01497186,4.08527085 9.0200409,4.2395209 9.01750294,4.43953864 C8.86155288,4.48736847 8.71320994,4.48943051 8.51553525,4.44612655 C8.46414158,4.2432209 8.46207435,4.08568294 8.46000881,3.92814328 Z" id="Path" fill="#C46328"></path>
            <path d="M7.84734689,0.537716271 C7.89490429,0.816215819 7.8402209,1.1108191 8.27564814,1.13111593 C8.34299718,1.1342539 8.44689661,1.34929243 8.45381571,1.47089209 C8.47693492,1.87716554 8.46368305,2.2855096 8.46547266,2.74622158 C8.46657616,2.7993826 8.46328305,2.79840836 8.41533243,2.7971774 C8.21204576,2.79095492 8.0567113,2.7859652 7.90034056,2.73074215 C7.89768881,2.43723028 7.92297706,2.18930689 7.88216621,1.95279051 C7.86400915,1.84756 7.71434373,1.69483593 7.62120994,1.69255311 C7.52888825,1.69029096 7.36548294,1.84040475 7.35092249,1.94076271 C7.31098068,2.21603819 7.33284814,2.50028271 7.28384237,2.7858652 C7.08210056,2.78749277 6.9267678,2.78423412 6.77038847,2.72950588 C6.76855571,2.26594045 6.78790068,1.85219107 6.7543296,1.44278136 C6.74464678,1.32470599 6.58270362,1.21911684 6.49056814,1.1078035 C6.39534294,1.21597367 6.22647379,1.31864034 6.21790475,1.43328644 C6.18448542,1.88045864 6.2018374,2.33142226 6.15389887,2.7858652 C5.95215525,2.78749277 5.7968226,2.78423243 5.64045356,2.73074215 C5.63780181,2.43723028 5.66309006,2.18930689 5.62227921,1.95279051 C5.60412045,1.84756 5.45445672,1.69483412 5.36132294,1.69255311 C5.26900124,1.69028927 5.10559593,1.84040475 5.09103548,1.94076271 C5.05109367,2.21603819 5.07296113,2.50028271 5.02403469,2.7858635 C4.82261525,2.78766169 4.66752904,2.78457209 4.51109107,2.7300852 C4.50953593,2.15250644 4.50933243,1.62632655 4.50879966,1.10047593 C4.5084704,1.1008052 4.50781175,1.10146384 4.55490712,1.10120181 C5.0669748,1.17110079 5.10689424,0.886480452 5.07122836,0.538771412 C5.97887797,0.538078305 6.88652768,0.537386893 7.84734689,0.537716271 Z" id="Path" fill="#B05924"></path>
            <path d="M3.37631311,0.538771412 C3.72009785,0.538193785 4.06388271,0.537616271 4.45839051,0.584673672 C4.50868079,0.788693107 4.50824621,0.945079322 4.50781175,1.10146384 C4.50781175,1.10146384 4.5084704,1.1008052 4.46012508,1.10076034 C4.05242056,1.05408395 3.9170104,1.20858746 3.93797785,1.57001209 C3.96133164,1.97251311 3.94089864,2.37755209 3.8931809,2.78621006 C3.69175446,2.78761175 3.53667864,2.78429277 3.38056825,2.73085073 C3.37919412,2.53556418 3.36253356,2.38821944 3.38154588,2.24563333 C3.44076893,1.80145774 3.27451718,1.59240893 2.81313785,1.61877638 C2.81364994,1.41447412 2.81393096,1.2573104 2.81388441,1.10047593 C2.81355514,1.1008052 2.8128965,1.10146384 2.85999186,1.10120181 C3.37205955,1.17110079 3.41197898,0.886480452 3.37631311,0.538771412 Z" id="Path" fill="#B05924"></path>
            <path d="M1.12890723,1.16176621 C1.45788678,1.12029164 1.75488136,1.09307062 1.69384621,0.596592768 C2.03728621,0.546700791 2.37530203,0.54187322 2.76375808,0.584678757 C2.81376554,0.788693107 2.81333096,0.945079322 2.8128965,1.10146384 C2.8128965,1.10146384 2.81355514,1.1008052 2.76672881,1.10074136 C2.25176102,1.02978373 2.21568644,1.31904723 2.20167424,1.66557864 C1.9978496,1.6653287 1.84108237,1.6654252 1.6371939,1.66564079 C1.43334339,1.66605277 1.27661401,1.66634588 1.11988475,1.66663898 C1.12110023,1.51345119 1.12231582,1.36026497 1.12890723,1.16176621 Z" id="Path" fill="#B05924"></path>
            <path d="M2.85999186,1.10120181 C2.81333096,0.945079322 2.81376554,0.788693107 2.81498452,0.585540904 C2.9715,0.538069718 3.12723277,0.53736791 3.32963842,0.537719661 C3.41197898,0.886480452 3.37205955,1.17110079 2.85999186,1.10120181 Z" id="Path" fill="#B06A3C"></path>
            <path d="M4.55490712,1.10120181 C4.50824621,0.945079322 4.50868079,0.788693107 4.50989977,0.585540904 C4.66641525,0.538069718 4.82214802,0.53736791 5.02455367,0.537719661 C5.10689424,0.886480452 5.0669748,1.17110079 4.55490712,1.10120181 Z" id="Path" fill="#B06A3C"></path>
            <path d="M8.45334836,7.81796893 C8.29538113,7.87324203 8.14289672,7.87661446 7.94440316,7.88031967 C7.89839571,7.88058 7.89954056,7.88016621 7.89907672,7.83294158 C7.97547412,7.30871503 7.67247254,7.28802689 7.3324774,7.31463932 C7.3337774,7.31593932 7.33637751,7.31854282 7.33528949,7.27190429 C7.33063944,7.07009864 7.3270774,6.91493141 7.32651876,6.7103774 C7.22916418,6.50353898 7.13786147,6.21770994 7.02695164,6.20988915 C6.40229469,6.16583864 5.77292576,6.18863198 5.11441842,6.18863198 C5.09501819,6.41311379 5.0809939,6.57539153 5.0203174,6.7419174 C4.81739446,6.74641232 4.66112384,6.74665718 4.50666181,6.74871232 C4.5084704,6.75052271 4.51208768,6.75414 4.51083254,6.7064739 C4.58922305,6.18046475 4.29108181,6.15409887 3.94381593,6.18586825 C3.94352621,6.18557853 3.9430435,6.18509582 3.94315379,6.13785729 C3.84247684,5.93607751 3.7416878,5.78153616 3.64089876,5.6269948 C3.55315638,5.81346757 3.46541232,5.99994034 3.37809763,6.18598203 C3.37852689,6.18555096 3.37938723,6.18469062 3.33066079,6.18494056 C2.91361311,6.23515492 2.79626701,6.06854972 2.80755853,5.7087974 C2.83197254,4.93092508 2.82271729,4.15199401 2.87773514,3.36957164 C3.26891017,3.36445774 3.60958633,3.36326983 3.94778316,3.40909616 C3.94279695,3.61316045 3.94028994,3.77021051 3.94142271,3.92724497 C3.94506249,3.92722949 3.94510215,3.91995006 3.89723605,3.92198282 C3.4558278,3.88510486 3.27786023,4.01966847 3.45009322,4.48270463 C3.60513627,4.48270463 3.76839672,4.48270463 3.97967661,4.48497356 C4.18425819,4.55193808 4.47074757,4.60746972 4.47606486,4.68283955 C4.50792904,5.13439107 4.81152034,5.05178497 5.13358768,5.05187808 C5.32396384,5.05482475 5.4667913,5.05482475 5.63173966,5.05482475 C5.63173966,4.83385672 5.63173966,4.66854633 5.63364486,4.45413186 C5.63386045,4.24129153 5.63217243,4.07755356 5.63339311,3.86803232 C5.63475175,3.66886113 5.63320181,3.51547153 5.6847765,3.36165785 C6.27196395,3.36153186 6.80602847,3.36180599 7.33764294,3.40813062 C7.33721367,3.60738802 7.33923435,3.76060011 7.3385965,3.96287638 C7.33729299,4.17570463 7.33864814,4.33946847 7.33705684,4.55078124 C7.33411186,4.7411574 7.33411186,4.88398486 7.33411186,5.04893322 C7.55507989,5.04893322 7.72039028,5.04893322 7.93265989,5.05112814 C8.13496215,5.0553609 8.2903087,5.05740226 8.44565345,5.05944203 C8.45004497,5.96165017 8.45443638,6.86385672 8.45334836,7.81796893 Z" id="Path" fill="#EFB385"></path>
            <path d="M7.34000508,4.50323062 C7.33864814,4.33946847 7.33729299,4.17570463 7.38901085,3.96706441 C7.78161684,3.92464847 8.12114644,3.9271122 8.46067785,3.92957435 C8.46067785,3.92957435 8.46259333,3.92793989 8.46130023,3.92803703 C8.46207435,4.08568294 8.46414158,4.2432209 8.47081751,4.44806282 C8.46976237,4.65213582 8.46410023,4.80890305 8.45204497,5.01255695 C8.2903087,5.05740226 8.13496215,5.0553609 7.93811684,5.00339831 C7.89661638,4.80936339 7.89661638,4.66524972 7.89661638,4.50323062 C7.67282768,4.50323062 7.50641559,4.50323062 7.34000508,4.50323062 Z" id="Path" fill="#EBA069"></path>
            <path d="M1.11937616,1.71342226 C1.27661401,1.66634588 1.43334339,1.66605277 1.63671797,1.71828791 C1.68432203,2.3013478 1.68527887,2.83187944 1.68548407,3.4095548 C1.75771593,3.9366348 1.44860045,3.95079006 1.10959672,3.92851232 C1.10959672,3.92851232 1.11336226,3.92609842 1.11411401,3.9284209 C1.11599853,3.77305198 1.11713299,3.61536226 1.11799853,3.3590887 C1.11713469,2.91635627 1.11653819,2.57220418 1.11594158,2.2280539 C1.11691571,2.07210384 1.11789164,1.91615209 1.11937616,1.71342226 Z" id="Path" fill="#C0652C"></path>
            <path d="M1.06777379,2.22904701 C1.11653819,2.57220418 1.11713469,2.91635627 1.11667774,3.31219514 C0.808239887,3.37255785 0.500567571,3.39192701 0.551347458,2.92647186 C0.586271977,2.60636486 0.415194237,2.16203243 1.06777379,2.22904701 Z" id="Path" fill="#B05924"></path>
            <path d="M3.37948034,11.2666621 C3.37843379,10.9260136 3.37738723,10.5853616 3.37365096,10.1938642 C3.37096305,10.1430154 3.37113887,10.1357808 3.42065492,10.1364566 C3.94296757,10.0641351 3.97087141,10.3660557 3.94759175,10.7542911 C3.94421243,10.9545692 3.94451073,11.1085742 3.8973826,11.2652897 C3.69151311,11.270945 3.53306825,11.2738864 3.37538893,11.2740692 C3.37615277,11.271314 3.37948034,11.2666621 3.37948034,11.2666621 Z" id="Path" fill="#853A85"></path>
            <path d="M2.86564023,11.8364133 C2.81742588,11.684922 2.81556373,11.5327341 2.81449831,11.3354423 C2.97200689,11.2846003 3.12871729,11.2788658 3.33245401,11.2698967 C3.37948034,11.2666621 3.37615277,11.271314 3.37663379,11.319718 C3.37654757,11.5201236 3.37597684,11.6721253 3.37540621,11.8241304 C3.22093548,11.8279925 3.06646305,11.8318581 2.86564023,11.8364133 Z" id="Path" fill="#666666"></path>
            <path d="M6.15108678,11.2740244 C6.19940802,11.4325847 6.19655797,11.5890727 6.18463548,11.7918163 C5.84273853,11.8380202 5.50991243,11.837972 5.12665311,11.8413651 C5.07621808,11.8448066 5.07501808,11.8384133 5.07418011,11.7889714 C5.07299898,11.5843795 5.07265763,11.429233 5.07231627,11.2740829 C5.41484938,11.2733727 5.75738249,11.2726623 6.15108678,11.2740244 Z" id="Path" fill="#7F7F7F"></path>
            <path d="M5.63753808,10.1392532 C5.62976893,10.2994136 5.62251028,10.4618602 5.61161017,10.7058112 C5.26062011,10.7058112 4.93640102,10.7058112 4.55877096,10.7063594 C4.50535831,10.7069043 4.50146689,10.7064698 4.50387898,10.6588624 C4.50851345,10.4520497 4.51073763,10.2928411 4.56401412,10.1357497 C4.95759435,10.1392497 5.30011876,10.1406359 5.64264497,10.1420188 C5.64264497,10.1420188 5.63805006,10.141536 5.63753808,10.1392532 Z" id="Path" fill="#7F7F7F"></path>
            <path d="M5.0254209,11.2723933 C5.07265763,11.429233 5.07299898,11.5843795 5.07312147,11.7858955 C4.9160887,11.8333271 4.75927661,11.834396 4.55538814,11.8365409 C4.50831345,11.8376202 4.50784802,11.8330788 4.5081635,11.7844817 C4.50790316,11.5803554 4.50732723,11.4248295 4.50754621,11.2697588 C4.50834113,11.2702105 4.50759966,11.2691243 4.50759966,11.2691243 C4.66457559,11.2696519 4.82155141,11.2701794 5.0254209,11.2723933 Z" id="Path" fill="#666666"></path>
            <path d="M3.94480904,11.2625759 C3.94451073,11.1085742 3.94421243,10.9545692 3.99331638,10.7533324 C4.19563593,10.706225 4.34855141,10.7063492 4.50146689,10.7064698 C4.50146689,10.7064698 4.50535831,10.7069043 4.50738588,10.7067594 C4.50909277,10.8629164 4.50877209,11.019225 4.50802554,11.2223272 C4.50759966,11.2691243 4.50834113,11.2702105 4.46073198,11.2701472 C4.25701763,11.2675829 4.10091243,11.2650794 3.94480904,11.2625759 Z" id="Path" fill="#8C573B"></path>
            <path d="M1.1129226,3.97546452 C1.44860045,3.95079006 1.75771593,3.9366348 1.73308802,3.40893412 C1.94053864,3.36260079 2.09963514,3.36403367 2.25486791,3.41794452 C2.25085751,4.75145243 2.25071096,6.03248203 2.24982475,7.31425311 C2.24908508,7.31499096 2.24854893,7.31552893 2.24854893,7.31552893 C2.09392475,7.3167565 1.93930068,7.31798418 1.73427944,7.31744621 C1.68388237,7.31568407 1.67597367,7.30785469 1.67867367,7.26150768 C1.75769345,6.74658644 1.47262655,6.71719989 1.12818655,6.75997107 C1.12403819,6.59835379 1.11988994,6.43673819 1.11286226,6.2266635 C1.10998294,6.1782061 1.10326045,6.17746644 1.15219198,6.17896814 C1.36041672,6.0859826 1.64699232,6.0025696 1.65634757,5.89503571 C1.69158418,5.48998814 1.34060441,5.66481763 1.13418667,5.62263616 C1.13060034,5.46442746 1.12701243,5.30622056 1.17497842,5.10127006 C1.37709446,4.95447186 1.52765989,4.85441898 1.67822542,4.75436452 C1.49687853,4.66714113 1.31553175,4.57991605 1.13418486,4.49269266 C1.12820554,4.33593401 1.12222791,4.17917367 1.1129226,3.97546452 Z" id="Path" fill="#984D1F"></path>
            <path d="M1.67899085,8.39057525 C1.52743751,8.43887243 1.37880305,8.44186893 1.18619582,8.44511379 C1.13650565,8.29102938 1.13078486,8.13668972 1.17176802,7.93287367 C1.37113401,7.88556282 1.52379785,7.88773876 1.67646328,7.88991458 C1.67827706,8.04169898 1.68009266,8.19348689 1.67899085,8.39057525 Z" id="Path" fill="#626262"></path>
            <path d="M1.67884949,7.84243819 C1.52379785,7.88773876 1.37113401,7.88556282 1.17297842,7.88656972 C1.12584859,7.7274852 1.12421062,7.56521785 1.17079051,7.35768802 C1.37133062,7.31090475 1.52365299,7.30937887 1.67597367,7.30785469 C1.67597367,7.30785469 1.68388237,7.31568407 1.6879496,7.31964282 C1.68842373,7.48072384 1.68483062,7.63784282 1.67884949,7.84243819 Z" id="Path" fill="#984D1F"></path>
            <path d="M1.67867367,7.26150768 C1.52365299,7.30937887 1.37133062,7.31090475 1.17359571,7.3092409 C1.12691582,7.15429955 1.12564859,7.00254621 1.12628475,6.80538192 C1.47262655,6.71719989 1.75769345,6.74658644 1.67867367,7.26150768 Z" id="Path" fill="#626262"></path>
            <path d="M1.12776757,5.66818836 C1.34060441,5.66481763 1.69158418,5.48998814 1.65634757,5.89503571 C1.64699232,6.0025696 1.36041672,6.0859826 1.15249887,6.17558701 C1.10969672,6.01838192 1.1155209,5.86606124 1.12776757,5.66818836 Z" id="Path" fill="#626262"></path>
            <path d="M1.12774339,4.53914486 C1.31553175,4.57991605 1.49687853,4.66714113 1.67822542,4.75436452 C1.52765989,4.85441898 1.37709446,4.95447186 1.18035785,5.05403853 C1.12989006,4.8975661 1.12559684,4.74158158 1.12774339,4.53914486 Z" id="Path" fill="#626262"></path>
            <path d="M7.89411808,8.96078847 C7.54431944,9.04371695 7.26141627,8.99846475 7.33351186,8.44311379 C7.33839299,8.1956835 7.34276203,8.04157831 7.39287119,7.88545932 C7.59225266,7.88234904 7.74589751,7.88125593 7.89954056,7.88016621 C7.89954056,7.88016621 7.89839571,7.88058 7.8985061,7.87991107 C7.89767503,8.22259412 7.89673537,8.56594621 7.89411808,8.96078847 Z" id="Path" fill="#CE6A39"></path>
            <path d="M2.81420339,9.01004768 C2.66179141,9.0094339 2.50938113,9.00882 2.31177028,9.00713379 C2.26055424,8.66482316 2.25453695,8.32357797 2.29526667,7.93142542 C2.49661198,7.88147311 2.65120847,7.88243175 2.8096948,7.87828689 C2.81358271,7.87318339 2.82628972,7.87214542 2.82166734,7.92411503 C2.81550169,8.32152282 2.81395684,8.66695424 2.81283785,9.01155458 C2.81326034,9.0107235 2.81420339,9.01004768 2.81420339,9.01004768 Z" id="Path" fill="#CE6A39"></path>
            <path d="M2.80580678,7.88338689 C2.65120847,7.88243175 2.49661198,7.88147311 2.29538734,7.88014203 C2.24863164,7.72306102 2.24850576,7.56635243 2.24846271,7.36258814 C2.24854893,7.31552893 2.24908508,7.31499096 2.2973391,7.31459096 C2.83507266,7.23219356 2.84674,7.53652452 2.80580678,7.88338689 Z" id="Path" fill="#984D1F"></path>
            <path d="M7.34713107,7.88747661 C7.34276203,8.04157831 7.33839299,8.1956835 7.33332395,8.39592023 C7.17730158,8.44382757 7.02197921,8.44559661 6.82056836,8.45089322 C6.61347469,8.45240701 6.45247288,8.45038282 6.19336136,8.44859661 C5.75724282,8.45192429 5.4192304,8.45501051 5.03316237,8.45380011 C4.82473944,8.45048633 4.66437379,8.45146904 4.50554282,8.44936215 C4.50707898,8.44627593 4.51083593,8.4404965 4.51004282,8.39425808 C4.57918497,7.89446294 4.30237672,7.84719345 3.95338836,7.83144497 C4.01364249,7.31851864 3.72621695,7.28168203 3.37910806,7.26565944 C3.37904588,6.87105503 3.37921661,6.52787198 3.37938554,6.18469062 C3.37938723,6.18469062 3.37852689,6.18555096 3.42524633,6.18567853 C3.62899175,6.18556994 3.78601763,6.18533367 3.9430435,6.18509582 C3.9430435,6.18509582 3.94352621,6.18557853 3.94361412,6.2332687 C3.85925119,6.76771254 4.17448395,6.7743626 4.51208768,6.75414 C4.51208768,6.75414 4.5084704,6.75052271 4.50794621,6.7980026 C4.45351119,7.21446746 4.61415955,7.33267051 4.97982734,7.32244972 C5.7647687,7.30050814 6.55079469,7.31749446 7.33637751,7.31854282 C7.33637751,7.31854282 7.3337774,7.31593932 7.33319808,7.36244328 C7.33745503,7.56845582 7.34229299,7.72796802 7.34713107,7.88747661 Z" id="Path" fill="#EFB385"></path>
            <path d="M3.8973826,11.2652897 C4.10091243,11.2650794 4.25701763,11.2675829 4.45993537,11.2696932 C4.50732723,11.4248295 4.50790316,11.5803554 4.50806689,11.7822679 C4.16457695,11.829765 3.82149898,11.8308754 3.42691367,11.8280581 C3.37597684,11.6721253 3.37654757,11.5201236 3.37587164,11.3224697 C3.53306825,11.2738864 3.69151311,11.270945 3.8973826,11.2652897 Z" id="Path" fill="#7F7F7F"></path>
            <path d="M3.95026249,3.36208192 C3.60958633,3.36326983 3.26891017,3.36445774 2.87164542,3.36379401 C2.81505684,3.36194226 2.80326712,3.35040418 2.80737571,3.3046226 C2.81504655,3.10461864 2.8186087,2.95039627 2.86878847,2.79602215 C3.07080621,2.79090486 3.22620282,2.78593763 3.38160102,2.78097198 C3.53667864,2.78429277 3.69175446,2.78761175 3.94079684,2.79117898 C4.19398757,2.78811006 4.35321525,2.78479616 4.51244113,2.78148237 C4.66752904,2.78457209 4.82261525,2.78766169 5.07148,2.79103763 C5.32400181,2.78787379 5.48274497,2.78442373 5.64148802,2.78097198 C5.7968226,2.78423243 5.95215525,2.78749277 6.20134599,2.79103932 C6.45394531,2.78787559 6.61269017,2.78442554 6.77143333,2.78097198 C6.9267678,2.78423412 7.08210056,2.78749277 7.33129119,2.79103763 C7.58388881,2.78787379 7.74263198,2.78442373 7.90137503,2.78097198 C8.0567113,2.7859652 8.21204576,2.79095492 8.41395141,2.79626701 C8.46007605,2.9499739 8.45962949,3.10335831 8.40573751,3.30688475 C8.01489186,3.35871288 7.67749153,3.3603974 7.34009299,3.36208192 C6.80602847,3.36180599 6.27196395,3.36153186 5.63273966,3.36116802 C5.00180689,3.36141458 4.47603559,3.36174734 3.95026249,3.36208192 Z" id="Path" fill="#EBA069"></path>
            <path d="M7.33764294,3.40813062 C7.67749153,3.3603974 8.01489186,3.35871288 8.40238407,3.3527852 C8.45559503,3.50994904 8.45871232,3.67135593 8.46125198,3.88116859 C8.12114644,3.9271122 7.78161684,3.92464847 7.39167119,3.91799831 C7.33923435,3.76060011 7.33721367,3.60738802 7.33764294,3.40813062 Z" id="Path" fill="#C46328"></path>
            <path d="M5.08121808,8.45809672 C5.4192304,8.45501051 5.75724282,8.45192429 6.14550056,8.45357593 C6.19914249,8.79006938 6.2025391,9.12182124 6.20919085,9.50250486 C6.05226497,9.56111232 5.89208395,9.57079175 5.63763458,9.57984362 C5.38786113,9.57298147 5.23235593,9.5667504 5.07570429,9.51078768 C5.07677661,9.12674203 5.0789974,8.79241763 5.08121808,8.45809672 Z" id="Path" fill="#BB6831"></path>
            <path d="M5.07685254,9.56051232 C5.23235593,9.5667504 5.38786113,9.57298147 5.5898409,9.58438847 C5.63750531,9.74287989 5.63869492,9.89619876 5.64126565,10.0957666 C5.30011876,10.1406359 4.95759435,10.1392497 4.56239345,10.0901009 C4.50964972,9.89000565 4.50958079,9.73767977 4.50950832,9.58111605 C4.50950832,9.57688147 4.50960667,9.56841243 4.55678475,9.57088486 C4.7615922,9.56907797 4.91922147,9.56479514 5.07685254,9.56051232 Z" id="Path" fill="#A349A4"></path>
            <path d="M2.86319706,9.57382972 C2.81543966,9.4164452 2.81452927,9.26029864 2.81391028,9.05709989 C2.81420339,9.01004768 2.81326034,9.0107235 2.86005571,9.01083729 C3.37753209,9.08624508 3.40643751,8.78772102 3.4314826,8.44596215 C3.63569695,8.44407593 3.79307627,8.44253107 3.9971096,8.4424104 C4.19945492,8.44272757 4.35514452,8.44161379 4.51083593,8.4404965 C4.51083593,8.4404965 4.50707898,8.44627593 4.50706689,8.49988 C4.50790486,8.89179458 4.50875492,9.2301052 4.50960667,9.56841243 C4.50960667,9.56841243 4.50950486,9.57688147 4.45831119,9.57752633 C4.06518452,9.58020226 3.72325141,9.58223322 3.38132,9.5842678 C3.22422859,9.58120226 3.06713729,9.57813672 2.86319706,9.57382972 Z" id="Path" fill="#BB6831"></path>
            <path d="M3.37971661,9.62971311 C3.72325141,9.58223322 4.06518452,9.58020226 4.45831469,9.5817609 C4.50958079,9.73767977 4.50964972,9.89000565 4.51133944,10.0879837 C4.51073763,10.2928411 4.50851345,10.4520497 4.50387898,10.6588659 C4.34855141,10.7063492 4.19563593,10.706225 3.99699401,10.707056 C3.97087141,10.3660557 3.94296757,10.0641351 3.42278949,10.1335393 C3.37630791,9.97834802 3.37721141,9.82675322 3.37971661,9.62971311 Z" id="Path" fill="#6F6F6F"></path>
            <path d="M6.77038847,2.72950588 C6.61269017,2.78442554 6.45394531,2.78787559 6.24775514,2.78615141 C6.2018374,2.33142226 6.18448542,1.88045864 6.21790475,1.43328644 C6.22647379,1.31864034 6.39534294,1.21597367 6.49056814,1.1078035 C6.58270362,1.21911684 6.74464678,1.32470599 6.7543296,1.44278136 C6.78790068,1.85219107 6.76855571,2.26594045 6.77038847,2.72950588 Z" id="Path" fill="#C46328"></path>
            <path d="M4.51109107,2.7300835 C4.35321525,2.78479616 4.19398757,2.78811006 3.98714395,2.7864548 C3.94089864,2.37755209 3.96133164,1.97251311 3.93797785,1.57001209 C3.9170104,1.20858746 4.05242056,1.05408395 4.46045435,1.10042938 C4.50933243,1.62632655 4.50953593,2.15250644 4.51109107,2.7300835 Z" id="Path" fill="#B06A3C"></path>
            <path d="M5.64045356,2.73074215 C5.48274497,2.78442373 5.32400181,2.78787379 5.11781164,2.78615141 C5.07296113,2.50028271 5.05109367,2.21603819 5.09103548,1.94076271 C5.10559593,1.84040475 5.26900124,1.69028927 5.36132294,1.69255311 C5.45445672,1.69483412 5.60412045,1.84756 5.62227921,1.95279051 C5.66309006,2.18930689 5.63780181,2.43723028 5.64045356,2.73074215 Z" id="Path" fill="#C46328"></path>
            <path d="M7.90034056,2.73074215 C7.74263198,2.78442373 7.58388881,2.78787379 7.37769864,2.78615141 C7.33284814,2.50028271 7.31098068,2.21603819 7.35092249,1.94076271 C7.36548294,1.84040475 7.52888825,1.69029096 7.62120994,1.69255311 C7.71434373,1.69483593 7.86400915,1.84756 7.88216621,1.95279051 C7.92297706,2.18930689 7.89768881,2.43723028 7.90034056,2.73074215 Z" id="Path" fill="#C46328"></path>
            <path d="M3.38056825,2.73085073 C3.22620282,2.78593763 3.07080621,2.79090486 2.86366599,2.79793944 C2.81192576,2.80000667 2.80124294,2.79879638 2.80537921,2.74730271 C2.81090678,2.35224836 2.8123,2.00868768 2.81365514,1.66545458 C2.81361548,1.66578045 2.81290859,1.66591492 2.81290859,1.66591492 C3.27451718,1.59240893 3.44076893,1.80145774 3.38154588,2.24563333 C3.36253356,2.38821944 3.37919412,2.53556418 3.38056825,2.73085073 Z" id="Path" fill="#C46328"></path>
            <path d="M2.24872994,1.6659252 C2.21568644,1.31904723 2.25176102,1.02978373 2.76705808,1.10041209 C2.81393096,1.2573104 2.81364994,1.41447412 2.81313785,1.61877638 C2.81290859,1.66591492 2.81361548,1.66578045 2.76654768,1.66568384 C2.56246271,1.66560113 2.40544723,1.66561311 2.24850757,1.66570113 C2.24858339,1.66577695 2.24872994,1.6659252 2.24872994,1.6659252 Z" id="Path" fill="#B06A3C"></path>
            <path d="M2.25873345,3.36546814 C2.09963514,3.36403367 1.94053864,3.36260079 1.73383808,3.36178881 C1.68527887,2.83187944 1.68432203,2.3013478 1.68383921,1.71817062 C1.84108237,1.6654252 1.9978496,1.6653287 2.20167424,1.66557864 C2.24872994,1.6659252 2.24858339,1.66577695 2.24855751,1.71705333 C2.24958508,2.11147492 2.25063853,2.45461672 2.25059028,2.84509684 C2.2499748,3.05100599 2.25045751,3.20957842 2.25192825,3.36486463 C2.25291446,3.36157672 2.25873345,3.36546814 2.25873345,3.36546814 Z" id="Path" fill="#B06A3C"></path>
            <path d="M3.33066079,6.18494056 C3.37921661,6.52787198 3.37904588,6.87105503 3.37882169,7.31230825 C3.37733898,7.56574893 3.3759113,7.72111616 3.32860226,7.87765932 C3.13057763,7.87660757 2.97843277,7.8743765 2.82628972,7.87214542 C2.82628972,7.87214542 2.81358271,7.87318339 2.8096948,7.87828689 C2.84674,7.53652452 2.83507266,7.23219356 2.29807706,7.3138513 C2.25071096,6.03248203 2.25085751,4.75145243 2.25486791,3.41794452 C2.25873345,3.36546814 2.25291446,3.36157672 2.29807017,3.36190599 C2.49657232,3.3582922 2.64991887,3.35434734 2.80326712,3.35040418 C2.80326712,3.35040418 2.81505684,3.36194226 2.82114486,3.36771989 C2.82271729,4.15199401 2.83197254,4.93092508 2.80755853,5.7087974 C2.79626701,6.06854972 2.91361311,6.23515492 3.33066079,6.18494056 Z" id="Path" fill="#EBA069"></path>
            <path d="M7.33528949,7.27190429 C6.55079469,7.31749446 5.7647687,7.30050814 4.97982734,7.32244972 C4.61415955,7.33267051 4.45351119,7.21446746 4.50613763,6.7961922 C4.66112384,6.74665718 4.81739446,6.74641232 5.07372836,6.74607616 C5.89036497,6.75057966 6.60694011,6.75517107 7.32351525,6.75976418 C7.3270774,6.91493141 7.33063944,7.07009864 7.33528949,7.27190429 Z" id="Path" fill="#CE6A39"></path>
            <path d="M7.32651876,6.7103774 C6.60694011,6.75517107 5.89036497,6.75057966 5.12038056,6.7418278 C5.0809939,6.57539153 5.09501819,6.41311379 5.11441842,6.18863198 C5.77292576,6.18863198 6.40229469,6.16583864 7.02695164,6.20988915 C7.13786147,6.21770994 7.22916418,6.50353898 7.32651876,6.7103774 Z" id="Path" fill="#C89574"></path>
            <path d="M5.63048282,3.91381379 C5.63217243,4.07755356 5.63386045,4.24129153 5.58591503,4.44867661 C5.39216983,4.49232023 5.24805616,4.49232023 5.08603706,4.49232023 C5.08603706,4.71610893 5.08603706,4.88252102 5.08603706,5.04893153 C4.81152034,5.05178497 4.50792904,5.13439107 4.47606486,4.68283955 C4.47074757,4.60746972 4.18425819,4.55193808 3.98384734,4.43840068 C3.94169864,4.23302249 3.94340034,4.07648633 3.94510215,3.91995006 C3.94510215,3.91995006 3.94506249,3.92722949 3.99454056,3.92669842 C4.57284011,3.92205186 5.10166316,3.91793288 5.63048282,3.91381379 Z" id="Path" fill="#EBA069"></path>
            <path d="M5.63339311,3.86803232 C5.10166316,3.91793288 4.57284011,3.92205186 3.9909009,3.92671571 C3.94028994,3.77021051 3.94279695,3.61316045 3.94778316,3.40909616 C4.47603559,3.36174734 5.00180689,3.36141458 5.57961672,3.36158192 C5.63320181,3.51547153 5.63475175,3.66886113 5.63339311,3.86803232 Z" id="Path" fill="#C46328"></path>
            <path d="M3.94315379,6.13785729 C3.78601763,6.18533367 3.62899175,6.18556994 3.42481706,6.1861096 C3.46541232,5.99994034 3.55315638,5.81346757 3.64089876,5.6269948 C3.7416878,5.78153616 3.84247684,5.93607751 3.94315379,6.13785729 Z" id="Path" fill="#EBA069"></path>
            <path d="M5.13358768,5.05187808 C5.08603706,4.88252102 5.08603706,4.71610893 5.08603706,4.49232023 C5.24805616,4.49232023 5.39216983,4.49232023 5.58400983,4.49777718 C5.63173966,4.66854633 5.63173966,4.83385672 5.63173966,5.05482475 C5.4667913,5.05482475 5.32396384,5.05482475 5.13358768,5.05187808 Z" id="Path" fill="#000000"></path>
            <path d="M7.33705853,4.55078124 C7.50641559,4.50323062 7.67282768,4.50323062 7.89661638,4.50323062 C7.89661638,4.66524972 7.89661638,4.80936339 7.89115944,5.00120339 C7.72039028,5.04893322 7.55507989,5.04893322 7.33411186,5.04893322 C7.33411186,4.88398486 7.33411186,4.7411574 7.33705853,4.55078124 Z" id="Path" fill="#000000"></path>
            <path d="M4.51083254,6.7064739 C4.17448395,6.7743626 3.85925119,6.76771254 3.94390554,6.23356011 C4.29108181,6.15409887 4.58922305,6.18046475 4.51083254,6.7064739 Z" id="Path" fill="#CE6A39"></path>
            <path d="M7.39287119,7.88545932 C7.34229299,7.72796802 7.33745503,7.56845582 7.33189638,7.36114328 C7.67247254,7.28802689 7.97547412,7.30871503 7.89907672,7.83294158 C7.74589751,7.88125593 7.59225266,7.88234904 7.39287119,7.88545932 Z" id="Path" fill="#C5845C"></path>
            <path d="M3.89723605,3.92198282 C3.94340034,4.07648633 3.94169864,4.23302249 3.9358261,4.43613164 C3.76839672,4.48270463 3.60513627,4.48270463 3.45009322,4.48270463 C3.27786023,4.01966847 3.4558278,3.88510486 3.89723605,3.92198282 Z" id="Path" fill="#C46328"></path>
            <path d="M2.82166734,7.92411503 C2.97843277,7.8743765 3.13057763,7.87660757 3.33093842,7.87997661 C3.37915616,7.88111797 3.38382181,7.88575932 3.38230621,7.93230124 C3.38207695,8.13465864 3.38336147,8.29048113 3.38464588,8.4463 C3.40643751,8.78772102 3.37753209,9.08624508 2.85963322,9.01167175 C2.81395684,8.66695424 2.81550169,8.32152282 2.82166734,7.92411503 Z" id="Path" fill="#C5845C"></path>
            <path d="M4.55678475,9.57088486 C4.50875492,9.2301052 4.50790486,8.89179458 4.50553243,8.5029696 C4.66437379,8.45146904 4.82473944,8.45048633 5.03316237,8.45380011 C5.0789974,8.79241763 5.07677661,9.12674203 5.07570429,9.51078768 C4.91922147,9.56479514 4.7615922,9.56907797 4.55678475,9.57088486 Z" id="Path" fill="#C5845C"></path>
            <path d="M4.51004282,8.39425808 C4.35514452,8.44161379 4.19945492,8.44272757 3.99413537,8.39604429 C3.93836588,8.19331446 3.9322261,8.0383748 3.93425028,7.88210757 C3.94241582,7.88077311 3.9587609,7.87820407 3.9587609,7.87820407 C4.30237672,7.84719345 4.57918497,7.89446294 4.51004282,8.39425808 Z" id="Path" fill="#EBA069"></path>
            <path d="M3.37682,7.87880068 C3.3759113,7.72111616 3.37733898,7.56574893 3.37907864,7.36372949 C3.72621695,7.28168203 4.01364249,7.31851864 3.95338836,7.83144497 C3.9587609,7.87820407 3.94241582,7.88077311 3.8894687,7.88142486 C3.68562169,7.88330068 3.53472169,7.88452836 3.38382181,7.88575932 C3.38382181,7.88575932 3.37915616,7.88111797 3.37682,7.87880068 Z" id="Path" fill="#C5845C"></path>
            <path d="M2.80737571,3.3046226 C2.64991887,3.35434734 2.49657232,3.3582922 2.29708215,3.3651922 C2.25045751,3.20957842 2.2499748,3.05100599 2.29647706,2.84437616 C2.49605514,2.79714633 2.64864814,2.79797051 2.80124294,2.79879638 C2.80124294,2.79879638 2.81192576,2.80000667 2.81704825,2.79808949 C2.8186087,2.95039627 2.81504655,3.10461864 2.80737571,3.3046226 Z" id="Path" fill="#984D1F"></path>
            <path d="M3.38230621,7.93230124 C3.53472169,7.88452836 3.68562169,7.88330068 3.88130316,7.88275593 C3.9322261,8.0383748 3.93836588,8.19331446 3.94748147,8.39461672 C3.79307627,8.44253107 3.63569695,8.44407593 3.4314826,8.44596215 C3.38336147,8.29048113 3.38207695,8.13465864 3.38230621,7.93230124 Z" id="Path" fill="#CE6A39"></path>
            <path d="M2.80537921,2.7473009 C2.64864814,2.79797051 2.49605514,2.79714633 2.29757525,2.79704113 C2.25063853,2.45461672 2.24958508,2.11147492 2.24848169,1.71697751 C2.40544723,1.66561311 2.56246271,1.66560113 2.76658565,1.66535797 C2.8123,2.00868768 2.81090678,2.35224836 2.80537921,2.7473009 Z" id="Path" fill="#B05924"></path>
        </g>
    </g>
</svg>
