<?xml version="1.0" encoding="UTF-8"?>
<svg width="9px" height="13px" viewBox="0 0 9 13" version="1.1" xmlns="http://www.w3.org/2000/svg" xmlns:xlink="http://www.w3.org/1999/xlink">
    <g id="Page-1" stroke="none" stroke-width="1" fill="none" fill-rule="evenodd">
        <g id="Group-14" transform="translate(0.342302, 0.705409)" fill-rule="nonzero">
            <path d="M7.32247051,7.36319164 C7.32247051,7.5284348 7.32247051,7.69367797 7.32247051,7.8841974 C7.13517876,7.90427345 6.9745287,7.92149435 6.78293006,7.94203593 C6.7654609,8.10201695 6.74802271,8.26174633 6.72392938,8.48241085 C6.39603955,8.48241085 6.0664739,8.48241085 5.63282079,8.48361085 C4.99371718,8.48870407 4.45869401,8.49260056 3.87797379,8.49103853 C3.67895096,8.48342463 3.52563548,8.48126949 3.36928203,8.43122068 C3.44072418,7.89061469 3.14678644,7.86981096 2.78808938,7.9319565 C2.78808938,7.9319565 2.7848687,7.91445977 2.79202395,7.86514542 C2.79893774,7.66076045 2.79869989,7.50568633 2.84561763,7.3504087 C3.3680061,7.42399571 3.39066847,7.12105785 3.4146722,6.7818748 C3.66701977,6.90819695 3.87216689,7.0325948 4.07731401,7.15698938 C4.05295503,7.21097266 4.02859616,7.26495254 4.0042339,7.31893593 C4.16757017,7.33306373 4.33090644,7.34719141 4.49417028,7.40895073 C4.45957684,7.77273062 4.56327107,7.94933605 4.91943017,7.91959435 C5.15728791,7.89973198 5.40098723,7.89255955 5.63707605,7.92107367 C6.08059469,7.97464316 6.2526104,7.79221706 6.23575853,7.35816395 C6.5020304,7.21416927 6.72093277,7.07332633 6.93983525,6.93248689 C6.91732113,6.88953119 6.89481062,6.84657559 6.8722965,6.80362339 C7.01989469,6.7957026 7.16749288,6.78778181 7.31612904,6.82846158 C7.31893254,7.03910531 7.32070147,7.20114847 7.32247051,7.36319164 Z" id="Path" fill="#B5B5B5"></path>
            <path d="M0.527161017,6.23282395 C0.359848814,6.22391356 0.19253661,6.21500655 5.55111512e-16,6.20475469 C5.55111512e-16,4.71871763 5.55111512e-16,3.2423496 5.55111512e-16,1.69969288 C0.146129266,1.69969288 0.287299774,1.69969288 0.487377853,1.7041878 C0.546292203,1.70868271 0.565375254,1.72772429 0.556482034,1.77128339 C0.545840565,1.96400441 0.544092203,2.11316475 0.541378418,2.31411864 C0.541243955,2.71206791 0.542071525,3.05822508 0.541495593,3.45655887 C0.541778418,4.22309311 0.54346113,4.93745446 0.543050847,5.69748362 C0.549085424,5.89370475 0.557213107,6.04425638 0.555799209,6.20432023 C0.546264633,6.21383412 0.527161017,6.23282395 0.527161017,6.23282395 Z" id="Path" fill="#A2A2A2"></path>
            <path d="M5.63743808,0.565623503 C5.80365718,0.565623503 5.96987277,0.565623503 6.1632991,0.565623503 C6.1794061,0.383562825 6.19374079,0.22156452 6.21258927,0.00850700565 C6.36621164,0.00850700565 6.50990983,0.00850700565 6.70310158,0.0627248588 C6.68592203,0.59647209 6.99701514,0.592989266 7.32659469,0.565873446 C7.32659469,0.565873446 7.31912904,0.57099774 7.32019808,0.615261921 C7.3202635,0.819555593 7.31926011,0.979588362 7.26534226,1.13846429 C6.30561446,1.13133322 5.39880102,1.12535548 4.49257028,1.07400147 C4.56368825,0.556633785 4.25836079,0.548868136 3.92850542,0.525854124 C3.92978136,0.328434689 3.93103299,0.176589944 3.93228136,0.0247416949 C4.27352644,0.0193519774 4.61476814,0.013960565 5.0071035,0.0630731073 C4.99224475,0.601804972 5.3065896,0.594385876 5.63743808,0.565623503 Z" id="Path" fill="#C3C3C3"></path>
            <path d="M5.63173107,9.59698181 C5.79609503,9.60763356 5.96045887,9.61828203 6.12094339,9.62868215 C6.31082486,10.5575441 6.26019672,10.7010525 5.63754497,10.7437634 C5.37860418,10.743091 5.21720588,10.7438323 5.0092139,10.7430772 C4.80712893,10.7422047 4.65163062,10.742822 4.44470418,10.7426841 C4.0503826,10.7416841 3.70748915,10.7414392 3.36428192,10.6941284 C3.36393718,10.4901606 3.36390949,10.3332623 3.41523774,10.1763779 C3.81004203,10.1750192 4.15349751,10.1736399 4.54350531,10.1735812 C4.74528339,10.1740192 4.90050927,10.1731433 5.10340113,10.173633 C5.63875876,10.2546442 5.64445198,9.93346825 5.63173107,9.59698181 Z" id="Path" fill="#796651"></path>
            <path d="M5.05573514,10.172264 C4.90050927,10.1731433 4.74528339,10.1740192 4.54238802,10.1224772 C4.49434271,9.86857785 4.51680847,9.66352045 4.48593232,9.46683548 C4.46371819,9.32532011 4.37378621,9.08018644 4.30816825,9.0782278 C3.87290486,9.06520689 3.93109164,8.76689672 3.92367435,8.49649379 C4.45869401,8.49260056 4.99371718,8.48870407 5.58196508,8.48841096 C5.63021729,8.64503333 5.62524486,8.79804542 5.56574768,8.99778893 C5.20173322,9.01351322 5.02543819,9.11283164 5.05515582,9.46474588 C5.07493186,9.69893119 5.05686271,9.93631311 5.05573514,10.172264 Z" id="Path" fill="#9F6885"></path>
            <path d="M1.09368102,1.13389695 C1.10128463,0.96665548 1.10888814,0.799415706 1.11780542,0.603282486 C1.28426938,0.584713333 1.44588497,0.566685537 1.63975605,0.54505774 C1.65685966,0.387259435 1.67431503,0.226250734 1.69791876,0.00851559322 C2.02754655,0.00851559322 2.3605261,0.00851559322 2.74562339,0.0622972881 C2.79869638,0.268413333 2.79965503,0.420745989 2.75331311,0.572627006 C2.23243503,0.498002034 2.20405887,0.793682938 2.18358271,1.13810226 C1.78584045,1.13620565 1.43976068,1.1350522 1.09368102,1.13389695 Z" id="Path" fill="#C3C3C3"></path>
            <path d="M7.89534576,1.1249504 C8.06300972,1.1334504 8.23067706,1.14194881 8.44639661,1.15288339 C8.44639661,1.87186723 8.44639661,2.58311469 8.39308576,3.34590588 C8.1886904,3.3960496 8.03760938,3.3946513 7.88557672,3.34607492 C7.88312147,3.14080023 7.88162486,2.98270362 7.88130768,2.77385819 C7.88112486,2.38406079 7.87975932,2.0450122 7.8802939,1.66017175 C7.87415582,1.46360407 7.86612124,1.31283006 7.86739718,1.1527696 C7.87670068,1.14348508 7.89534576,1.1249504 7.89534576,1.1249504 Z" id="Path" fill="#A7A7A7"></path>
            <path d="M7.88652836,3.39325299 C8.03760938,3.3946513 8.1886904,3.3960496 8.38506497,3.39850994 C8.43577243,4.11638339 8.44117932,4.83319299 8.39289955,5.60272734 C8.18815593,5.65647277 8.03709559,5.65749695 7.88486282,5.65735613 C7.88368701,5.65617277 7.88133525,5.65382791 7.88224215,5.60662734 C7.87953175,5.40125096 7.87591153,5.24307333 7.87617661,5.03428316 C7.87746972,4.64496678 7.8748835,4.30626136 7.87641107,3.92018463 C7.8811904,3.71542893 7.88185944,3.55804271 7.8835974,3.39886169 C7.88466983,3.39706678 7.88652836,3.39325299 7.88652836,3.39325299 Z" id="Path" fill="#C3C3C3"></path>
            <path d="M1.68438757,9.60789571 C1.68438757,9.4449835 1.68438757,9.28207141 1.68438757,9.09212791 C1.85208599,9.06429311 2.00874972,9.03829288 2.20204497,9.00620972 C2.21124169,8.69830294 2.23456949,8.36597853 2.74425096,8.48237638 C2.79018938,8.48631435 2.79716881,8.50269379 2.79764463,8.54765299 C2.7997861,8.74422407 2.80144814,8.89582915 2.80162407,9.09448655 C2.7987826,9.29861989 2.79743085,9.4557078 2.74950271,9.61197503 C2.54660395,9.61153017 2.39027808,9.61189921 2.18787932,9.6120026 C1.98933232,9.61046124 1.83686169,9.60917842 1.68438757,9.60789571 Z" id="Path" fill="#A94762"></path>
            <path d="M7.37215718,7.35780531 C7.32070147,7.20114847 7.31893254,7.03910531 7.31744282,6.77806791 C7.32119458,6.34133548 7.32466701,6.00359898 7.37387446,5.66218147 C7.57351458,5.6569435 7.72742667,5.65538486 7.88133525,5.65382791 C7.88133525,5.65382791 7.88368701,5.65617277 7.88404565,5.70529051 C7.8860974,5.91453593 7.8877939,6.07466011 7.88948712,6.2347861 C7.88948712,6.58884859 7.88948712,6.94290768 7.88948712,7.35241559 C7.70732644,7.35241559 7.56458689,7.35241559 7.37215718,7.35780531 Z" id="Path" fill="#C3C3C3"></path>
            <path d="M1.04612881,1.13496429 C1.43976068,1.1350522 1.78584045,1.13620565 2.18323785,1.13707808 C2.23455921,1.13679876 2.2333626,1.13609356 2.23364531,1.18316136 C2.23411435,1.38744983 2.23429706,1.54466881 2.18183785,1.70172915 C1.60792463,1.7102878 1.08664994,1.71900689 0.565375254,1.72772599 C0.565375254,1.72772599 0.546292203,1.70868271 0.536733559,1.6991791 C0.536109379,1.52483582 0.545043955,1.35999605 0.555995819,1.15801966 C0.712349266,1.15025062 0.85546113,1.14314023 1.04612881,1.13496429 Z" id="Path" fill="#A2A2A2"></path>
            <path d="M2.80061028,0.573078757 C2.79965503,0.420745989 2.79869638,0.268413333 2.79663774,0.0704111864 C3.14037254,0.019419209 3.48520746,0.0140932203 3.88116011,0.0167553672 C3.93103299,0.176589944 3.92978136,0.328434689 3.88142215,0.525809266 C3.67733028,0.571573559 3.52034576,0.571809718 3.31640904,0.571730508 C3.11246881,0.571271864 2.9554809,0.571125311 2.79887921,0.571364972 C2.79926881,0.571751186 2.80060678,0.573078757 2.80061028,0.573078757 Z" id="Path" fill="#A7A7A7"></path>
            <path d="M3.36459921,10.7411944 C3.70748915,10.7414392 4.0503826,10.7416841 4.44389729,10.7884673 C4.50264621,10.9868523 4.51077051,11.1386919 4.50913944,11.2978902 C4.49938418,11.305242 4.47885977,11.3185042 4.47885977,11.3185042 C4.14525955,11.3143007 3.81165582,11.3101007 3.41729288,11.3130766 C3.35653356,11.3202525 3.33137819,11.3144662 3.34214384,11.2673933 C3.35589571,11.0607945 3.35887842,10.9012686 3.36275435,10.741422 C3.36364407,10.7410979 3.36459921,10.7411944 3.36459921,10.7411944 Z" id="Path" fill="#74455B"></path>
            <path d="M5.10340113,10.1736295 C5.05686271,9.93631311 5.07493186,9.69893119 5.05515582,9.46474588 C5.02543819,9.11283164 5.20173322,9.01351322 5.55835785,9.04320328 C5.61216542,9.19609119 5.61883785,9.35029627 5.62862079,9.55073989 C5.64445198,9.93346825 5.63875876,10.2546442 5.10340113,10.1736295 Z" id="Path" fill="#81576E"></path>
            <path d="M3.36727853,11.3131111 C3.36685785,11.4721197 3.35568531,11.6382732 3.34236791,11.8363789 C2.99178136,11.8363789 2.64662927,11.8363789 2.25807322,11.8363789 C2.25164904,11.6916635 2.24537311,11.5502792 2.29124599,11.3583564 C2.49494136,11.3060903 2.64648441,11.3043592 2.84287966,11.3041247 C3.03561277,11.3085696 3.18349718,11.311518 3.33137819,11.3144662 C3.33137819,11.3144662 3.35653356,11.3202525 3.36727853,11.3131111 Z" id="Path" fill="#A88677"></path>
            <path d="M2.79802395,11.3026281 C2.64648441,11.3043592 2.49494136,11.3060903 2.29838395,11.3094765 C2.24686621,11.1532128 2.24035921,10.9952938 2.23194881,10.7886363 C2.23004531,10.7399047 2.23119356,10.7359219 2.27868723,10.7381392 C2.48359989,10.7401875 2.64102576,10.7400219 2.79998949,10.7413979 C2.80153435,10.7429392 2.80491718,10.7456979 2.80312056,10.7920226 C2.80022746,10.9931041 2.79912746,11.1478678 2.79802395,11.3026281 Z" id="Path" fill="#81576E"></path>
            <path d="M5.06591107,11.8522169 C4.71640373,11.9118556 4.41593153,11.9072521 4.48426678,11.3654427 C4.47885977,11.3185042 4.49938418,11.305242 4.55344339,11.3034288 C4.75833186,11.3032868 4.90916452,11.304942 5.05939379,11.3061385 C5.05879379,11.3056834 5.05692825,11.30658 5.05798,11.3520769 C5.06132486,11.549124 5.06361797,11.7006705 5.06591107,11.8522169 Z" id="Path" fill="#796651"></path>
            <path d="M5.1130426,11.8590206 C5.06361797,11.7006705 5.06132486,11.549124 5.1039287,11.3521218 C5.30065503,11.3081316 5.4524774,11.3095972 5.60430328,11.3110627 C5.60430328,11.4758336 5.60430328,11.6406043 5.60430328,11.8417514 C5.44621186,11.8503205 5.30319299,11.8580722 5.1130426,11.8590206 Z" id="Path" fill="#A88677"></path>
            <path d="M5.61199299,11.264345 C5.4524774,11.3095972 5.30065503,11.3081316 5.10287706,11.3066214 C5.05692825,11.30658 5.05879379,11.3056834 5.05901446,11.259207 C5.05809028,11.0566738 5.05694893,10.9006237 5.05580757,10.7445703 C5.21720588,10.7438323 5.37860418,10.743091 5.58869616,10.74456 C5.63148633,10.9037203 5.62558621,11.0606738 5.61199299,11.264345 Z" id="Path" fill="#81576E"></path>
            <path d="M1.65710452,7.36276746 C1.49241299,7.35394328 1.32772158,7.34511898 1.12592972,7.33430508 C1.11758825,7.17834814 1.10993989,7.03541898 1.10679153,6.83567198 C1.11129164,6.77885412 1.13028147,6.75974011 1.17409232,6.76860576 C1.65948384,6.71351548 1.68228068,7.01486362 1.68576339,7.33426373 C1.67622542,7.34378102 1.65710452,7.36276746 1.65710452,7.36276746 Z" id="Path" fill="#A2A2A2"></path>
            <path d="M2.23788678,7.89772169 C2.07800565,7.90494588 1.91812463,7.91217356 1.70187401,7.9219461 C1.68970147,7.75889593 1.67847367,7.60850463 1.66217695,7.41044045 C1.65710452,7.36276746 1.67622542,7.34378102 1.72965706,7.34318452 C1.93379028,7.34501209 2.08449548,7.34743966 2.23470746,7.39587819 C2.23543842,7.59383548 2.2366626,7.74577514 2.23788678,7.89772169 Z" id="Path" fill="#A2A2A2"></path>
            <path d="M2.28418384,7.90592859 C2.2366626,7.74577514 2.23543842,7.59383548 2.2340522,7.39652994 C2.23389367,7.35116384 2.23285571,7.35220181 2.2801148,7.35181559 C2.4848861,7.35163627 2.64239819,7.35184316 2.79952395,7.35166734 C2.79914124,7.35128802 2.79846542,7.35061559 2.79846542,7.35061559 C2.79869989,7.50568633 2.79893774,7.66076045 2.8003826,7.86210395 C2.64455333,7.91029763 2.48751706,7.91221831 2.28418384,7.90592859 Z" id="Path" fill="#C3C3C3"></path>
            <path d="M2.79200328,7.97655695 C3.14678644,7.86981096 3.44072418,7.89061469 3.32123661,8.43177582 C3.11654124,8.48771785 2.95685672,8.49520407 2.79716881,8.50269379 C2.79716881,8.50269379 2.79018938,8.48631435 2.7922826,8.47768316 C2.79488949,8.3197539 2.79540328,8.1704591 2.79200328,7.97655695 Z" id="Path" fill="#74455B"></path>
            <path d="M2.23163842,10.7412289 C2.0672435,10.742553 1.90126237,10.742553 1.69993605,10.742553 C1.68981175,10.5640855 1.68168407,10.4208184 1.72495356,10.2273646 C1.92922475,10.1771054 2.08210226,10.1770296 2.23448328,10.1764606 C2.23398678,10.1759641 2.23354881,10.1755261 2.23358328,10.2225128 C2.23281085,10.4249737 2.23200045,10.5804478 2.23119017,10.7359219 C2.23119356,10.7359219 2.23004531,10.7399047 2.23163842,10.7412289 Z" id="Path" fill="#A88677"></path>
            <path d="M2.23497989,10.1769572 C2.08210226,10.1770296 1.92922475,10.1771054 1.73093977,10.1799985 C1.68019446,10.0228555 1.67485989,9.86289853 1.6769565,9.65541695 C1.83686169,9.60917842 1.98933232,9.61046124 2.18778282,9.65882034 C2.2341626,9.86291921 2.23456949,10.0199382 2.23497989,10.1769572 Z" id="Path" fill="#796651"></path>
            <path d="M1.10182249,6.78843356 C0.927596497,6.7890991 0.762836045,6.78018169 0.561030395,6.7692609 C0.55265435,6.61330746 0.544971525,6.47030938 0.532226554,6.28006588 C0.527161017,6.23282395 0.546264633,6.21383412 0.599510056,6.21323412 C0.802732994,6.21590825 0.952717401,6.21918237 1.10315017,6.26760023 C1.11249164,6.46174023 1.12138475,6.61074192 1.13028147,6.75974011 C1.13028147,6.75974011 1.11129164,6.77885412 1.10182249,6.78843356 Z" id="Path" fill="#A2A2A2"></path>
            <path d="M7.93753582,6.22882045 C7.8877939,6.07466011 7.8860974,5.91453593 7.88522147,5.70646644 C8.03709559,5.65749695 8.18815593,5.65647277 8.38456147,5.65495898 C8.43747582,5.81542452 8.44503808,5.97637977 8.45511051,6.19069243 C8.29025006,6.20198565 8.1379174,6.21242203 7.93753582,6.22882045 Z" id="Path" fill="#B5B5B5"></path>
            <path d="M7.32334983,0.517626441 C6.99701514,0.592989266 6.68592203,0.59647209 6.75146757,0.0708421469 C6.91117977,0.0173657627 7.07201944,0.0099880226 7.28758045,0.0001 C7.29903232,0.165338079 7.30957028,0.317358644 7.32334983,0.517626441 Z" id="Path" fill="#A7A7A7"></path>
            <path d="M7.31826011,1.13961944 C7.31926011,0.979588362 7.3202635,0.819555593 7.32276011,0.611527458 C7.49031367,0.56353209 7.65637073,0.56353209 7.86021774,0.56353209 C7.86997311,0.742651299 7.87779379,0.88629774 7.89048023,1.07744633 C7.89534576,1.1249504 7.87670068,1.14348508 7.82329672,1.1439678 C7.61835989,1.14181774 7.46682723,1.13918497 7.31689458,1.13629525 C7.31849797,1.13603672 7.31826011,1.13961944 7.31826011,1.13961944 Z" id="Path" fill="#A7A7A7"></path>
            <path d="M5.63147593,0.517572994 C5.3065896,0.594385876 4.99224475,0.601804972 5.05765582,0.0713905085 C5.21803345,0.0176381921 5.37894904,0.0100759322 5.59333073,-5.55111512e-16 C5.60463085,0.164860452 5.61507232,0.317191412 5.63147593,0.517572994 Z" id="Path" fill="#B5B5B5"></path>
            <path d="M7.32814294,5.66586249 C7.32466701,6.00359898 7.32119458,6.34133548 7.31640486,6.72946734 C7.16749288,6.78778181 7.01989469,6.7957026 6.8722965,6.80362339 C6.89481062,6.84657559 6.91732113,6.88953119 6.93983525,6.93248689 C6.72093277,7.07332633 6.5020304,7.21416927 6.18322,7.35448113 C5.55362339,7.35640881 5.0239348,7.35886395 4.49424271,7.36131921 C4.33090644,7.34719141 4.16757017,7.33306373 4.0042339,7.31893593 C4.02859616,7.26495254 4.05295503,7.21097266 4.07731401,7.15698938 C3.87216689,7.0325948 3.66701977,6.90819695 3.41338249,6.73112949 C3.36538893,6.33688723 3.36588542,5.99531616 3.36503718,5.65507277 C3.36368881,5.65640384 3.36106463,5.65902621 3.40845831,5.6580487 C3.61369853,5.65693831 3.77154508,5.65680893 3.9291365,5.65642452 C3.92888475,5.65617277 3.92833989,5.65562452 3.92855367,5.70291638 C3.84070441,6.22771006 4.15436994,6.24325514 4.48939435,6.28357966 C4.45843887,6.64742859 4.56449864,6.82170633 4.91935774,6.79102328 C5.15701559,6.77047469 5.40080791,6.76352294 5.6367139,6.79244045 C6.07732226,6.84646181 6.25252768,6.66624599 6.2414896,6.23130328 C6.74706757,6.28892463 6.79657842,6.02004056 6.78875073,5.66314181 C6.99368068,5.65530723 7.15109616,5.65064 7.31343593,5.65091687 C7.31835661,5.65588825 7.32814294,5.66586249 7.32814294,5.66586249 Z" id="Path" fill="#EFB385"></path>
            <path d="M2.79764463,8.54765299 C2.95685672,8.49520407 3.11654124,8.48771785 3.32427119,8.47967288 C3.52563548,8.48126949 3.67895096,8.48342463 3.87797379,8.49103853 C3.93109164,8.76689672 3.87290486,9.06520689 4.30816825,9.0782278 C4.37378621,9.08018644 4.46371819,9.32532011 4.48593232,9.46683548 C4.51680847,9.66352045 4.49434271,9.86857785 4.49583243,10.1211565 C4.15349751,10.1736399 3.81004203,10.1750192 3.41525153,10.176171 C3.36391299,10.1759468 3.36363718,10.1757468 3.36383028,10.1243496 C3.36397503,9.90880249 3.34471627,9.74192475 3.36753028,9.58101605 C3.4319965,9.12640418 3.21373887,8.98979232 2.80311028,9.04743774 C2.80144814,8.89582915 2.7997861,8.74422407 2.79764463,8.54765299 Z" id="Path" fill="#81576E"></path>
            <path d="M3.36638542,5.65374339 C3.36588542,5.99531616 3.36538893,6.33688723 3.36618203,6.72920531 C3.39066847,7.12105785 3.3680061,7.42399571 2.84562102,7.3504087 C2.79846542,7.35061559 2.79914124,7.35128802 2.7991826,7.30000475 C2.79702746,6.90337966 2.79483435,6.55803785 2.79491479,6.16711288 C2.80007571,5.9694435 2.80295164,5.81735898 2.85242802,5.66242802 C3.05481299,5.6576348 3.21059751,5.65569006 3.36638542,5.65374339 Z" id="Path" fill="#C3C3C3"></path>
            <path d="M4.49417028,7.40895073 C5.0239348,7.35886395 5.55362339,7.35640881 6.13585051,7.35763288 C6.2526104,7.79221706 6.08059469,7.97464316 5.63707605,7.92107367 C5.40098723,7.89255955 5.15728791,7.89973198 4.91943017,7.91959435 C4.56327107,7.94933605 4.45957684,7.77273062 4.49417028,7.40895073 Z" id="Path" fill="#C3C3C3"></path>
            <path d="M0.542902599,3.40438418 C0.542071525,3.05822508 0.541243955,2.71206791 0.593678983,2.31555661 C1.17633028,2.2652026 1.70571537,2.2652026 2.23470746,2.31263932 C2.23639367,2.51825367 2.23846949,2.6764313 2.23862124,2.83512441 C2.23669706,2.83563819 2.23432124,2.83244339 2.18712757,2.8319278 C1.98194599,2.83182949 1.82395458,2.83224508 1.6188661,2.83225887 C1.09383627,2.75117175 1.07748429,3.05568723 1.05554271,3.39506847 C0.853543955,3.3985513 0.698221469,3.40146859 0.542902599,3.40438418 Z" id="Path" fill="#AEAEAE"></path>
            <path d="M0.541495593,3.45655887 C0.698221469,3.40146859 0.853543955,3.3985513 1.05637718,3.39589616 C1.10388802,3.39615819 1.10530531,3.39756508 1.10487085,3.45037254 C1.10297774,4.22312249 1.1015191,4.94306486 1.05374271,5.66078667 C0.853333559,5.65631582 0.69924226,5.65406588 0.545143955,5.65181582 C0.54346113,4.93745446 0.541778418,4.22309311 0.541495593,3.45655887 Z" id="Path" fill="#EBA069"></path>
            <path d="M2.23510056,2.26520429 C1.70571537,2.2652026 1.17633028,2.2652026 0.59464452,2.26376463 C0.544092203,2.11316475 0.545840565,1.96400441 0.556482034,1.77128508 C1.08664994,1.71900689 1.60792463,1.7102878 2.18158271,1.70146362 C2.2339626,1.70135842 2.23339367,1.70079469 2.2336591,1.74798486 C2.23383503,1.95233706 2.23374192,2.1094991 2.23387299,2.26643537 C2.23409706,2.26621119 2.23510056,2.26520429 2.23510056,2.26520429 Z" id="Path" fill="#C3C3C3"></path>
            <path d="M0.543054237,5.69748362 C0.69924226,5.65406588 0.853333559,5.65631582 1.05479785,5.65820723 C1.10216734,5.6578504 1.09724316,5.65850215 1.09967073,5.70515605 C1.10348463,5.90751006 1.10487085,6.06320825 1.10539153,6.21977898 C1.1045226,6.22064791 1.10269842,6.22245831 1.10269842,6.22245831 C0.952717401,6.21918237 0.802732994,6.21590825 0.609044633,6.20372023 C0.557213107,6.04425638 0.549085424,5.89370475 0.543054237,5.69748362 Z" id="Path" fill="#C3C3C3"></path>
            <path d="M3.36503718,5.65507277 C3.21059751,5.65569006 3.05481299,5.6576348 2.85011424,5.61025503 C2.80015503,5.21574203 2.79911367,4.87055548 2.84552452,4.52563266 C2.94881876,4.5252948 3.0237748,4.54759503 3.05697853,4.51987921 C3.16520395,4.42954373 3.25818768,4.32094938 3.35703356,4.21937763 C3.26030497,4.13541119 3.16357977,4.05144644 3.06685107,3.96747831 C2.97797424,4.07956056 2.87691797,4.18455141 2.80571028,4.30691819 C2.77330305,4.36259819 2.79994814,4.45263706 2.75350621,4.52684475 C2.55361435,4.52795345 2.40002994,4.52931028 2.24255582,4.47919774 C2.23599706,4.08378994 2.23332124,3.73984994 2.23216599,3.34895763 C2.23389706,3.14548305 2.23411085,2.98896226 2.23432124,2.83244339 C2.23432124,2.83244339 2.23669706,2.83563819 2.2851287,2.8339209 C2.80757582,2.90469412 2.82794847,2.6067391 2.79731367,2.21901412 C2.79921017,2.01520678 2.79971367,1.85838949 2.79957921,1.70145322 C2.79894124,1.70133605 2.79901367,1.70253774 2.84605209,1.7019826 C3.04983367,1.70100847 3.20657333,1.70058949 3.36349232,1.75162621 C3.36448881,2.14741164 3.3653061,2.49174124 3.36547503,2.88434395 C3.30889864,3.30356237 3.48026949,3.4311948 3.83629062,3.4003496 C4.05580678,3.3813287 4.27886791,3.40320994 4.49749107,3.45494847 C4.4946496,3.64553333 4.4946496,3.78789876 4.4946496,3.9323365 C4.71259345,3.9323365 4.87224339,3.9323365 5.05235232,3.9323365 C5.05235232,3.7384878 5.05235232,3.57261017 5.10018734,3.40354452 C5.30437921,3.31611243 5.46073616,3.23186667 5.61709299,3.1476209 C5.50229175,3.0396922 5.38245944,2.93652723 5.27434791,2.82226734 C5.1944504,2.73783017 5.14136023,2.62598588 5.05560068,2.54962814 C4.93689243,2.44393729 4.80872893,2.30512023 4.66664463,2.27927684 C4.43030407,2.23629198 4.17968746,2.27178712 3.93301582,2.22631424 C3.92996757,2.01910328 3.92899164,1.85980497 3.97500249,1.7007791 C4.47620113,1.77280576 4.52942237,1.49989073 4.49336689,1.14333333 C4.49217028,1.13540734 4.49198407,1.11937955 4.49198407,1.11937955 C5.39880102,1.12535548 6.30561446,1.13133322 7.26534565,1.13846429 C7.31826011,1.13961944 7.31849797,1.13603672 7.31812215,1.18344407 C7.24130407,1.69995842 7.53621763,1.73084667 7.8783939,1.70596362 C7.87975932,2.0450122 7.88112486,2.38406079 7.83418305,2.77619446 C7.52455548,2.84917458 7.30541164,2.83250712 7.29778056,2.4751687 C7.29628746,2.40525932 7.1333304,2.30008056 7.03294316,2.28357345 C6.95624915,2.27096475 6.84150305,2.35545706 6.77745751,2.42699401 C6.62241797,2.60015797 6.48710949,2.79098938 6.34384938,2.9747035 C6.30100407,2.95169469 6.25816215,2.92868746 6.21531684,2.90567864 C6.20735469,3.06837006 6.19939254,3.23105977 6.1905304,3.44079492 C6.10323288,3.94742633 6.40437763,3.98117672 6.74026746,4.02904791 C6.81615797,4.22250689 6.8788139,4.49332893 6.95696983,4.49787718 C7.40425412,4.52390859 7.30780136,4.83124814 7.31819107,5.09172169 C7.31902904,5.09088203 7.32053254,5.08938203 7.26741819,5.09002859 C6.49520621,5.09146136 5.77610859,5.09224757 5.05760757,5.04542124 C5.05772825,4.94175277 5.0803078,4.86648475 5.05254192,4.83316712 C4.96222034,4.72477288 4.85348463,4.63172011 4.75183864,4.53276215 C4.66780667,4.62960282 4.58377469,4.72644181 4.49974282,4.82328079 C4.61196814,4.91216452 4.71705898,5.01336565 4.83963277,5.08439582 C4.89550915,5.11677367 4.98591706,5.08956475 5.06012486,5.13542734 C5.06186621,5.33442271 5.06414554,5.48737435 5.01486226,5.64549164 C4.61831299,5.65231412 4.27332644,5.65396927 3.92833989,5.65562452 C3.92833989,5.65562452 3.92888475,5.65617277 3.92893299,5.60892395 C3.8279078,5.40669932 3.72683085,5.2517252 3.62575379,5.09675107 C3.53752531,5.28417559 3.44929322,5.47160181 3.36106463,5.65902621 C3.36106463,5.65902621 3.36368881,5.65640384 3.36503718,5.65507277 Z" id="Path" fill="#EFB385"></path>
            <path d="M3.36336124,0.572044294 C3.52034576,0.571809718 3.67733028,0.571573559 3.88140147,0.571382147 C4.25836079,0.548868136 4.56368825,0.556633785 4.49257028,1.07400147 C4.49198407,1.11937955 4.49217028,1.13540734 4.44654215,1.13798667 C4.24399164,1.14051605 4.08707266,1.14046599 3.88290497,1.13859706 C3.6785096,1.13709017 3.52136305,1.13740045 3.36405096,1.13710565 C3.36388192,1.13650045 3.36315435,1.13581944 3.36352339,1.08883966 C3.36371299,0.885252881 3.36353718,0.728649379 3.36336124,0.572044294 Z" id="Path" fill="#B5B5B5"></path>
            <path d="M5.0092139,10.7430772 C5.05694893,10.9006237 5.05809028,11.0566738 5.05961446,11.2596621 C4.90916452,11.304942 4.75833186,11.3032868 4.56319514,11.2960833 C4.51077051,11.1386919 4.50264621,10.9868523 4.49533243,10.789226 C4.65163062,10.742822 4.80712893,10.7422047 5.0092139,10.7430772 Z" id="Path" fill="#9F6885"></path>
            <path d="M3.36389921,10.1761537 C3.36390949,10.3332623 3.36393718,10.4901606 3.36428192,10.6941284 C3.36459921,10.7411944 3.36364407,10.7410979 3.31627797,10.7414151 C3.11424814,10.7430565 2.95958441,10.7443772 2.80491718,10.7456979 C2.80491718,10.7456979 2.80153435,10.7429392 2.80023785,10.6944801 C2.79853435,10.4885399 2.79813435,10.3310589 2.79834124,10.1746157 C2.79894814,10.1756537 2.79675153,10.1747916 2.84399695,10.1751881 C3.04870949,10.1756364 3.20617333,10.1756916 3.36363718,10.1757468 C3.36363718,10.1757468 3.36391299,10.1759468 3.36389921,10.1761537 Z" id="Path" fill="#626262"></path>
            <path d="M2.23490395,1.13782294 C2.20405887,0.793682938 2.23243503,0.498002034 2.75330972,0.572627006 C2.80060678,0.573078757 2.79926881,0.571751186 2.79905853,0.618529266 C2.79900678,0.822467684 2.79916881,0.979629831 2.75226486,1.13657119 C2.54791774,1.13626768 2.39064023,1.13617977 2.2333626,1.13609356 C2.2333626,1.13609356 2.23455921,1.13679876 2.23490395,1.13782294 Z" id="Path" fill="#A7A7A7"></path>
            <path d="M6.1914304,3.39374949 C6.19939254,3.23105977 6.20735469,3.06837006 6.21531684,2.90567864 C6.25816215,2.92868746 6.30100407,2.95169469 6.34384938,2.9747035 C6.48710949,2.79098938 6.62241797,2.60015797 6.77745751,2.42699401 C6.84150305,2.35545706 6.95624915,2.27096475 7.03294316,2.28357345 C7.1333304,2.30008056 7.29628746,2.40525932 7.29778056,2.4751687 C7.30541164,2.83250712 7.52455548,2.84917458 7.83300373,2.82694158 C7.88162486,2.98270362 7.88312147,3.14080023 7.88557672,3.34607492 C7.88652836,3.39325299 7.88466983,3.39706678 7.83584508,3.39717198 C7.62755661,3.39909266 7.46808927,3.40090825 7.26324565,3.39978237 C7.06609525,3.39994102 6.91432463,3.40304271 6.71498441,3.40294185 C6.50875458,3.39773751 6.35009424,3.39574441 6.1914304,3.39374949 Z" id="Path" fill="#B5B5B5"></path>
            <path d="M7.8802939,1.66017175 C7.53621763,1.73084667 7.24130407,1.69995842 7.31652215,1.18370271 C7.46682723,1.13918497 7.61835989,1.14181774 7.81398972,1.15325412 C7.86612124,1.31283006 7.87415582,1.46360407 7.8802939,1.66017175 Z" id="Path" fill="#C3C3C3"></path>
            <path d="M7.31734972,5.09256136 C7.30780136,4.83124814 7.40425412,4.52390859 6.95696983,4.49787718 C6.8788139,4.49332893 6.81615797,4.22250689 6.74770203,4.02073062 C6.74906068,3.96679718 6.76422633,3.95077808 6.80928893,3.95551955 C7.00559458,3.95927299 7.15683763,3.95828678 7.35534328,3.95856441 C7.55916621,3.96240407 7.71573345,3.96498 7.87230068,3.96755763 C7.8748835,4.30626136 7.87746972,4.64496678 7.83037266,5.03661073 C7.62624621,5.09055616 7.47179627,5.09155797 7.31734972,5.09256136 Z" id="Path" fill="#E99658"></path>
            <path d="M7.87641107,3.92018463 C7.71573345,3.96498 7.55916621,3.96240407 7.36015706,3.91245695 C7.31468418,3.71096859 7.31165311,3.5568461 7.30862554,3.40272554 C7.46808927,3.40090825 7.62755661,3.39909266 7.83477616,3.39896678 C7.88185944,3.55804271 7.8811904,3.71542893 7.87641107,3.92018463 Z" id="Path" fill="#EFB385"></path>
            <path d="M7.31819107,5.09172169 C7.47179627,5.09155797 7.62624621,5.09055616 7.82649672,5.08722508 C7.87591797,5.24307333 7.87953175,5.40125096 7.88224215,5.60662734 C7.72742667,5.65538486 7.57351458,5.6569435 7.37387446,5.66218147 C7.32814294,5.66586249 7.31835661,5.65588825 7.31711525,5.60500328 C7.31742554,5.39920791 7.31897729,5.24429412 7.32053254,5.08938203 C7.32053254,5.08938203 7.31902904,5.09088203 7.31819107,5.09172169 Z" id="Path" fill="#EFB385"></path>
            <path d="M3.36383028,10.1243496 C3.20617333,10.1756916 3.04870949,10.1756364 2.84485898,10.128398 C2.79767232,9.92507164 2.79687571,9.76893198 2.7960791,9.61279232 C2.79743085,9.4557078 2.7987826,9.29861989 2.80162407,9.09448655 C3.21373887,8.98979232 3.4319965,9.12640418 3.36753028,9.58101605 C3.34471627,9.74192475 3.36397503,9.90880249 3.36383028,10.1243496 Z" id="Path" fill="#74455B"></path>
            <path d="M2.74950271,9.61197503 C2.79687571,9.76893198 2.79767232,9.92507164 2.79761254,10.1280015 C2.79675153,10.1747916 2.79894814,10.1756537 2.75148904,10.1755295 C2.54720395,10.1754468 2.39037469,10.1754847 2.23354881,10.1755261 C2.23354881,10.1755261 2.23398678,10.1759641 2.23448328,10.1764606 C2.23456949,10.0199382 2.2341626,9.86291921 2.23385571,9.65908588 C2.39027808,9.61190738 2.54660395,9.61153017 2.74950271,9.61197503 Z" id="Path" fill="#A88677"></path>
            <path d="M2.23364531,1.18316136 C2.39064023,1.13617977 2.54791774,1.13626768 2.75206836,1.13637638 C2.79894124,1.13639876 2.79855164,1.13600734 2.79875853,1.18315785 C2.79897921,1.38771706 2.79899638,1.54512746 2.79901367,1.70253774 C2.79901367,1.70253774 2.79894124,1.70133605 2.75223729,1.70136362 C2.54815232,1.70119119 2.39077469,1.70099288 2.23339367,1.70079469 C2.23339367,1.70079469 2.2339626,1.70135842 2.23422124,1.70162226 C2.23429706,1.54466881 2.23411435,1.38744983 2.23364531,1.18316136 Z" id="Path" fill="#C3C3C3"></path>
            <path d="M2.79913435,1.13659537 C2.79916881,0.979629831 2.79900678,0.822467684 2.79867232,0.618144746 C2.9554809,0.571125311 3.11246881,0.571271864 3.31640904,0.571730508 C3.36353718,0.728649379 3.36371299,0.885252881 3.31661593,1.08913616 C3.11241017,1.13627808 2.9554809,1.13614181 2.79855164,1.13600734 C2.79855164,1.13600734 2.79894124,1.13639876 2.79913435,1.13659537 Z" id="Path" fill="#C3C3C3"></path>
            <path d="M2.80312056,10.7920226 C2.95958441,10.7443772 3.11424814,10.7430565 3.31538836,10.7417392 C3.35887842,10.9012686 3.35589571,11.0607945 3.34214384,11.2673933 C3.18349718,11.311518 3.03561277,11.3085696 2.84287966,11.3041247 C2.79912746,11.1478678 2.80022746,10.9931041 2.80312056,10.7920226 Z" id="Path" fill="#7F7F7F"></path>
            <path d="M2.23358328,10.2225128 C2.39037469,10.1754847 2.54720395,10.1754468 2.75087864,10.1744916 C2.79813435,10.3310589 2.79853435,10.4885399 2.79869299,10.6929386 C2.64102576,10.7400219 2.48359989,10.7401875 2.27868373,10.7381392 C2.23200045,10.5804478 2.23281085,10.4249737 2.23358328,10.2225128 Z" id="Path" fill="#74455B"></path>
            <path d="M2.23064881,3.39591164 C2.23332124,3.73984994 2.23599706,4.08378994 2.23799718,4.53128102 C2.23830407,5.16078621 2.23929028,5.68674203 2.23843164,6.26452429 C2.23533842,6.66163209 2.23409706,7.00691876 2.2328522,7.35220181 C2.23285571,7.35220181 2.23389367,7.35116384 2.23454531,7.35051559 C2.08449548,7.34743966 1.93379028,7.34501209 1.73919164,7.33366712 C1.68228068,7.01486362 1.65948384,6.71351548 1.17409232,6.76860576 C1.12138475,6.61074192 1.11249164,6.46174023 1.10315017,6.26760023 C1.10269842,6.22245831 1.1045226,6.22064791 1.15246791,6.2205687 C1.67348395,6.29540056 1.70703955,6.01224915 1.66045277,5.60754124 C1.66265288,4.83484994 1.66091831,4.11522994 1.66244249,3.3961478 C1.66570113,3.39668927 1.67230814,3.39682712 1.71874655,3.39658237 C1.92033842,3.39619435 2.07549537,3.39605299 2.23064881,3.39591164 Z" id="Path" fill="#C3C3C3"></path>
            <path d="M2.2801148,7.35181559 C2.23409706,7.00691876 2.23533842,6.66163209 2.28433898,6.26750362 C2.48561017,6.21667209 2.63912226,6.21468588 2.79263774,6.21269785 C2.79483435,6.55803785 2.79702746,6.90337966 2.79956542,7.30038407 C2.64239819,7.35184316 2.4848861,7.35163627 2.2801148,7.35181559 Z" id="Path" fill="#AEAEAE"></path>
            <path d="M3.92855367,5.70291638 C4.27332644,5.65396927 4.61831299,5.65231412 5.06660418,5.65148655 C5.6936835,5.65697797 6.21746169,5.6616435 6.7412365,5.66631085 C6.79657842,6.02004056 6.74706757,6.28892463 6.18834418,6.22713085 C5.5550061,6.23066531 5.0213313,6.23344814 4.48765989,6.23623435 C4.15436994,6.24325514 3.84070441,6.22771006 3.92855367,5.70291638 Z" id="Path" fill="#F9F8D5"></path>
            <path d="M6.78875073,5.6631435 C6.21746169,5.6616435 5.6936835,5.65697797 5.11816678,5.64631751 C5.06414554,5.48737435 5.06186621,5.33442271 5.05920757,5.13633605 C5.05882825,5.09120102 5.05701096,5.09303548 5.05701096,5.09303548 C5.77610859,5.09224757 6.49520621,5.09146136 7.26741819,5.09002859 C7.31897729,5.24429412 7.31742554,5.39920791 7.31219107,5.60004452 C7.15109616,5.65064 6.99368068,5.65530723 6.78875073,5.6631435 Z" id="Path" fill="#E99658"></path>
            <path d="M4.48939435,6.28357966 C5.0213313,6.23344814 5.5550061,6.23066531 6.14182294,6.23205503 C6.25252768,6.66624599 6.07732226,6.84646181 5.6367139,6.79244045 C5.40080791,6.76352294 5.15701559,6.77047469 4.91935774,6.79102328 C4.56449864,6.82170633 4.45843887,6.64742859 4.48939435,6.28357966 Z" id="Path" fill="#DCD29C"></path>
            <path d="M3.40845831,5.6580487 C3.44929322,5.47160181 3.53752531,5.28417559 3.62575379,5.09675107 C3.72683085,5.2517252 3.8279078,5.40669932 3.92918825,5.60917571 C3.77154508,5.65680893 3.61369853,5.65693831 3.40845831,5.6580487 Z" id="Path" fill="#C3C3C3"></path>
            <path d="M2.79491706,6.16711288 C2.63912226,6.21468588 2.48561017,6.21667209 2.28618384,6.21567718 C2.23929028,5.68674203 2.23830407,5.16078621 2.24187989,4.58274881 C2.40002994,4.52931028 2.55361435,4.52795345 2.75307175,4.52641198 C2.79894124,4.52622927 2.79806881,4.52536893 2.79806881,4.52536893 C2.79911367,4.87055548 2.80015503,5.21574203 2.80351367,5.61309989 C2.80295164,5.81735898 2.80007571,5.9694435 2.79491706,6.16711288 Z" id="Path" fill="#EBA069"></path>
            <path d="M1.10305706,3.39532881 C1.07748429,3.05568723 1.09383627,2.75117175 1.62025932,2.87905243 C1.6699322,3.08310475 1.67112192,3.23996678 1.67230814,3.39682712 C1.67230814,3.39682712 1.66570113,3.39668927 1.61653164,3.39632023 C1.41334316,3.39649096 1.25932429,3.39702893 1.10530531,3.39756508 C1.10530531,3.39756508 1.10388802,3.39615819 1.10305706,3.39532881 Z" id="Path" fill="#EBA069"></path>
            <path d="M1.71875006,3.39658237 C1.67112192,3.23996678 1.6699322,3.08310475 1.66735638,2.87945243 C1.82395458,2.83224508 1.98194599,2.83182949 2.18712757,2.83192134 C2.23411085,2.98896226 2.23389706,3.14548305 2.23216599,3.34895763 C2.07549537,3.39605299 1.92033842,3.39619435 1.71875006,3.39658237 Z" id="Path" fill="#A2A2A2"></path>
            <path d="M2.79592746,2.2660009 C2.82794847,2.6067391 2.80757582,2.90469412 2.28705288,2.83340542 C2.23846949,2.6764313 2.23639367,2.51825367 2.23470746,2.31263932 C2.23510056,2.26520429 2.23409706,2.26621119 2.28095627,2.26628712 C2.48385153,2.26624395 2.6398878,2.26612158 2.79592746,2.2660009 Z" id="Path" fill="#C3C3C3"></path>
            <path d="M1.10487085,3.45037254 C1.25932429,3.39702893 1.41334316,3.39649096 1.61327299,3.39578056 C1.66091831,4.11522994 1.66265288,4.83484994 1.6142661,5.60602045 C1.40851209,5.65788136 1.25287932,5.65819175 1.09724316,5.65850215 C1.09724316,5.65850215 1.10216734,5.6578504 1.1011122,5.66042802 C1.1015191,4.94306486 1.10297774,4.22312249 1.10487085,3.45037254 Z" id="Path" fill="#EFB385"></path>
            <path d="M2.79731367,2.21901412 C2.6398878,2.26612158 2.48385153,2.26624395 2.28072859,2.26651299 C2.23374192,2.1094991 2.23383503,1.95233706 2.2336591,1.74798486 C2.39077469,1.70099288 2.54815232,1.70119119 2.75287525,1.7014809 C2.79971367,1.85838949 2.79921017,2.01520678 2.79731367,2.21901412 Z" id="Path" fill="#A2A2A2"></path>
            <path d="M1.09967073,5.70515605 C1.25287932,5.65819175 1.40851209,5.65788136 1.61033503,5.65909006 C1.70703955,6.01224915 1.67348395,6.29540056 1.15333684,6.21969966 C1.10487085,6.06320825 1.10348463,5.90751006 1.09967073,5.70515605 Z" id="Path" fill="#EBA069"></path>
            <path d="M4.50033593,3.40672893 C4.27886791,3.40320994 4.05580678,3.3813287 3.83629062,3.4003496 C3.48026949,3.4311948 3.30889864,3.30356237 3.41243073,2.88262147 C3.92973989,2.91138215 3.95728847,2.61397198 3.93508486,2.27423198 C4.17968746,2.27178712 4.43030407,2.23629198 4.66664463,2.27927684 C4.80872893,2.30512023 4.93689243,2.44393729 5.05560068,2.54962814 C5.14136023,2.62598588 5.1944504,2.73783017 5.27434791,2.82226734 C5.38245944,2.93652723 5.50229175,3.0396922 5.61709299,3.1476209 C5.46073616,3.23186667 5.30437921,3.31611243 5.05426271,3.3989513 C4.80711514,3.40060475 4.65372373,3.40366689 4.50033593,3.40672893 Z" id="Path" fill="#B5B5B5"></path>
            <path d="M3.93301582,2.22631593 C3.95728847,2.61397198 3.92973989,2.91138215 3.41307559,2.83434847 C3.3653061,2.49174124 3.36448881,2.14741164 3.36376124,1.75222972 C3.36385096,1.7013791 3.36258542,1.70072565 3.40992045,1.70101876 C3.61454678,1.70141186 3.77183469,1.70151017 3.92898124,1.70146011 C3.92883299,1.70131356 3.92801232,1.70050847 3.92801232,1.70050847 C3.92899164,1.85980497 3.92996757,2.01910328 3.93301582,2.22631593 Z" id="Path" fill="#EBA069"></path>
            <path d="M2.79937571,4.52666034 C2.79994814,4.45263706 2.77330305,4.36259819 2.80571028,4.30691819 C2.87691797,4.18455141 2.97797424,4.07956056 3.06685107,3.96747831 C3.16357977,4.05144644 3.26030497,4.13541119 3.35703356,4.21937763 C3.25818768,4.32094938 3.16520395,4.42954373 3.05697853,4.51987921 C3.0237748,4.54759503 2.94881876,4.5252948 2.84552452,4.52563266 C2.79806881,4.52536893 2.79894124,4.52622927 2.79937571,4.52666034 Z" id="Path" fill="#EBA069"></path>
            <path d="M4.49749107,3.45494847 C4.65372373,3.40366689 4.80711514,3.40060475 5.00642768,3.40213751 C5.05235232,3.57261017 5.05235232,3.7384878 5.05235232,3.9323365 C4.87224339,3.9323365 4.71259345,3.9323365 4.4946496,3.9323365 C4.4946496,3.78789876 4.4946496,3.64553333 4.49749107,3.45494847 Z" id="Path" fill="#000000"></path>
            <path d="M6.1905304,3.44079492 C6.35009424,3.39574441 6.50875458,3.39773751 6.71104644,3.44795525 C6.75785729,3.64771266 6.76104011,3.79924542 6.76422633,3.95077808 C6.76422633,3.95077808 6.74906068,3.96679718 6.7416261,3.97511288 C6.40437763,3.98117672 6.10323288,3.94742633 6.1905304,3.44079492 Z" id="Path" fill="#E99658"></path>
            <path d="M5.05974554,5.09029062 C4.98591706,5.08956475 4.89550915,5.11677367 4.83963277,5.08439582 C4.71705898,5.01336565 4.61196814,4.91216452 4.49974282,4.82328079 C4.58377469,4.72644181 4.66780667,4.62960282 4.75183864,4.53276215 C4.85348463,4.63172011 4.96222034,4.72477288 5.05254192,4.83316712 C5.0803078,4.86648475 5.05772825,4.94175277 5.05760757,5.04542294 C5.05701096,5.09303548 5.05882825,5.09120102 5.05974554,5.09029062 Z" id="Path" fill="#E99658"></path>
            <path d="M2.79875853,1.18315785 C2.9554809,1.13614181 3.11241017,1.13627808 3.31624701,1.13611605 C3.36315435,1.13581944 3.36388192,1.13650045 3.36389232,1.18388203 C3.36346475,1.38775153 3.36302328,1.54423944 3.36258542,1.70072565 C3.36258542,1.70072565 3.36385096,1.7013791 3.36358192,1.7007739 C3.20657333,1.70058949 3.04983367,1.70100847 2.84605209,1.7019826 C2.79899638,1.54512746 2.79897921,1.38771706 2.79875853,1.18315785 Z" id="Path" fill="#A7A7A7"></path>
            <path d="M3.93014678,1.14041435 C4.08707266,1.14046599 4.24399164,1.14051605 4.44773876,1.14591266 C4.52942237,1.49989073 4.47620113,1.77280576 3.97500249,1.7007791 C3.92801232,1.70050847 3.92883299,1.70131356 3.9288595,1.6544252 C3.92931582,1.45182983 3.92973299,1.29612294 3.93014678,1.14041435 Z" id="Path" fill="#EBA069"></path>
            <path d="M3.88290147,1.13859706 C3.92973299,1.29612294 3.92931582,1.45182983 3.92901232,1.65457345 C3.77183469,1.70151017 3.61454678,1.70141186 3.40992045,1.70101876 C3.36302328,1.54423944 3.36346475,1.38775153 3.36405785,1.18448893 C3.52136305,1.13740045 3.6785096,1.13709017 3.88290147,1.13859706 Z" id="Path" fill="#EFB385"></path>
            <path d="M6.80928893,3.95551955 C6.76104011,3.79924542 6.75785729,3.64771266 6.75861254,3.45116226 C6.91432463,3.40304271 7.06609525,3.39994102 7.26324565,3.39978237 C7.31165311,3.5568461 7.31468418,3.71096859 7.31290136,3.91119492 C7.15683763,3.95828678 7.00559458,3.95927299 6.80928893,3.95551955 Z" id="Path" fill="#000000"></path>
        </g>
    </g>
</svg>
