<?xml version="1.0" encoding="UTF-8"?>

<svg width="13px" height="15px" viewBox="0 0 13 15" version="1.1" xmlns="http://www.w3.org/2000/svg" xmlns:xlink="http://www.w3.org/1999/xlink">
    <g id="Page-1" stroke="none" stroke-width="1" fill="none" fill-rule="evenodd">
        <g id="Group-12" transform="translate(0.203153, 0.456698)">
            <g id="tumblr_my13rlYKRv1sfcgh3o1_1280_adobe_express" transform="translate(6.207929, 9.038125)"></g>
            <path d="M5.07470734,1.11407085 C5.08390056,0.952622486 5.09309367,0.791174237 5.10416712,0.596715141 C5.25960068,0.584270169 5.39971864,0.573051073 5.63864023,0.56002678 C5.9011104,0.55882678 6.06727085,0.541355932 6.22796655,0.563513107 C6.66387831,0.623617175 6.83645605,0.439299661 6.77537175,0.0135483616 C7.11314102,0.0135483616 7.45091107,0.0135483616 7.82958169,0.0135483616 C7.86978723,0.176831186 7.91178,0.347372768 7.96067277,0.545938757 C8.30372395,0.521650508 8.55334226,0.613494689 8.40785186,1.08014294 C8.02215367,1.08607232 7.89041333,1.21899616 7.89787729,1.56503277 C7.91508,2.36263288 7.90003412,3.1609296 7.85208023,3.95657638 C7.65250554,3.95578667 7.49892282,3.9573626 7.34305819,3.90547232 C7.34025989,3.08187186 7.35241085,2.31133232 7.32756746,1.54198418 C7.32308814,1.40326712 7.16643819,1.26946226 7.08004407,1.13339006 C6.97806362,1.27263119 6.81442904,1.40102746 6.78760983,1.55348949 C6.73952994,1.82682531 6.80141514,2.11854407 6.76236124,2.39480915 C6.74154124,2.54208836 6.60569062,2.67310701 6.52175864,2.81146373 C6.41687819,2.71305401 6.31340203,2.61308915 6.2067,2.51669492 C6.11020836,2.42952678 6.01947119,2.30062701 5.90832508,2.27802508 C5.83936407,2.26400249 5.66737424,2.40878859 5.66143706,2.49094983 C5.63034531,2.92124079 5.32041435,2.79868768 5.07824181,2.76406147 C5.07731593,2.17907921 5.07601164,1.64657503 5.07470734,1.11407085 Z" id="Path" fill="#986849" fill-rule="nonzero"></path>
            <path d="M2.81087548,9.03678588 C2.6618565,9.03678588 2.51283763,9.03678588 2.50512124,9.03678588 C2.22618452,8.7460965 2.02800689,8.53957345 1.81590972,8.3185435 C1.63126068,8.14042938 1.43756678,7.95359119 1.22196994,7.74562508 C0.975386667,7.4821687 0.712197514,7.20097073 0.449008814,6.91977288 C0.46772452,6.88547932 0.486440678,6.85118418 0.505156497,6.81689073 C0.347822825,6.78648689 0.190489153,6.75608316 4.4408921e-16,6.71927232 C4.4408921e-16,6.37472542 4.4408921e-16,6.05930124 0.0519053107,5.69361627 C0.579449492,5.71564237 0.582906893,5.40833718 0.558569492,5.07905774 C0.559068249,5.07982667 0.557824294,5.07855605 0.610708475,5.07906294 C1.19731322,5.08058362 1.73103424,5.0815991 2.26080475,5.12897379 C2.25234949,5.33020362 2.24784339,5.48507254 2.24751751,5.64107605 C2.25169593,5.64220881 2.24942701,5.63385175 2.20037989,5.63823977 C1.95459876,5.6696591 1.6776513,5.5501922 1.68788802,5.93096192 C1.70019164,6.38858938 1.69079627,6.84680136 1.69079627,7.31391684 C1.91951729,7.32912395 2.08447435,7.3400913 2.25056068,7.34688102 C2.25168904,7.34269989 2.24333299,7.34497062 2.24768305,7.39231605 C2.26417288,7.58238531 2.27631175,7.72511277 2.29003435,7.88645944 C2.48821503,7.88645944 2.65245559,7.88645944 2.86556395,7.89315774 C3.27502023,7.96226712 3.42819514,7.8241191 3.38955073,7.44862011 C3.36687638,7.22829695 3.3961078,7.00263062 3.44608068,6.7779678 C3.63738802,6.77750056 3.7846026,6.77843164 3.9382965,6.83140463 C3.94438621,7.41331797 3.9439974,7.94318757 3.89708655,8.47207616 C3.38380938,8.39454949 3.35927288,8.69319582 3.3308139,9.03073751 C3.12619525,9.03434452 2.96853582,9.0355652 2.81087548,9.03678588 Z" id="Path" fill="#6A4933" fill-rule="nonzero"></path>
            <path d="M11.8686737,5.07785254 C12.0334997,5.0874113 12.1983273,5.09697175 12.3925863,5.1082374 C12.3925863,5.65455548 12.3925863,6.17194045 12.3925863,6.72611729 C12.2272776,6.75684169 12.0697793,6.78611446 11.9122793,6.81538893 C11.9393676,6.85838249 11.9664575,6.90137785 11.9935458,6.94437311 C11.8266232,7.0782487 11.642028,7.19574836 11.4981713,7.35099661 C11.3752768,7.48362215 11.2991484,7.65958452 11.165509,7.87601446 C10.9004802,7.88235593 10.591851,7.95490147 10.7458354,8.47351763 C10.3499518,8.47351763 10.0357103,8.47351763 9.66012859,8.4713348 C9.59878655,8.46915379 9.57612768,8.45610011 9.58501051,8.41071345 C9.58964508,8.21088192 9.58539672,8.05643537 9.58796056,7.85556938 C9.58999164,7.65316203 9.5852122,7.49717062 9.58745706,7.2942235 C9.58979853,7.08940237 9.58511401,6.93153853 9.58751401,6.72736215 C9.60159514,6.52520124 9.60859525,6.36935469 9.65986655,6.21209605 C9.85254282,6.21169096 10.0009461,6.21269785 10.1547496,6.26484497 C10.1601496,6.64603017 10.1601496,6.97607345 10.1601496,7.33535503 C10.3897988,7.32357209 10.5317468,7.31629107 10.7220541,7.30652712 C10.7220541,6.73666395 10.7220541,6.19730972 10.7244093,5.6098826 C10.7291232,5.40277853 10.7314801,5.24374407 10.7850168,5.08330429 C11.180354,5.08054915 11.5245147,5.07920079 11.8686737,5.07785254 Z" id="Path" fill="#6A4933" fill-rule="nonzero"></path>
            <path d="M5.02581537,1.11852949 C5.07601164,1.64657503 5.07731593,2.17907921 5.03136893,2.76541672 C4.51760294,2.75013887 4.48173695,3.03732316 4.46558339,3.38409073 C4.06979017,3.38550802 3.72565367,3.38639073 3.33356045,3.38667525 C3.12567119,3.38313559 2.96573921,3.38019243 2.80580644,3.37725096 C2.81901254,3.21145605 2.83221876,3.04566282 2.84894915,2.83563469 C3.19521842,2.83563469 3.52676,2.83563469 3.88639333,2.83563469 C3.92619028,2.64025492 3.95813898,2.48340836 3.99696271,2.29281141 C4.14701254,2.27037153 4.3055626,2.24665921 4.50727514,2.21649333 C4.50727514,1.86507401 4.50727514,1.53403582 4.50727514,1.16214384 C4.69252983,1.14669876 4.83472621,1.1348452 5.02581537,1.11852949 Z" id="Path" fill="#8F6049" fill-rule="nonzero"></path>
            <path d="M7.89807209,3.95894362 C7.90003412,3.1609296 7.91508,2.36263288 7.89787729,1.56503277 C7.89041333,1.21899616 8.02215367,1.08607232 8.40137333,1.12816407 C8.4558696,1.28072271 8.46315073,1.43276056 8.4711896,1.68289435 C8.47103186,1.94840938 8.48912429,2.11855096 8.46560079,2.28272859 C8.39765605,2.75692689 8.63614836,2.87588508 9.04814429,2.81355853 C9.20028644,2.81695345 9.3524287,2.82034655 9.55090847,2.8768713 C9.59801932,3.0825391 9.59879175,3.23507706 9.54808079,3.3867304 C9.33153876,3.38561322 9.16358949,3.40509266 9.0019696,3.38139932 C8.53941966,3.31358825 8.41480972,3.54374938 8.42194508,3.95038497 C8.21512384,3.95058316 8.05593593,3.95088836 7.89968508,3.95258147 C7.90262215,3.95396949 7.89807209,3.95894362 7.89807209,3.95894362 Z" id="Path" fill="#AF7A56" fill-rule="nonzero"></path>
            <path d="M9.6101591,9.0281478 C9.77366949,9.0392687 9.93717989,9.05038599 10.1554513,9.06523096 C10.1554513,9.41771763 10.1554513,9.76097322 10.1554513,10.1336946 C10.3637191,10.1538844 10.5203485,10.1690638 10.7268318,10.1890779 C10.7268318,10.3533314 10.7268318,10.4948399 10.6693811,10.6833868 C10.2778888,10.7310805 9.94385073,10.7317391 9.56061367,10.7319494 C9.15220147,10.7790982 8.99322384,10.6346793 9.02996734,10.2624477 C9.05179085,10.0413763 9.03353548,9.81634621 9.0340165,9.54688463 C9.03436475,9.34552723 9.03399672,9.19038068 9.08142915,9.03484791 C9.28953831,9.03235819 9.4498487,9.0302513 9.6101591,9.0281478 Z" id="Path" fill="#AB7653" fill-rule="nonzero"></path>
            <path d="M3.96728215,13.5502357 C3.96075446,13.3952788 3.95422689,13.2403219 3.99761955,13.0379817 C4.57979153,12.9901881 5.11204395,12.9897708 5.69135977,12.9894846 C5.89537842,12.989526 6.05233186,12.9894399 6.25624271,12.9894777 C6.45890271,12.9882881 6.61460701,12.9869777 6.81819548,12.9869742 C7.02602362,12.9835156 7.18596768,12.9787536 7.34943763,12.9822915 C7.35296429,12.9905881 7.33799525,13.0006434 7.33799525,13.0006434 C7.33717887,13.153614 7.33636249,13.3065812 7.28274373,13.5062007 C7.07737853,13.5570668 6.9248165,13.5612772 6.7245704,13.5610565 C6.51731548,13.5600116 6.35774644,13.5634014 6.19817661,13.5667876 C5.86172373,13.5635772 5.52527175,13.5603668 5.08737989,13.5580219 C4.64638881,13.5560081 4.30683503,13.5531219 3.96728215,13.5502357 Z" id="Path" fill="#7F7F7F" fill-rule="nonzero"></path>
            <path d="M2.75511706,3.38044068 C2.96573921,3.38019243 3.12567119,3.38313559 3.33453808,3.43487582 C3.44723593,3.91070169 3.20129356,3.99421819 2.85554056,3.94847458 C2.42053751,3.89092045 2.1780409,4.02781333 2.19842045,4.51190667 C1.61765751,4.5143722 1.08931209,4.51541525 0.560012203,4.51550147 C0.559057514,4.51454633 0.557108362,4.51258418 0.557108362,4.51258418 C0.557108362,4.34530994 0.557108362,4.17803571 0.557108362,3.97154203 C0.925183503,3.97154203 1.25858068,3.97154203 1.62105028,3.97154203 C1.66343729,3.76732079 1.69913085,3.59535164 1.7430748,3.3836304 C2.07154395,3.3836304 2.38798633,3.3836304 2.75511706,3.38044068 Z" id="Path" fill="#AF7A56" fill-rule="nonzero"></path>
            <path d="M5.64429548,12.9893537 C5.11204395,12.9897708 4.57979153,12.9901881 3.99433073,12.9914915 C3.94112147,12.9923847 3.94814746,12.9893468 3.94893718,12.9445876 C3.94121718,12.7551338 3.93270768,12.6104391 3.92254282,12.4375958 C3.72466655,12.4375958 3.56023797,12.4375958 3.39580859,12.4375958 C3.39193186,12.2776044 3.38805424,12.117613 3.37759718,11.9053279 C3.37101695,11.8530307 3.36974972,11.8378133 3.41724249,11.844341 C3.93810768,11.9493697 3.97501763,11.650794 4.00651107,11.3011281 C4.20617446,11.2968833 4.36006667,11.2971695 4.51410282,11.3486045 C4.51424599,11.7243294 4.51424599,12.0489088 4.51424599,12.4117232 C4.76086588,12.4117232 4.92332723,12.4117232 5.13289932,12.4163783 C5.33871458,12.4236026 5.49741797,12.4261715 5.65061107,12.4750341 C5.64483254,12.6773364 5.64456441,12.833345 5.64429548,12.9893537 Z" id="Path" fill="#5E3926" fill-rule="nonzero"></path>
            <path d="M9.03330011,9.59309548 C9.03353548,9.81634621 9.05179085,10.0413763 9.02996734,10.2624477 C8.99322384,10.6346793 9.15220147,10.7790982 9.55662056,10.7787671 C9.60118316,10.9829625 9.60054169,11.1398884 9.59990034,11.2968142 C9.37691345,11.2960971 9.15184282,11.2757278 8.93141017,11.2990971 C8.56882859,11.337532 8.40902079,11.2033994 8.46874475,10.734908 C8.46812836,10.2934583 8.46762147,9.95226836 8.51430045,9.60633695 C8.71875876,9.59876452 8.87602938,9.59592994 9.03330011,9.59309548 Z" id="Path" fill="#82593E" fill-rule="nonzero"></path>
            <path d="M3.37734542,11.8572998 C3.22870328,11.8614067 3.07373266,11.8612411 2.82511695,11.8625116 C2.57077797,11.8626033 2.41008226,11.8612653 2.24938734,11.8599308 C2.24938734,11.8599308 2.25478825,11.8593791 2.25451062,11.8137407 C2.24954768,11.6078453 2.24486316,11.4475849 2.24017864,11.2873245 C2.24553469,11.1333953 2.25088994,10.9794659 2.30885435,10.7784913 C2.51047989,10.7344253 2.65949537,10.7374046 2.8124548,10.7868294 C2.73753751,11.309942 3.04409864,11.3204559 3.38049028,11.3428631 C3.3784722,11.5379376 3.37411096,11.6878738 3.36974972,11.8378133 C3.36974972,11.8378133 3.37101695,11.8530307 3.37734542,11.8572998 Z" id="Path" fill="#C3C3C3" fill-rule="nonzero"></path>
            <path d="M9.59967446,11.2954384 C9.60054169,11.1398884 9.60118316,10.9829625 9.60581763,10.7792189 C9.94385073,10.7317391 10.2778888,10.7310805 10.6618862,10.7319907 C10.7181661,10.8874132 10.7244869,11.0412667 10.7320818,11.2888934 C10.7323473,11.5438376 10.7313386,11.7050119 10.7303301,11.8661861 C10.7303301,11.8661861 10.7290025,11.8596342 10.6845881,11.859986 C10.4813601,11.8591205 10.322548,11.8579032 10.1637341,11.856686 C10.1637341,11.856686 10.1664066,11.8636688 10.1645203,11.8171407 C10.25608,11.2770071 9.94165243,11.267407 9.59686757,11.2938315 C9.59686757,11.2938315 9.59944859,11.2940591 9.59967446,11.2954384 Z" id="Path" fill="#AEAEAE" fill-rule="nonzero"></path>
            <path d="M3.96071571,13.5993017 C4.30683503,13.5531219 4.64638881,13.5560081 5.03716294,13.5630427 C5.07743582,13.7297445 5.06648734,13.8922946 5.05590542,14.0494033 C4.11216136,14.2348053 3.98844791,14.1884565 3.96071571,13.5993017 Z" id="Path" fill="#845237" fill-rule="nonzero"></path>
            <path d="M9.04268554,2.7627287 C8.63614836,2.87588508 8.39765605,2.75692689 8.46560079,2.28272859 C8.48912429,2.11855096 8.47103186,1.94840938 8.47384226,1.72858282 C8.64060181,1.68802893 8.80546825,1.69988418 9.0372278,1.71654994 C9.0372278,2.05409853 9.0372278,2.38299864 9.04268554,2.7627287 Z" id="Path" fill="#9B6A4A" fill-rule="nonzero"></path>
            <path d="M6.72416949,0.00677412429 C6.83645605,0.439299661 6.66387831,0.623617175 6.22796655,0.563513107 C6.06727085,0.541355932 5.9011104,0.55882678 5.68529684,0.556925085 C5.64472486,0.390590508 5.65629989,0.225552429 5.67211819,-1.66533454e-16 C6.01343661,-1.66533454e-16 6.34320147,-1.66533454e-16 6.72416949,0.00677412429 Z" id="Path" fill="#8F6049" fill-rule="nonzero"></path>
            <path d="M10.1733136,3.37186475 C10.3363567,3.38324938 10.4993999,3.39463401 10.696621,3.40840475 C10.7082764,3.56198927 10.7189972,3.70329254 10.7300336,3.93994689 C10.7301128,4.19629107 10.7298766,4.35728429 10.7289611,4.51740497 C10.72828,4.51653424 10.7299232,4.51521525 10.682671,4.51514113 C10.4782566,4.51511186 10.3210928,4.51515672 10.1639755,4.46423028 C10.1594565,4.07857605 10.1548944,3.74389299 10.156622,3.40020983 C10.1629118,3.39120802 10.1733136,3.37186475 10.1733136,3.37186475 Z" id="Path" fill="#9B6A4A" fill-rule="nonzero"></path>
            <path d="M7.88623661,11.2992626 C7.89137808,11.6406421 7.89651864,11.9820253 7.84731119,12.3740399 C7.63908814,12.4295371 7.48521412,12.4344027 7.33208734,12.4326026 C7.3328348,12.425944 7.34166599,12.4158611 7.3408409,12.3655606 C7.33816678,11.9803045 7.33631593,11.6453423 7.38040339,11.304473 C7.57964011,11.2988005 7.73293842,11.2990315 7.88623661,11.2992626 Z" id="Path" fill="#AEAEAE" fill-rule="nonzero"></path>
            <path d="M7.89367288,11.2527482 C7.73293842,11.2990315 7.57964011,11.2988005 7.33423831,11.2987468 C7.08690621,11.2980005 6.93167864,11.2970798 6.77543819,11.2488241 C6.77391921,11.0444391 6.77341311,10.8873856 6.82421887,10.7301632 C7.21715684,10.7286459 7.55878294,10.7273045 7.90292124,10.7284942 C7.90543424,10.7310287 7.91044463,10.736108 7.91044463,10.736108 C7.90733345,10.8928167 7.90422124,11.0495219 7.89367288,11.2527482 Z" id="Path" fill="#AF7A56" fill-rule="nonzero"></path>
            <path d="M11.8650322,5.03054508 C11.5245147,5.07920079 11.180354,5.08054915 10.7833617,5.08169051 C10.7305267,5.08148362 10.7274973,5.07847153 10.7282163,5.03168825 C10.7292628,4.82834113 10.7295939,4.6717791 10.7299232,4.51521525 C10.7299232,4.51521525 10.72828,4.51653424 10.7766116,4.51625672 C10.9839794,4.51522045 11.1430156,4.51446181 11.3020519,4.51370147 C11.6437436,4.48527706 11.9483435,4.50103932 11.8650322,5.03054508 Z" id="Path" fill="#82593E" fill-rule="nonzero"></path>
            <path d="M8.46711367,9.61107492 C8.46762147,9.95226836 8.46812836,10.2934583 8.46822576,10.686211 C8.31295085,10.7354942 8.15808531,10.7332218 7.9568322,10.7335287 C7.91044463,10.736108 7.90543424,10.7310287 7.90406412,10.6773902 C7.90395401,10.2815066 7.90520316,9.93926475 7.95402271,9.59799898 C8.16057322,9.59156791 8.31955345,9.5841609 8.47684486,9.58571955 C8.47515605,9.59468859 8.46711367,9.61107492 8.46711367,9.61107492 Z" id="Path" fill="#AF7A56" fill-rule="nonzero"></path>
            <path d="M6.77225446,13.5654911 C6.9248165,13.5612772 7.07737853,13.5570668 7.27563412,13.551546 C7.37515944,13.9002982 7.37431977,14.2068567 6.8238939,14.0632896 C6.77443729,13.8631736 6.77334588,13.714334 6.77225446,13.5654911 Z" id="Path" fill="#845237" fill-rule="nonzero"></path>
            <path d="M6.7245704,13.5610565 C6.77334588,13.714334 6.77443729,13.8631736 6.77662441,14.0566619 C6.42980497,14.1580148 6.13814836,14.1419008 6.20227842,13.6133606 C6.35774644,13.5634014 6.51731548,13.5600116 6.7245704,13.5610565 Z" id="Path" fill="#6A4933" fill-rule="nonzero"></path>
            <path d="M2.81319446,10.1584052 C2.81582723,10.0046345 2.8184591,9.85086723 2.87412271,9.6492409 C3.07950249,9.60056102 3.23185073,9.59974384 3.38430068,9.64617876 C3.38435853,9.8505948 3.38431446,10.0077586 3.38437831,10.164819 C3.38448689,10.1647121 3.38503345,10.1641603 3.33818384,10.1643638 C3.13529706,10.1658949 2.97925921,10.167219 2.82071266,10.1660121 C2.81820305,10.1634776 2.81319446,10.1584052 2.81319446,10.1584052 Z" id="Path" fill="#AF7A56" fill-rule="nonzero"></path>
            <path d="M3.38419819,9.59892316 C3.23185073,9.59974384 3.07950249,9.60056102 2.88189695,9.60375073 C2.8303765,9.44785243 2.82411356,9.2895887 2.81436339,9.08405537 C2.96853582,9.0355652 3.12619525,9.03434452 3.33372339,9.03359277 C3.38359119,9.03406169 3.38937401,9.03980316 3.3871939,9.08617266 C3.38363266,9.28789559 3.38225243,9.44324893 3.38205412,9.59917831 C3.38323605,9.59975412 3.38419819,9.59892316 3.38419819,9.59892316 Z" id="Path" fill="#82593E" fill-rule="nonzero"></path>
            <path d="M10.7787995,11.8635412 C10.7313386,11.7050119 10.7323473,11.5438376 10.737768,11.3347664 C10.9055303,11.2950384 11.068882,11.303204 11.2378236,11.3116523 C11.3894838,11.7307467 11.2670377,11.9167107 10.7787995,11.8635412 Z" id="Path" fill="#AF7A56" fill-rule="nonzero"></path>
            <path d="M9.5977365,11.3416148 C9.94165243,11.267407 10.25608,11.2770071 10.1611824,11.8188166 C9.82316655,11.8834793 9.50342689,11.8801655 9.5977365,11.3416148 Z" id="Path" fill="#82593E" fill-rule="nonzero"></path>
            <path d="M2.19269446,11.2902383 C2.24486316,11.4475849 2.24954768,11.6078453 2.2542339,11.8164407 C2.08990113,11.8647757 1.9255661,11.8647757 1.75769356,11.8647757 C1.60169401,11.4460504 1.68444147,11.2346102 2.19269446,11.2902383 Z" id="Path" fill="#AF7A56" fill-rule="nonzero"></path>
            <path d="M2.80851164,10.7403875 C2.65949537,10.7374046 2.51047989,10.7344253 2.31679412,10.7328494 C2.27212384,10.574727 2.27212384,10.4151976 2.27212384,10.1987608 C2.41625729,10.1873745 2.56682881,10.1754777 2.76529729,10.1609914 C2.81319446,10.1584052 2.81820305,10.1634776 2.81959277,10.2120264 C2.82422904,10.413201 2.8274765,10.5658303 2.82518079,10.7239493 C2.81963842,10.7294425 2.80851164,10.7403875 2.80851164,10.7403875 Z" id="Path" fill="#AF7A56" fill-rule="nonzero"></path>
            <path d="M3.39078181,12.485324 C3.56023797,12.4375958 3.72466655,12.4375958 3.92254282,12.4375958 C3.93270768,12.6104391 3.94121718,12.7551338 3.95038802,12.9481324 C3.79046215,12.9964296 3.62987412,12.9964296 3.41326056,12.9964296 C3.40362249,12.8340588 3.39468881,12.6835537 3.39078181,12.485324 Z" id="Path" fill="#EFB385" fill-rule="nonzero"></path>
            <path d="M7.3313391,12.4392647 C7.48521412,12.4344027 7.63908814,12.4295371 7.83916192,12.4246922 C7.8928565,12.5860527 7.90035141,12.7473992 7.91021186,12.9596671 C7.74263503,12.9707499 7.58885232,12.9809191 7.38653277,12.9958641 C7.33799525,13.0006434 7.35296429,12.9905881 7.34697379,12.9378185 C7.33776847,12.7364542 7.33455379,12.5878595 7.3313391,12.4392647 Z" id="Path" fill="#EBA069" fill-rule="nonzero"></path>
            <path d="M10.163898,11.905521 C10.322548,11.8579032 10.4813601,11.8591205 10.6878658,11.8606515 C10.728299,12.0264292 10.721042,12.1918965 10.7134127,12.3658295 C10.2930045,12.5215656 10.1061939,12.3999023 10.163898,11.905521 Z" id="Path" fill="#AF7A56" fill-rule="nonzero"></path>
            <path d="M9.60564701,8.98264734 C9.4498487,9.0302513 9.28953831,9.03235819 9.0814774,9.0350652 C9.03372689,9.03566859 9.0323113,9.03693073 9.03290441,8.98955085 C9.03375096,8.78425209 9.03400362,8.62633311 9.07966181,8.4689348 C9.2754209,8.46500203 9.42577424,8.46055017 9.57612768,8.45610011 C9.57612768,8.45610011 9.59878655,8.46915379 9.61012463,8.47582452 C9.61468497,8.63404689 9.60790904,8.78560034 9.60564701,8.98264734 Z" id="Path" fill="#82593E" fill-rule="nonzero"></path>
            <path d="M2.25146576,11.9084866 C2.41008226,11.8612653 2.57077797,11.8626033 2.77916565,11.868955 C2.8186609,12.0372155 2.81046339,12.2004621 2.80200814,12.3688503 C2.38167842,12.5206485 2.19748678,12.3955988 2.25146576,11.9084866 Z" id="Path" fill="#AF7A56" fill-rule="nonzero"></path>
            <path d="M9.59956418,3.38761492 C9.59879175,3.23507706 9.59801932,3.0825391 9.59596576,2.88431107 C9.94104893,2.78223582 10.2439799,2.78233243 10.1696101,3.32487458 C10.1733136,3.37186475 10.1629118,3.39120802 10.1113336,3.3919391 C9.90529853,3.38994599 9.75084339,3.38722181 9.59776588,3.38454418 C9.59914689,3.38459424 9.59956418,3.38761492 9.59956418,3.38761492 Z" id="Path" fill="#8F6049" fill-rule="nonzero"></path>
            <path d="M0.558070395,5.0782887 C0.582906893,5.40833718 0.579449492,5.71564237 0.0580963842,5.64210181 C0.00802429379,5.48315876 0.00366644068,5.32546904 0.0511734463,5.12271164 C0.254715706,5.07785774 0.406393333,5.07807322 0.558070395,5.0782887 Z" id="Path" fill="#82593E" fill-rule="nonzero"></path>
            <path d="M11.2988036,4.46574237 C11.1430156,4.51446181 10.9839794,4.51522045 10.7772927,4.51712734 C10.7298766,4.35728429 10.7301128,4.19629107 10.7312232,3.98704734 C10.8982888,3.94904181 11.064482,3.95928847 11.2662618,3.97172825 C11.2765895,4.1289904 11.2860724,4.27338508 11.2988036,4.46574237 Z" id="Path" fill="#AF7A56" fill-rule="nonzero"></path>
            <path d="M0.558569492,5.07905774 C0.406393333,5.07807322 0.254715706,5.07785774 0.0575963842,5.07571458 C0.0121540113,4.90878859 0.0121540113,4.74378847 0.0121540113,4.5428139 C0.173424294,4.53268791 0.317381921,4.52364983 0.509223729,4.51359808 C0.557108362,4.51258418 0.559057514,4.51454633 0.559585989,4.56236407 C0.559350621,4.76630768 0.558587684,4.92243186 0.557824294,5.07855605 C0.557824294,5.07855605 0.559068249,5.07982667 0.558569492,5.07905774 Z" id="Path" fill="#AF7A56" fill-rule="nonzero"></path>
            <path d="M4.51724,3.38355458 C4.48173695,3.03732316 4.51760294,2.75013887 5.0309896,2.8178948 C5.32041435,2.79868768 5.63034531,2.92124079 5.66143706,2.49094983 C5.66737424,2.40878859 5.83936407,2.26400249 5.90832508,2.27802508 C6.01947119,2.30062701 6.11020836,2.42952678 6.2067,2.51669492 C6.31340203,2.61308915 6.41687819,2.71305401 6.52175864,2.81146373 C6.60569062,2.67310701 6.74154124,2.54208836 6.76236124,2.39480915 C6.80141514,2.11854407 6.73952994,1.82682531 6.78760983,1.55348949 C6.81442904,1.40102746 6.97806362,1.27263119 7.08004407,1.13339006 C7.16643819,1.26946226 7.32308814,1.40326712 7.32756746,1.54198418 C7.35241085,2.31133232 7.34025989,3.08187186 7.34078407,3.9029878 C7.34079096,3.95396949 7.34666508,3.95119356 7.29881119,3.95082972 C7.09192011,3.95047288 6.93288294,3.95047627 6.7739226,3.90172576 C6.8280904,3.48064181 6.65619627,3.3661078 6.29790362,3.37916825 C5.70413582,3.40081164 5.10896463,3.38395107 4.51460452,3.38428734 C4.5148235,3.38526316 4.51724,3.38355458 4.51724,3.38355458 Z" id="Path" fill="#AF7A56" fill-rule="nonzero"></path>
            <path d="M7.34306508,3.9564539 C7.49892282,3.9573626 7.65250554,3.95578667 7.85208023,3.95657638 C7.89807209,3.95894362 7.90262215,3.95396949 7.90244282,3.99991819 C7.82224972,4.52616881 8.12206249,4.54642599 8.46796373,4.55974508 C8.46895853,4.76486113 8.46893955,4.92232328 8.41626836,5.07985884 C7.83390847,5.07988362 7.3042,5.07983356 6.77437955,5.03271751 C6.77499932,4.82779808 6.7757313,4.66994282 6.82385593,4.51308418 C7.3607661,4.60605424 7.36013684,4.28404723 7.34666508,3.95119356 C7.34666508,3.95119356 7.34079096,3.95396949 7.34306508,3.9564539 Z" id="Path" fill="#EBA069" fill-rule="nonzero"></path>
            <path d="M3.40198972,6.77936791 C3.3961078,7.00263062 3.36687638,7.22829695 3.38955073,7.44862011 C3.42819514,7.8241191 3.27502023,7.96226712 2.86635186,7.84724859 C2.88864441,7.30973921 2.5738426,7.31731345 2.24333299,7.34497062 C2.24333299,7.34497062 2.25168904,7.34269989 2.25214079,7.29324938 C2.2515374,6.70714814 2.25048215,6.17050079 2.24942701,5.63385175 C2.24942701,5.63385175 2.25169593,5.64220881 2.29527921,5.64257605 C2.79661492,5.72126655 2.85524486,5.44751525 2.81793412,5.08634226 C2.81261853,5.07885944 2.81016599,5.06066791 2.85803977,5.06722305 C3.38402136,4.99735684 3.41077605,5.30770847 3.39453356,5.70110249 C3.39342328,6.09440508 3.39770599,6.43688644 3.40198972,6.77936791 Z" id="Path" fill="#EBA069" fill-rule="nonzero"></path>
            <path d="M3.9436078,8.47305898 C3.9439974,7.94318757 3.94438621,7.41331797 3.94454655,6.78017819 C3.94084136,6.3347009 3.93736542,5.99249017 3.93924305,5.59860316 C3.9445974,5.22052825 3.9445974,4.89413153 3.9445974,4.54353458 C4.18779921,4.53062068 4.35110102,4.52194814 4.51438825,4.56067616 C4.5145287,4.76490938 4.51468305,4.92174565 4.51460972,5.12587028 C4.51466147,5.33140701 4.51494169,5.48965186 4.51494599,5.69421446 C4.5154296,5.89458915 4.51618994,6.04864429 4.51618143,6.25607932 C4.51394418,7.03106034 4.51247695,7.75266136 4.46528508,8.47321763 C4.26759921,8.46746927 4.11563638,8.46276576 3.95587424,8.45808644 C3.94807333,8.45811051 3.9436078,8.47305898 3.9436078,8.47305898 Z" id="Path" fill="#EBA069" fill-rule="nonzero"></path>
            <path d="M0.610708475,5.07906294 C0.558587684,4.92243186 0.559350621,4.76630768 0.560540226,4.56332102 C1.08931209,4.51541525 1.61765751,4.5143722 2.24555537,4.51351525 C2.78859153,4.45075763 2.86535706,4.6996139 2.81016599,5.06066791 C2.81016599,5.06066791 2.81261853,5.07885944 2.77153186,5.08124915 C2.57521503,5.0832974 2.41998486,5.08295605 2.2647548,5.08261469 C1.73103424,5.0815991 1.19731322,5.08058362 0.610708475,5.07906294 Z" id="Path" fill="#82593E" fill-rule="nonzero"></path>
            <path d="M2.20037989,5.63823977 C2.25048215,6.17050079 2.2515374,6.70714814 2.25101232,7.2974287 C2.08447435,7.3400913 1.91951729,7.32912395 1.69079627,7.31391684 C1.69079627,6.84680136 1.70019164,6.38858938 1.68788802,5.93096192 C1.6776513,5.5501922 1.95459876,5.6696591 2.20037989,5.63823977 Z" id="Path" fill="#EFB385" fill-rule="nonzero"></path>
            <path d="M3.9338887,5.65027955 C3.93736542,5.99249017 3.94084136,6.3347009 3.93806802,6.72813627 C3.7846026,6.77843164 3.63738802,6.77750056 3.44608068,6.7779678 C3.39770599,6.43688644 3.39342328,6.09440508 3.43892113,5.69935593 C3.63709831,5.64795198 3.78549311,5.64911571 3.9338887,5.65027955 Z" id="Path" fill="#82593E" fill-rule="nonzero"></path>
            <path d="M2.24768305,7.39231605 C2.5738426,7.31731345 2.88864441,7.30973921 2.81748407,7.84055028 C2.65245559,7.88645944 2.48821503,7.88645944 2.29003435,7.88645944 C2.27631175,7.72511277 2.26417288,7.58238531 2.24768305,7.39231605 Z" id="Path" fill="#EFB385" fill-rule="nonzero"></path>
            <path d="M3.38068169,9.03120655 C3.35927288,8.69319582 3.38380938,8.39454949 3.89708655,8.47207616 C3.9436078,8.47305898 3.94807333,8.45811051 3.95085175,8.50600068 C4.02087322,9.01235458 3.74359345,9.07074836 3.38937401,9.03980316 C3.38937401,9.03980316 3.38359119,9.03406169 3.38068169,9.03120655 Z" id="Path" fill="#82593E" fill-rule="nonzero"></path>
            <path d="M2.26080475,5.12897379 C2.41998486,5.08295605 2.57521503,5.0832974 2.77684746,5.08873198 C2.85524486,5.44751525 2.79661492,5.72126655 2.29110068,5.64144328 C2.24784339,5.48507254 2.25234949,5.33020362 2.26080475,5.12897379 Z" id="Path" fill="#EFB385" fill-rule="nonzero"></path>
            <path d="M4.51100972,8.47426237 C4.51247695,7.75266136 4.51394418,7.03106034 4.56341028,6.25869311 C5.10223955,6.29784362 5.10210158,5.97941424 5.07972633,5.64460712 C5.07856599,5.64576056 5.07636859,5.64795706 5.12934757,5.64695887 C5.69480554,5.64596226 6.20728531,5.64596226 6.74703006,5.64596226 C6.7580974,5.40765096 6.76568203,5.24433028 6.7737226,5.08054915 C6.77417955,5.08009051 6.77449153,5.07978362 6.77449153,5.07978362 C7.3042,5.07983356 7.83390847,5.07988362 8.4164252,5.08001119 C8.46923266,5.08009051 8.47014565,5.0810078 8.46982407,5.12956 C8.41663469,5.53903175 8.56918124,5.68460746 8.93263525,5.64886395 C9.15149718,5.62734305 9.37423232,5.64520881 9.59678994,5.69265243 C9.60409864,5.89778746 9.60984701,6.0556478 9.61559367,6.21350644 C9.60859525,6.36935469 9.60159514,6.52520124 9.5410635,6.72774655 C9.33236633,6.77299887 9.17720339,6.77155401 9.02737333,6.72154994 C9.0327061,6.52977887 9.0327061,6.38656701 9.0327061,6.23762565 C8.81766757,6.23762565 8.65754339,6.23762565 8.47484994,6.23762565 C8.47484994,6.4302174 8.47484994,6.59621932 8.4732965,6.81126994 C8.42608994,7.20470192 8.54992407,7.37869514 8.92339028,7.34352068 C9.1405522,7.32307209 9.36129774,7.3406896 9.58043119,7.3411809 C9.5852122,7.49717062 9.58999164,7.65316203 9.5419704,7.85659695 C9.33467672,7.90653887 9.18018452,7.90903379 8.97360723,7.90907684 C8.01459062,7.91108723 7.10766158,7.91554938 6.15393559,7.91439412 C5.60567356,7.8108965 5.62546249,8.14088113 5.59916994,8.47058655 C5.39917559,8.47247277 5.2455652,8.47488316 5.04347932,8.47499345 C4.8333391,8.47271763 4.67167266,8.47274169 4.51087266,8.47183141 C4.51173819,8.47090034 4.51100972,8.47426237 4.51100972,8.47426237 M6.77358384,6.66549763 C6.77358384,6.52330814 6.77358384,6.38111864 6.77358384,6.20959266 C6.55171412,6.22014441 6.39194599,6.22774452 6.22136915,6.23585672 C6.22136915,6.43730542 6.22136915,6.60370384 6.11681627,6.77288158 C5.85487537,6.77566949 5.59012768,6.75768316 5.33251277,6.7924904 C5.24211514,6.80470429 5.09403774,6.95912847 5.1052835,7.02637751 C5.12399232,7.13826147 5.23990994,7.30730994 5.33273254,7.31981006 C5.6270487,7.35945017 5.93263831,7.31168237 6.22830102,7.34586723 C6.69914938,7.40030407 6.83323616,7.18319299 6.77358384,6.66549763 Z" id="Shape" fill="#EFB385" fill-rule="nonzero"></path>
            <path d="M10.7220541,5.65795548 C10.7220541,6.19730972 10.7220541,6.73666395 10.7220541,7.30652712 C10.5317468,7.31629107 10.3897988,7.32357209 10.1601496,7.33535503 C10.1601496,6.97607345 10.1601496,6.64603017 10.1607324,6.21741164 C10.1616358,5.96029333 10.1619565,5.80175017 10.2091312,5.64391051 C10.411342,5.64906056 10.5666972,5.65350893 10.7220541,5.65795548 Z" id="Path" fill="#EBA069" fill-rule="nonzero"></path>
            <path d="M9.02203966,6.77010746 C9.17720339,6.77155401 9.33236633,6.77299887 9.53398068,6.77405921 C9.58511401,6.93153853 9.58979853,7.08940237 9.58745706,7.2942235 C9.36129774,7.3406896 9.1405522,7.32307209 8.92339028,7.34352068 C8.54992407,7.37869514 8.42608994,7.20470192 8.51859876,6.81683729 C8.71765096,6.77227299 8.86984486,6.77119017 9.02203966,6.77010746 Z" id="Path" fill="#F09F84" fill-rule="nonzero"></path>
            <path d="M10.1622773,5.64320701 C10.1619565,5.80175017 10.1616358,5.96029333 10.1553323,6.16627141 C10.0009461,6.21269785 9.85254282,6.21169096 9.65986655,6.21209605 C9.60984701,6.0556478 9.60409864,5.89778746 9.64434045,5.69252486 C9.84862554,5.64545706 10.006922,5.64579672 10.1645652,5.64548294 C10.1639118,5.64482949 10.1622773,5.64320701 10.1622773,5.64320701 Z" id="Path" fill="#82593E" fill-rule="nonzero"></path>
            <path d="M9.02569311,7.91152859 C9.18018452,7.90903379 9.33467672,7.90653887 9.53515831,7.90301469 C9.58539672,8.05643537 9.58964508,8.21088192 9.58501051,8.41071345 C9.42577424,8.46055017 9.2754209,8.46500203 9.07961616,8.42243424 C9.03134147,8.22078723 9.02851729,8.06615797 9.02569311,7.91152859 Z" id="Path" fill="#EBA069" fill-rule="nonzero"></path>
            <path d="M10.7244093,5.6098826 C10.5666972,5.65350893 10.411342,5.64906056 10.2091312,5.64391051 C10.1622773,5.64320701 10.1639118,5.64482949 10.1642101,5.59826 C10.1641294,5.39423876 10.1637635,5.23678701 10.210514,5.07966633 C10.4142576,5.07948881 10.5708766,5.07898011 10.7274973,5.07847153 C10.7274973,5.07847153 10.7305267,5.08148362 10.7321818,5.0830974 C10.7314801,5.24374407 10.7291232,5.40277853 10.7244093,5.6098826 Z" id="Path" fill="#82593E" fill-rule="nonzero"></path>
            <path d="M3.93924305,5.59860136 C3.78549311,5.64911571 3.63709831,5.64795198 3.44431514,5.64853469 C3.41077605,5.30770847 3.38402136,4.99735684 2.85803977,5.06722305 C2.86535706,4.6996139 2.78859153,4.45075763 2.29797322,4.51209107 C2.1780409,4.02781333 2.42053751,3.89092045 2.85554056,3.94847458 C3.20129356,3.99421819 3.44723593,3.91070169 3.38249548,3.43547232 C3.72565367,3.38639073 4.06979017,3.38550802 4.46558339,3.38409073 C4.51724,3.38355458 4.5148235,3.38526316 4.51459593,3.43217921 C4.5148235,3.63850565 4.51527955,3.79791605 4.51524927,4.00375966 C4.51292271,4.20553944 4.51108644,4.36088429 4.51095966,4.51620836 C4.51267006,4.51618768 4.51440282,4.51327729 4.51440282,4.51327729 C4.35110102,4.52194814 4.18779921,4.53062068 3.9445974,4.54353458 C3.9445974,4.89413153 3.9445974,5.22052825 3.93924305,5.59860136 Z" id="Path" fill="#9B6A4A" fill-rule="nonzero"></path>
            <path d="M8.46957751,3.95049525 C8.41480972,3.54374938 8.53941966,3.31358825 9.0019696,3.38139932 C9.16358949,3.40509266 9.33153876,3.38561322 9.54808079,3.3867304 C9.59956418,3.38761492 9.59914689,3.38459424 9.59872791,3.43180847 C9.5985348,3.63652282 9.59876237,3.79402113 9.54766181,3.95098836 C9.15321785,3.94960384 8.81010113,3.94875209 8.46764475,3.94856418 C8.46830508,3.94922802 8.46957751,3.95049525 8.46957751,3.95049525 Z" id="Path" fill="#82593E" fill-rule="nonzero"></path>
            <path d="M8.46694994,4.51208938 C8.12206249,4.54642599 7.82224972,4.52616881 7.89950576,3.99853028 C8.05593593,3.95088836 8.21512384,3.95058316 8.42194508,3.95038497 C8.46957751,3.95049525 8.46830508,3.94922802 8.46846113,3.99559582 C8.46668441,4.19836011 8.46475164,4.35475322 8.46396542,4.51238079 C8.46511277,4.51361356 8.46694994,4.51208938 8.46694994,4.51208938 Z" id="Path" fill="#82593E" fill-rule="nonzero"></path>
            <path d="M9.0340165,9.54688463 C8.87602938,9.59592994 8.71875876,9.59876452 8.51430045,9.60633695 C8.46711367,9.61107492 8.47515605,9.59468859 8.47356554,9.54060181 C8.47219051,9.33387876 8.4724052,9.1812461 8.51917288,9.03085819 C8.72125356,9.03437898 8.87678294,9.0356548 9.0323113,9.03693073 C9.0323113,9.03693073 9.03372689,9.03566859 9.03367774,9.03545141 C9.03399672,9.19038068 9.03436475,9.34552723 9.0340165,9.54688463 Z" id="Path" fill="#EFB385" fill-rule="nonzero"></path>
            <path d="M7.33208734,12.4326026 C7.33455379,12.5878595 7.33776847,12.7364542 7.34344701,12.9295185 C7.18596768,12.9787536 7.02602362,12.9835156 6.81993605,12.9408496 C6.77496395,12.7384164 6.77613638,12.5834181 6.82418011,12.4269819 C7.02792282,12.4223198 7.18479435,12.4190922 7.34166599,12.4158611 C7.34166599,12.4158611 7.3328348,12.425944 7.33208734,12.4326026 Z" id="Path" fill="#AF7A56" fill-rule="nonzero"></path>
            <path d="M6.77730881,12.4284164 C6.77613638,12.5834181 6.77496395,12.7384164 6.77205186,12.9395427 C6.61460701,12.9869777 6.45890271,12.9882881 6.25623763,12.9425807 C6.20486113,12.7398233 6.20044554,12.5840802 6.24433571,12.4272268 C6.45252249,12.4242336 6.61240362,12.4223542 6.77371921,12.4223336 C6.77515537,12.4241888 6.77730881,12.4284164 6.77730881,12.4284164 Z" id="Path" fill="#5E3926" fill-rule="nonzero"></path>
            <path d="M6.19603006,12.4283371 C6.20044554,12.5840802 6.20486113,12.7398233 6.20928192,12.9424635 C6.05233186,12.9894399 5.89537842,12.989526 5.69135977,12.9894868 C5.64456441,12.833345 5.64483254,12.6773364 5.64689638,12.4735272 C5.6486904,12.4257233 5.64664034,12.4334544 5.69322621,12.4295888 C5.89552328,12.4283026 6.05123356,12.4308785 6.2054939,12.4294508 C6.20404305,12.425444 6.19603006,12.4283371 6.19603006,12.4283371 Z" id="Path" fill="#C3C3C3" fill-rule="nonzero"></path>
            <path d="M4.51395977,11.2974591 C4.36006667,11.2971695 4.20617446,11.2968833 4.00101955,11.2957832 C3.94975695,11.2949729 3.93903955,11.2843762 3.94275864,11.2388446 C3.94883367,11.0401252 3.95118972,10.8869408 4.00026441,10.7323322 C4.20348045,10.7294838 4.35997876,10.7280597 4.56342068,10.7279425 C4.76690825,10.7293218 4.92345051,10.7293942 5.07972113,10.7765947 C5.07922282,10.9807418 5.07899706,11.1377642 5.07911774,11.2947487 C5.07946339,11.2947142 5.07952893,11.2936936 5.0323974,11.2940487 C4.82816407,11.2954211 4.67106147,11.2964418 4.51395977,11.2974591 Z" id="Path" fill="#82593E" fill-rule="nonzero"></path>
            <path d="M5.65240508,12.4272302 C5.49741797,12.4261715 5.33871458,12.4236026 5.13068633,12.3663123 C5.08075051,11.9722941 5.08013921,11.6329938 5.07952893,11.2936936 C5.07952893,11.2936936 5.07946339,11.2947142 5.12597514,11.2947142 C5.32751785,11.2961246 5.48254893,11.2975349 5.64018768,11.3501321 C5.6440774,11.7453675 5.64535932,12.0894093 5.64664034,12.4334544 C5.64664034,12.4334544 5.6486904,12.4257233 5.65240508,12.4272302 Z" id="Path" fill="#7F7F7F" fill-rule="nonzero"></path>
            <path d="M5.0323974,11.2940487 C5.08013921,11.6329938 5.08075051,11.9722941 5.08357469,12.3616571 C4.92332723,12.4117232 4.76086588,12.4117232 4.51424599,12.4117232 C4.51424599,12.0489088 4.51424599,11.7243294 4.51410282,11.3486045 C4.67106147,11.2964418 4.82816407,11.2954211 5.0323974,11.2940487 Z" id="Path" fill="#666666" fill-rule="nonzero"></path>
            <path d="M3.41724249,11.844341 C3.37411096,11.6878738 3.3784722,11.5379376 3.42747186,11.3418251 C3.62775254,11.2918969 3.7833965,11.2881383 3.93903955,11.2843762 C3.93903955,11.2843762 3.94975695,11.2949729 3.95524836,11.3003144 C3.97501763,11.650794 3.93810768,11.9493697 3.41724249,11.844341 Z" id="Path" fill="#82593E" fill-rule="nonzero"></path>
            <path d="M3.94275864,11.2388446 C3.7833965,11.2881383 3.62775254,11.2918969 3.42512791,11.2966936 C3.04409864,11.3204559 2.73753751,11.309942 2.8124548,10.7868294 C2.80851164,10.7403875 2.81963842,10.7294425 2.87096407,10.7278252 C3.39874056,10.8041364 3.40809322,10.4974916 3.38503345,10.1641603 C3.38503345,10.1641603 3.38448689,10.1647121 3.43148226,10.1647501 C3.63551729,10.1649638 3.79255695,10.1651432 3.94949661,10.1650466 C3.94939571,10.1647707 3.94887424,10.1646328 3.94905525,10.2119885 C3.95067333,10.4174805 3.9521096,10.5756166 3.95354576,10.7337529 C3.95118972,10.8869408 3.94883367,11.0401252 3.94275864,11.2388446 Z" id="Path" fill="#AF7A56" fill-rule="nonzero"></path>
            <path d="M9.59899175,3.95152113 C9.59876237,3.79402113 9.5985348,3.63652282 9.59734689,3.43175853 C9.75084339,3.38722181 9.90529853,3.38994599 10.1050438,3.4009409 C10.1548944,3.74389299 10.1594565,4.07857605 10.1640498,4.46415616 C10.164079,4.51505322 10.1642583,4.5148739 10.1172577,4.51495322 C9.9148435,4.51471706 9.75942972,4.51440147 9.59849345,4.51659458 C9.59297096,4.51910667 9.58159322,4.52332056 9.58752429,4.47578215 C9.59530034,4.26933672 9.59714689,4.11042802 9.59899175,3.95152113 Z" id="Path" fill="#AF7A56" fill-rule="nonzero"></path>
            <path d="M10.7282163,5.03168825 C10.5708766,5.07898011 10.4142576,5.07948881 10.210845,5.07999917 C10.1640548,5.07999917 10.1642825,5.08022847 10.1641928,5.03311412 C10.1641531,4.82895842 10.1642049,4.67191706 10.1642583,4.5148739 C10.1642583,4.5148739 10.164079,4.51505322 10.1640049,4.51512734 C10.3210928,4.51515672 10.4782566,4.51511186 10.682671,4.51514113 C10.7295939,4.6717791 10.7292628,4.82834113 10.7282163,5.03168825 Z" id="Path" fill="#AF7A56" fill-rule="nonzero"></path>
            <path d="M7.3408409,12.3655606 C7.18479435,12.4190922 7.02792282,12.4223198 6.82418011,12.4269819 C6.77730881,12.4284164 6.77515537,12.4241888 6.77451831,12.3715261 C6.77459932,11.9791701 6.77531661,11.6394766 6.77553729,11.2983764 C6.77503989,11.2969694 6.77645017,11.2961591 6.77645017,11.2961591 C6.93167864,11.2970798 7.08690621,11.2980005 7.28829989,11.3046523 C7.33631593,11.6453423 7.33816678,11.9803045 7.3408409,12.3655606 Z" id="Path" fill="#C3C3C3" fill-rule="nonzero"></path>
            <path d="M7.90645232,9.59702305 C7.90520316,9.93926475 7.90395401,10.2815066 7.90155661,10.6748557 C7.55878294,10.7273045 7.21715684,10.7286459 6.82484644,10.7308253 C6.77416226,10.7316667 6.77276226,10.7342529 6.77326395,10.6826041 C6.7765235,10.2897514 6.77928215,9.94854768 6.83285254,9.60506802 C7.22476034,9.60107492 7.56585718,9.59934723 7.90625062,9.59844034 C7.90554893,9.59925763 7.90645232,9.59702305 7.90645232,9.59702305 Z" id="Path" fill="#9B6A4A" fill-rule="nonzero"></path>
            <path d="M6.77353469,10.7310011 C6.77341311,10.8873856 6.77391921,11.0444391 6.77543819,11.2488241 C6.77645017,11.2961591 6.77503989,11.2969694 6.72919458,11.2966936 C6.52877254,11.2978936 6.37419582,11.2993729 6.21582418,11.2537518 C6.21069921,11.049584 6.20936983,10.8925201 6.25507718,10.7334563 C6.45899763,10.7323873 6.61587944,10.7333184 6.77276226,10.7342529 C6.77276226,10.7342529 6.77416226,10.7316667 6.77353469,10.7310011 Z" id="Path" fill="#666666" fill-rule="nonzero"></path>
            <path d="M8.47261898,9.02860994 C8.4724052,9.1812461 8.47219051,9.33387876 8.47525514,9.53163277 C8.31955345,9.5841609 8.16057322,9.59156791 7.95402362,9.59799898 C7.90645322,9.59702305 7.90554893,9.59925763 7.9052765,9.55212599 C7.90197989,9.35044452 7.89895571,9.19589458 7.9442304,9.03917209 C8.15347141,9.03559616 8.31441198,9.03419616 8.47301209,9.03314102 C8.47066983,9.03348927 8.47261898,9.02860994 8.47261898,9.02860994 Z" id="Path" fill="#EBA069" fill-rule="nonzero"></path>
            <path d="M3.94959661,10.1653225 C3.79255695,10.1651432 3.63551729,10.1649638 3.43137367,10.1648534 C3.38431446,10.0077586 3.38435853,9.8505948 3.38430068,9.64617537 C3.38419819,9.59892316 3.38323605,9.59975412 3.42945808,9.59977831 C3.94385006,9.52836023 3.98072712,9.81834621 3.94959661,10.1653225 Z" id="Path" fill="#9B6A4A" fill-rule="nonzero"></path>
            <path d="M3.33818384,10.1643638 C3.40809322,10.4974916 3.39874056,10.8041364 2.87650542,10.7223321 C2.8274765,10.5658303 2.82422904,10.413201 2.82210147,10.2145609 C2.97925921,10.167219 3.13529706,10.1658949 3.33818384,10.1643638 Z" id="Path" fill="#9B6A4A" fill-rule="nonzero"></path>
            <path d="M3.94949661,10.1650466 C3.98072712,9.81834621 3.94385006,9.52836023 3.42827706,9.59920237 C3.38225243,9.44324893 3.38363266,9.28789559 3.3871939,9.08617266 C3.74359345,9.07074836 4.02087322,9.01235458 3.95865186,8.50597311 C4.11563638,8.46276576 4.26759921,8.46746927 4.46528508,8.47321763 C4.51100972,8.47426237 4.51173819,8.47090034 4.51192701,8.51886294 C4.43848734,9.04254113 4.73746395,9.06557243 5.12766655,9.03464102 C5.33130497,9.0346652 5.4879765,9.03488237 5.64425751,9.08210011 C5.64404034,9.28579548 5.64421277,9.4424904 5.64469638,9.6466409 C5.52239073,9.90049887 5.39977209,10.106908 5.27715266,10.3133172 C5.22135887,10.2894997 5.1655652,10.2656821 5.10977232,10.2418681 C5.09942305,10.404901 5.0890739,10.5679304 5.07898836,10.7304322 C5.07925299,10.7298976 5.07999356,10.7294667 5.07999356,10.7294667 C4.92345051,10.7293942 4.76690825,10.7293218 4.5624861,10.6812592 C4.5845278,10.1649949 4.29068915,10.1358566 3.94887424,10.1646328 C3.94887424,10.1646328 3.94939571,10.1647707 3.94949661,10.1650466 Z" id="Path" fill="#AB7653" fill-rule="nonzero"></path>
            <path d="M9.03290441,8.98955085 C8.87678294,9.0356548 8.72125356,9.03437898 8.51917209,9.03085819 C8.47261898,9.02860994 8.47066983,9.03348927 8.47074136,8.98444734 C8.52409627,8.5646496 8.35558667,8.44915695 7.99600508,8.46363469 C7.40189424,8.4875591 6.8061652,8.47128655 6.21056893,8.42582056 C6.20692407,8.22646316 6.20382757,8.07323559 6.20073175,7.92001153 C7.10766158,7.91554938 8.01459062,7.91108723 8.97360723,7.90907684 C9.02851729,8.06615797 9.03134147,8.22078723 9.0342113,8.42191706 C9.03400362,8.62633311 9.03375096,8.78425209 9.03290441,8.98955085 Z" id="Path" fill="#AF7A56" fill-rule="nonzero"></path>
            <path d="M4.51573559,3.95732463 C4.51527955,3.79791605 4.5148235,3.63850565 4.51437616,3.43120328 C5.10896463,3.38395107 5.70413582,3.40081164 6.29790362,3.37916825 C6.65619627,3.3661078 6.8280904,3.48064181 6.77455537,3.90109469 C6.77511232,3.94922113 6.7764278,3.94790215 6.72328407,3.94872972 C5.95200497,3.95214531 5.23387028,3.95473492 4.51573559,3.95732463 Z" id="Path" fill="#82593E" fill-rule="nonzero"></path>
            <path d="M7.29881119,3.95082972 C7.36013684,4.28404723 7.3607661,4.60605424 6.82477492,4.51384633 C6.77830113,4.51361356 6.78059593,4.51114802 6.77827785,4.46433718 C6.77611661,4.26098486 6.77627175,4.1044435 6.7764278,3.94790215 C6.7764278,3.94790215 6.77511232,3.94922113 6.77447955,3.9498504 C6.93288294,3.95047627 7.09192011,3.95047288 7.29881119,3.95082972 Z" id="Path" fill="#82593E" fill-rule="nonzero"></path>
            <path d="M6.77738215,4.51285153 C6.7757313,4.66994282 6.77499932,4.82779808 6.77437955,5.03271751 C6.77449153,5.07978362 6.77417955,5.08009051 6.7211539,5.08018362 C6.13739322,5.07905605 5.60665797,5.07783706 5.07715729,5.07784904 C5.07839096,5.07908181 5.08082983,5.08152158 5.08014362,5.03427966 C5.07792893,4.83028949 5.07640124,4.67354294 5.12796565,4.51619119 C5.71423672,4.51410836 6.24741684,4.51262904 6.78059593,4.51114802 C6.78059593,4.51114802 6.77830113,4.51361356 6.77738215,4.51285153 Z" id="Path" fill="#EFB385" fill-rule="nonzero"></path>
            <path d="M8.46907661,5.07993706 C8.46893955,4.92232328 8.46895853,4.76486113 8.46796373,4.55974508 C8.46694994,4.51208938 8.46511277,4.51360946 8.51556768,4.51360946 C8.90454531,4.51685322 9.24306972,4.52008599 9.58159322,4.52332056 C9.58159322,4.52332056 9.59297096,4.51910667 9.59627277,4.56382102 C9.59831582,4.76547492 9.59705718,4.92241288 9.54470667,5.07957153 C9.15245921,5.08019571 8.81130282,5.08060079 8.47014565,5.0810078 C8.47014565,5.0810078 8.46923266,5.08009051 8.46907661,5.07993706 Z" id="Path" fill="#EFB385" fill-rule="nonzero"></path>
            <path d="M5.08088588,5.64345537 C5.10210158,5.97941424 5.10223955,6.29784362 4.56417921,6.20531322 C4.51618994,6.04864429 4.5154296,5.89458915 4.56184734,5.69287141 C4.76631254,5.64462429 4.92359966,5.64403977 5.08088588,5.64345537 Z" id="Path" fill="#9B6A4A" fill-rule="nonzero"></path>
            <path d="M5.07972633,5.64460712 C4.92359966,5.64403977 4.76631254,5.64462429 4.56212407,5.64655537 C4.51494169,5.48965186 4.51466147,5.33140701 4.5615948,5.12653751 C4.76614791,5.08044915 4.92348927,5.08098531 5.08082983,5.08152158 C5.08082983,5.08152158 5.07839096,5.07908181 5.07833153,5.12548757 C5.07763751,5.33058113 5.07700305,5.48926915 5.07636859,5.64795706 C5.07636859,5.64795706 5.07856599,5.64576056 5.07972633,5.64460712 Z" id="Path" fill="#EFB385" fill-rule="nonzero"></path>
            <path d="M5.08014362,5.03427797 C4.92348927,5.08098531 4.76614791,5.08044915 4.56182237,5.07924734 C4.51468305,4.92174565 4.5145287,4.76490938 4.51438241,4.56067616 C4.51440282,4.51327729 4.51267006,4.51618768 4.55826023,4.51581017 C4.76085819,4.51588768 4.91786678,4.51634294 5.07487458,4.51679638 C5.07640124,4.67354294 5.07792893,4.83028949 5.08014362,5.03427797 Z" id="Path" fill="#AF7A56" fill-rule="nonzero"></path>
            <path d="M5.12934757,5.64695887 C5.07700305,5.48926915 5.07763751,5.33058113 5.07709695,5.1242565 C5.60665797,5.07783706 6.13739322,5.07905605 6.72069785,5.08064226 C6.76568203,5.24433028 6.7580974,5.40765096 6.74703006,5.64596226 C6.20728531,5.64596226 5.69480554,5.64596226 5.12934757,5.64695887 Z" id="Path" fill="#AF7A56" fill-rule="nonzero"></path>
            <path d="M8.46982407,5.12956 C8.81130282,5.08060079 9.15245921,5.08019571 9.59241751,5.07986983 C9.84890825,5.08004395 10.0065945,5.08013537 10.1642825,5.08022847 C10.1642825,5.08022847 10.1640548,5.08000079 10.1637238,5.07966802 C10.1637635,5.23678701 10.1641376,5.39423876 10.1648652,5.59891345 C10.006922,5.64579672 9.84862554,5.64545706 9.64277842,5.64524847 C9.37423232,5.64520881 9.15149718,5.62734305 8.93263525,5.64886395 C8.56918124,5.68460746 8.41663469,5.53903175 8.46982407,5.12956 Z" id="Path" fill="#AF7A56" fill-rule="nonzero"></path>
            <path d="M6.76855616,6.76223141 C6.83323616,7.18319299 6.69914938,7.40030407 6.22830102,7.34586723 C5.93263831,7.31168237 5.6270487,7.35945017 5.33273254,7.31981006 C5.23990994,7.30730994 5.12399232,7.13826147 5.1052835,7.02637751 C5.09403774,6.95912847 5.24211514,6.80470429 5.33251277,6.7924904 C5.59012768,6.75768316 5.85487537,6.77566949 6.21472847,6.77361266 C6.46461232,6.77030746 6.61658384,6.76626949 6.76855616,6.76223141 Z" id="Path" fill="#F09F84" fill-rule="nonzero"></path>
            <path d="M6.77106994,6.71386373 C6.61658384,6.76626949 6.46461232,6.77030746 6.26700497,6.77222463 C6.22136915,6.60370384 6.22136915,6.43730542 6.22136915,6.23585672 C6.39194599,6.22774452 6.55171412,6.22014441 6.77358384,6.20959266 C6.77358384,6.38111864 6.77358384,6.52330814 6.77106994,6.71386373 Z" id="Path" fill="#000000" fill-rule="nonzero"></path>
            <path d="M9.02737333,6.72154994 C8.86984486,6.77119017 8.71765096,6.77227299 8.52015311,6.76778847 C8.47484994,6.59621932 8.47484994,6.4302174 8.47484994,6.23762565 C8.65754339,6.23762565 8.81766757,6.23762565 9.0327061,6.23762565 C9.0327061,6.38656701 9.0327061,6.52977887 9.02737333,6.72154994 Z" id="Path" fill="#000000" fill-rule="nonzero"></path>
            <path d="M5.64464723,9.03510305 C5.4879765,9.03488237 5.33130497,9.0346652 5.12716475,8.98808192 C5.08378237,8.78691073 5.0878678,8.63210215 5.09195401,8.47729695 C5.2455652,8.47488316 5.39917559,8.47247277 5.59862689,8.47003987 C5.64446701,8.47002441 5.64389028,8.46944169 5.64408169,8.51660768 C5.64455932,8.72110994 5.64484554,8.87843932 5.64472734,9.03532723 C5.64432475,9.03488237 5.64464723,9.03510305 5.64464723,9.03510305 Z" id="Path" fill="#82593E" fill-rule="nonzero"></path>
            <path d="M5.04347932,8.47499345 C5.0878678,8.63210215 5.08378237,8.78691073 5.08019785,8.98827503 C4.73746395,9.06557243 4.43848734,9.04254113 4.51106147,8.51979401 C4.67167266,8.47274169 4.8333391,8.47271763 5.04347932,8.47499345 Z" id="Path" fill="#EBA069" fill-rule="nonzero"></path>
            <path d="M6.15393559,7.91439243 C6.20382757,8.07323559 6.20692407,8.22646316 6.20975864,8.42498599 C6.2094974,8.47028305 6.21021379,8.47067966 6.16295209,8.47029684 C5.95842395,8.46975898 5.80115751,8.46960034 5.64389028,8.46944169 C5.64389028,8.46944169 5.64446701,8.47002441 5.64501017,8.47056927 C5.62546249,8.14088113 5.60567356,7.8108965 6.15393559,7.91439243 Z" id="Path" fill="#82593E" fill-rule="nonzero"></path>
            <path d="M5.12796655,4.51619119 C4.91786678,4.51634294 4.76085819,4.51588768 4.55654983,4.51583085 C4.51108644,4.36088429 4.51292271,4.20553944 4.51524768,4.00375966 C5.23387028,3.95473492 5.95200497,3.95214531 6.72328407,3.94872972 C6.77627175,4.1044435 6.77611661,4.26098486 6.77827785,4.46433718 C6.24741684,4.51262904 5.71423672,4.51410836 5.12796655,4.51619119 Z" id="Path" fill="#EBA069" fill-rule="nonzero"></path>
            <path d="M9.58752429,4.47578215 C9.24306972,4.52008599 8.90454531,4.51685322 8.51441944,4.51238418 C8.46475164,4.35475322 8.46668441,4.19836011 8.46780169,3.99493367 C8.81010113,3.94875209 9.15321785,3.94960384 9.54766181,3.95098836 C9.59714689,4.11042802 9.59530034,4.26933672 9.58752429,4.47578215 Z" id="Path" fill="#EBA069" fill-rule="nonzero"></path>
            <path d="M6.21961989,11.3008557 C6.37419582,11.2993729 6.52877254,11.2978936 6.72969107,11.2980971 C6.77531661,11.6394766 6.77459932,11.9791701 6.77308294,12.369671 C6.61240362,12.4223542 6.45252249,12.4242336 6.24433571,12.4272268 C6.19603006,12.4283371 6.20404305,12.425444 6.20590429,12.377602 C6.21171638,11.9867908 6.21566814,11.6438216 6.21961989,11.3008557 Z" id="Path" fill="#7F7F7F" fill-rule="nonzero"></path>
            <path d="M6.21582418,11.2537518 C6.21566814,11.6438216 6.21171638,11.9867908 6.20735424,12.3816055 C6.05123356,12.4308785 5.89552328,12.4283026 5.69322621,12.4295888 C5.64535932,12.0894093 5.6440774,11.7453675 5.64309458,11.3030937 C5.64570667,11.0492253 5.64801797,10.8935892 5.69665469,10.7354287 C5.89801209,10.7310667 6.05304395,10.7292287 6.20788701,10.7293748 C6.2076991,10.7313769 6.20803966,10.7354564 6.20804045,10.7354564 C6.20936983,10.8925201 6.21069921,11.049584 6.21582418,11.2537518 Z" id="Path" fill="#304050" fill-rule="nonzero"></path>
            <path d="M5.65032915,10.7379529 C5.64801797,10.8935892 5.64570667,11.0492253 5.64048678,11.2519 C5.48254893,11.2975349 5.32751785,11.2961246 5.12563028,11.2947487 C5.07899706,11.1377642 5.07922282,10.9807418 5.07972113,10.7765947 C5.07999356,10.7294667 5.07925299,10.7298976 5.12656655,10.7300045 C5.33269718,10.7327218 5.49151277,10.7353391 5.65032915,10.7379529 Z" id="Path" fill="#666666" fill-rule="nonzero"></path>
            <path d="M3.94905525,10.2119885 C4.29068915,10.1358566 4.5845278,10.1649949 4.51554079,10.6799488 C4.35997876,10.7280597 4.20348045,10.7294838 4.00026441,10.7323322 C3.9521096,10.5756166 3.95067333,10.4174805 3.94905525,10.2119885 Z" id="Path" fill="#9B6A4A" fill-rule="nonzero"></path>
            <path d="M10.1641928,5.03311412 C10.0065945,5.08013537 9.84890825,5.08004395 9.64350949,5.07965254 C9.59705718,4.92241288 9.59831582,4.76547492 9.60179695,4.56130893 C9.75942972,4.51440147 9.9148435,4.51471706 10.1172577,4.51495322 C10.1642049,4.67191706 10.1641531,4.82895842 10.1641928,5.03311412 Z" id="Path" fill="#9B6A4A" fill-rule="nonzero"></path>
            <path d="M7.89593153,9.04134452 C7.89895571,9.19589458 7.90197989,9.35044452 7.9059791,9.55130881 C7.56585718,9.59934723 7.22476034,9.60107492 6.82885774,9.60116452 C6.77405017,9.59953006 6.76627684,9.59181616 6.76920362,9.54616045 C6.77566915,9.34742723 6.77920893,9.19435311 6.83336554,9.03916181 C7.22129819,9.03847898 7.55861492,9.03991006 7.89593153,9.04134452 Z" id="Path" fill="#AF7A56" fill-rule="nonzero"></path>
            <path d="M6.77326395,10.6826041 C6.61587944,10.7333184 6.45899763,10.7323873 6.25507718,10.7334563 C6.20803966,10.7354564 6.2076991,10.7313769 6.20834565,10.6785488 C6.20954746,10.2864032 6.2101035,9.94708215 6.2073939,9.60020588 C6.20412927,9.59265412 6.19991977,9.57675051 6.24697198,9.58443333 C6.45144237,9.59201616 6.60885955,9.59191616 6.76627684,9.59181616 C6.76627684,9.59181616 6.77405017,9.59953006 6.77804508,9.60343356 C6.77928215,9.94854768 6.7765235,10.2897514 6.77326395,10.6826041 Z" id="Path" fill="#AF7A56" fill-rule="nonzero"></path>
            <path d="M7.9442304,9.03917209 C7.55861492,9.03991006 7.22129819,9.03847898 6.78545209,9.03699277 C6.52793367,9.03645831 6.36894316,9.03597898 6.20962847,9.03517898 C6.2093026,9.03486169 6.20902158,9.03457898 6.20913876,8.98757503 C6.20957503,8.78394169 6.20989401,8.62730893 6.21021379,8.47067966 C6.21021379,8.47067966 6.2094974,8.47028305 6.2103078,8.47111751 C6.8061652,8.47128655 7.40189424,8.4875591 7.99600508,8.46363469 C8.35558667,8.44915695 8.52409627,8.5646496 8.47308271,8.98409559 C8.31441198,9.03419616 8.15347141,9.03559616 7.9442304,9.03917209 Z" id="Path" fill="#EFB385" fill-rule="nonzero"></path>
            <path d="M6.21065955,9.60776113 C6.2101035,9.94708215 6.20954746,10.2864032 6.20853356,10.6765557 C6.05304395,10.7292287 5.89801209,10.7310667 5.69665469,10.7354287 C5.49151277,10.7353391 5.33269718,10.7327218 5.12630271,10.7305356 C5.0890739,10.5679304 5.09942305,10.404901 5.10977232,10.2418681 C5.1655652,10.2656821 5.22135887,10.2894997 5.27715266,10.3133172 C5.39977209,10.106908 5.52239073,9.90049887 5.69177277,9.64691672 C5.89591028,9.60241627 6.05328452,9.6050887 6.21065955,9.60776113 Z" id="Path" fill="#82593E" fill-rule="nonzero"></path>
            <path d="M6.2073939,9.60020588 C6.05328452,9.6050887 5.89591028,9.60241627 5.69146068,9.59946791 C5.64421277,9.4424904 5.64404034,9.28579548 5.64425751,9.08210011 C5.64464723,9.03510305 5.64432475,9.03488237 5.69161582,9.03489616 C5.89561209,9.03479616 6.05231729,9.03468927 6.20902158,9.03457898 C6.20902158,9.03457898 6.2093026,9.03486169 6.2094026,9.08058983 C6.20630859,9.2764609 6.20311458,9.42660746 6.19991977,9.57675051 C6.19991977,9.57675051 6.20412927,9.59265412 6.2073939,9.60020588 Z" id="Path" fill="#EFB385" fill-rule="nonzero"></path>
            <path d="M6.20913876,8.98757503 C6.05231729,9.03468927 5.89561209,9.03479616 5.69201932,9.03533763 C5.64484554,8.87843932 5.64455932,8.72110994 5.64408169,8.51660768 C5.80115751,8.46960034 5.95842395,8.46975898 6.16295209,8.47029684 C6.20989401,8.62730893 6.20957503,8.78394169 6.20913876,8.98757503 Z" id="Path" fill="#AF7A56" fill-rule="nonzero"></path>
            <path d="M6.24697198,9.58443333 C6.20311458,9.42660746 6.20630859,9.2764609 6.20972847,9.08091051 C6.36894316,9.03597898 6.52793367,9.03645831 6.73483593,9.03911006 C6.77920893,9.19435311 6.77566915,9.34742723 6.76920362,9.54616045 C6.60885955,9.59191616 6.45144237,9.59201616 6.24697198,9.58443333 Z" id="Path" fill="#EBA069" fill-rule="nonzero"></path>
        </g>
    </g>
</svg>
